<?xml version="1.0" encoding="utf-8" standalone="no"?>
<!DOCTYPE svg PUBLIC "-//W3C//DTD SVG 1.1//EN"
  "http://www.w3.org/Graphics/SVG/1.1/DTD/svg11.dtd">
<svg xmlns:xlink="http://www.w3.org/1999/xlink" width="777.6pt" height="295.2pt" viewBox="0 0 777.6 295.2" xmlns="http://www.w3.org/2000/svg" version="1.1">
 <metadata>
  <rdf:RDF xmlns:dc="http://purl.org/dc/elements/1.1/" xmlns:cc="http://creativecommons.org/ns#" xmlns:rdf="http://www.w3.org/1999/02/22-rdf-syntax-ns#">
   <cc:Work>
    <dc:type rdf:resource="http://purl.org/dc/dcmitype/StillImage"/>
    <dc:date>2026-10-07T00:22:21.657127</dc:date>
    <dc:format>image/svg+xml</dc:format>
    <dc:creator>
     <cc:Agent>
      <dc:title>Matplotlib v3.11.2, https://matplotlib.org/</dc:title>
     </cc:Agent>
    </dc:creator>
   </cc:Work>
  </rdf:RDF>
 </metadata>
 <defs>
  <style type="text/css">*{stroke-linejoin: round; stroke-linecap: butt}</style>
 </defs>
 <g id="figure_1">
  <g id="patch_1">
   <path d="M 0 295.2 
L 777.6 295.2 
L 777.6 0 
L 0 0 
z
" style="fill: #ffffff"/>
  </g>
  <g id="axes_1">
   <g id="patch_2">
    <path d="M 112.66 232.413656 
L 389.655 232.413656 
L 389.655 66.914813 
L 112.66 66.914813 
z
" style="fill: #ffffff"/>
   </g>
   <g id="matplotlib.axis_1">
    <g id="xtick_1">
     <g id="line2d_1">
      <path d="M 112.66 232.413656 
L 112.66 66.914813 
" clip-path="url(#p627e2644e6)" style="fill: none; stroke: #b0b0b0; stroke-opacity: 0.2; stroke-width: 0.8; stroke-linecap: square"/>
     </g>
     <g id="line2d_2">
      <defs>
       <path id="m1eff8f8d71" d="M 0 0 
L 0 3.5 
" style="stroke: #000000; stroke-width: 0.8"/>
      </defs>
      <g>
       <use xlink:href="#m1eff8f8d71" x="112.66" y="232.413656" style="stroke: #000000; stroke-width: 0.8"/>
      </g>
     </g>
     <g id="text_1">
      <!-- 0 -->
      <g transform="translate(109.47875 247.011312) scale(0.1 -0.1)">
       <defs>
        <path id="DejaVuSans-13" d="M 2034 4250 
Q 1547 4250 1301 3770 
Q 1056 3291 1056 2328 
Q 1056 1369 1301 889 
Q 1547 409 2034 409 
Q 2525 409 2770 889 
Q 3016 1369 3016 2328 
Q 3016 3291 2770 3770 
Q 2525 4250 2034 4250 
z
M 2034 4750 
Q 2819 4750 3233 4129 
Q 3647 3509 3647 2328 
Q 3647 1150 3233 529 
Q 2819 -91 2034 -91 
Q 1250 -91 836 529 
Q 422 1150 422 2328 
Q 422 3509 836 4129 
Q 1250 4750 2034 4750 
z
" transform="scale(0.015625)"/>
       </defs>
       <use xlink:href="#DejaVuSans-13"/>
      </g>
     </g>
    </g>
    <g id="xtick_2">
     <g id="line2d_3">
      <path d="M 155.274615 232.413656 
L 155.274615 66.914813 
" clip-path="url(#p627e2644e6)" style="fill: none; stroke: #b0b0b0; stroke-opacity: 0.2; stroke-width: 0.8; stroke-linecap: square"/>
     </g>
     <g id="line2d_4">
      <g>
       <use xlink:href="#m1eff8f8d71" x="155.274615" y="232.413656" style="stroke: #000000; stroke-width: 0.8"/>
      </g>
     </g>
     <g id="text_2">
      <!-- 10 -->
      <g transform="translate(148.912115 247.011312) scale(0.1 -0.1)">
       <defs>
        <path id="DejaVuSans-14" d="M 794 531 
L 1825 531 
L 1825 4091 
L 703 3866 
L 703 4441 
L 1819 4666 
L 2450 4666 
L 2450 531 
L 3481 531 
L 3481 0 
L 794 0 
L 794 531 
z
" transform="scale(0.015625)"/>
       </defs>
       <use xlink:href="#DejaVuSans-14"/>
       <use xlink:href="#DejaVuSans-13" transform="translate(63.625 0)"/>
      </g>
     </g>
    </g>
    <g id="xtick_3">
     <g id="line2d_5">
      <path d="M 197.889231 232.413656 
L 197.889231 66.914813 
" clip-path="url(#p627e2644e6)" style="fill: none; stroke: #b0b0b0; stroke-opacity: 0.2; stroke-width: 0.8; stroke-linecap: square"/>
     </g>
     <g id="line2d_6">
      <g>
       <use xlink:href="#m1eff8f8d71" x="197.889231" y="232.413656" style="stroke: #000000; stroke-width: 0.8"/>
      </g>
     </g>
     <g id="text_3">
      <!-- 20 -->
      <g transform="translate(191.526731 247.011312) scale(0.1 -0.1)">
       <defs>
        <path id="DejaVuSans-15" d="M 1228 531 
L 3431 531 
L 3431 0 
L 469 0 
L 469 531 
Q 828 903 1448 1529 
Q 2069 2156 2228 2338 
Q 2531 2678 2651 2914 
Q 2772 3150 2772 3378 
Q 2772 3750 2511 3984 
Q 2250 4219 1831 4219 
Q 1534 4219 1204 4116 
Q 875 4013 500 3803 
L 500 4441 
Q 881 4594 1212 4672 
Q 1544 4750 1819 4750 
Q 2544 4750 2975 4387 
Q 3406 4025 3406 3419 
Q 3406 3131 3298 2873 
Q 3191 2616 2906 2266 
Q 2828 2175 2409 1742 
Q 1991 1309 1228 531 
z
" transform="scale(0.015625)"/>
       </defs>
       <use xlink:href="#DejaVuSans-15"/>
       <use xlink:href="#DejaVuSans-13" transform="translate(63.625 0)"/>
      </g>
     </g>
    </g>
    <g id="xtick_4">
     <g id="line2d_7">
      <path d="M 240.503846 232.413656 
L 240.503846 66.914813 
" clip-path="url(#p627e2644e6)" style="fill: none; stroke: #b0b0b0; stroke-opacity: 0.2; stroke-width: 0.8; stroke-linecap: square"/>
     </g>
     <g id="line2d_8">
      <g>
       <use xlink:href="#m1eff8f8d71" x="240.503846" y="232.413656" style="stroke: #000000; stroke-width: 0.8"/>
      </g>
     </g>
     <g id="text_4">
      <!-- 30 -->
      <g transform="translate(234.141346 247.011312) scale(0.1 -0.1)">
       <defs>
        <path id="DejaVuSans-16" d="M 2597 2516 
Q 3050 2419 3304 2112 
Q 3559 1806 3559 1356 
Q 3559 666 3084 287 
Q 2609 -91 1734 -91 
Q 1441 -91 1130 -33 
Q 819 25 488 141 
L 488 750 
Q 750 597 1062 519 
Q 1375 441 1716 441 
Q 2309 441 2620 675 
Q 2931 909 2931 1356 
Q 2931 1769 2642 2001 
Q 2353 2234 1838 2234 
L 1294 2234 
L 1294 2753 
L 1863 2753 
Q 2328 2753 2575 2939 
Q 2822 3125 2822 3475 
Q 2822 3834 2567 4026 
Q 2313 4219 1838 4219 
Q 1578 4219 1281 4162 
Q 984 4106 628 3988 
L 628 4550 
Q 988 4650 1302 4700 
Q 1616 4750 1894 4750 
Q 2613 4750 3031 4423 
Q 3450 4097 3450 3541 
Q 3450 3153 3228 2886 
Q 3006 2619 2597 2516 
z
" transform="scale(0.015625)"/>
       </defs>
       <use xlink:href="#DejaVuSans-16"/>
       <use xlink:href="#DejaVuSans-13" transform="translate(63.625 0)"/>
      </g>
     </g>
    </g>
    <g id="xtick_5">
     <g id="line2d_9">
      <path d="M 283.118462 232.413656 
L 283.118462 66.914813 
" clip-path="url(#p627e2644e6)" style="fill: none; stroke: #b0b0b0; stroke-opacity: 0.2; stroke-width: 0.8; stroke-linecap: square"/>
     </g>
     <g id="line2d_10">
      <g>
       <use xlink:href="#m1eff8f8d71" x="283.118462" y="232.413656" style="stroke: #000000; stroke-width: 0.8"/>
      </g>
     </g>
     <g id="text_5">
      <!-- 40 -->
      <g transform="translate(276.755962 247.011312) scale(0.1 -0.1)">
       <defs>
        <path id="DejaVuSans-17" d="M 2419 4116 
L 825 1625 
L 2419 1625 
L 2419 4116 
z
M 2253 4666 
L 3047 4666 
L 3047 1625 
L 3713 1625 
L 3713 1100 
L 3047 1100 
L 3047 0 
L 2419 0 
L 2419 1100 
L 313 1100 
L 313 1709 
L 2253 4666 
z
" transform="scale(0.015625)"/>
       </defs>
       <use xlink:href="#DejaVuSans-17"/>
       <use xlink:href="#DejaVuSans-13" transform="translate(63.625 0)"/>
      </g>
     </g>
    </g>
    <g id="xtick_6">
     <g id="line2d_11">
      <path d="M 325.733077 232.413656 
L 325.733077 66.914813 
" clip-path="url(#p627e2644e6)" style="fill: none; stroke: #b0b0b0; stroke-opacity: 0.2; stroke-width: 0.8; stroke-linecap: square"/>
     </g>
     <g id="line2d_12">
      <g>
       <use xlink:href="#m1eff8f8d71" x="325.733077" y="232.413656" style="stroke: #000000; stroke-width: 0.8"/>
      </g>
     </g>
     <g id="text_6">
      <!-- 50 -->
      <g transform="translate(319.370577 247.011312) scale(0.1 -0.1)">
       <defs>
        <path id="DejaVuSans-18" d="M 691 4666 
L 3169 4666 
L 3169 4134 
L 1269 4134 
L 1269 2991 
Q 1406 3038 1543 3061 
Q 1681 3084 1819 3084 
Q 2600 3084 3056 2656 
Q 3513 2228 3513 1497 
Q 3513 744 3044 326 
Q 2575 -91 1722 -91 
Q 1428 -91 1123 -41 
Q 819 9 494 109 
L 494 744 
Q 775 591 1075 516 
Q 1375 441 1709 441 
Q 2250 441 2565 725 
Q 2881 1009 2881 1497 
Q 2881 1984 2565 2268 
Q 2250 2553 1709 2553 
Q 1456 2553 1204 2497 
Q 953 2441 691 2322 
L 691 4666 
z
" transform="scale(0.015625)"/>
       </defs>
       <use xlink:href="#DejaVuSans-18"/>
       <use xlink:href="#DejaVuSans-13" transform="translate(63.625 0)"/>
      </g>
     </g>
    </g>
    <g id="xtick_7">
     <g id="line2d_13">
      <path d="M 368.347692 232.413656 
L 368.347692 66.914813 
" clip-path="url(#p627e2644e6)" style="fill: none; stroke: #b0b0b0; stroke-opacity: 0.2; stroke-width: 0.8; stroke-linecap: square"/>
     </g>
     <g id="line2d_14">
      <g>
       <use xlink:href="#m1eff8f8d71" x="368.347692" y="232.413656" style="stroke: #000000; stroke-width: 0.8"/>
      </g>
     </g>
     <g id="text_7">
      <!-- 60 -->
      <g transform="translate(361.985192 247.011312) scale(0.1 -0.1)">
       <defs>
        <path id="DejaVuSans-19" d="M 2113 2584 
Q 1688 2584 1439 2293 
Q 1191 2003 1191 1497 
Q 1191 994 1439 701 
Q 1688 409 2113 409 
Q 2538 409 2786 701 
Q 3034 994 3034 1497 
Q 3034 2003 2786 2293 
Q 2538 2584 2113 2584 
z
M 3366 4563 
L 3366 3988 
Q 3128 4100 2886 4159 
Q 2644 4219 2406 4219 
Q 1781 4219 1451 3797 
Q 1122 3375 1075 2522 
Q 1259 2794 1537 2939 
Q 1816 3084 2150 3084 
Q 2853 3084 3261 2657 
Q 3669 2231 3669 1497 
Q 3669 778 3244 343 
Q 2819 -91 2113 -91 
Q 1303 -91 875 529 
Q 447 1150 447 2328 
Q 447 3434 972 4092 
Q 1497 4750 2381 4750 
Q 2619 4750 2861 4703 
Q 3103 4656 3366 4563 
z
" transform="scale(0.015625)"/>
       </defs>
       <use xlink:href="#DejaVuSans-19"/>
       <use xlink:href="#DejaVuSans-13" transform="translate(63.625 0)"/>
      </g>
     </g>
    </g>
    <g id="text_8">
     <!-- Selected-continuation success (%) -->
     <g transform="translate(164.983281 261.012094) scale(0.1 -0.1)">
      <defs>
       <path id="DejaVuSans-36" d="M 3425 4513 
L 3425 3897 
Q 3066 4069 2747 4153 
Q 2428 4238 2131 4238 
Q 1616 4238 1336 4038 
Q 1056 3838 1056 3469 
Q 1056 3159 1242 3001 
Q 1428 2844 1947 2747 
L 2328 2669 
Q 3034 2534 3370 2195 
Q 3706 1856 3706 1288 
Q 3706 609 3251 259 
Q 2797 -91 1919 -91 
Q 1588 -91 1214 -16 
Q 841 59 441 206 
L 441 856 
Q 825 641 1194 531 
Q 1563 422 1919 422 
Q 2459 422 2753 634 
Q 3047 847 3047 1241 
Q 3047 1584 2836 1778 
Q 2625 1972 2144 2069 
L 1759 2144 
Q 1053 2284 737 2584 
Q 422 2884 422 3419 
Q 422 4038 858 4394 
Q 1294 4750 2059 4750 
Q 2388 4750 2728 4690 
Q 3069 4631 3425 4513 
z
" transform="scale(0.015625)"/>
       <path id="DejaVuSans-48" d="M 3597 1894 
L 3597 1613 
L 953 1613 
Q 991 1019 1311 708 
Q 1631 397 2203 397 
Q 2534 397 2845 478 
Q 3156 559 3463 722 
L 3463 178 
Q 3153 47 2828 -22 
Q 2503 -91 2169 -91 
Q 1331 -91 842 396 
Q 353 884 353 1716 
Q 353 2575 817 3079 
Q 1281 3584 2069 3584 
Q 2775 3584 3186 3129 
Q 3597 2675 3597 1894 
z
M 3022 2063 
Q 3016 2534 2758 2815 
Q 2500 3097 2075 3097 
Q 1594 3097 1305 2825 
Q 1016 2553 972 2059 
L 3022 2063 
z
" transform="scale(0.015625)"/>
       <path id="DejaVuSans-4f" d="M 603 4863 
L 1178 4863 
L 1178 0 
L 603 0 
L 603 4863 
z
" transform="scale(0.015625)"/>
       <path id="DejaVuSans-46" d="M 3122 3366 
L 3122 2828 
Q 2878 2963 2633 3030 
Q 2388 3097 2138 3097 
Q 1578 3097 1268 2742 
Q 959 2388 959 1747 
Q 959 1106 1268 751 
Q 1578 397 2138 397 
Q 2388 397 2633 464 
Q 2878 531 3122 666 
L 3122 134 
Q 2881 22 2623 -34 
Q 2366 -91 2075 -91 
Q 1284 -91 818 406 
Q 353 903 353 1747 
Q 353 2603 823 3093 
Q 1294 3584 2113 3584 
Q 2378 3584 2631 3529 
Q 2884 3475 3122 3366 
z
" transform="scale(0.015625)"/>
       <path id="DejaVuSans-57" d="M 1172 4494 
L 1172 3500 
L 2356 3500 
L 2356 3053 
L 1172 3053 
L 1172 1153 
Q 1172 725 1289 603 
Q 1406 481 1766 481 
L 2356 481 
L 2356 0 
L 1766 0 
Q 1100 0 847 248 
Q 594 497 594 1153 
L 594 3053 
L 172 3053 
L 172 3500 
L 594 3500 
L 594 4494 
L 1172 4494 
z
" transform="scale(0.015625)"/>
       <path id="DejaVuSans-47" d="M 2906 2969 
L 2906 4863 
L 3481 4863 
L 3481 0 
L 2906 0 
L 2906 525 
Q 2725 213 2448 61 
Q 2172 -91 1784 -91 
Q 1150 -91 751 415 
Q 353 922 353 1747 
Q 353 2572 751 3078 
Q 1150 3584 1784 3584 
Q 2172 3584 2448 3432 
Q 2725 3281 2906 2969 
z
M 947 1747 
Q 947 1113 1208 752 
Q 1469 391 1925 391 
Q 2381 391 2643 752 
Q 2906 1113 2906 1747 
Q 2906 2381 2643 2742 
Q 2381 3103 1925 3103 
Q 1469 3103 1208 2742 
Q 947 2381 947 1747 
z
" transform="scale(0.015625)"/>
       <path id="DejaVuSans-10" d="M 313 2009 
L 1997 2009 
L 1997 1497 
L 313 1497 
L 313 2009 
z
" transform="scale(0.015625)"/>
       <path id="DejaVuSans-52" d="M 1959 3097 
Q 1497 3097 1228 2736 
Q 959 2375 959 1747 
Q 959 1119 1226 758 
Q 1494 397 1959 397 
Q 2419 397 2687 759 
Q 2956 1122 2956 1747 
Q 2956 2369 2687 2733 
Q 2419 3097 1959 3097 
z
M 1959 3584 
Q 2709 3584 3137 3096 
Q 3566 2609 3566 1747 
Q 3566 888 3137 398 
Q 2709 -91 1959 -91 
Q 1206 -91 779 398 
Q 353 888 353 1747 
Q 353 2609 779 3096 
Q 1206 3584 1959 3584 
z
" transform="scale(0.015625)"/>
       <path id="DejaVuSans-51" d="M 3513 2113 
L 3513 0 
L 2938 0 
L 2938 2094 
Q 2938 2591 2744 2837 
Q 2550 3084 2163 3084 
Q 1697 3084 1428 2787 
Q 1159 2491 1159 1978 
L 1159 0 
L 581 0 
L 581 3500 
L 1159 3500 
L 1159 2956 
Q 1366 3272 1645 3428 
Q 1925 3584 2291 3584 
Q 2894 3584 3203 3211 
Q 3513 2838 3513 2113 
z
" transform="scale(0.015625)"/>
       <path id="DejaVuSans-4c" d="M 603 3500 
L 1178 3500 
L 1178 0 
L 603 0 
L 603 3500 
z
M 603 4863 
L 1178 4863 
L 1178 4134 
L 603 4134 
L 603 4863 
z
" transform="scale(0.015625)"/>
       <path id="DejaVuSans-58" d="M 544 1381 
L 544 3500 
L 1119 3500 
L 1119 1403 
Q 1119 906 1312 657 
Q 1506 409 1894 409 
Q 2359 409 2629 706 
Q 2900 1003 2900 1516 
L 2900 3500 
L 3475 3500 
L 3475 0 
L 2900 0 
L 2900 538 
Q 2691 219 2414 64 
Q 2138 -91 1772 -91 
Q 1169 -91 856 284 
Q 544 659 544 1381 
z
M 1991 3584 
L 1991 3584 
z
" transform="scale(0.015625)"/>
       <path id="DejaVuSans-44" d="M 2194 1759 
Q 1497 1759 1228 1600 
Q 959 1441 959 1056 
Q 959 750 1161 570 
Q 1363 391 1709 391 
Q 2188 391 2477 730 
Q 2766 1069 2766 1631 
L 2766 1759 
L 2194 1759 
z
M 3341 1997 
L 3341 0 
L 2766 0 
L 2766 531 
Q 2569 213 2275 61 
Q 1981 -91 1556 -91 
Q 1019 -91 701 211 
Q 384 513 384 1019 
Q 384 1609 779 1909 
Q 1175 2209 1959 2209 
L 2766 2209 
L 2766 2266 
Q 2766 2663 2505 2880 
Q 2244 3097 1772 3097 
Q 1472 3097 1187 3025 
Q 903 2953 641 2809 
L 641 3341 
Q 956 3463 1253 3523 
Q 1550 3584 1831 3584 
Q 2591 3584 2966 3190 
Q 3341 2797 3341 1997 
z
" transform="scale(0.015625)"/>
       <path id="DejaVuSans-3" transform="scale(0.015625)"/>
       <path id="DejaVuSans-56" d="M 2834 3397 
L 2834 2853 
Q 2591 2978 2328 3040 
Q 2066 3103 1784 3103 
Q 1356 3103 1142 2972 
Q 928 2841 928 2578 
Q 928 2378 1081 2264 
Q 1234 2150 1697 2047 
L 1894 2003 
Q 2506 1872 2764 1633 
Q 3022 1394 3022 966 
Q 3022 478 2636 193 
Q 2250 -91 1575 -91 
Q 1294 -91 989 -36 
Q 684 19 347 128 
L 347 722 
Q 666 556 975 473 
Q 1284 391 1588 391 
Q 1994 391 2212 530 
Q 2431 669 2431 922 
Q 2431 1156 2273 1281 
Q 2116 1406 1581 1522 
L 1381 1569 
Q 847 1681 609 1914 
Q 372 2147 372 2553 
Q 372 3047 722 3315 
Q 1072 3584 1716 3584 
Q 2034 3584 2315 3537 
Q 2597 3491 2834 3397 
z
" transform="scale(0.015625)"/>
       <path id="DejaVuSans-b" d="M 1984 4856 
Q 1566 4138 1362 3434 
Q 1159 2731 1159 2009 
Q 1159 1288 1364 580 
Q 1569 -128 1984 -844 
L 1484 -844 
Q 1016 -109 783 600 
Q 550 1309 550 2009 
Q 550 2706 781 3412 
Q 1013 4119 1484 4856 
L 1984 4856 
z
" transform="scale(0.015625)"/>
       <path id="DejaVuSans-8" d="M 4653 2053 
Q 4381 2053 4226 1822 
Q 4072 1591 4072 1178 
Q 4072 772 4226 539 
Q 4381 306 4653 306 
Q 4919 306 5073 539 
Q 5228 772 5228 1178 
Q 5228 1588 5073 1820 
Q 4919 2053 4653 2053 
z
M 4653 2450 
Q 5147 2450 5437 2106 
Q 5728 1763 5728 1178 
Q 5728 594 5436 251 
Q 5144 -91 4653 -91 
Q 4153 -91 3862 251 
Q 3572 594 3572 1178 
Q 3572 1766 3864 2108 
Q 4156 2450 4653 2450 
z
M 1428 4353 
Q 1159 4353 1004 4120 
Q 850 3888 850 3481 
Q 850 3069 1003 2837 
Q 1156 2606 1428 2606 
Q 1700 2606 1854 2837 
Q 2009 3069 2009 3481 
Q 2009 3884 1853 4118 
Q 1697 4353 1428 4353 
z
M 4250 4750 
L 4750 4750 
L 1831 -91 
L 1331 -91 
L 4250 4750 
z
M 1428 4750 
Q 1922 4750 2215 4408 
Q 2509 4066 2509 3481 
Q 2509 2891 2217 2550 
Q 1925 2209 1428 2209 
Q 931 2209 642 2551 
Q 353 2894 353 3481 
Q 353 4063 643 4406 
Q 934 4750 1428 4750 
z
" transform="scale(0.015625)"/>
       <path id="DejaVuSans-c" d="M 513 4856 
L 1013 4856 
Q 1481 4119 1714 3412 
Q 1947 2706 1947 2009 
Q 1947 1309 1714 600 
Q 1481 -109 1013 -844 
L 513 -844 
Q 928 -128 1133 580 
Q 1338 1288 1338 2009 
Q 1338 2731 1133 3434 
Q 928 4138 513 4856 
z
" transform="scale(0.015625)"/>
      </defs>
      <use xlink:href="#DejaVuSans-36"/>
      <use xlink:href="#DejaVuSans-48" transform="translate(63.484375 0)"/>
      <use xlink:href="#DejaVuSans-4f" transform="translate(125.015625 0)"/>
      <use xlink:href="#DejaVuSans-48" transform="translate(152.796875 0)"/>
      <use xlink:href="#DejaVuSans-46" transform="translate(214.328125 0)"/>
      <use xlink:href="#DejaVuSans-57" transform="translate(269.3125 0)"/>
      <use xlink:href="#DejaVuSans-48" transform="translate(308.515625 0)"/>
      <use xlink:href="#DejaVuSans-47" transform="translate(370.046875 0)"/>
      <use xlink:href="#DejaVuSans-10" transform="translate(433.53125 0)"/>
      <use xlink:href="#DejaVuSans-46" transform="translate(469.609375 0)"/>
      <use xlink:href="#DejaVuSans-52" transform="translate(524.59375 0)"/>
      <use xlink:href="#DejaVuSans-51" transform="translate(585.78125 0)"/>
      <use xlink:href="#DejaVuSans-57" transform="translate(649.15625 0)"/>
      <use xlink:href="#DejaVuSans-4c" transform="translate(688.359375 0)"/>
      <use xlink:href="#DejaVuSans-51" transform="translate(716.140625 0)"/>
      <use xlink:href="#DejaVuSans-58" transform="translate(779.515625 0)"/>
      <use xlink:href="#DejaVuSans-44" transform="translate(842.890625 0)"/>
      <use xlink:href="#DejaVuSans-57" transform="translate(904.171875 0)"/>
      <use xlink:href="#DejaVuSans-4c" transform="translate(943.375 0)"/>
      <use xlink:href="#DejaVuSans-52" transform="translate(971.15625 0)"/>
      <use xlink:href="#DejaVuSans-51" transform="translate(1032.34375 0)"/>
      <use xlink:href="#DejaVuSans-3" transform="translate(1095.71875 0)"/>
      <use xlink:href="#DejaVuSans-56" transform="translate(1127.5 0)"/>
      <use xlink:href="#DejaVuSans-58" transform="translate(1179.59375 0)"/>
      <use xlink:href="#DejaVuSans-46" transform="translate(1242.96875 0)"/>
      <use xlink:href="#DejaVuSans-46" transform="translate(1297.953125 0)"/>
      <use xlink:href="#DejaVuSans-48" transform="translate(1352.9375 0)"/>
      <use xlink:href="#DejaVuSans-56" transform="translate(1414.46875 0)"/>
      <use xlink:href="#DejaVuSans-56" transform="translate(1466.5625 0)"/>
      <use xlink:href="#DejaVuSans-3" transform="translate(1518.65625 0)"/>
      <use xlink:href="#DejaVuSans-b" transform="translate(1550.4375 0)"/>
      <use xlink:href="#DejaVuSans-8" transform="translate(1589.453125 0)"/>
      <use xlink:href="#DejaVuSans-c" transform="translate(1684.46875 0)"/>
     </g>
    </g>
   </g>
   <g id="matplotlib.axis_2">
    <g id="ytick_1">
     <g id="line2d_15">
      <defs>
       <path id="mca87a13468" d="M 0 0 
L -3.5 0 
" style="stroke: #000000; stroke-width: 0.8"/>
      </defs>
      <g>
       <use xlink:href="#mca87a13468" x="112.66" y="95.359926" style="stroke: #000000; stroke-width: 0.8"/>
      </g>
     </g>
     <g id="text_9">
      <!-- Uniform candidate -->
      <g transform="translate(13.09125 99.159145) scale(0.1 -0.1)">
       <defs>
        <path id="DejaVuSans-38" d="M 556 4666 
L 1191 4666 
L 1191 1831 
Q 1191 1081 1462 751 
Q 1734 422 2344 422 
Q 2950 422 3222 751 
Q 3494 1081 3494 1831 
L 3494 4666 
L 4128 4666 
L 4128 1753 
Q 4128 841 3676 375 
Q 3225 -91 2344 -91 
Q 1459 -91 1007 375 
Q 556 841 556 1753 
L 556 4666 
z
" transform="scale(0.015625)"/>
        <path id="DejaVuSans-49" d="M 2375 4863 
L 2375 4384 
L 1825 4384 
Q 1516 4384 1395 4259 
Q 1275 4134 1275 3809 
L 1275 3500 
L 2222 3500 
L 2222 3053 
L 1275 3053 
L 1275 0 
L 697 0 
L 697 3053 
L 147 3053 
L 147 3500 
L 697 3500 
L 697 3744 
Q 697 4328 969 4595 
Q 1241 4863 1831 4863 
L 2375 4863 
z
" transform="scale(0.015625)"/>
        <path id="DejaVuSans-55" d="M 2631 2963 
Q 2534 3019 2420 3045 
Q 2306 3072 2169 3072 
Q 1681 3072 1420 2755 
Q 1159 2438 1159 1844 
L 1159 0 
L 581 0 
L 581 3500 
L 1159 3500 
L 1159 2956 
Q 1341 3275 1631 3429 
Q 1922 3584 2338 3584 
Q 2397 3584 2469 3576 
Q 2541 3569 2628 3553 
L 2631 2963 
z
" transform="scale(0.015625)"/>
        <path id="DejaVuSans-50" d="M 3328 2828 
Q 3544 3216 3844 3400 
Q 4144 3584 4550 3584 
Q 5097 3584 5394 3201 
Q 5691 2819 5691 2113 
L 5691 0 
L 5113 0 
L 5113 2094 
Q 5113 2597 4934 2840 
Q 4756 3084 4391 3084 
Q 3944 3084 3684 2787 
Q 3425 2491 3425 1978 
L 3425 0 
L 2847 0 
L 2847 2094 
Q 2847 2600 2669 2842 
Q 2491 3084 2119 3084 
Q 1678 3084 1418 2786 
Q 1159 2488 1159 1978 
L 1159 0 
L 581 0 
L 581 3500 
L 1159 3500 
L 1159 2956 
Q 1356 3278 1631 3431 
Q 1906 3584 2284 3584 
Q 2666 3584 2933 3390 
Q 3200 3197 3328 2828 
z
" transform="scale(0.015625)"/>
       </defs>
       <use xlink:href="#DejaVuSans-38"/>
       <use xlink:href="#DejaVuSans-51" transform="translate(73.1875 0)"/>
       <use xlink:href="#DejaVuSans-4c" transform="translate(136.5625 0)"/>
       <use xlink:href="#DejaVuSans-49" transform="translate(164.34375 0)"/>
       <use xlink:href="#DejaVuSans-52" transform="translate(199.546875 0)"/>
       <use xlink:href="#DejaVuSans-55" transform="translate(260.734375 0)"/>
       <use xlink:href="#DejaVuSans-50" transform="translate(300.09375 0)"/>
       <use xlink:href="#DejaVuSans-3" transform="translate(397.5 0)"/>
       <use xlink:href="#DejaVuSans-46" transform="translate(429.28125 0)"/>
       <use xlink:href="#DejaVuSans-44" transform="translate(484.265625 0)"/>
       <use xlink:href="#DejaVuSans-51" transform="translate(545.546875 0)"/>
       <use xlink:href="#DejaVuSans-47" transform="translate(608.921875 0)"/>
       <use xlink:href="#DejaVuSans-4c" transform="translate(672.40625 0)"/>
       <use xlink:href="#DejaVuSans-47" transform="translate(700.1875 0)"/>
       <use xlink:href="#DejaVuSans-44" transform="translate(763.671875 0)"/>
       <use xlink:href="#DejaVuSans-57" transform="translate(824.953125 0)"/>
       <use xlink:href="#DejaVuSans-48" transform="translate(864.15625 0)"/>
      </g>
     </g>
    </g>
    <g id="ytick_2">
     <g id="line2d_16">
      <g>
       <use xlink:href="#mca87a13468" x="112.66" y="147.078315" style="stroke: #000000; stroke-width: 0.8"/>
      </g>
     </g>
     <g id="text_10">
      <!-- Before teacher -->
      <g transform="translate(31.483438 150.877534) scale(0.1 -0.1)">
       <defs>
        <path id="DejaVuSans-25" d="M 1259 2228 
L 1259 519 
L 2272 519 
Q 2781 519 3026 730 
Q 3272 941 3272 1375 
Q 3272 1813 3026 2020 
Q 2781 2228 2272 2228 
L 1259 2228 
z
M 1259 4147 
L 1259 2741 
L 2194 2741 
Q 2656 2741 2882 2914 
Q 3109 3088 3109 3444 
Q 3109 3797 2882 3972 
Q 2656 4147 2194 4147 
L 1259 4147 
z
M 628 4666 
L 2241 4666 
Q 2963 4666 3353 4366 
Q 3744 4066 3744 3513 
Q 3744 3084 3544 2831 
Q 3344 2578 2956 2516 
Q 3422 2416 3680 2098 
Q 3938 1781 3938 1306 
Q 3938 681 3513 340 
Q 3088 0 2303 0 
L 628 0 
L 628 4666 
z
" transform="scale(0.015625)"/>
        <path id="DejaVuSans-4b" d="M 3513 2113 
L 3513 0 
L 2938 0 
L 2938 2094 
Q 2938 2591 2744 2837 
Q 2550 3084 2163 3084 
Q 1697 3084 1428 2787 
Q 1159 2491 1159 1978 
L 1159 0 
L 581 0 
L 581 4863 
L 1159 4863 
L 1159 2956 
Q 1366 3272 1645 3428 
Q 1925 3584 2291 3584 
Q 2894 3584 3203 3211 
Q 3513 2838 3513 2113 
z
" transform="scale(0.015625)"/>
       </defs>
       <use xlink:href="#DejaVuSans-25"/>
       <use xlink:href="#DejaVuSans-48" transform="translate(68.609375 0)"/>
       <use xlink:href="#DejaVuSans-49" transform="translate(130.140625 0)"/>
       <use xlink:href="#DejaVuSans-52" transform="translate(165.34375 0)"/>
       <use xlink:href="#DejaVuSans-55" transform="translate(226.53125 0)"/>
       <use xlink:href="#DejaVuSans-48" transform="translate(265.4375 0)"/>
       <use xlink:href="#DejaVuSans-3" transform="translate(326.96875 0)"/>
       <use xlink:href="#DejaVuSans-57" transform="translate(358.75 0)"/>
       <use xlink:href="#DejaVuSans-48" transform="translate(397.953125 0)"/>
       <use xlink:href="#DejaVuSans-44" transform="translate(459.484375 0)"/>
       <use xlink:href="#DejaVuSans-46" transform="translate(520.765625 0)"/>
       <use xlink:href="#DejaVuSans-4b" transform="translate(575.75 0)"/>
       <use xlink:href="#DejaVuSans-48" transform="translate(639.125 0)"/>
       <use xlink:href="#DejaVuSans-55" transform="translate(700.65625 0)"/>
      </g>
     </g>
    </g>
    <g id="ytick_3">
     <g id="line2d_17">
      <g>
       <use xlink:href="#mca87a13468" x="112.66" y="198.796704" style="stroke: #000000; stroke-width: 0.8"/>
      </g>
     </g>
     <g id="text_11">
      <!-- After teacher -->
      <g transform="translate(40.16625 202.595922) scale(0.1 -0.1)">
       <defs>
        <path id="DejaVuSans-24" d="M 2188 4044 
L 1331 1722 
L 3047 1722 
L 2188 4044 
z
M 1831 4666 
L 2547 4666 
L 4325 0 
L 3669 0 
L 3244 1197 
L 1141 1197 
L 716 0 
L 50 0 
L 1831 4666 
z
" transform="scale(0.015625)"/>
       </defs>
       <use xlink:href="#DejaVuSans-24"/>
       <use xlink:href="#DejaVuSans-49" transform="translate(64.84375 0)"/>
       <use xlink:href="#DejaVuSans-57" transform="translate(98.296875 0)"/>
       <use xlink:href="#DejaVuSans-48" transform="translate(137.5 0)"/>
       <use xlink:href="#DejaVuSans-55" transform="translate(199.03125 0)"/>
       <use xlink:href="#DejaVuSans-3" transform="translate(240.140625 0)"/>
       <use xlink:href="#DejaVuSans-57" transform="translate(271.921875 0)"/>
       <use xlink:href="#DejaVuSans-48" transform="translate(311.125 0)"/>
       <use xlink:href="#DejaVuSans-44" transform="translate(372.65625 0)"/>
       <use xlink:href="#DejaVuSans-46" transform="translate(433.9375 0)"/>
       <use xlink:href="#DejaVuSans-4b" transform="translate(488.921875 0)"/>
       <use xlink:href="#DejaVuSans-48" transform="translate(552.296875 0)"/>
       <use xlink:href="#DejaVuSans-55" transform="translate(613.828125 0)"/>
      </g>
     </g>
    </g>
   </g>
   <g id="LineCollection_1">
    <path d="M 251.46189 95.359926 
L 328.168198 95.359926 
" clip-path="url(#p627e2644e6)" style="fill: none; stroke: #64748b; stroke-width: 1.5"/>
   </g>
   <g id="line2d_18">
    <defs>
     <path id="mb1e96db5b3" d="M 0 4 
L 0 -4 
" style="stroke: #64748b"/>
    </defs>
    <g clip-path="url(#p627e2644e6)">
     <use xlink:href="#mb1e96db5b3" x="251.46189" y="95.359926" style="fill: #64748b; stroke: #64748b"/>
    </g>
   </g>
   <g id="line2d_19">
    <g clip-path="url(#p627e2644e6)">
     <use xlink:href="#mb1e96db5b3" x="328.168198" y="95.359926" style="fill: #64748b; stroke: #64748b"/>
    </g>
   </g>
   <g id="LineCollection_2">
    <path d="M 258.767253 147.078315 
L 346.702173 147.078315 
" clip-path="url(#p627e2644e6)" style="fill: none; stroke: #2563eb; stroke-width: 1.5"/>
   </g>
   <g id="line2d_20">
    <defs>
     <path id="m415626811d" d="M 0 4 
L 0 -4 
" style="stroke: #2563eb"/>
    </defs>
    <g clip-path="url(#p627e2644e6)">
     <use xlink:href="#m415626811d" x="258.767253" y="147.078315" style="fill: #2563eb; stroke: #2563eb"/>
    </g>
   </g>
   <g id="line2d_21">
    <g clip-path="url(#p627e2644e6)">
     <use xlink:href="#m415626811d" x="346.702173" y="147.078315" style="fill: #2563eb; stroke: #2563eb"/>
    </g>
   </g>
   <g id="LineCollection_3">
    <path d="M 259.443675 198.796704 
L 348.055018 198.796704 
" clip-path="url(#p627e2644e6)" style="fill: none; stroke: #d97706; stroke-width: 1.5"/>
   </g>
   <g id="line2d_22">
    <defs>
     <path id="m40e2c61438" d="M 0 4 
L 0 -4 
" style="stroke: #d97706"/>
    </defs>
    <g clip-path="url(#p627e2644e6)">
     <use xlink:href="#m40e2c61438" x="259.443675" y="198.796704" style="fill: #d97706; stroke: #d97706"/>
    </g>
   </g>
   <g id="line2d_23">
    <g clip-path="url(#p627e2644e6)">
     <use xlink:href="#m40e2c61438" x="348.055018" y="198.796704" style="fill: #d97706; stroke: #d97706"/>
    </g>
   </g>
   <g id="line2d_24">
    <defs>
     <path id="md0cfd48fb7" d="M 0 4 
C 1.060812 4 2.078319 3.578535 2.828427 2.828427 
C 3.578535 2.078319 4 1.060812 4 0 
C 4 -1.060812 3.578535 -2.078319 2.828427 -2.828427 
C 2.078319 -3.578535 1.060812 -4 0 -4 
C -1.060812 -4 -2.078319 -3.578535 -2.828427 -2.828427 
C -3.578535 -2.078319 -4 -1.060812 -4 0 
C -4 1.060812 -3.578535 2.078319 -2.828427 2.828427 
C -2.078319 3.578535 -1.060812 4 0 4 
z
" style="stroke: #64748b"/>
    </defs>
    <g clip-path="url(#p627e2644e6)">
     <use xlink:href="#md0cfd48fb7" x="289.206264" y="95.359926" style="fill: #64748b; stroke: #64748b"/>
    </g>
   </g>
   <g id="line2d_25">
    <defs>
     <path id="m1102db325a" d="M 0 4 
C 1.060812 4 2.078319 3.578535 2.828427 2.828427 
C 3.578535 2.078319 4 1.060812 4 0 
C 4 -1.060812 3.578535 -2.078319 2.828427 -2.828427 
C 2.078319 -3.578535 1.060812 -4 0 -4 
C -1.060812 -4 -2.078319 -3.578535 -2.828427 -2.828427 
C -3.578535 -2.078319 -4 -1.060812 -4 0 
C -4 1.060812 -3.578535 2.078319 -2.828427 2.828427 
C -2.078319 3.578535 -1.060812 4 0 4 
z
" style="stroke: #2563eb"/>
    </defs>
    <g clip-path="url(#p627e2644e6)">
     <use xlink:href="#m1102db325a" x="301.381868" y="147.078315" style="fill: #2563eb; stroke: #2563eb"/>
    </g>
   </g>
   <g id="line2d_26">
    <defs>
     <path id="m4d505ce7fe" d="M 0 4 
C 1.060812 4 2.078319 3.578535 2.828427 2.828427 
C 3.578535 2.078319 4 1.060812 4 0 
C 4 -1.060812 3.578535 -2.078319 2.828427 -2.828427 
C 2.078319 -3.578535 1.060812 -4 0 -4 
C -1.060812 -4 -2.078319 -3.578535 -2.828427 -2.828427 
C -3.578535 -2.078319 -4 -1.060812 -4 0 
C -4 1.060812 -3.578535 2.078319 -2.828427 2.828427 
C -2.078319 3.578535 -1.060812 4 0 4 
z
" style="stroke: #d97706"/>
    </defs>
    <g clip-path="url(#p627e2644e6)">
     <use xlink:href="#m4d505ce7fe" x="303.411136" y="198.796704" style="fill: #d97706; stroke: #d97706"/>
    </g>
   </g>
   <g id="patch_3">
    <path d="M 112.66 232.413656 
L 112.66 66.914813 
" style="fill: none; stroke: #000000; stroke-width: 0.8; stroke-linejoin: miter; stroke-linecap: square"/>
   </g>
   <g id="patch_4">
    <path d="M 389.655 232.413656 
L 389.655 66.914813 
" style="fill: none; stroke: #000000; stroke-width: 0.8; stroke-linejoin: miter; stroke-linecap: square"/>
   </g>
   <g id="patch_5">
    <path d="M 112.66 232.413656 
L 389.655 232.413656 
" style="fill: none; stroke: #000000; stroke-width: 0.8; stroke-linejoin: miter; stroke-linecap: square"/>
   </g>
   <g id="patch_6">
    <path d="M 112.66 66.914813 
L 389.655 66.914813 
" style="fill: none; stroke: #000000; stroke-width: 0.8; stroke-linejoin: miter; stroke-linecap: square"/>
   </g>
   <g id="text_12">
    <!-- 41.43% -->
    <g transform="translate(270.14142 105.703604) scale(0.1 -0.1)">
     <defs>
      <path id="DejaVuSans-11" d="M 684 794 
L 1344 794 
L 1344 0 
L 684 0 
L 684 794 
z
" transform="scale(0.015625)"/>
     </defs>
     <use xlink:href="#DejaVuSans-17"/>
     <use xlink:href="#DejaVuSans-14" transform="translate(63.625 0)"/>
     <use xlink:href="#DejaVuSans-11" transform="translate(127.25 0)"/>
     <use xlink:href="#DejaVuSans-17" transform="translate(159.03125 0)"/>
     <use xlink:href="#DejaVuSans-16" transform="translate(222.65625 0)"/>
     <use xlink:href="#DejaVuSans-8" transform="translate(286.28125 0)"/>
    </g>
   </g>
   <g id="text_13">
    <!-- 44.29% -->
    <g transform="translate(282.317024 157.421993) scale(0.1 -0.1)">
     <defs>
      <path id="DejaVuSans-1c" d="M 703 97 
L 703 672 
Q 941 559 1184 500 
Q 1428 441 1663 441 
Q 2288 441 2617 861 
Q 2947 1281 2994 2138 
Q 2813 1869 2534 1725 
Q 2256 1581 1919 1581 
Q 1219 1581 811 2004 
Q 403 2428 403 3163 
Q 403 3881 828 4315 
Q 1253 4750 1959 4750 
Q 2769 4750 3195 4129 
Q 3622 3509 3622 2328 
Q 3622 1225 3098 567 
Q 2575 -91 1691 -91 
Q 1453 -91 1209 -44 
Q 966 3 703 97 
z
M 1959 2075 
Q 2384 2075 2632 2365 
Q 2881 2656 2881 3163 
Q 2881 3666 2632 3958 
Q 2384 4250 1959 4250 
Q 1534 4250 1286 3958 
Q 1038 3666 1038 3163 
Q 1038 2656 1286 2365 
Q 1534 2075 1959 2075 
z
" transform="scale(0.015625)"/>
     </defs>
     <use xlink:href="#DejaVuSans-17"/>
     <use xlink:href="#DejaVuSans-17" transform="translate(63.625 0)"/>
     <use xlink:href="#DejaVuSans-11" transform="translate(127.25 0)"/>
     <use xlink:href="#DejaVuSans-15" transform="translate(159.03125 0)"/>
     <use xlink:href="#DejaVuSans-1c" transform="translate(222.65625 0)"/>
     <use xlink:href="#DejaVuSans-8" transform="translate(286.28125 0)"/>
    </g>
   </g>
   <g id="text_14">
    <!-- 44.76% -->
    <g transform="translate(284.346292 209.140381) scale(0.1 -0.1)">
     <defs>
      <path id="DejaVuSans-1a" d="M 525 4666 
L 3525 4666 
L 3525 4397 
L 1831 0 
L 1172 0 
L 2766 4134 
L 525 4134 
L 525 4666 
z
" transform="scale(0.015625)"/>
     </defs>
     <use xlink:href="#DejaVuSans-17"/>
     <use xlink:href="#DejaVuSans-17" transform="translate(63.625 0)"/>
     <use xlink:href="#DejaVuSans-11" transform="translate(127.25 0)"/>
     <use xlink:href="#DejaVuSans-1a" transform="translate(159.03125 0)"/>
     <use xlink:href="#DejaVuSans-19" transform="translate(222.65625 0)"/>
     <use xlink:href="#DejaVuSans-8" transform="translate(286.28125 0)"/>
    </g>
   </g>
   <g id="text_15">
    <!-- Continuation success -->
    <g transform="translate(187.324063 60.914813) scale(0.12 -0.12)">
     <defs>
      <path id="DejaVuSans-26" d="M 4122 4306 
L 4122 3641 
Q 3803 3938 3442 4084 
Q 3081 4231 2675 4231 
Q 1875 4231 1450 3742 
Q 1025 3253 1025 2328 
Q 1025 1406 1450 917 
Q 1875 428 2675 428 
Q 3081 428 3442 575 
Q 3803 722 4122 1019 
L 4122 359 
Q 3791 134 3420 21 
Q 3050 -91 2638 -91 
Q 1578 -91 968 557 
Q 359 1206 359 2328 
Q 359 3453 968 4101 
Q 1578 4750 2638 4750 
Q 3056 4750 3426 4639 
Q 3797 4528 4122 4306 
z
" transform="scale(0.015625)"/>
     </defs>
     <use xlink:href="#DejaVuSans-26"/>
     <use xlink:href="#DejaVuSans-52" transform="translate(69.828125 0)"/>
     <use xlink:href="#DejaVuSans-51" transform="translate(131.015625 0)"/>
     <use xlink:href="#DejaVuSans-57" transform="translate(194.390625 0)"/>
     <use xlink:href="#DejaVuSans-4c" transform="translate(233.59375 0)"/>
     <use xlink:href="#DejaVuSans-51" transform="translate(261.375 0)"/>
     <use xlink:href="#DejaVuSans-58" transform="translate(324.75 0)"/>
     <use xlink:href="#DejaVuSans-44" transform="translate(388.125 0)"/>
     <use xlink:href="#DejaVuSans-57" transform="translate(449.40625 0)"/>
     <use xlink:href="#DejaVuSans-4c" transform="translate(488.609375 0)"/>
     <use xlink:href="#DejaVuSans-52" transform="translate(516.390625 0)"/>
     <use xlink:href="#DejaVuSans-51" transform="translate(577.578125 0)"/>
     <use xlink:href="#DejaVuSans-3" transform="translate(640.953125 0)"/>
     <use xlink:href="#DejaVuSans-56" transform="translate(672.734375 0)"/>
     <use xlink:href="#DejaVuSans-58" transform="translate(724.828125 0)"/>
     <use xlink:href="#DejaVuSans-46" transform="translate(788.203125 0)"/>
     <use xlink:href="#DejaVuSans-46" transform="translate(843.1875 0)"/>
     <use xlink:href="#DejaVuSans-48" transform="translate(898.171875 0)"/>
     <use xlink:href="#DejaVuSans-56" transform="translate(959.703125 0)"/>
     <use xlink:href="#DejaVuSans-56" transform="translate(1011.796875 0)"/>
    </g>
   </g>
  </g>
  <g id="axes_2">
   <g id="patch_7">
    <path d="M 483.325 232.413656 
L 760.32 232.413656 
L 760.32 66.914813 
L 483.325 66.914813 
z
" style="fill: #ffffff"/>
   </g>
   <g id="matplotlib.axis_3">
    <g id="xtick_8">
     <g id="line2d_27">
      <path d="M 483.325 232.413656 
L 483.325 66.914813 
" clip-path="url(#p49e9bf034f)" style="fill: none; stroke: #b0b0b0; stroke-opacity: 0.2; stroke-width: 0.8; stroke-linecap: square"/>
     </g>
     <g id="line2d_28">
      <g>
       <use xlink:href="#m1eff8f8d71" x="483.325" y="232.413656" style="stroke: #000000; stroke-width: 0.8"/>
      </g>
     </g>
     <g id="text_16">
      <!-- 0 -->
      <g transform="translate(480.14375 247.011312) scale(0.1 -0.1)">
       <use xlink:href="#DejaVuSans-13"/>
      </g>
     </g>
    </g>
    <g id="xtick_9">
     <g id="line2d_29">
      <path d="M 538.724 232.413656 
L 538.724 66.914813 
" clip-path="url(#p49e9bf034f)" style="fill: none; stroke: #b0b0b0; stroke-opacity: 0.2; stroke-width: 0.8; stroke-linecap: square"/>
     </g>
     <g id="line2d_30">
      <g>
       <use xlink:href="#m1eff8f8d71" x="538.724" y="232.413656" style="stroke: #000000; stroke-width: 0.8"/>
      </g>
     </g>
     <g id="text_17">
      <!-- 10 -->
      <g transform="translate(532.3615 247.011312) scale(0.1 -0.1)">
       <use xlink:href="#DejaVuSans-14"/>
       <use xlink:href="#DejaVuSans-13" transform="translate(63.625 0)"/>
      </g>
     </g>
    </g>
    <g id="xtick_10">
     <g id="line2d_31">
      <path d="M 594.123 232.413656 
L 594.123 66.914813 
" clip-path="url(#p49e9bf034f)" style="fill: none; stroke: #b0b0b0; stroke-opacity: 0.2; stroke-width: 0.8; stroke-linecap: square"/>
     </g>
     <g id="line2d_32">
      <g>
       <use xlink:href="#m1eff8f8d71" x="594.123" y="232.413656" style="stroke: #000000; stroke-width: 0.8"/>
      </g>
     </g>
     <g id="text_18">
      <!-- 20 -->
      <g transform="translate(587.7605 247.011312) scale(0.1 -0.1)">
       <use xlink:href="#DejaVuSans-15"/>
       <use xlink:href="#DejaVuSans-13" transform="translate(63.625 0)"/>
      </g>
     </g>
    </g>
    <g id="xtick_11">
     <g id="line2d_33">
      <path d="M 649.522 232.413656 
L 649.522 66.914813 
" clip-path="url(#p49e9bf034f)" style="fill: none; stroke: #b0b0b0; stroke-opacity: 0.2; stroke-width: 0.8; stroke-linecap: square"/>
     </g>
     <g id="line2d_34">
      <g>
       <use xlink:href="#m1eff8f8d71" x="649.522" y="232.413656" style="stroke: #000000; stroke-width: 0.8"/>
      </g>
     </g>
     <g id="text_19">
      <!-- 30 -->
      <g transform="translate(643.1595 247.011312) scale(0.1 -0.1)">
       <use xlink:href="#DejaVuSans-16"/>
       <use xlink:href="#DejaVuSans-13" transform="translate(63.625 0)"/>
      </g>
     </g>
    </g>
    <g id="xtick_12">
     <g id="line2d_35">
      <path d="M 704.921 232.413656 
L 704.921 66.914813 
" clip-path="url(#p49e9bf034f)" style="fill: none; stroke: #b0b0b0; stroke-opacity: 0.2; stroke-width: 0.8; stroke-linecap: square"/>
     </g>
     <g id="line2d_36">
      <g>
       <use xlink:href="#m1eff8f8d71" x="704.921" y="232.413656" style="stroke: #000000; stroke-width: 0.8"/>
      </g>
     </g>
     <g id="text_20">
      <!-- 40 -->
      <g transform="translate(698.5585 247.011312) scale(0.1 -0.1)">
       <use xlink:href="#DejaVuSans-17"/>
       <use xlink:href="#DejaVuSans-13" transform="translate(63.625 0)"/>
      </g>
     </g>
    </g>
    <g id="xtick_13">
     <g id="line2d_37">
      <path d="M 760.32 232.413656 
L 760.32 66.914813 
" clip-path="url(#p49e9bf034f)" style="fill: none; stroke: #b0b0b0; stroke-opacity: 0.2; stroke-width: 0.8; stroke-linecap: square"/>
     </g>
     <g id="line2d_38">
      <g>
       <use xlink:href="#m1eff8f8d71" x="760.32" y="232.413656" style="stroke: #000000; stroke-width: 0.8"/>
      </g>
     </g>
     <g id="text_21">
      <!-- 50 -->
      <g transform="translate(753.9575 247.011312) scale(0.1 -0.1)">
       <use xlink:href="#DejaVuSans-18"/>
       <use xlink:href="#DejaVuSans-13" transform="translate(63.625 0)"/>
      </g>
     </g>
    </g>
    <g id="text_22">
     <!-- Different selected indices (%) -->
     <g transform="translate(547.833438 261.012094) scale(0.1 -0.1)">
      <defs>
       <path id="DejaVuSans-27" d="M 1259 4147 
L 1259 519 
L 2022 519 
Q 2988 519 3436 956 
Q 3884 1394 3884 2338 
Q 3884 3275 3436 3711 
Q 2988 4147 2022 4147 
L 1259 4147 
z
M 628 4666 
L 1925 4666 
Q 3281 4666 3915 4102 
Q 4550 3538 4550 2338 
Q 4550 1131 3912 565 
Q 3275 0 1925 0 
L 628 0 
L 628 4666 
z
" transform="scale(0.015625)"/>
       <path id="DejaVuSans-13ae" d="M 4531 4863 
L 4531 4384 
L 3981 4384 
Q 3672 4384 3551 4259 
Q 3431 4134 3431 3809 
L 3431 3500 
L 4378 3500 
L 4378 3053 
L 3431 3053 
L 3431 0 
L 2853 0 
L 2853 3053 
L 1275 3053 
L 1275 0 
L 697 0 
L 697 3053 
L 147 3053 
L 147 3500 
L 697 3500 
L 697 3744 
Q 697 4328 969 4595 
Q 1241 4863 1831 4863 
L 2375 4863 
L 2375 4384 
L 1825 4384 
Q 1516 4384 1394 4259 
Q 1275 4134 1275 3809 
L 1275 3500 
L 2853 3500 
L 2853 3744 
Q 2853 4328 3125 4595 
Q 3397 4863 3988 4863 
L 4531 4863 
z
" transform="scale(0.015625)"/>
      </defs>
      <use xlink:href="#DejaVuSans-27"/>
      <use xlink:href="#DejaVuSans-4c" transform="translate(77 0)"/>
      <use xlink:href="#DejaVuSans-13ae" transform="translate(104.78125 0)"/>
      <use xlink:href="#DejaVuSans-48" transform="translate(173.671875 0)"/>
      <use xlink:href="#DejaVuSans-55" transform="translate(235.203125 0)"/>
      <use xlink:href="#DejaVuSans-48" transform="translate(274.109375 0)"/>
      <use xlink:href="#DejaVuSans-51" transform="translate(335.640625 0)"/>
      <use xlink:href="#DejaVuSans-57" transform="translate(399.015625 0)"/>
      <use xlink:href="#DejaVuSans-3" transform="translate(438.21875 0)"/>
      <use xlink:href="#DejaVuSans-56" transform="translate(470 0)"/>
      <use xlink:href="#DejaVuSans-48" transform="translate(522.09375 0)"/>
      <use xlink:href="#DejaVuSans-4f" transform="translate(583.625 0)"/>
      <use xlink:href="#DejaVuSans-48" transform="translate(611.40625 0)"/>
      <use xlink:href="#DejaVuSans-46" transform="translate(672.9375 0)"/>
      <use xlink:href="#DejaVuSans-57" transform="translate(727.921875 0)"/>
      <use xlink:href="#DejaVuSans-48" transform="translate(767.125 0)"/>
      <use xlink:href="#DejaVuSans-47" transform="translate(828.65625 0)"/>
      <use xlink:href="#DejaVuSans-3" transform="translate(892.140625 0)"/>
      <use xlink:href="#DejaVuSans-4c" transform="translate(923.921875 0)"/>
      <use xlink:href="#DejaVuSans-51" transform="translate(951.703125 0)"/>
      <use xlink:href="#DejaVuSans-47" transform="translate(1015.078125 0)"/>
      <use xlink:href="#DejaVuSans-4c" transform="translate(1078.5625 0)"/>
      <use xlink:href="#DejaVuSans-46" transform="translate(1106.34375 0)"/>
      <use xlink:href="#DejaVuSans-48" transform="translate(1161.328125 0)"/>
      <use xlink:href="#DejaVuSans-56" transform="translate(1222.859375 0)"/>
      <use xlink:href="#DejaVuSans-3" transform="translate(1274.953125 0)"/>
      <use xlink:href="#DejaVuSans-b" transform="translate(1306.734375 0)"/>
      <use xlink:href="#DejaVuSans-8" transform="translate(1345.75 0)"/>
      <use xlink:href="#DejaVuSans-c" transform="translate(1440.765625 0)"/>
     </g>
    </g>
   </g>
   <g id="matplotlib.axis_4">
    <g id="ytick_4">
     <g id="line2d_39">
      <g>
       <use xlink:href="#mca87a13468" x="483.325" y="108.289523" style="stroke: #000000; stroke-width: 0.8"/>
      </g>
     </g>
     <g id="text_23">
      <!-- Before repeats -->
      <g transform="translate(402.646875 112.088742) scale(0.1 -0.1)">
       <defs>
        <path id="DejaVuSans-53" d="M 1159 525 
L 1159 -1331 
L 581 -1331 
L 581 3500 
L 1159 3500 
L 1159 2969 
Q 1341 3281 1617 3432 
Q 1894 3584 2278 3584 
Q 2916 3584 3314 3078 
Q 3713 2572 3713 1747 
Q 3713 922 3314 415 
Q 2916 -91 2278 -91 
Q 1894 -91 1617 61 
Q 1341 213 1159 525 
z
M 3116 1747 
Q 3116 2381 2855 2742 
Q 2594 3103 2138 3103 
Q 1681 3103 1420 2742 
Q 1159 2381 1159 1747 
Q 1159 1113 1420 752 
Q 1681 391 2138 391 
Q 2594 391 2855 752 
Q 3116 1113 3116 1747 
z
" transform="scale(0.015625)"/>
       </defs>
       <use xlink:href="#DejaVuSans-25"/>
       <use xlink:href="#DejaVuSans-48" transform="translate(68.609375 0)"/>
       <use xlink:href="#DejaVuSans-49" transform="translate(130.140625 0)"/>
       <use xlink:href="#DejaVuSans-52" transform="translate(165.34375 0)"/>
       <use xlink:href="#DejaVuSans-55" transform="translate(226.53125 0)"/>
       <use xlink:href="#DejaVuSans-48" transform="translate(265.4375 0)"/>
       <use xlink:href="#DejaVuSans-3" transform="translate(326.96875 0)"/>
       <use xlink:href="#DejaVuSans-55" transform="translate(358.75 0)"/>
       <use xlink:href="#DejaVuSans-48" transform="translate(397.65625 0)"/>
       <use xlink:href="#DejaVuSans-53" transform="translate(459.1875 0)"/>
       <use xlink:href="#DejaVuSans-48" transform="translate(522.671875 0)"/>
       <use xlink:href="#DejaVuSans-44" transform="translate(584.203125 0)"/>
       <use xlink:href="#DejaVuSans-57" transform="translate(645.484375 0)"/>
       <use xlink:href="#DejaVuSans-56" transform="translate(684.6875 0)"/>
      </g>
     </g>
    </g>
    <g id="ytick_5">
     <g id="line2d_40">
      <g>
       <use xlink:href="#mca87a13468" x="483.325" y="183.516271" style="stroke: #000000; stroke-width: 0.8"/>
      </g>
     </g>
     <g id="text_24">
      <!-- After repeats -->
      <g transform="translate(411.329687 187.315489) scale(0.1 -0.1)">
       <use xlink:href="#DejaVuSans-24"/>
       <use xlink:href="#DejaVuSans-49" transform="translate(64.84375 0)"/>
       <use xlink:href="#DejaVuSans-57" transform="translate(98.296875 0)"/>
       <use xlink:href="#DejaVuSans-48" transform="translate(137.5 0)"/>
       <use xlink:href="#DejaVuSans-55" transform="translate(199.03125 0)"/>
       <use xlink:href="#DejaVuSans-3" transform="translate(240.140625 0)"/>
       <use xlink:href="#DejaVuSans-55" transform="translate(271.921875 0)"/>
       <use xlink:href="#DejaVuSans-48" transform="translate(310.828125 0)"/>
       <use xlink:href="#DejaVuSans-53" transform="translate(372.359375 0)"/>
       <use xlink:href="#DejaVuSans-48" transform="translate(435.84375 0)"/>
       <use xlink:href="#DejaVuSans-44" transform="translate(497.375 0)"/>
       <use xlink:href="#DejaVuSans-57" transform="translate(558.65625 0)"/>
       <use xlink:href="#DejaVuSans-56" transform="translate(597.859375 0)"/>
      </g>
     </g>
    </g>
   </g>
   <g id="LineCollection_4">
    <path d="M 607.313238 108.289523 
L 697.006857 108.289523 
" clip-path="url(#p49e9bf034f)" style="fill: none; stroke: #2563eb; stroke-width: 1.5"/>
   </g>
   <g id="line2d_41">
    <g clip-path="url(#p49e9bf034f)">
     <use xlink:href="#m415626811d" x="607.313238" y="108.289523" style="fill: #2563eb; stroke: #2563eb"/>
    </g>
   </g>
   <g id="line2d_42">
    <g clip-path="url(#p49e9bf034f)">
     <use xlink:href="#m415626811d" x="697.006857" y="108.289523" style="fill: #2563eb; stroke: #2563eb"/>
    </g>
   </g>
   <g id="LineCollection_5">
    <path d="M 553.672937 183.516271 
L 616.10673 183.516271 
" clip-path="url(#p49e9bf034f)" style="fill: none; stroke: #d97706; stroke-width: 1.5"/>
   </g>
   <g id="line2d_43">
    <g clip-path="url(#p49e9bf034f)">
     <use xlink:href="#m40e2c61438" x="553.672937" y="183.516271" style="fill: #d97706; stroke: #d97706"/>
    </g>
   </g>
   <g id="line2d_44">
    <g clip-path="url(#p49e9bf034f)">
     <use xlink:href="#m40e2c61438" x="616.10673" y="183.516271" style="fill: #d97706; stroke: #d97706"/>
    </g>
   </g>
   <g id="line2d_45">
    <g clip-path="url(#p49e9bf034f)">
     <use xlink:href="#m1102db325a" x="652.160048" y="108.289523" style="fill: #2563eb; stroke: #2563eb"/>
    </g>
   </g>
   <g id="line2d_46">
    <g clip-path="url(#p49e9bf034f)">
     <use xlink:href="#m4d505ce7fe" x="584.450159" y="183.516271" style="fill: #d97706; stroke: #d97706"/>
    </g>
   </g>
   <g id="patch_8">
    <path d="M 483.325 232.413656 
L 483.325 66.914813 
" style="fill: none; stroke: #000000; stroke-width: 0.8; stroke-linejoin: miter; stroke-linecap: square"/>
   </g>
   <g id="patch_9">
    <path d="M 760.32 232.413656 
L 760.32 66.914813 
" style="fill: none; stroke: #000000; stroke-width: 0.8; stroke-linejoin: miter; stroke-linecap: square"/>
   </g>
   <g id="patch_10">
    <path d="M 483.325 232.413656 
L 760.32 232.413656 
" style="fill: none; stroke: #000000; stroke-width: 0.8; stroke-linejoin: miter; stroke-linecap: square"/>
   </g>
   <g id="patch_11">
    <path d="M 483.325 66.914813 
L 760.32 66.914813 
" style="fill: none; stroke: #000000; stroke-width: 0.8; stroke-linejoin: miter; stroke-linecap: square"/>
   </g>
   <g id="text_25">
    <!-- 30.48% -->
    <g transform="translate(633.095204 123.334873) scale(0.1 -0.1)">
     <defs>
      <path id="DejaVuSans-1b" d="M 2034 2216 
Q 1584 2216 1326 1975 
Q 1069 1734 1069 1313 
Q 1069 891 1326 650 
Q 1584 409 2034 409 
Q 2484 409 2743 651 
Q 3003 894 3003 1313 
Q 3003 1734 2745 1975 
Q 2488 2216 2034 2216 
z
M 1403 2484 
Q 997 2584 770 2862 
Q 544 3141 544 3541 
Q 544 4100 942 4425 
Q 1341 4750 2034 4750 
Q 2731 4750 3128 4425 
Q 3525 4100 3525 3541 
Q 3525 3141 3298 2862 
Q 3072 2584 2669 2484 
Q 3125 2378 3379 2068 
Q 3634 1759 3634 1313 
Q 3634 634 3220 271 
Q 2806 -91 2034 -91 
Q 1263 -91 848 271 
Q 434 634 434 1313 
Q 434 1759 690 2068 
Q 947 2378 1403 2484 
z
M 1172 3481 
Q 1172 3119 1398 2916 
Q 1625 2713 2034 2713 
Q 2441 2713 2670 2916 
Q 2900 3119 2900 3481 
Q 2900 3844 2670 4047 
Q 2441 4250 2034 4250 
Q 1625 4250 1398 4047 
Q 1172 3844 1172 3481 
z
" transform="scale(0.015625)"/>
     </defs>
     <use xlink:href="#DejaVuSans-16"/>
     <use xlink:href="#DejaVuSans-13" transform="translate(63.625 0)"/>
     <use xlink:href="#DejaVuSans-11" transform="translate(127.25 0)"/>
     <use xlink:href="#DejaVuSans-17" transform="translate(159.03125 0)"/>
     <use xlink:href="#DejaVuSans-1b" transform="translate(222.65625 0)"/>
     <use xlink:href="#DejaVuSans-8" transform="translate(286.28125 0)"/>
    </g>
   </g>
   <g id="text_26">
    <!-- 18.25% -->
    <g transform="translate(565.385315 198.56162) scale(0.1 -0.1)">
     <use xlink:href="#DejaVuSans-14"/>
     <use xlink:href="#DejaVuSans-1b" transform="translate(63.625 0)"/>
     <use xlink:href="#DejaVuSans-11" transform="translate(127.25 0)"/>
     <use xlink:href="#DejaVuSans-15" transform="translate(159.03125 0)"/>
     <use xlink:href="#DejaVuSans-18" transform="translate(222.65625 0)"/>
     <use xlink:href="#DejaVuSans-8" transform="translate(286.28125 0)"/>
    </g>
   </g>
   <g id="text_27">
    <!-- Teacher repeat disagreement -->
    <g transform="translate(533.681563 60.914813) scale(0.12 -0.12)">
     <defs>
      <path id="DejaVuSans-37" d="M -19 4666 
L 3928 4666 
L 3928 4134 
L 2272 4134 
L 2272 0 
L 1638 0 
L 1638 4134 
L -19 4134 
L -19 4666 
z
" transform="scale(0.015625)"/>
      <path id="DejaVuSans-4a" d="M 2906 1791 
Q 2906 2416 2648 2759 
Q 2391 3103 1925 3103 
Q 1463 3103 1205 2759 
Q 947 2416 947 1791 
Q 947 1169 1205 825 
Q 1463 481 1925 481 
Q 2391 481 2648 825 
Q 2906 1169 2906 1791 
z
M 3481 434 
Q 3481 -459 3084 -895 
Q 2688 -1331 1869 -1331 
Q 1566 -1331 1297 -1286 
Q 1028 -1241 775 -1147 
L 775 -588 
Q 1028 -725 1275 -790 
Q 1522 -856 1778 -856 
Q 2344 -856 2625 -561 
Q 2906 -266 2906 331 
L 2906 616 
Q 2728 306 2450 153 
Q 2172 0 1784 0 
Q 1141 0 747 490 
Q 353 981 353 1791 
Q 353 2603 747 3093 
Q 1141 3584 1784 3584 
Q 2172 3584 2450 3431 
Q 2728 3278 2906 2969 
L 2906 3500 
L 3481 3500 
L 3481 434 
z
" transform="scale(0.015625)"/>
     </defs>
     <use xlink:href="#DejaVuSans-37"/>
     <use xlink:href="#DejaVuSans-48" transform="translate(44.09375 0)"/>
     <use xlink:href="#DejaVuSans-44" transform="translate(105.625 0)"/>
     <use xlink:href="#DejaVuSans-46" transform="translate(166.90625 0)"/>
     <use xlink:href="#DejaVuSans-4b" transform="translate(221.890625 0)"/>
     <use xlink:href="#DejaVuSans-48" transform="translate(285.265625 0)"/>
     <use xlink:href="#DejaVuSans-55" transform="translate(346.796875 0)"/>
     <use xlink:href="#DejaVuSans-3" transform="translate(387.90625 0)"/>
     <use xlink:href="#DejaVuSans-55" transform="translate(419.6875 0)"/>
     <use xlink:href="#DejaVuSans-48" transform="translate(458.59375 0)"/>
     <use xlink:href="#DejaVuSans-53" transform="translate(520.125 0)"/>
     <use xlink:href="#DejaVuSans-48" transform="translate(583.609375 0)"/>
     <use xlink:href="#DejaVuSans-44" transform="translate(645.140625 0)"/>
     <use xlink:href="#DejaVuSans-57" transform="translate(706.421875 0)"/>
     <use xlink:href="#DejaVuSans-3" transform="translate(745.625 0)"/>
     <use xlink:href="#DejaVuSans-47" transform="translate(777.40625 0)"/>
     <use xlink:href="#DejaVuSans-4c" transform="translate(840.890625 0)"/>
     <use xlink:href="#DejaVuSans-56" transform="translate(868.671875 0)"/>
     <use xlink:href="#DejaVuSans-44" transform="translate(920.765625 0)"/>
     <use xlink:href="#DejaVuSans-4a" transform="translate(982.046875 0)"/>
     <use xlink:href="#DejaVuSans-55" transform="translate(1045.53125 0)"/>
     <use xlink:href="#DejaVuSans-48" transform="translate(1084.4375 0)"/>
     <use xlink:href="#DejaVuSans-48" transform="translate(1145.96875 0)"/>
     <use xlink:href="#DejaVuSans-50" transform="translate(1207.5 0)"/>
     <use xlink:href="#DejaVuSans-48" transform="translate(1304.90625 0)"/>
     <use xlink:href="#DejaVuSans-51" transform="translate(1366.4375 0)"/>
     <use xlink:href="#DejaVuSans-57" transform="translate(1429.8125 0)"/>
    </g>
   </g>
  </g>
  <g id="text_28">
   <!-- Execution evidence changes selection; success improvement remains uncertain -->
   <g transform="translate(148.17375 15.022125) scale(0.12 -0.12)">
    <defs>
     <path id="DejaVuSans-28" d="M 628 4666 
L 3578 4666 
L 3578 4134 
L 1259 4134 
L 1259 2753 
L 3481 2753 
L 3481 2222 
L 1259 2222 
L 1259 531 
L 3634 531 
L 3634 0 
L 628 0 
L 628 4666 
z
" transform="scale(0.015625)"/>
     <path id="DejaVuSans-5b" d="M 3513 3500 
L 2247 1797 
L 3578 0 
L 2900 0 
L 1881 1375 
L 863 0 
L 184 0 
L 1544 1831 
L 300 3500 
L 978 3500 
L 1906 2253 
L 2834 3500 
L 3513 3500 
z
" transform="scale(0.015625)"/>
     <path id="DejaVuSans-59" d="M 191 3500 
L 800 3500 
L 1894 563 
L 2988 3500 
L 3597 3500 
L 2284 0 
L 1503 0 
L 191 3500 
z
" transform="scale(0.015625)"/>
     <path id="DejaVuSans-1e" d="M 750 3309 
L 1409 3309 
L 1409 2516 
L 750 2516 
L 750 3309 
z
M 750 794 
L 1409 794 
L 1409 256 
L 897 -744 
L 494 -744 
L 750 256 
L 750 794 
z
" transform="scale(0.015625)"/>
    </defs>
    <use xlink:href="#DejaVuSans-28"/>
    <use xlink:href="#DejaVuSans-5b" transform="translate(63.1875 0)"/>
    <use xlink:href="#DejaVuSans-48" transform="translate(119.296875 0)"/>
    <use xlink:href="#DejaVuSans-46" transform="translate(180.828125 0)"/>
    <use xlink:href="#DejaVuSans-58" transform="translate(235.8125 0)"/>
    <use xlink:href="#DejaVuSans-57" transform="translate(299.1875 0)"/>
    <use xlink:href="#DejaVuSans-4c" transform="translate(338.390625 0)"/>
    <use xlink:href="#DejaVuSans-52" transform="translate(366.171875 0)"/>
    <use xlink:href="#DejaVuSans-51" transform="translate(427.359375 0)"/>
    <use xlink:href="#DejaVuSans-3" transform="translate(490.734375 0)"/>
    <use xlink:href="#DejaVuSans-48" transform="translate(522.515625 0)"/>
    <use xlink:href="#DejaVuSans-59" transform="translate(584.046875 0)"/>
    <use xlink:href="#DejaVuSans-4c" transform="translate(643.234375 0)"/>
    <use xlink:href="#DejaVuSans-47" transform="translate(671.015625 0)"/>
    <use xlink:href="#DejaVuSans-48" transform="translate(734.5 0)"/>
    <use xlink:href="#DejaVuSans-51" transform="translate(796.03125 0)"/>
    <use xlink:href="#DejaVuSans-46" transform="translate(859.40625 0)"/>
    <use xlink:href="#DejaVuSans-48" transform="translate(914.390625 0)"/>
    <use xlink:href="#DejaVuSans-3" transform="translate(975.921875 0)"/>
    <use xlink:href="#DejaVuSans-46" transform="translate(1007.703125 0)"/>
    <use xlink:href="#DejaVuSans-4b" transform="translate(1062.6875 0)"/>
    <use xlink:href="#DejaVuSans-44" transform="translate(1126.0625 0)"/>
    <use xlink:href="#DejaVuSans-51" transform="translate(1187.34375 0)"/>
    <use xlink:href="#DejaVuSans-4a" transform="translate(1250.71875 0)"/>
    <use xlink:href="#DejaVuSans-48" transform="translate(1314.203125 0)"/>
    <use xlink:href="#DejaVuSans-56" transform="translate(1375.734375 0)"/>
    <use xlink:href="#DejaVuSans-3" transform="translate(1427.828125 0)"/>
    <use xlink:href="#DejaVuSans-56" transform="translate(1459.609375 0)"/>
    <use xlink:href="#DejaVuSans-48" transform="translate(1511.703125 0)"/>
    <use xlink:href="#DejaVuSans-4f" transform="translate(1573.234375 0)"/>
    <use xlink:href="#DejaVuSans-48" transform="translate(1601.015625 0)"/>
    <use xlink:href="#DejaVuSans-46" transform="translate(1662.546875 0)"/>
    <use xlink:href="#DejaVuSans-57" transform="translate(1717.53125 0)"/>
    <use xlink:href="#DejaVuSans-4c" transform="translate(1756.734375 0)"/>
    <use xlink:href="#DejaVuSans-52" transform="translate(1784.515625 0)"/>
    <use xlink:href="#DejaVuSans-51" transform="translate(1845.703125 0)"/>
    <use xlink:href="#DejaVuSans-1e" transform="translate(1909.078125 0)"/>
    <use xlink:href="#DejaVuSans-3" transform="translate(1942.765625 0)"/>
    <use xlink:href="#DejaVuSans-56" transform="translate(1974.546875 0)"/>
    <use xlink:href="#DejaVuSans-58" transform="translate(2026.640625 0)"/>
    <use xlink:href="#DejaVuSans-46" transform="translate(2090.015625 0)"/>
    <use xlink:href="#DejaVuSans-46" transform="translate(2145 0)"/>
    <use xlink:href="#DejaVuSans-48" transform="translate(2199.984375 0)"/>
    <use xlink:href="#DejaVuSans-56" transform="translate(2261.515625 0)"/>
    <use xlink:href="#DejaVuSans-56" transform="translate(2313.609375 0)"/>
    <use xlink:href="#DejaVuSans-3" transform="translate(2365.703125 0)"/>
    <use xlink:href="#DejaVuSans-4c" transform="translate(2397.484375 0)"/>
    <use xlink:href="#DejaVuSans-50" transform="translate(2425.265625 0)"/>
    <use xlink:href="#DejaVuSans-53" transform="translate(2522.671875 0)"/>
    <use xlink:href="#DejaVuSans-55" transform="translate(2586.15625 0)"/>
    <use xlink:href="#DejaVuSans-52" transform="translate(2625.0625 0)"/>
    <use xlink:href="#DejaVuSans-59" transform="translate(2686.25 0)"/>
    <use xlink:href="#DejaVuSans-48" transform="translate(2745.4375 0)"/>
    <use xlink:href="#DejaVuSans-50" transform="translate(2806.96875 0)"/>
    <use xlink:href="#DejaVuSans-48" transform="translate(2904.375 0)"/>
    <use xlink:href="#DejaVuSans-51" transform="translate(2965.90625 0)"/>
    <use xlink:href="#DejaVuSans-57" transform="translate(3029.28125 0)"/>
    <use xlink:href="#DejaVuSans-3" transform="translate(3068.484375 0)"/>
    <use xlink:href="#DejaVuSans-55" transform="translate(3100.265625 0)"/>
    <use xlink:href="#DejaVuSans-48" transform="translate(3139.171875 0)"/>
    <use xlink:href="#DejaVuSans-50" transform="translate(3200.703125 0)"/>
    <use xlink:href="#DejaVuSans-44" transform="translate(3298.109375 0)"/>
    <use xlink:href="#DejaVuSans-4c" transform="translate(3359.390625 0)"/>
    <use xlink:href="#DejaVuSans-51" transform="translate(3387.171875 0)"/>
    <use xlink:href="#DejaVuSans-56" transform="translate(3450.546875 0)"/>
    <use xlink:href="#DejaVuSans-3" transform="translate(3502.640625 0)"/>
    <use xlink:href="#DejaVuSans-58" transform="translate(3534.421875 0)"/>
    <use xlink:href="#DejaVuSans-51" transform="translate(3597.796875 0)"/>
    <use xlink:href="#DejaVuSans-46" transform="translate(3661.171875 0)"/>
    <use xlink:href="#DejaVuSans-48" transform="translate(3716.15625 0)"/>
    <use xlink:href="#DejaVuSans-55" transform="translate(3777.6875 0)"/>
    <use xlink:href="#DejaVuSans-57" transform="translate(3818.796875 0)"/>
    <use xlink:href="#DejaVuSans-44" transform="translate(3858 0)"/>
    <use xlink:href="#DejaVuSans-4c" transform="translate(3919.28125 0)"/>
    <use xlink:href="#DejaVuSans-51" transform="translate(3947.0625 0)"/>
   </g>
  </g>
  <g id="text_29">
   <!-- 70 paired states · state-bootstrap 95% intervals · success difference +0.48 pp [−2.38, +3.65] -->
   <g transform="translate(153.680469 287.82) scale(0.1 -0.1)">
    <defs>
     <path id="DejaVuSans-79" d="M 684 2619 
L 1344 2619 
L 1344 1825 
L 684 1825 
L 684 2619 
z
" transform="scale(0.015625)"/>
     <path id="DejaVuSans-45" d="M 3116 1747 
Q 3116 2381 2855 2742 
Q 2594 3103 2138 3103 
Q 1681 3103 1420 2742 
Q 1159 2381 1159 1747 
Q 1159 1113 1420 752 
Q 1681 391 2138 391 
Q 2594 391 2855 752 
Q 3116 1113 3116 1747 
z
M 1159 2969 
Q 1341 3281 1617 3432 
Q 1894 3584 2278 3584 
Q 2916 3584 3314 3078 
Q 3713 2572 3713 1747 
Q 3713 922 3314 415 
Q 2916 -91 2278 -91 
Q 1894 -91 1617 61 
Q 1341 213 1159 525 
L 1159 0 
L 581 0 
L 581 4863 
L 1159 4863 
L 1159 2969 
z
" transform="scale(0.015625)"/>
     <path id="DejaVuSans-e" d="M 2944 4013 
L 2944 2272 
L 4684 2272 
L 4684 1741 
L 2944 1741 
L 2944 0 
L 2419 0 
L 2419 1741 
L 678 1741 
L 678 2272 
L 2419 2272 
L 2419 4013 
L 2944 4013 
z
" transform="scale(0.015625)"/>
     <path id="DejaVuSans-3e" d="M 550 4863 
L 1875 4863 
L 1875 4416 
L 1125 4416 
L 1125 -397 
L 1875 -397 
L 1875 -844 
L 550 -844 
L 550 4863 
z
" transform="scale(0.015625)"/>
     <path id="DejaVuSans-c9c" d="M 678 2272 
L 4684 2272 
L 4684 1741 
L 678 1741 
L 678 2272 
z
" transform="scale(0.015625)"/>
     <path id="DejaVuSans-f" d="M 750 794 
L 1409 794 
L 1409 256 
L 897 -744 
L 494 -744 
L 750 256 
L 750 794 
z
" transform="scale(0.015625)"/>
     <path id="DejaVuSans-40" d="M 1947 4863 
L 1947 -844 
L 622 -844 
L 622 -397 
L 1369 -397 
L 1369 4416 
L 622 4416 
L 622 4863 
L 1947 4863 
z
" transform="scale(0.015625)"/>
    </defs>
    <use xlink:href="#DejaVuSans-1a"/>
    <use xlink:href="#DejaVuSans-13" transform="translate(63.625 0)"/>
    <use xlink:href="#DejaVuSans-3" transform="translate(127.25 0)"/>
    <use xlink:href="#DejaVuSans-53" transform="translate(159.03125 0)"/>
    <use xlink:href="#DejaVuSans-44" transform="translate(222.515625 0)"/>
    <use xlink:href="#DejaVuSans-4c" transform="translate(283.796875 0)"/>
    <use xlink:href="#DejaVuSans-55" transform="translate(311.578125 0)"/>
    <use xlink:href="#DejaVuSans-48" transform="translate(350.484375 0)"/>
    <use xlink:href="#DejaVuSans-47" transform="translate(412.015625 0)"/>
    <use xlink:href="#DejaVuSans-3" transform="translate(475.5 0)"/>
    <use xlink:href="#DejaVuSans-56" transform="translate(507.28125 0)"/>
    <use xlink:href="#DejaVuSans-57" transform="translate(559.375 0)"/>
    <use xlink:href="#DejaVuSans-44" transform="translate(598.578125 0)"/>
    <use xlink:href="#DejaVuSans-57" transform="translate(659.859375 0)"/>
    <use xlink:href="#DejaVuSans-48" transform="translate(699.0625 0)"/>
    <use xlink:href="#DejaVuSans-56" transform="translate(760.59375 0)"/>
    <use xlink:href="#DejaVuSans-3" transform="translate(812.6875 0)"/>
    <use xlink:href="#DejaVuSans-79" transform="translate(844.46875 0)"/>
    <use xlink:href="#DejaVuSans-3" transform="translate(876.25 0)"/>
    <use xlink:href="#DejaVuSans-56" transform="translate(908.03125 0)"/>
    <use xlink:href="#DejaVuSans-57" transform="translate(960.125 0)"/>
    <use xlink:href="#DejaVuSans-44" transform="translate(999.328125 0)"/>
    <use xlink:href="#DejaVuSans-57" transform="translate(1060.609375 0)"/>
    <use xlink:href="#DejaVuSans-48" transform="translate(1099.8125 0)"/>
    <use xlink:href="#DejaVuSans-10" transform="translate(1161.34375 0)"/>
    <use xlink:href="#DejaVuSans-45" transform="translate(1197.421875 0)"/>
    <use xlink:href="#DejaVuSans-52" transform="translate(1260.90625 0)"/>
    <use xlink:href="#DejaVuSans-52" transform="translate(1322.09375 0)"/>
    <use xlink:href="#DejaVuSans-57" transform="translate(1383.28125 0)"/>
    <use xlink:href="#DejaVuSans-56" transform="translate(1422.484375 0)"/>
    <use xlink:href="#DejaVuSans-57" transform="translate(1474.578125 0)"/>
    <use xlink:href="#DejaVuSans-55" transform="translate(1513.78125 0)"/>
    <use xlink:href="#DejaVuSans-44" transform="translate(1554.890625 0)"/>
    <use xlink:href="#DejaVuSans-53" transform="translate(1616.171875 0)"/>
    <use xlink:href="#DejaVuSans-3" transform="translate(1679.65625 0)"/>
    <use xlink:href="#DejaVuSans-1c" transform="translate(1711.4375 0)"/>
    <use xlink:href="#DejaVuSans-18" transform="translate(1775.0625 0)"/>
    <use xlink:href="#DejaVuSans-8" transform="translate(1838.6875 0)"/>
    <use xlink:href="#DejaVuSans-3" transform="translate(1933.703125 0)"/>
    <use xlink:href="#DejaVuSans-4c" transform="translate(1965.484375 0)"/>
    <use xlink:href="#DejaVuSans-51" transform="translate(1993.265625 0)"/>
    <use xlink:href="#DejaVuSans-57" transform="translate(2056.640625 0)"/>
    <use xlink:href="#DejaVuSans-48" transform="translate(2095.84375 0)"/>
    <use xlink:href="#DejaVuSans-55" transform="translate(2157.375 0)"/>
    <use xlink:href="#DejaVuSans-59" transform="translate(2198.484375 0)"/>
    <use xlink:href="#DejaVuSans-44" transform="translate(2257.671875 0)"/>
    <use xlink:href="#DejaVuSans-4f" transform="translate(2318.953125 0)"/>
    <use xlink:href="#DejaVuSans-56" transform="translate(2346.734375 0)"/>
    <use xlink:href="#DejaVuSans-3" transform="translate(2398.828125 0)"/>
    <use xlink:href="#DejaVuSans-79" transform="translate(2430.609375 0)"/>
    <use xlink:href="#DejaVuSans-3" transform="translate(2462.390625 0)"/>
    <use xlink:href="#DejaVuSans-56" transform="translate(2494.171875 0)"/>
    <use xlink:href="#DejaVuSans-58" transform="translate(2546.265625 0)"/>
    <use xlink:href="#DejaVuSans-46" transform="translate(2609.640625 0)"/>
    <use xlink:href="#DejaVuSans-46" transform="translate(2664.625 0)"/>
    <use xlink:href="#DejaVuSans-48" transform="translate(2719.609375 0)"/>
    <use xlink:href="#DejaVuSans-56" transform="translate(2781.140625 0)"/>
    <use xlink:href="#DejaVuSans-56" transform="translate(2833.234375 0)"/>
    <use xlink:href="#DejaVuSans-3" transform="translate(2885.328125 0)"/>
    <use xlink:href="#DejaVuSans-47" transform="translate(2917.109375 0)"/>
    <use xlink:href="#DejaVuSans-4c" transform="translate(2980.59375 0)"/>
    <use xlink:href="#DejaVuSans-13ae" transform="translate(3008.375 0)"/>
    <use xlink:href="#DejaVuSans-48" transform="translate(3077.265625 0)"/>
    <use xlink:href="#DejaVuSans-55" transform="translate(3138.796875 0)"/>
    <use xlink:href="#DejaVuSans-48" transform="translate(3177.703125 0)"/>
    <use xlink:href="#DejaVuSans-51" transform="translate(3239.234375 0)"/>
    <use xlink:href="#DejaVuSans-46" transform="translate(3302.609375 0)"/>
    <use xlink:href="#DejaVuSans-48" transform="translate(3357.59375 0)"/>
    <use xlink:href="#DejaVuSans-3" transform="translate(3419.125 0)"/>
    <use xlink:href="#DejaVuSans-e" transform="translate(3450.90625 0)"/>
    <use xlink:href="#DejaVuSans-13" transform="translate(3534.703125 0)"/>
    <use xlink:href="#DejaVuSans-11" transform="translate(3598.328125 0)"/>
    <use xlink:href="#DejaVuSans-17" transform="translate(3630.109375 0)"/>
    <use xlink:href="#DejaVuSans-1b" transform="translate(3693.734375 0)"/>
    <use xlink:href="#DejaVuSans-3" transform="translate(3757.359375 0)"/>
    <use xlink:href="#DejaVuSans-53" transform="translate(3789.140625 0)"/>
    <use xlink:href="#DejaVuSans-53" transform="translate(3852.625 0)"/>
    <use xlink:href="#DejaVuSans-3" transform="translate(3916.109375 0)"/>
    <use xlink:href="#DejaVuSans-3e" transform="translate(3947.890625 0)"/>
    <use xlink:href="#DejaVuSans-c9c" transform="translate(3986.90625 0)"/>
    <use xlink:href="#DejaVuSans-15" transform="translate(4070.703125 0)"/>
    <use xlink:href="#DejaVuSans-11" transform="translate(4134.328125 0)"/>
    <use xlink:href="#DejaVuSans-16" transform="translate(4166.109375 0)"/>
    <use xlink:href="#DejaVuSans-1b" transform="translate(4229.734375 0)"/>
    <use xlink:href="#DejaVuSans-f" transform="translate(4293.359375 0)"/>
    <use xlink:href="#DejaVuSans-3" transform="translate(4325.140625 0)"/>
    <use xlink:href="#DejaVuSans-e" transform="translate(4356.921875 0)"/>
    <use xlink:href="#DejaVuSans-16" transform="translate(4440.71875 0)"/>
    <use xlink:href="#DejaVuSans-11" transform="translate(4504.34375 0)"/>
    <use xlink:href="#DejaVuSans-19" transform="translate(4536.125 0)"/>
    <use xlink:href="#DejaVuSans-18" transform="translate(4599.75 0)"/>
    <use xlink:href="#DejaVuSans-40" transform="translate(4663.375 0)"/>
   </g>
  </g>
 </g>
 <defs>
  <clipPath id="p627e2644e6">
   <rect x="112.66" y="66.914813" width="276.995" height="165.498844"/>
  </clipPath>
  <clipPath id="p49e9bf034f">
   <rect x="483.325" y="66.914813" width="276.995" height="165.498844"/>
  </clipPath>
 </defs>
</svg>
