<?xml version="1.0" encoding="utf-8" standalone="no"?>
<!DOCTYPE svg PUBLIC "-//W3C//DTD SVG 1.1//EN"
  "http://www.w3.org/Graphics/SVG/1.1/DTD/svg11.dtd">
<svg xmlns:xlink="http://www.w3.org/1999/xlink" width="828pt" height="331.2pt" viewBox="0 0 828 331.2" xmlns="http://www.w3.org/2000/svg" version="1.1">
 <metadata>
  <rdf:RDF xmlns:dc="http://purl.org/dc/elements/1.1/" xmlns:cc="http://creativecommons.org/ns#" xmlns:rdf="http://www.w3.org/1999/02/22-rdf-syntax-ns#">
   <cc:Work>
    <dc:type rdf:resource="http://purl.org/dc/dcmitype/StillImage"/>
    <dc:date>2026-10-04T09:49:35.058443</dc:date>
    <dc:format>image/svg+xml</dc:format>
    <dc:creator>
     <cc:Agent>
      <dc:title>Matplotlib v3.11.2, https://matplotlib.org/</dc:title>
     </cc:Agent>
    </dc:creator>
   </cc:Work>
  </rdf:RDF>
 </metadata>
 <defs>
  <style type="text/css">*{stroke-linejoin: round; stroke-linecap: butt}</style>
 </defs>
 <g id="figure_1">
  <g id="patch_1">
   <path d="M 0 331.2
L 828 331.2
L 828 0
L 0 0
z
" style="fill: #ffffff"/>
  </g>
  <g id="axes_1">
   <g id="patch_2">
    <path d="M 103.5 255.024
L 384.947368 255.024
L 384.947368 43.056
L 103.5 43.056
z
" style="fill: #ffffff"/>
   </g>
   <g id="matplotlib.axis_1">
    <g id="xtick_1">
     <g id="line2d_1">
      <path d="M 129.086124 255.024
L 129.086124 43.056
" clip-path="url(#p940cb0ed7f)" style="fill: none; stroke: #b0b0b0; stroke-opacity: 0.2; stroke-width: 0.8; stroke-linecap: square"/>
     </g>
     <g id="line2d_2">
      <defs>
       <path id="m4269b4aeab" d="M 0 0
L 0 3.5
" style="stroke: #000000; stroke-width: 0.8"/>
      </defs>
      <g>
       <use xlink:href="#m4269b4aeab" x="129.086124" y="255.024" style="stroke: #000000; stroke-width: 0.8"/>
      </g>
     </g>
     <g id="text_1">
      <!-- 1 -->
      <g transform="translate(125.904874 269.621656) scale(0.1 -0.1)">
       <defs>
        <path id="DejaVuSans-14" d="M 794 531
L 1825 531
L 1825 4091
L 703 3866
L 703 4441
L 1819 4666
L 2450 4666
L 2450 531
L 3481 531
L 3481 0
L 794 0
L 794 531
z
" transform="scale(0.015625)"/>
       </defs>
       <use xlink:href="#DejaVuSans-14"/>
      </g>
     </g>
    </g>
    <g id="xtick_2">
     <g id="line2d_3">
      <path d="M 180.258373 255.024
L 180.258373 43.056
" clip-path="url(#p940cb0ed7f)" style="fill: none; stroke: #b0b0b0; stroke-opacity: 0.2; stroke-width: 0.8; stroke-linecap: square"/>
     </g>
     <g id="line2d_4">
      <g>
       <use xlink:href="#m4269b4aeab" x="180.258373" y="255.024" style="stroke: #000000; stroke-width: 0.8"/>
      </g>
     </g>
     <g id="text_2">
      <!-- 2 -->
      <g transform="translate(177.077123 269.621656) scale(0.1 -0.1)">
       <defs>
        <path id="DejaVuSans-15" d="M 1228 531
L 3431 531
L 3431 0
L 469 0
L 469 531
Q 828 903 1448 1529
Q 2069 2156 2228 2338
Q 2531 2678 2651 2914
Q 2772 3150 2772 3378
Q 2772 3750 2511 3984
Q 2250 4219 1831 4219
Q 1534 4219 1204 4116
Q 875 4013 500 3803
L 500 4441
Q 881 4594 1212 4672
Q 1544 4750 1819 4750
Q 2544 4750 2975 4387
Q 3406 4025 3406 3419
Q 3406 3131 3298 2873
Q 3191 2616 2906 2266
Q 2828 2175 2409 1742
Q 1991 1309 1228 531
z
" transform="scale(0.015625)"/>
       </defs>
       <use xlink:href="#DejaVuSans-15"/>
      </g>
     </g>
    </g>
    <g id="xtick_3">
     <g id="line2d_5">
      <path d="M 231.430622 255.024
L 231.430622 43.056
" clip-path="url(#p940cb0ed7f)" style="fill: none; stroke: #b0b0b0; stroke-opacity: 0.2; stroke-width: 0.8; stroke-linecap: square"/>
     </g>
     <g id="line2d_6">
      <g>
       <use xlink:href="#m4269b4aeab" x="231.430622" y="255.024" style="stroke: #000000; stroke-width: 0.8"/>
      </g>
     </g>
     <g id="text_3">
      <!-- 3 -->
      <g transform="translate(228.249372 269.621656) scale(0.1 -0.1)">
       <defs>
        <path id="DejaVuSans-16" d="M 2597 2516
Q 3050 2419 3304 2112
Q 3559 1806 3559 1356
Q 3559 666 3084 287
Q 2609 -91 1734 -91
Q 1441 -91 1130 -33
Q 819 25 488 141
L 488 750
Q 750 597 1062 519
Q 1375 441 1716 441
Q 2309 441 2620 675
Q 2931 909 2931 1356
Q 2931 1769 2642 2001
Q 2353 2234 1838 2234
L 1294 2234
L 1294 2753
L 1863 2753
Q 2328 2753 2575 2939
Q 2822 3125 2822 3475
Q 2822 3834 2567 4026
Q 2313 4219 1838 4219
Q 1578 4219 1281 4162
Q 984 4106 628 3988
L 628 4550
Q 988 4650 1302 4700
Q 1616 4750 1894 4750
Q 2613 4750 3031 4423
Q 3450 4097 3450 3541
Q 3450 3153 3228 2886
Q 3006 2619 2597 2516
z
" transform="scale(0.015625)"/>
       </defs>
       <use xlink:href="#DejaVuSans-16"/>
      </g>
     </g>
    </g>
    <g id="xtick_4">
     <g id="line2d_7">
      <path d="M 282.602871 255.024
L 282.602871 43.056
" clip-path="url(#p940cb0ed7f)" style="fill: none; stroke: #b0b0b0; stroke-opacity: 0.2; stroke-width: 0.8; stroke-linecap: square"/>
     </g>
     <g id="line2d_8">
      <g>
       <use xlink:href="#m4269b4aeab" x="282.602871" y="255.024" style="stroke: #000000; stroke-width: 0.8"/>
      </g>
     </g>
     <g id="text_4">
      <!-- 4 -->
      <g transform="translate(279.421621 269.621656) scale(0.1 -0.1)">
       <defs>
        <path id="DejaVuSans-17" d="M 2419 4116
L 825 1625
L 2419 1625
L 2419 4116
z
M 2253 4666
L 3047 4666
L 3047 1625
L 3713 1625
L 3713 1100
L 3047 1100
L 3047 0
L 2419 0
L 2419 1100
L 313 1100
L 313 1709
L 2253 4666
z
" transform="scale(0.015625)"/>
       </defs>
       <use xlink:href="#DejaVuSans-17"/>
      </g>
     </g>
    </g>
    <g id="xtick_5">
     <g id="line2d_9">
      <path d="M 333.77512 255.024
L 333.77512 43.056
" clip-path="url(#p940cb0ed7f)" style="fill: none; stroke: #b0b0b0; stroke-opacity: 0.2; stroke-width: 0.8; stroke-linecap: square"/>
     </g>
     <g id="line2d_10">
      <g>
       <use xlink:href="#m4269b4aeab" x="333.77512" y="255.024" style="stroke: #000000; stroke-width: 0.8"/>
      </g>
     </g>
     <g id="text_5">
      <!-- 5 -->
      <g transform="translate(330.59387 269.621656) scale(0.1 -0.1)">
       <defs>
        <path id="DejaVuSans-18" d="M 691 4666
L 3169 4666
L 3169 4134
L 1269 4134
L 1269 2991
Q 1406 3038 1543 3061
Q 1681 3084 1819 3084
Q 2600 3084 3056 2656
Q 3513 2228 3513 1497
Q 3513 744 3044 326
Q 2575 -91 1722 -91
Q 1428 -91 1123 -41
Q 819 9 494 109
L 494 744
Q 775 591 1075 516
Q 1375 441 1709 441
Q 2250 441 2565 725
Q 2881 1009 2881 1497
Q 2881 1984 2565 2268
Q 2250 2553 1709 2553
Q 1456 2553 1204 2497
Q 953 2441 691 2322
L 691 4666
z
" transform="scale(0.015625)"/>
       </defs>
       <use xlink:href="#DejaVuSans-18"/>
      </g>
     </g>
    </g>
    <g id="xtick_6">
     <g id="line2d_11">
      <path d="M 384.947368 255.024
L 384.947368 43.056
" clip-path="url(#p940cb0ed7f)" style="fill: none; stroke: #b0b0b0; stroke-opacity: 0.2; stroke-width: 0.8; stroke-linecap: square"/>
     </g>
     <g id="line2d_12">
      <g>
       <use xlink:href="#m4269b4aeab" x="384.947368" y="255.024" style="stroke: #000000; stroke-width: 0.8"/>
      </g>
     </g>
     <g id="text_6">
      <!-- 6 -->
      <g transform="translate(381.766118 269.621656) scale(0.1 -0.1)">
       <defs>
        <path id="DejaVuSans-19" d="M 2113 2584
Q 1688 2584 1439 2293
Q 1191 2003 1191 1497
Q 1191 994 1439 701
Q 1688 409 2113 409
Q 2538 409 2786 701
Q 3034 994 3034 1497
Q 3034 2003 2786 2293
Q 2538 2584 2113 2584
z
M 3366 4563
L 3366 3988
Q 3128 4100 2886 4159
Q 2644 4219 2406 4219
Q 1781 4219 1451 3797
Q 1122 3375 1075 2522
Q 1259 2794 1537 2939
Q 1816 3084 2150 3084
Q 2853 3084 3261 2657
Q 3669 2231 3669 1497
Q 3669 778 3244 343
Q 2819 -91 2113 -91
Q 1303 -91 875 529
Q 447 1150 447 2328
Q 447 3434 972 4092
Q 1497 4750 2381 4750
Q 2619 4750 2861 4703
Q 3103 4656 3366 4563
z
" transform="scale(0.015625)"/>
       </defs>
       <use xlink:href="#DejaVuSans-19"/>
      </g>
     </g>
    </g>
    <g id="text_7">
     <!-- Saved actor-text tokens / baseline (proxy) -->
     <g transform="translate(139.529153 283.622437) scale(0.1 -0.1)">
      <defs>
       <path id="DejaVuSans-36" d="M 3425 4513
L 3425 3897
Q 3066 4069 2747 4153
Q 2428 4238 2131 4238
Q 1616 4238 1336 4038
Q 1056 3838 1056 3469
Q 1056 3159 1242 3001
Q 1428 2844 1947 2747
L 2328 2669
Q 3034 2534 3370 2195
Q 3706 1856 3706 1288
Q 3706 609 3251 259
Q 2797 -91 1919 -91
Q 1588 -91 1214 -16
Q 841 59 441 206
L 441 856
Q 825 641 1194 531
Q 1563 422 1919 422
Q 2459 422 2753 634
Q 3047 847 3047 1241
Q 3047 1584 2836 1778
Q 2625 1972 2144 2069
L 1759 2144
Q 1053 2284 737 2584
Q 422 2884 422 3419
Q 422 4038 858 4394
Q 1294 4750 2059 4750
Q 2388 4750 2728 4690
Q 3069 4631 3425 4513
z
" transform="scale(0.015625)"/>
       <path id="DejaVuSans-44" d="M 2194 1759
Q 1497 1759 1228 1600
Q 959 1441 959 1056
Q 959 750 1161 570
Q 1363 391 1709 391
Q 2188 391 2477 730
Q 2766 1069 2766 1631
L 2766 1759
L 2194 1759
z
M 3341 1997
L 3341 0
L 2766 0
L 2766 531
Q 2569 213 2275 61
Q 1981 -91 1556 -91
Q 1019 -91 701 211
Q 384 513 384 1019
Q 384 1609 779 1909
Q 1175 2209 1959 2209
L 2766 2209
L 2766 2266
Q 2766 2663 2505 2880
Q 2244 3097 1772 3097
Q 1472 3097 1187 3025
Q 903 2953 641 2809
L 641 3341
Q 956 3463 1253 3523
Q 1550 3584 1831 3584
Q 2591 3584 2966 3190
Q 3341 2797 3341 1997
z
" transform="scale(0.015625)"/>
       <path id="DejaVuSans-59" d="M 191 3500
L 800 3500
L 1894 563
L 2988 3500
L 3597 3500
L 2284 0
L 1503 0
L 191 3500
z
" transform="scale(0.015625)"/>
       <path id="DejaVuSans-48" d="M 3597 1894
L 3597 1613
L 953 1613
Q 991 1019 1311 708
Q 1631 397 2203 397
Q 2534 397 2845 478
Q 3156 559 3463 722
L 3463 178
Q 3153 47 2828 -22
Q 2503 -91 2169 -91
Q 1331 -91 842 396
Q 353 884 353 1716
Q 353 2575 817 3079
Q 1281 3584 2069 3584
Q 2775 3584 3186 3129
Q 3597 2675 3597 1894
z
M 3022 2063
Q 3016 2534 2758 2815
Q 2500 3097 2075 3097
Q 1594 3097 1305 2825
Q 1016 2553 972 2059
L 3022 2063
z
" transform="scale(0.015625)"/>
       <path id="DejaVuSans-47" d="M 2906 2969
L 2906 4863
L 3481 4863
L 3481 0
L 2906 0
L 2906 525
Q 2725 213 2448 61
Q 2172 -91 1784 -91
Q 1150 -91 751 415
Q 353 922 353 1747
Q 353 2572 751 3078
Q 1150 3584 1784 3584
Q 2172 3584 2448 3432
Q 2725 3281 2906 2969
z
M 947 1747
Q 947 1113 1208 752
Q 1469 391 1925 391
Q 2381 391 2643 752
Q 2906 1113 2906 1747
Q 2906 2381 2643 2742
Q 2381 3103 1925 3103
Q 1469 3103 1208 2742
Q 947 2381 947 1747
z
" transform="scale(0.015625)"/>
       <path id="DejaVuSans-3" transform="scale(0.015625)"/>
       <path id="DejaVuSans-46" d="M 3122 3366
L 3122 2828
Q 2878 2963 2633 3030
Q 2388 3097 2138 3097
Q 1578 3097 1268 2742
Q 959 2388 959 1747
Q 959 1106 1268 751
Q 1578 397 2138 397
Q 2388 397 2633 464
Q 2878 531 3122 666
L 3122 134
Q 2881 22 2623 -34
Q 2366 -91 2075 -91
Q 1284 -91 818 406
Q 353 903 353 1747
Q 353 2603 823 3093
Q 1294 3584 2113 3584
Q 2378 3584 2631 3529
Q 2884 3475 3122 3366
z
" transform="scale(0.015625)"/>
       <path id="DejaVuSans-57" d="M 1172 4494
L 1172 3500
L 2356 3500
L 2356 3053
L 1172 3053
L 1172 1153
Q 1172 725 1289 603
Q 1406 481 1766 481
L 2356 481
L 2356 0
L 1766 0
Q 1100 0 847 248
Q 594 497 594 1153
L 594 3053
L 172 3053
L 172 3500
L 594 3500
L 594 4494
L 1172 4494
z
" transform="scale(0.015625)"/>
       <path id="DejaVuSans-52" d="M 1959 3097
Q 1497 3097 1228 2736
Q 959 2375 959 1747
Q 959 1119 1226 758
Q 1494 397 1959 397
Q 2419 397 2687 759
Q 2956 1122 2956 1747
Q 2956 2369 2687 2733
Q 2419 3097 1959 3097
z
M 1959 3584
Q 2709 3584 3137 3096
Q 3566 2609 3566 1747
Q 3566 888 3137 398
Q 2709 -91 1959 -91
Q 1206 -91 779 398
Q 353 888 353 1747
Q 353 2609 779 3096
Q 1206 3584 1959 3584
z
" transform="scale(0.015625)"/>
       <path id="DejaVuSans-55" d="M 2631 2963
Q 2534 3019 2420 3045
Q 2306 3072 2169 3072
Q 1681 3072 1420 2755
Q 1159 2438 1159 1844
L 1159 0
L 581 0
L 581 3500
L 1159 3500
L 1159 2956
Q 1341 3275 1631 3429
Q 1922 3584 2338 3584
Q 2397 3584 2469 3576
Q 2541 3569 2628 3553
L 2631 2963
z
" transform="scale(0.015625)"/>
       <path id="DejaVuSans-10" d="M 313 2009
L 1997 2009
L 1997 1497
L 313 1497
L 313 2009
z
" transform="scale(0.015625)"/>
       <path id="DejaVuSans-5b" d="M 3513 3500
L 2247 1797
L 3578 0
L 2900 0
L 1881 1375
L 863 0
L 184 0
L 1544 1831
L 300 3500
L 978 3500
L 1906 2253
L 2834 3500
L 3513 3500
z
" transform="scale(0.015625)"/>
       <path id="DejaVuSans-4e" d="M 581 4863
L 1159 4863
L 1159 1991
L 2875 3500
L 3609 3500
L 1753 1863
L 3688 0
L 2938 0
L 1159 1709
L 1159 0
L 581 0
L 581 4863
z
" transform="scale(0.015625)"/>
       <path id="DejaVuSans-51" d="M 3513 2113
L 3513 0
L 2938 0
L 2938 2094
Q 2938 2591 2744 2837
Q 2550 3084 2163 3084
Q 1697 3084 1428 2787
Q 1159 2491 1159 1978
L 1159 0
L 581 0
L 581 3500
L 1159 3500
L 1159 2956
Q 1366 3272 1645 3428
Q 1925 3584 2291 3584
Q 2894 3584 3203 3211
Q 3513 2838 3513 2113
z
" transform="scale(0.015625)"/>
       <path id="DejaVuSans-56" d="M 2834 3397
L 2834 2853
Q 2591 2978 2328 3040
Q 2066 3103 1784 3103
Q 1356 3103 1142 2972
Q 928 2841 928 2578
Q 928 2378 1081 2264
Q 1234 2150 1697 2047
L 1894 2003
Q 2506 1872 2764 1633
Q 3022 1394 3022 966
Q 3022 478 2636 193
Q 2250 -91 1575 -91
Q 1294 -91 989 -36
Q 684 19 347 128
L 347 722
Q 666 556 975 473
Q 1284 391 1588 391
Q 1994 391 2212 530
Q 2431 669 2431 922
Q 2431 1156 2273 1281
Q 2116 1406 1581 1522
L 1381 1569
Q 847 1681 609 1914
Q 372 2147 372 2553
Q 372 3047 722 3315
Q 1072 3584 1716 3584
Q 2034 3584 2315 3537
Q 2597 3491 2834 3397
z
" transform="scale(0.015625)"/>
       <path id="DejaVuSans-12" d="M 1625 4666
L 2156 4666
L 531 -594
L 0 -594
L 1625 4666
z
" transform="scale(0.015625)"/>
       <path id="DejaVuSans-45" d="M 3116 1747
Q 3116 2381 2855 2742
Q 2594 3103 2138 3103
Q 1681 3103 1420 2742
Q 1159 2381 1159 1747
Q 1159 1113 1420 752
Q 1681 391 2138 391
Q 2594 391 2855 752
Q 3116 1113 3116 1747
z
M 1159 2969
Q 1341 3281 1617 3432
Q 1894 3584 2278 3584
Q 2916 3584 3314 3078
Q 3713 2572 3713 1747
Q 3713 922 3314 415
Q 2916 -91 2278 -91
Q 1894 -91 1617 61
Q 1341 213 1159 525
L 1159 0
L 581 0
L 581 4863
L 1159 4863
L 1159 2969
z
" transform="scale(0.015625)"/>
       <path id="DejaVuSans-4f" d="M 603 4863
L 1178 4863
L 1178 0
L 603 0
L 603 4863
z
" transform="scale(0.015625)"/>
       <path id="DejaVuSans-4c" d="M 603 3500
L 1178 3500
L 1178 0
L 603 0
L 603 3500
z
M 603 4863
L 1178 4863
L 1178 4134
L 603 4134
L 603 4863
z
" transform="scale(0.015625)"/>
       <path id="DejaVuSans-b" d="M 1984 4856
Q 1566 4138 1362 3434
Q 1159 2731 1159 2009
Q 1159 1288 1364 580
Q 1569 -128 1984 -844
L 1484 -844
Q 1016 -109 783 600
Q 550 1309 550 2009
Q 550 2706 781 3412
Q 1013 4119 1484 4856
L 1984 4856
z
" transform="scale(0.015625)"/>
       <path id="DejaVuSans-53" d="M 1159 525
L 1159 -1331
L 581 -1331
L 581 3500
L 1159 3500
L 1159 2969
Q 1341 3281 1617 3432
Q 1894 3584 2278 3584
Q 2916 3584 3314 3078
Q 3713 2572 3713 1747
Q 3713 922 3314 415
Q 2916 -91 2278 -91
Q 1894 -91 1617 61
Q 1341 213 1159 525
z
M 3116 1747
Q 3116 2381 2855 2742
Q 2594 3103 2138 3103
Q 1681 3103 1420 2742
Q 1159 2381 1159 1747
Q 1159 1113 1420 752
Q 1681 391 2138 391
Q 2594 391 2855 752
Q 3116 1113 3116 1747
z
" transform="scale(0.015625)"/>
       <path id="DejaVuSans-5c" d="M 2059 -325
Q 1816 -950 1584 -1140
Q 1353 -1331 966 -1331
L 506 -1331
L 506 -850
L 844 -850
Q 1081 -850 1212 -737
Q 1344 -625 1503 -206
L 1606 56
L 191 3500
L 800 3500
L 1894 763
L 2988 3500
L 3597 3500
L 2059 -325
z
" transform="scale(0.015625)"/>
       <path id="DejaVuSans-c" d="M 513 4856
L 1013 4856
Q 1481 4119 1714 3412
Q 1947 2706 1947 2009
Q 1947 1309 1714 600
Q 1481 -109 1013 -844
L 513 -844
Q 928 -128 1133 580
Q 1338 1288 1338 2009
Q 1338 2731 1133 3434
Q 928 4138 513 4856
z
" transform="scale(0.015625)"/>
      </defs>
      <use xlink:href="#DejaVuSans-36"/>
      <use xlink:href="#DejaVuSans-44" transform="translate(63.484375 0)"/>
      <use xlink:href="#DejaVuSans-59" transform="translate(124.765625 0)"/>
      <use xlink:href="#DejaVuSans-48" transform="translate(183.953125 0)"/>
      <use xlink:href="#DejaVuSans-47" transform="translate(245.484375 0)"/>
      <use xlink:href="#DejaVuSans-3" transform="translate(308.96875 0)"/>
      <use xlink:href="#DejaVuSans-44" transform="translate(340.75 0)"/>
      <use xlink:href="#DejaVuSans-46" transform="translate(402.03125 0)"/>
      <use xlink:href="#DejaVuSans-57" transform="translate(457.015625 0)"/>
      <use xlink:href="#DejaVuSans-52" transform="translate(496.21875 0)"/>
      <use xlink:href="#DejaVuSans-55" transform="translate(557.40625 0)"/>
      <use xlink:href="#DejaVuSans-10" transform="translate(592.125 0)"/>
      <use xlink:href="#DejaVuSans-57" transform="translate(628.203125 0)"/>
      <use xlink:href="#DejaVuSans-48" transform="translate(667.40625 0)"/>
      <use xlink:href="#DejaVuSans-5b" transform="translate(727.1875 0)"/>
      <use xlink:href="#DejaVuSans-57" transform="translate(786.375 0)"/>
      <use xlink:href="#DejaVuSans-3" transform="translate(825.578125 0)"/>
      <use xlink:href="#DejaVuSans-57" transform="translate(857.359375 0)"/>
      <use xlink:href="#DejaVuSans-52" transform="translate(896.5625 0)"/>
      <use xlink:href="#DejaVuSans-4e" transform="translate(957.75 0)"/>
      <use xlink:href="#DejaVuSans-48" transform="translate(1012.09375 0)"/>
      <use xlink:href="#DejaVuSans-51" transform="translate(1073.625 0)"/>
      <use xlink:href="#DejaVuSans-56" transform="translate(1137 0)"/>
      <use xlink:href="#DejaVuSans-3" transform="translate(1189.09375 0)"/>
      <use xlink:href="#DejaVuSans-12" transform="translate(1220.875 0)"/>
      <use xlink:href="#DejaVuSans-3" transform="translate(1254.5625 0)"/>
      <use xlink:href="#DejaVuSans-45" transform="translate(1286.34375 0)"/>
      <use xlink:href="#DejaVuSans-44" transform="translate(1349.828125 0)"/>
      <use xlink:href="#DejaVuSans-56" transform="translate(1411.109375 0)"/>
      <use xlink:href="#DejaVuSans-48" transform="translate(1463.203125 0)"/>
      <use xlink:href="#DejaVuSans-4f" transform="translate(1524.734375 0)"/>
      <use xlink:href="#DejaVuSans-4c" transform="translate(1552.515625 0)"/>
      <use xlink:href="#DejaVuSans-51" transform="translate(1580.296875 0)"/>
      <use xlink:href="#DejaVuSans-48" transform="translate(1643.671875 0)"/>
      <use xlink:href="#DejaVuSans-3" transform="translate(1705.203125 0)"/>
      <use xlink:href="#DejaVuSans-b" transform="translate(1736.984375 0)"/>
      <use xlink:href="#DejaVuSans-53" transform="translate(1776 0)"/>
      <use xlink:href="#DejaVuSans-55" transform="translate(1839.484375 0)"/>
      <use xlink:href="#DejaVuSans-52" transform="translate(1878.390625 0)"/>
      <use xlink:href="#DejaVuSans-5b" transform="translate(1936.5 0)"/>
      <use xlink:href="#DejaVuSans-5c" transform="translate(1995.6875 0)"/>
      <use xlink:href="#DejaVuSans-c" transform="translate(2054.875 0)"/>
     </g>
    </g>
   </g>
   <g id="matplotlib.axis_2">
    <g id="ytick_1">
     <g id="line2d_13">
      <path d="M 103.5 255.024
L 384.947368 255.024
" clip-path="url(#p940cb0ed7f)" style="fill: none; stroke: #b0b0b0; stroke-opacity: 0.2; stroke-width: 0.8; stroke-linecap: square"/>
     </g>
     <g id="line2d_14">
      <defs>
       <path id="mba2fd1fec2" d="M 0 0
L -3.5 0
" style="stroke: #000000; stroke-width: 0.8"/>
      </defs>
      <g>
       <use xlink:href="#mba2fd1fec2" x="103.5" y="255.024" style="stroke: #000000; stroke-width: 0.8"/>
      </g>
     </g>
     <g id="text_8">
      <!-- 25 -->
      <g transform="translate(83.775 258.822828) scale(0.1 -0.1)">
       <use xlink:href="#DejaVuSans-15"/>
       <use xlink:href="#DejaVuSans-18" transform="translate(63.625 0)"/>
      </g>
     </g>
    </g>
    <g id="ytick_2">
     <g id="line2d_15">
      <path d="M 103.5 212.6304
L 384.947368 212.6304
" clip-path="url(#p940cb0ed7f)" style="fill: none; stroke: #b0b0b0; stroke-opacity: 0.2; stroke-width: 0.8; stroke-linecap: square"/>
     </g>
     <g id="line2d_16">
      <g>
       <use xlink:href="#mba2fd1fec2" x="103.5" y="212.6304" style="stroke: #000000; stroke-width: 0.8"/>
      </g>
     </g>
     <g id="text_9">
      <!-- 30 -->
      <g transform="translate(83.775 216.429228) scale(0.1 -0.1)">
       <defs>
        <path id="DejaVuSans-13" d="M 2034 4250
Q 1547 4250 1301 3770
Q 1056 3291 1056 2328
Q 1056 1369 1301 889
Q 1547 409 2034 409
Q 2525 409 2770 889
Q 3016 1369 3016 2328
Q 3016 3291 2770 3770
Q 2525 4250 2034 4250
z
M 2034 4750
Q 2819 4750 3233 4129
Q 3647 3509 3647 2328
Q 3647 1150 3233 529
Q 2819 -91 2034 -91
Q 1250 -91 836 529
Q 422 1150 422 2328
Q 422 3509 836 4129
Q 1250 4750 2034 4750
z
" transform="scale(0.015625)"/>
       </defs>
       <use xlink:href="#DejaVuSans-16"/>
       <use xlink:href="#DejaVuSans-13" transform="translate(63.625 0)"/>
      </g>
     </g>
    </g>
    <g id="ytick_3">
     <g id="line2d_17">
      <path d="M 103.5 170.2368
L 384.947368 170.2368
" clip-path="url(#p940cb0ed7f)" style="fill: none; stroke: #b0b0b0; stroke-opacity: 0.2; stroke-width: 0.8; stroke-linecap: square"/>
     </g>
     <g id="line2d_18">
      <g>
       <use xlink:href="#mba2fd1fec2" x="103.5" y="170.2368" style="stroke: #000000; stroke-width: 0.8"/>
      </g>
     </g>
     <g id="text_10">
      <!-- 35 -->
      <g transform="translate(83.775 174.035628) scale(0.1 -0.1)">
       <use xlink:href="#DejaVuSans-16"/>
       <use xlink:href="#DejaVuSans-18" transform="translate(63.625 0)"/>
      </g>
     </g>
    </g>
    <g id="ytick_4">
     <g id="line2d_19">
      <path d="M 103.5 127.8432
L 384.947368 127.8432
" clip-path="url(#p940cb0ed7f)" style="fill: none; stroke: #b0b0b0; stroke-opacity: 0.2; stroke-width: 0.8; stroke-linecap: square"/>
     </g>
     <g id="line2d_20">
      <g>
       <use xlink:href="#mba2fd1fec2" x="103.5" y="127.8432" style="stroke: #000000; stroke-width: 0.8"/>
      </g>
     </g>
     <g id="text_11">
      <!-- 40 -->
      <g transform="translate(83.775 131.642028) scale(0.1 -0.1)">
       <use xlink:href="#DejaVuSans-17"/>
       <use xlink:href="#DejaVuSans-13" transform="translate(63.625 0)"/>
      </g>
     </g>
    </g>
    <g id="ytick_5">
     <g id="line2d_21">
      <path d="M 103.5 85.4496
L 384.947368 85.4496
" clip-path="url(#p940cb0ed7f)" style="fill: none; stroke: #b0b0b0; stroke-opacity: 0.2; stroke-width: 0.8; stroke-linecap: square"/>
     </g>
     <g id="line2d_22">
      <g>
       <use xlink:href="#mba2fd1fec2" x="103.5" y="85.4496" style="stroke: #000000; stroke-width: 0.8"/>
      </g>
     </g>
     <g id="text_12">
      <!-- 45 -->
      <g transform="translate(83.775 89.248428) scale(0.1 -0.1)">
       <use xlink:href="#DejaVuSans-17"/>
       <use xlink:href="#DejaVuSans-18" transform="translate(63.625 0)"/>
      </g>
     </g>
    </g>
    <g id="ytick_6">
     <g id="line2d_23">
      <path d="M 103.5 43.056
L 384.947368 43.056
" clip-path="url(#p940cb0ed7f)" style="fill: none; stroke: #b0b0b0; stroke-opacity: 0.2; stroke-width: 0.8; stroke-linecap: square"/>
     </g>
     <g id="line2d_24">
      <g>
       <use xlink:href="#mba2fd1fec2" x="103.5" y="43.056" style="stroke: #000000; stroke-width: 0.8"/>
      </g>
     </g>
     <g id="text_13">
      <!-- 50 -->
      <g transform="translate(83.775 46.854828) scale(0.1 -0.1)">
       <use xlink:href="#DejaVuSans-18"/>
       <use xlink:href="#DejaVuSans-13" transform="translate(63.625 0)"/>
      </g>
     </g>
    </g>
    <g id="text_14">
     <!-- Overall success (%) -->
     <g transform="translate(77.372656 198.297812) rotate(-90) scale(0.1 -0.1)">
      <defs>
       <path id="DejaVuSans-32" d="M 2522 4238
Q 1834 4238 1429 3725
Q 1025 3213 1025 2328
Q 1025 1447 1429 934
Q 1834 422 2522 422
Q 3209 422 3611 934
Q 4013 1447 4013 2328
Q 4013 3213 3611 3725
Q 3209 4238 2522 4238
z
M 2522 4750
Q 3503 4750 4090 4092
Q 4678 3434 4678 2328
Q 4678 1225 4090 567
Q 3503 -91 2522 -91
Q 1538 -91 948 565
Q 359 1222 359 2328
Q 359 3434 948 4092
Q 1538 4750 2522 4750
z
" transform="scale(0.015625)"/>
       <path id="DejaVuSans-58" d="M 544 1381
L 544 3500
L 1119 3500
L 1119 1403
Q 1119 906 1312 657
Q 1506 409 1894 409
Q 2359 409 2629 706
Q 2900 1003 2900 1516
L 2900 3500
L 3475 3500
L 3475 0
L 2900 0
L 2900 538
Q 2691 219 2414 64
Q 2138 -91 1772 -91
Q 1169 -91 856 284
Q 544 659 544 1381
z
M 1991 3584
L 1991 3584
z
" transform="scale(0.015625)"/>
       <path id="DejaVuSans-8" d="M 4653 2053
Q 4381 2053 4226 1822
Q 4072 1591 4072 1178
Q 4072 772 4226 539
Q 4381 306 4653 306
Q 4919 306 5073 539
Q 5228 772 5228 1178
Q 5228 1588 5073 1820
Q 4919 2053 4653 2053
z
M 4653 2450
Q 5147 2450 5437 2106
Q 5728 1763 5728 1178
Q 5728 594 5436 251
Q 5144 -91 4653 -91
Q 4153 -91 3862 251
Q 3572 594 3572 1178
Q 3572 1766 3864 2108
Q 4156 2450 4653 2450
z
M 1428 4353
Q 1159 4353 1004 4120
Q 850 3888 850 3481
Q 850 3069 1003 2837
Q 1156 2606 1428 2606
Q 1700 2606 1854 2837
Q 2009 3069 2009 3481
Q 2009 3884 1853 4118
Q 1697 4353 1428 4353
z
M 4250 4750
L 4750 4750
L 1831 -91
L 1331 -91
L 4250 4750
z
M 1428 4750
Q 1922 4750 2215 4408
Q 2509 4066 2509 3481
Q 2509 2891 2217 2550
Q 1925 2209 1428 2209
Q 931 2209 642 2551
Q 353 2894 353 3481
Q 353 4063 643 4406
Q 934 4750 1428 4750
z
" transform="scale(0.015625)"/>
      </defs>
      <use xlink:href="#DejaVuSans-32"/>
      <use xlink:href="#DejaVuSans-59" transform="translate(78.71875 0)"/>
      <use xlink:href="#DejaVuSans-48" transform="translate(137.90625 0)"/>
      <use xlink:href="#DejaVuSans-55" transform="translate(199.4375 0)"/>
      <use xlink:href="#DejaVuSans-44" transform="translate(240.546875 0)"/>
      <use xlink:href="#DejaVuSans-4f" transform="translate(301.828125 0)"/>
      <use xlink:href="#DejaVuSans-4f" transform="translate(329.609375 0)"/>
      <use xlink:href="#DejaVuSans-3" transform="translate(357.390625 0)"/>
      <use xlink:href="#DejaVuSans-56" transform="translate(389.171875 0)"/>
      <use xlink:href="#DejaVuSans-58" transform="translate(441.265625 0)"/>
      <use xlink:href="#DejaVuSans-46" transform="translate(504.640625 0)"/>
      <use xlink:href="#DejaVuSans-46" transform="translate(559.625 0)"/>
      <use xlink:href="#DejaVuSans-48" transform="translate(614.609375 0)"/>
      <use xlink:href="#DejaVuSans-56" transform="translate(676.140625 0)"/>
      <use xlink:href="#DejaVuSans-56" transform="translate(728.234375 0)"/>
      <use xlink:href="#DejaVuSans-3" transform="translate(780.328125 0)"/>
      <use xlink:href="#DejaVuSans-b" transform="translate(812.109375 0)"/>
      <use xlink:href="#DejaVuSans-8" transform="translate(851.125 0)"/>
      <use xlink:href="#DejaVuSans-c" transform="translate(946.140625 0)"/>
     </g>
    </g>
   </g>
   <g id="patch_3">
    <path d="M 103.5 255.024
L 103.5 43.056
" style="fill: none; stroke: #000000; stroke-width: 0.8; stroke-linejoin: miter; stroke-linecap: square"/>
   </g>
   <g id="patch_4">
    <path d="M 103.5 255.024
L 384.947368 255.024
" style="fill: none; stroke: #000000; stroke-width: 0.8; stroke-linejoin: miter; stroke-linecap: square"/>
   </g>
   <g id="PathCollection_1">
    <defs>
     <path id="mc01c4a38b3" d="M 0 4.031129
C 1.069068 4.031129 2.094493 3.606384 2.850439 2.850439
C 3.606384 2.094493 4.031129 1.069068 4.031129 0
C 4.031129 -1.069068 3.606384 -2.094493 2.850439 -2.850439
C 2.094493 -3.606384 1.069068 -4.031129 0 -4.031129
C -1.069068 -4.031129 -2.094493 -3.606384 -2.850439 -2.850439
C -3.606384 -2.094493 -4.031129 -1.069068 -4.031129 0
C -4.031129 1.069068 -3.606384 2.094493 -2.850439 2.850439
C -2.094493 3.606384 -1.069068 4.031129 0 4.031129
z
" style="stroke: #64748b"/>
    </defs>
    <g clip-path="url(#p940cb0ed7f)">
     <use xlink:href="#mc01c4a38b3" x="129.086124" y="212.6304" style="fill: #64748b; stroke: #64748b"/>
    </g>
   </g>
   <g id="text_15">
    <!-- Actor, one episode -->
    <g transform="translate(139.086124 192.828642) scale(0.09 -0.09)">
     <defs>
      <path id="DejaVuSans-24" d="M 2188 4044
L 1331 1722
L 3047 1722
L 2188 4044
z
M 1831 4666
L 2547 4666
L 4325 0
L 3669 0
L 3244 1197
L 1141 1197
L 716 0
L 50 0
L 1831 4666
z
" transform="scale(0.015625)"/>
      <path id="DejaVuSans-f" d="M 750 794
L 1409 794
L 1409 256
L 897 -744
L 494 -744
L 750 256
L 750 794
z
" transform="scale(0.015625)"/>
     </defs>
     <use xlink:href="#DejaVuSans-24"/>
     <use xlink:href="#DejaVuSans-46" transform="translate(66.65625 0)"/>
     <use xlink:href="#DejaVuSans-57" transform="translate(121.640625 0)"/>
     <use xlink:href="#DejaVuSans-52" transform="translate(160.84375 0)"/>
     <use xlink:href="#DejaVuSans-55" transform="translate(222.03125 0)"/>
     <use xlink:href="#DejaVuSans-f" transform="translate(263.140625 0)"/>
     <use xlink:href="#DejaVuSans-3" transform="translate(294.921875 0)"/>
     <use xlink:href="#DejaVuSans-52" transform="translate(326.703125 0)"/>
     <use xlink:href="#DejaVuSans-51" transform="translate(387.890625 0)"/>
     <use xlink:href="#DejaVuSans-48" transform="translate(451.265625 0)"/>
     <use xlink:href="#DejaVuSans-3" transform="translate(512.796875 0)"/>
     <use xlink:href="#DejaVuSans-48" transform="translate(544.578125 0)"/>
     <use xlink:href="#DejaVuSans-53" transform="translate(606.109375 0)"/>
     <use xlink:href="#DejaVuSans-4c" transform="translate(669.59375 0)"/>
     <use xlink:href="#DejaVuSans-56" transform="translate(697.375 0)"/>
     <use xlink:href="#DejaVuSans-52" transform="translate(749.46875 0)"/>
     <use xlink:href="#DejaVuSans-47" transform="translate(810.65625 0)"/>
     <use xlink:href="#DejaVuSans-48" transform="translate(874.140625 0)"/>
    </g>
    <!-- 30.00% -->
    <g transform="translate(139.086124 203.6304) scale(0.09 -0.09)">
     <defs>
      <path id="DejaVuSans-11" d="M 684 794
L 1344 794
L 1344 0
L 684 0
L 684 794
z
" transform="scale(0.015625)"/>
     </defs>
     <use xlink:href="#DejaVuSans-16"/>
     <use xlink:href="#DejaVuSans-13" transform="translate(63.625 0)"/>
     <use xlink:href="#DejaVuSans-11" transform="translate(127.25 0)"/>
     <use xlink:href="#DejaVuSans-13" transform="translate(159.03125 0)"/>
     <use xlink:href="#DejaVuSans-13" transform="translate(222.65625 0)"/>
     <use xlink:href="#DejaVuSans-8" transform="translate(286.28125 0)"/>
    </g>
   </g>
   <g id="PathCollection_2">
    <defs>
     <path id="m5814cf767f" d="M 0 4.031129
C 1.069068 4.031129 2.094493 3.606384 2.850439 2.850439
C 3.606384 2.094493 4.031129 1.069068 4.031129 0
C 4.031129 -1.069068 3.606384 -2.094493 2.850439 -2.850439
C 2.094493 -3.606384 1.069068 -4.031129 0 -4.031129
C -1.069068 -4.031129 -2.094493 -3.606384 -2.850439 -2.850439
C -3.606384 -2.094493 -4.031129 -1.069068 -4.031129 0
C -4.031129 1.069068 -3.606384 2.094493 -2.850439 2.850439
C -2.094493 3.606384 -1.069068 4.031129 0 4.031129
z
" style="stroke: #d97706"/>
    </defs>
    <g clip-path="url(#p940cb0ed7f)">
     <use xlink:href="#m5814cf767f" x="342.679729" y="144.80064" style="fill: #d97706; stroke: #d97706"/>
    </g>
   </g>
   <g id="text_16">
    <!-- ScalarRM -->
    <g transform="translate(272.679729 155.998882) scale(0.09 -0.09)">
     <defs>
      <path id="DejaVuSans-35" d="M 2841 2188
Q 3044 2119 3236 1894
Q 3428 1669 3622 1275
L 4263 0
L 3584 0
L 2988 1197
Q 2756 1666 2539 1819
Q 2322 1972 1947 1972
L 1259 1972
L 1259 0
L 628 0
L 628 4666
L 2053 4666
Q 2853 4666 3247 4331
Q 3641 3997 3641 3322
Q 3641 2881 3436 2590
Q 3231 2300 2841 2188
z
M 1259 4147
L 1259 2491
L 2053 2491
Q 2509 2491 2742 2702
Q 2975 2913 2975 3322
Q 2975 3731 2742 3939
Q 2509 4147 2053 4147
L 1259 4147
z
" transform="scale(0.015625)"/>
      <path id="DejaVuSans-30" d="M 628 4666
L 1569 4666
L 2759 1491
L 3956 4666
L 4897 4666
L 4897 0
L 4281 0
L 4281 4097
L 3078 897
L 2444 897
L 1241 4097
L 1241 0
L 628 0
L 628 4666
z
" transform="scale(0.015625)"/>
     </defs>
     <use xlink:href="#DejaVuSans-36"/>
     <use xlink:href="#DejaVuSans-46" transform="translate(63.484375 0)"/>
     <use xlink:href="#DejaVuSans-44" transform="translate(118.46875 0)"/>
     <use xlink:href="#DejaVuSans-4f" transform="translate(179.75 0)"/>
     <use xlink:href="#DejaVuSans-44" transform="translate(207.53125 0)"/>
     <use xlink:href="#DejaVuSans-55" transform="translate(268.8125 0)"/>
     <use xlink:href="#DejaVuSans-35" transform="translate(309.921875 0)"/>
     <use xlink:href="#DejaVuSans-30" transform="translate(379.40625 0)"/>
    </g>
    <!-- 38.00% -->
    <g transform="translate(272.679729 166.80064) scale(0.09 -0.09)">
     <defs>
      <path id="DejaVuSans-1b" d="M 2034 2216
Q 1584 2216 1326 1975
Q 1069 1734 1069 1313
Q 1069 891 1326 650
Q 1584 409 2034 409
Q 2484 409 2743 651
Q 3003 894 3003 1313
Q 3003 1734 2745 1975
Q 2488 2216 2034 2216
z
M 1403 2484
Q 997 2584 770 2862
Q 544 3141 544 3541
Q 544 4100 942 4425
Q 1341 4750 2034 4750
Q 2731 4750 3128 4425
Q 3525 4100 3525 3541
Q 3525 3141 3298 2862
Q 3072 2584 2669 2484
Q 3125 2378 3379 2068
Q 3634 1759 3634 1313
Q 3634 634 3220 271
Q 2806 -91 2034 -91
Q 1263 -91 848 271
Q 434 634 434 1313
Q 434 1759 690 2068
Q 947 2378 1403 2484
z
M 1172 3481
Q 1172 3119 1398 2916
Q 1625 2713 2034 2713
Q 2441 2713 2670 2916
Q 2900 3119 2900 3481
Q 2900 3844 2670 4047
Q 2441 4250 2034 4250
Q 1625 4250 1398 4047
Q 1172 3844 1172 3481
z
" transform="scale(0.015625)"/>
     </defs>
     <use xlink:href="#DejaVuSans-16"/>
     <use xlink:href="#DejaVuSans-1b" transform="translate(63.625 0)"/>
     <use xlink:href="#DejaVuSans-11" transform="translate(127.25 0)"/>
     <use xlink:href="#DejaVuSans-13" transform="translate(159.03125 0)"/>
     <use xlink:href="#DejaVuSans-13" transform="translate(222.65625 0)"/>
     <use xlink:href="#DejaVuSans-8" transform="translate(286.28125 0)"/>
    </g>
   </g>
   <g id="PathCollection_3">
    <defs>
     <path id="m24bc095cdb" d="M 0 4.031129
C 1.069068 4.031129 2.094493 3.606384 2.850439 2.850439
C 3.606384 2.094493 4.031129 1.069068 4.031129 0
C 4.031129 -1.069068 3.606384 -2.094493 2.850439 -2.850439
C 2.094493 -3.606384 1.069068 -4.031129 0 -4.031129
C -1.069068 -4.031129 -2.094493 -3.606384 -2.850439 -2.850439
C -3.606384 -2.094493 -4.031129 -1.069068 -4.031129 0
C -4.031129 1.069068 -3.606384 2.094493 -2.850439 2.850439
C -2.094493 3.606384 -1.069068 4.031129 0 4.031129
z
" style="stroke: #2563eb"/>
    </defs>
    <g clip-path="url(#p940cb0ed7f)">
     <use xlink:href="#m24bc095cdb" x="336.552221" y="105.23328" style="fill: #2563eb; stroke: #2563eb"/>
    </g>
   </g>
   <g id="text_17">
    <!-- SelectionARM -->
    <g transform="translate(241.552221 84.431522) scale(0.09 -0.09)">
     <use xlink:href="#DejaVuSans-36"/>
     <use xlink:href="#DejaVuSans-48" transform="translate(63.484375 0)"/>
     <use xlink:href="#DejaVuSans-4f" transform="translate(125.015625 0)"/>
     <use xlink:href="#DejaVuSans-48" transform="translate(152.796875 0)"/>
     <use xlink:href="#DejaVuSans-46" transform="translate(214.328125 0)"/>
     <use xlink:href="#DejaVuSans-57" transform="translate(269.3125 0)"/>
     <use xlink:href="#DejaVuSans-4c" transform="translate(308.515625 0)"/>
     <use xlink:href="#DejaVuSans-52" transform="translate(336.296875 0)"/>
     <use xlink:href="#DejaVuSans-51" transform="translate(397.484375 0)"/>
     <use xlink:href="#DejaVuSans-24" transform="translate(460.859375 0)"/>
     <use xlink:href="#DejaVuSans-35" transform="translate(529.265625 0)"/>
     <use xlink:href="#DejaVuSans-30" transform="translate(598.75 0)"/>
    </g>
    <!-- 42.67% -->
    <g transform="translate(241.552221 95.23328) scale(0.09 -0.09)">
     <defs>
      <path id="DejaVuSans-1a" d="M 525 4666
L 3525 4666
L 3525 4397
L 1831 0
L 1172 0
L 2766 4134
L 525 4134
L 525 4666
z
" transform="scale(0.015625)"/>
     </defs>
     <use xlink:href="#DejaVuSans-17"/>
     <use xlink:href="#DejaVuSans-15" transform="translate(63.625 0)"/>
     <use xlink:href="#DejaVuSans-11" transform="translate(127.25 0)"/>
     <use xlink:href="#DejaVuSans-19" transform="translate(159.03125 0)"/>
     <use xlink:href="#DejaVuSans-1a" transform="translate(222.65625 0)"/>
     <use xlink:href="#DejaVuSans-8" transform="translate(286.28125 0)"/>
    </g>
   </g>
   <g id="text_18">
    <!-- Selector compute is additional -->
    <g style="fill: #475569" transform="translate(111.943421 63.513553) scale(0.09 -0.09)">
     <defs>
      <path id="DejaVuSans-50" d="M 3328 2828
Q 3544 3216 3844 3400
Q 4144 3584 4550 3584
Q 5097 3584 5394 3201
Q 5691 2819 5691 2113
L 5691 0
L 5113 0
L 5113 2094
Q 5113 2597 4934 2840
Q 4756 3084 4391 3084
Q 3944 3084 3684 2787
Q 3425 2491 3425 1978
L 3425 0
L 2847 0
L 2847 2094
Q 2847 2600 2669 2842
Q 2491 3084 2119 3084
Q 1678 3084 1418 2786
Q 1159 2488 1159 1978
L 1159 0
L 581 0
L 581 3500
L 1159 3500
L 1159 2956
Q 1356 3278 1631 3431
Q 1906 3584 2284 3584
Q 2666 3584 2933 3390
Q 3200 3197 3328 2828
z
" transform="scale(0.015625)"/>
     </defs>
     <use xlink:href="#DejaVuSans-36"/>
     <use xlink:href="#DejaVuSans-48" transform="translate(63.484375 0)"/>
     <use xlink:href="#DejaVuSans-4f" transform="translate(125.015625 0)"/>
     <use xlink:href="#DejaVuSans-48" transform="translate(152.796875 0)"/>
     <use xlink:href="#DejaVuSans-46" transform="translate(214.328125 0)"/>
     <use xlink:href="#DejaVuSans-57" transform="translate(269.3125 0)"/>
     <use xlink:href="#DejaVuSans-52" transform="translate(308.515625 0)"/>
     <use xlink:href="#DejaVuSans-55" transform="translate(369.703125 0)"/>
     <use xlink:href="#DejaVuSans-3" transform="translate(410.8125 0)"/>
     <use xlink:href="#DejaVuSans-46" transform="translate(442.59375 0)"/>
     <use xlink:href="#DejaVuSans-52" transform="translate(497.578125 0)"/>
     <use xlink:href="#DejaVuSans-50" transform="translate(558.765625 0)"/>
     <use xlink:href="#DejaVuSans-53" transform="translate(656.171875 0)"/>
     <use xlink:href="#DejaVuSans-58" transform="translate(719.65625 0)"/>
     <use xlink:href="#DejaVuSans-57" transform="translate(783.03125 0)"/>
     <use xlink:href="#DejaVuSans-48" transform="translate(822.234375 0)"/>
     <use xlink:href="#DejaVuSans-3" transform="translate(883.765625 0)"/>
     <use xlink:href="#DejaVuSans-4c" transform="translate(915.546875 0)"/>
     <use xlink:href="#DejaVuSans-56" transform="translate(943.328125 0)"/>
     <use xlink:href="#DejaVuSans-3" transform="translate(995.421875 0)"/>
     <use xlink:href="#DejaVuSans-44" transform="translate(1027.203125 0)"/>
     <use xlink:href="#DejaVuSans-47" transform="translate(1088.484375 0)"/>
     <use xlink:href="#DejaVuSans-47" transform="translate(1151.96875 0)"/>
     <use xlink:href="#DejaVuSans-4c" transform="translate(1215.453125 0)"/>
     <use xlink:href="#DejaVuSans-57" transform="translate(1243.234375 0)"/>
     <use xlink:href="#DejaVuSans-4c" transform="translate(1282.4375 0)"/>
     <use xlink:href="#DejaVuSans-52" transform="translate(1310.21875 0)"/>
     <use xlink:href="#DejaVuSans-51" transform="translate(1371.40625 0)"/>
     <use xlink:href="#DejaVuSans-44" transform="translate(1434.78125 0)"/>
     <use xlink:href="#DejaVuSans-4f" transform="translate(1496.0625 0)"/>
    </g>
    <!-- Episode pass@5 control is missing -->
    <g style="fill: #475569" transform="translate(111.943421 74.316014) scale(0.09 -0.09)">
     <defs>
      <path id="DejaVuSans-28" d="M 628 4666
L 3578 4666
L 3578 4134
L 1259 4134
L 1259 2753
L 3481 2753
L 3481 2222
L 1259 2222
L 1259 531
L 3634 531
L 3634 0
L 628 0
L 628 4666
z
" transform="scale(0.015625)"/>
      <path id="DejaVuSans-23" d="M 2381 1678
Q 2381 1231 2603 976
Q 2825 722 3213 722
Q 3597 722 3817 978
Q 4038 1234 4038 1678
Q 4038 2116 3813 2373
Q 3588 2631 3206 2631
Q 2828 2631 2604 2375
Q 2381 2119 2381 1678
z
M 4084 744
Q 3897 503 3655 389
Q 3413 275 3091 275
Q 2553 275 2217 664
Q 1881 1053 1881 1678
Q 1881 2303 2218 2693
Q 2556 3084 3091 3084
Q 3413 3084 3656 2967
Q 3900 2850 4084 2613
L 4084 3022
L 4531 3022
L 4531 722
Q 4988 791 5245 1139
Q 5503 1488 5503 2041
Q 5503 2375 5404 2669
Q 5306 2963 5106 3213
Q 4781 3622 4314 3839
Q 3847 4056 3297 4056
Q 2913 4056 2559 3954
Q 2206 3853 1906 3653
Q 1416 3334 1139 2817
Q 863 2300 863 1697
Q 863 1200 1042 765
Q 1222 331 1563 0
Q 1891 -325 2322 -495
Q 2753 -666 3244 -666
Q 3647 -666 4036 -530
Q 4425 -394 4750 -141
L 5031 -488
Q 4641 -791 4180 -952
Q 3719 -1113 3244 -1113
Q 2666 -1113 2153 -908
Q 1641 -703 1241 -313
Q 841 78 631 592
Q 422 1106 422 1697
Q 422 2266 634 2781
Q 847 3297 1241 3688
Q 1644 4084 2172 4295
Q 2700 4506 3291 4506
Q 3953 4506 4520 4234
Q 5088 3963 5472 3463
Q 5706 3156 5829 2797
Q 5953 2438 5953 2053
Q 5953 1231 5456 756
Q 4959 281 4084 263
L 4084 744
z
" transform="scale(0.015625)"/>
      <path id="DejaVuSans-4a" d="M 2906 1791
Q 2906 2416 2648 2759
Q 2391 3103 1925 3103
Q 1463 3103 1205 2759
Q 947 2416 947 1791
Q 947 1169 1205 825
Q 1463 481 1925 481
Q 2391 481 2648 825
Q 2906 1169 2906 1791
z
M 3481 434
Q 3481 -459 3084 -895
Q 2688 -1331 1869 -1331
Q 1566 -1331 1297 -1286
Q 1028 -1241 775 -1147
L 775 -588
Q 1028 -725 1275 -790
Q 1522 -856 1778 -856
Q 2344 -856 2625 -561
Q 2906 -266 2906 331
L 2906 616
Q 2728 306 2450 153
Q 2172 0 1784 0
Q 1141 0 747 490
Q 353 981 353 1791
Q 353 2603 747 3093
Q 1141 3584 1784 3584
Q 2172 3584 2450 3431
Q 2728 3278 2906 2969
L 2906 3500
L 3481 3500
L 3481 434
z
" transform="scale(0.015625)"/>
     </defs>
     <use xlink:href="#DejaVuSans-28"/>
     <use xlink:href="#DejaVuSans-53" transform="translate(63.1875 0)"/>
     <use xlink:href="#DejaVuSans-4c" transform="translate(126.671875 0)"/>
     <use xlink:href="#DejaVuSans-56" transform="translate(154.453125 0)"/>
     <use xlink:href="#DejaVuSans-52" transform="translate(206.546875 0)"/>
     <use xlink:href="#DejaVuSans-47" transform="translate(267.734375 0)"/>
     <use xlink:href="#DejaVuSans-48" transform="translate(331.21875 0)"/>
     <use xlink:href="#DejaVuSans-3" transform="translate(392.75 0)"/>
     <use xlink:href="#DejaVuSans-53" transform="translate(424.53125 0)"/>
     <use xlink:href="#DejaVuSans-44" transform="translate(488.015625 0)"/>
     <use xlink:href="#DejaVuSans-56" transform="translate(549.296875 0)"/>
     <use xlink:href="#DejaVuSans-56" transform="translate(601.390625 0)"/>
     <use xlink:href="#DejaVuSans-23" transform="translate(653.484375 0)"/>
     <use xlink:href="#DejaVuSans-18" transform="translate(753.484375 0)"/>
     <use xlink:href="#DejaVuSans-3" transform="translate(817.109375 0)"/>
     <use xlink:href="#DejaVuSans-46" transform="translate(848.890625 0)"/>
     <use xlink:href="#DejaVuSans-52" transform="translate(903.875 0)"/>
     <use xlink:href="#DejaVuSans-51" transform="translate(965.0625 0)"/>
     <use xlink:href="#DejaVuSans-57" transform="translate(1028.4375 0)"/>
     <use xlink:href="#DejaVuSans-55" transform="translate(1067.640625 0)"/>
     <use xlink:href="#DejaVuSans-52" transform="translate(1106.546875 0)"/>
     <use xlink:href="#DejaVuSans-4f" transform="translate(1167.734375 0)"/>
     <use xlink:href="#DejaVuSans-3" transform="translate(1195.515625 0)"/>
     <use xlink:href="#DejaVuSans-4c" transform="translate(1227.296875 0)"/>
     <use xlink:href="#DejaVuSans-56" transform="translate(1255.078125 0)"/>
     <use xlink:href="#DejaVuSans-3" transform="translate(1307.171875 0)"/>
     <use xlink:href="#DejaVuSans-50" transform="translate(1338.953125 0)"/>
     <use xlink:href="#DejaVuSans-4c" transform="translate(1436.359375 0)"/>
     <use xlink:href="#DejaVuSans-56" transform="translate(1464.140625 0)"/>
     <use xlink:href="#DejaVuSans-56" transform="translate(1516.234375 0)"/>
     <use xlink:href="#DejaVuSans-4c" transform="translate(1568.328125 0)"/>
     <use xlink:href="#DejaVuSans-51" transform="translate(1596.109375 0)"/>
     <use xlink:href="#DejaVuSans-4a" transform="translate(1659.484375 0)"/>
    </g>
   </g>
   <g id="text_19">
    <!-- Historical OM2W: 300 tasks -->
    <g transform="translate(161.871809 37.056) scale(0.12 -0.12)">
     <defs>
      <path id="DejaVuSans-2b" d="M 628 4666
L 1259 4666
L 1259 2753
L 3553 2753
L 3553 4666
L 4184 4666
L 4184 0
L 3553 0
L 3553 2222
L 1259 2222
L 1259 0
L 628 0
L 628 4666
z
" transform="scale(0.015625)"/>
      <path id="DejaVuSans-3a" d="M 213 4666
L 850 4666
L 1831 722
L 2809 4666
L 3519 4666
L 4500 722
L 5478 4666
L 6119 4666
L 4947 0
L 4153 0
L 3169 4050
L 2175 0
L 1381 0
L 213 4666
z
" transform="scale(0.015625)"/>
      <path id="DejaVuSans-1d" d="M 750 794
L 1409 794
L 1409 0
L 750 0
L 750 794
z
M 750 3309
L 1409 3309
L 1409 2516
L 750 2516
L 750 3309
z
" transform="scale(0.015625)"/>
     </defs>
     <use xlink:href="#DejaVuSans-2b"/>
     <use xlink:href="#DejaVuSans-4c" transform="translate(75.203125 0)"/>
     <use xlink:href="#DejaVuSans-56" transform="translate(102.984375 0)"/>
     <use xlink:href="#DejaVuSans-57" transform="translate(155.078125 0)"/>
     <use xlink:href="#DejaVuSans-52" transform="translate(194.28125 0)"/>
     <use xlink:href="#DejaVuSans-55" transform="translate(255.46875 0)"/>
     <use xlink:href="#DejaVuSans-4c" transform="translate(296.578125 0)"/>
     <use xlink:href="#DejaVuSans-46" transform="translate(324.359375 0)"/>
     <use xlink:href="#DejaVuSans-44" transform="translate(379.34375 0)"/>
     <use xlink:href="#DejaVuSans-4f" transform="translate(440.625 0)"/>
     <use xlink:href="#DejaVuSans-3" transform="translate(468.40625 0)"/>
     <use xlink:href="#DejaVuSans-32" transform="translate(500.1875 0)"/>
     <use xlink:href="#DejaVuSans-30" transform="translate(578.90625 0)"/>
     <use xlink:href="#DejaVuSans-15" transform="translate(665.1875 0)"/>
     <use xlink:href="#DejaVuSans-3a" transform="translate(728.8125 0)"/>
     <use xlink:href="#DejaVuSans-1d" transform="translate(821.828125 0)"/>
     <use xlink:href="#DejaVuSans-3" transform="translate(855.515625 0)"/>
     <use xlink:href="#DejaVuSans-16" transform="translate(887.296875 0)"/>
     <use xlink:href="#DejaVuSans-13" transform="translate(950.921875 0)"/>
     <use xlink:href="#DejaVuSans-13" transform="translate(1014.546875 0)"/>
     <use xlink:href="#DejaVuSans-3" transform="translate(1078.171875 0)"/>
     <use xlink:href="#DejaVuSans-57" transform="translate(1109.953125 0)"/>
     <use xlink:href="#DejaVuSans-44" transform="translate(1149.15625 0)"/>
     <use xlink:href="#DejaVuSans-56" transform="translate(1210.4375 0)"/>
     <use xlink:href="#DejaVuSans-4e" transform="translate(1262.53125 0)"/>
     <use xlink:href="#DejaVuSans-56" transform="translate(1320.4375 0)"/>
    </g>
   </g>
  </g>
  <g id="axes_2">
   <g id="patch_5">
    <path d="M 463.752632 255.024
L 745.2 255.024
L 745.2 43.056
L 463.752632 43.056
z
" style="fill: #ffffff"/>
   </g>
   <g id="matplotlib.axis_3">
    <g id="xtick_7">
     <g id="line2d_25">
      <path d="M 484.861184 255.024
L 484.861184 43.056
" clip-path="url(#p55de0cfe99)" style="fill: none; stroke: #b0b0b0; stroke-opacity: 0.2; stroke-width: 0.8; stroke-linecap: square"/>
     </g>
     <g id="line2d_26">
      <g>
       <use xlink:href="#m4269b4aeab" x="484.861184" y="255.024" style="stroke: #000000; stroke-width: 0.8"/>
      </g>
     </g>
     <g id="text_20">
      <!-- 2.5 -->
      <g transform="translate(476.909622 269.621656) scale(0.1 -0.1)">
       <use xlink:href="#DejaVuSans-15"/>
       <use xlink:href="#DejaVuSans-11" transform="translate(63.625 0)"/>
       <use xlink:href="#DejaVuSans-18" transform="translate(95.40625 0)"/>
      </g>
     </g>
    </g>
    <g id="xtick_8">
     <g id="line2d_27">
      <path d="M 520.042105 255.024
L 520.042105 43.056
" clip-path="url(#p55de0cfe99)" style="fill: none; stroke: #b0b0b0; stroke-opacity: 0.2; stroke-width: 0.8; stroke-linecap: square"/>
     </g>
     <g id="line2d_28">
      <g>
       <use xlink:href="#m4269b4aeab" x="520.042105" y="255.024" style="stroke: #000000; stroke-width: 0.8"/>
      </g>
     </g>
     <g id="text_21">
      <!-- 5.0 -->
      <g transform="translate(512.090543 269.621656) scale(0.1 -0.1)">
       <use xlink:href="#DejaVuSans-18"/>
       <use xlink:href="#DejaVuSans-11" transform="translate(63.625 0)"/>
       <use xlink:href="#DejaVuSans-13" transform="translate(95.40625 0)"/>
      </g>
     </g>
    </g>
    <g id="xtick_9">
     <g id="line2d_29">
      <path d="M 555.223026 255.024
L 555.223026 43.056
" clip-path="url(#p55de0cfe99)" style="fill: none; stroke: #b0b0b0; stroke-opacity: 0.2; stroke-width: 0.8; stroke-linecap: square"/>
     </g>
     <g id="line2d_30">
      <g>
       <use xlink:href="#m4269b4aeab" x="555.223026" y="255.024" style="stroke: #000000; stroke-width: 0.8"/>
      </g>
     </g>
     <g id="text_22">
      <!-- 7.5 -->
      <g transform="translate(547.271464 269.621656) scale(0.1 -0.1)">
       <use xlink:href="#DejaVuSans-1a"/>
       <use xlink:href="#DejaVuSans-11" transform="translate(63.625 0)"/>
       <use xlink:href="#DejaVuSans-18" transform="translate(95.40625 0)"/>
      </g>
     </g>
    </g>
    <g id="xtick_10">
     <g id="line2d_31">
      <path d="M 590.403947 255.024
L 590.403947 43.056
" clip-path="url(#p55de0cfe99)" style="fill: none; stroke: #b0b0b0; stroke-opacity: 0.2; stroke-width: 0.8; stroke-linecap: square"/>
     </g>
     <g id="line2d_32">
      <g>
       <use xlink:href="#m4269b4aeab" x="590.403947" y="255.024" style="stroke: #000000; stroke-width: 0.8"/>
      </g>
     </g>
     <g id="text_23">
      <!-- 10.0 -->
      <g transform="translate(579.271135 269.621656) scale(0.1 -0.1)">
       <use xlink:href="#DejaVuSans-14"/>
       <use xlink:href="#DejaVuSans-13" transform="translate(63.625 0)"/>
       <use xlink:href="#DejaVuSans-11" transform="translate(127.25 0)"/>
       <use xlink:href="#DejaVuSans-13" transform="translate(159.03125 0)"/>
      </g>
     </g>
    </g>
    <g id="xtick_11">
     <g id="line2d_33">
      <path d="M 625.584868 255.024
L 625.584868 43.056
" clip-path="url(#p55de0cfe99)" style="fill: none; stroke: #b0b0b0; stroke-opacity: 0.2; stroke-width: 0.8; stroke-linecap: square"/>
     </g>
     <g id="line2d_34">
      <g>
       <use xlink:href="#m4269b4aeab" x="625.584868" y="255.024" style="stroke: #000000; stroke-width: 0.8"/>
      </g>
     </g>
     <g id="text_24">
      <!-- 12.5 -->
      <g transform="translate(614.452056 269.621656) scale(0.1 -0.1)">
       <use xlink:href="#DejaVuSans-14"/>
       <use xlink:href="#DejaVuSans-15" transform="translate(63.625 0)"/>
       <use xlink:href="#DejaVuSans-11" transform="translate(127.25 0)"/>
       <use xlink:href="#DejaVuSans-18" transform="translate(159.03125 0)"/>
      </g>
     </g>
    </g>
    <g id="xtick_12">
     <g id="line2d_35">
      <path d="M 660.765789 255.024
L 660.765789 43.056
" clip-path="url(#p55de0cfe99)" style="fill: none; stroke: #b0b0b0; stroke-opacity: 0.2; stroke-width: 0.8; stroke-linecap: square"/>
     </g>
     <g id="line2d_36">
      <g>
       <use xlink:href="#m4269b4aeab" x="660.765789" y="255.024" style="stroke: #000000; stroke-width: 0.8"/>
      </g>
     </g>
     <g id="text_25">
      <!-- 15.0 -->
      <g transform="translate(649.632977 269.621656) scale(0.1 -0.1)">
       <use xlink:href="#DejaVuSans-14"/>
       <use xlink:href="#DejaVuSans-18" transform="translate(63.625 0)"/>
       <use xlink:href="#DejaVuSans-11" transform="translate(127.25 0)"/>
       <use xlink:href="#DejaVuSans-13" transform="translate(159.03125 0)"/>
      </g>
     </g>
    </g>
    <g id="xtick_13">
     <g id="line2d_37">
      <path d="M 695.946711 255.024
L 695.946711 43.056
" clip-path="url(#p55de0cfe99)" style="fill: none; stroke: #b0b0b0; stroke-opacity: 0.2; stroke-width: 0.8; stroke-linecap: square"/>
     </g>
     <g id="line2d_38">
      <g>
       <use xlink:href="#m4269b4aeab" x="695.946711" y="255.024" style="stroke: #000000; stroke-width: 0.8"/>
      </g>
     </g>
     <g id="text_26">
      <!-- 17.5 -->
      <g transform="translate(684.813898 269.621656) scale(0.1 -0.1)">
       <use xlink:href="#DejaVuSans-14"/>
       <use xlink:href="#DejaVuSans-1a" transform="translate(63.625 0)"/>
       <use xlink:href="#DejaVuSans-11" transform="translate(127.25 0)"/>
       <use xlink:href="#DejaVuSans-18" transform="translate(159.03125 0)"/>
      </g>
     </g>
    </g>
    <g id="xtick_14">
     <g id="line2d_39">
      <path d="M 731.127632 255.024
L 731.127632 43.056
" clip-path="url(#p55de0cfe99)" style="fill: none; stroke: #b0b0b0; stroke-opacity: 0.2; stroke-width: 0.8; stroke-linecap: square"/>
     </g>
     <g id="line2d_40">
      <g>
       <use xlink:href="#m4269b4aeab" x="731.127632" y="255.024" style="stroke: #000000; stroke-width: 0.8"/>
      </g>
     </g>
     <g id="text_27">
      <!-- 20.0 -->
      <g transform="translate(719.994819 269.621656) scale(0.1 -0.1)">
       <use xlink:href="#DejaVuSans-15"/>
       <use xlink:href="#DejaVuSans-13" transform="translate(63.625 0)"/>
       <use xlink:href="#DejaVuSans-11" transform="translate(127.25 0)"/>
       <use xlink:href="#DejaVuSans-13" transform="translate(159.03125 0)"/>
      </g>
     </g>
    </g>
    <g id="text_28">
     <!-- Actor output tokens / task (thousands, metered) -->
     <g transform="translate(483.854441 283.622437) scale(0.1 -0.1)">
      <defs>
       <path id="DejaVuSans-4b" d="M 3513 2113
L 3513 0
L 2938 0
L 2938 2094
Q 2938 2591 2744 2837
Q 2550 3084 2163 3084
Q 1697 3084 1428 2787
Q 1159 2491 1159 1978
L 1159 0
L 581 0
L 581 4863
L 1159 4863
L 1159 2956
Q 1366 3272 1645 3428
Q 1925 3584 2291 3584
Q 2894 3584 3203 3211
Q 3513 2838 3513 2113
z
" transform="scale(0.015625)"/>
      </defs>
      <use xlink:href="#DejaVuSans-24"/>
      <use xlink:href="#DejaVuSans-46" transform="translate(66.65625 0)"/>
      <use xlink:href="#DejaVuSans-57" transform="translate(121.640625 0)"/>
      <use xlink:href="#DejaVuSans-52" transform="translate(160.84375 0)"/>
      <use xlink:href="#DejaVuSans-55" transform="translate(222.03125 0)"/>
      <use xlink:href="#DejaVuSans-3" transform="translate(263.140625 0)"/>
      <use xlink:href="#DejaVuSans-52" transform="translate(294.921875 0)"/>
      <use xlink:href="#DejaVuSans-58" transform="translate(356.109375 0)"/>
      <use xlink:href="#DejaVuSans-57" transform="translate(419.484375 0)"/>
      <use xlink:href="#DejaVuSans-53" transform="translate(458.6875 0)"/>
      <use xlink:href="#DejaVuSans-58" transform="translate(522.171875 0)"/>
      <use xlink:href="#DejaVuSans-57" transform="translate(585.546875 0)"/>
      <use xlink:href="#DejaVuSans-3" transform="translate(624.75 0)"/>
      <use xlink:href="#DejaVuSans-57" transform="translate(656.53125 0)"/>
      <use xlink:href="#DejaVuSans-52" transform="translate(695.734375 0)"/>
      <use xlink:href="#DejaVuSans-4e" transform="translate(756.921875 0)"/>
      <use xlink:href="#DejaVuSans-48" transform="translate(811.265625 0)"/>
      <use xlink:href="#DejaVuSans-51" transform="translate(872.796875 0)"/>
      <use xlink:href="#DejaVuSans-56" transform="translate(936.171875 0)"/>
      <use xlink:href="#DejaVuSans-3" transform="translate(988.265625 0)"/>
      <use xlink:href="#DejaVuSans-12" transform="translate(1020.046875 0)"/>
      <use xlink:href="#DejaVuSans-3" transform="translate(1053.734375 0)"/>
      <use xlink:href="#DejaVuSans-57" transform="translate(1085.515625 0)"/>
      <use xlink:href="#DejaVuSans-44" transform="translate(1124.71875 0)"/>
      <use xlink:href="#DejaVuSans-56" transform="translate(1186 0)"/>
      <use xlink:href="#DejaVuSans-4e" transform="translate(1238.09375 0)"/>
      <use xlink:href="#DejaVuSans-3" transform="translate(1296 0)"/>
      <use xlink:href="#DejaVuSans-b" transform="translate(1327.78125 0)"/>
      <use xlink:href="#DejaVuSans-57" transform="translate(1366.796875 0)"/>
      <use xlink:href="#DejaVuSans-4b" transform="translate(1406 0)"/>
      <use xlink:href="#DejaVuSans-52" transform="translate(1469.375 0)"/>
      <use xlink:href="#DejaVuSans-58" transform="translate(1530.5625 0)"/>
      <use xlink:href="#DejaVuSans-56" transform="translate(1593.9375 0)"/>
      <use xlink:href="#DejaVuSans-44" transform="translate(1646.03125 0)"/>
      <use xlink:href="#DejaVuSans-51" transform="translate(1707.3125 0)"/>
      <use xlink:href="#DejaVuSans-47" transform="translate(1770.6875 0)"/>
      <use xlink:href="#DejaVuSans-56" transform="translate(1834.171875 0)"/>
      <use xlink:href="#DejaVuSans-f" transform="translate(1886.265625 0)"/>
      <use xlink:href="#DejaVuSans-3" transform="translate(1918.046875 0)"/>
      <use xlink:href="#DejaVuSans-50" transform="translate(1949.828125 0)"/>
      <use xlink:href="#DejaVuSans-48" transform="translate(2047.234375 0)"/>
      <use xlink:href="#DejaVuSans-57" transform="translate(2108.765625 0)"/>
      <use xlink:href="#DejaVuSans-48" transform="translate(2147.96875 0)"/>
      <use xlink:href="#DejaVuSans-55" transform="translate(2209.5 0)"/>
      <use xlink:href="#DejaVuSans-48" transform="translate(2248.40625 0)"/>
      <use xlink:href="#DejaVuSans-47" transform="translate(2309.9375 0)"/>
      <use xlink:href="#DejaVuSans-c" transform="translate(2373.421875 0)"/>
     </g>
    </g>
   </g>
   <g id="matplotlib.axis_4">
    <g id="ytick_7">
     <g id="line2d_41">
      <path d="M 463.752632 233.8272
L 745.2 233.8272
" clip-path="url(#p55de0cfe99)" style="fill: none; stroke: #b0b0b0; stroke-opacity: 0.2; stroke-width: 0.8; stroke-linecap: square"/>
     </g>
     <g id="line2d_42">
      <g>
       <use xlink:href="#mba2fd1fec2" x="463.752632" y="233.8272" style="stroke: #000000; stroke-width: 0.8"/>
      </g>
     </g>
     <g id="text_29">
      <!-- 30 -->
      <g transform="translate(444.027632 237.626028) scale(0.1 -0.1)">
       <use xlink:href="#DejaVuSans-16"/>
       <use xlink:href="#DejaVuSans-13" transform="translate(63.625 0)"/>
      </g>
     </g>
    </g>
    <g id="ytick_8">
     <g id="line2d_43">
      <path d="M 463.752632 191.4336
L 745.2 191.4336
" clip-path="url(#p55de0cfe99)" style="fill: none; stroke: #b0b0b0; stroke-opacity: 0.2; stroke-width: 0.8; stroke-linecap: square"/>
     </g>
     <g id="line2d_44">
      <g>
       <use xlink:href="#mba2fd1fec2" x="463.752632" y="191.4336" style="stroke: #000000; stroke-width: 0.8"/>
      </g>
     </g>
     <g id="text_30">
      <!-- 40 -->
      <g transform="translate(444.027632 195.232428) scale(0.1 -0.1)">
       <use xlink:href="#DejaVuSans-17"/>
       <use xlink:href="#DejaVuSans-13" transform="translate(63.625 0)"/>
      </g>
     </g>
    </g>
    <g id="ytick_9">
     <g id="line2d_45">
      <path d="M 463.752632 149.04
L 745.2 149.04
" clip-path="url(#p55de0cfe99)" style="fill: none; stroke: #b0b0b0; stroke-opacity: 0.2; stroke-width: 0.8; stroke-linecap: square"/>
     </g>
     <g id="line2d_46">
      <g>
       <use xlink:href="#mba2fd1fec2" x="463.752632" y="149.04" style="stroke: #000000; stroke-width: 0.8"/>
      </g>
     </g>
     <g id="text_31">
      <!-- 50 -->
      <g transform="translate(444.027632 152.838828) scale(0.1 -0.1)">
       <use xlink:href="#DejaVuSans-18"/>
       <use xlink:href="#DejaVuSans-13" transform="translate(63.625 0)"/>
      </g>
     </g>
    </g>
    <g id="ytick_10">
     <g id="line2d_47">
      <path d="M 463.752632 106.6464
L 745.2 106.6464
" clip-path="url(#p55de0cfe99)" style="fill: none; stroke: #b0b0b0; stroke-opacity: 0.2; stroke-width: 0.8; stroke-linecap: square"/>
     </g>
     <g id="line2d_48">
      <g>
       <use xlink:href="#mba2fd1fec2" x="463.752632" y="106.6464" style="stroke: #000000; stroke-width: 0.8"/>
      </g>
     </g>
     <g id="text_32">
      <!-- 60 -->
      <g transform="translate(444.027632 110.445228) scale(0.1 -0.1)">
       <use xlink:href="#DejaVuSans-19"/>
       <use xlink:href="#DejaVuSans-13" transform="translate(63.625 0)"/>
      </g>
     </g>
    </g>
    <g id="ytick_11">
     <g id="line2d_49">
      <path d="M 463.752632 64.2528
L 745.2 64.2528
" clip-path="url(#p55de0cfe99)" style="fill: none; stroke: #b0b0b0; stroke-opacity: 0.2; stroke-width: 0.8; stroke-linecap: square"/>
     </g>
     <g id="line2d_50">
      <g>
       <use xlink:href="#mba2fd1fec2" x="463.752632" y="64.2528" style="stroke: #000000; stroke-width: 0.8"/>
      </g>
     </g>
     <g id="text_33">
      <!-- 70 -->
      <g transform="translate(444.027632 68.051628) scale(0.1 -0.1)">
       <use xlink:href="#DejaVuSans-1a"/>
       <use xlink:href="#DejaVuSans-13" transform="translate(63.625 0)"/>
      </g>
     </g>
    </g>
    <g id="text_34">
     <!-- Episode pass@k (%) -->
     <g transform="translate(437.625288 199.850937) rotate(-90) scale(0.1 -0.1)">
      <use xlink:href="#DejaVuSans-28"/>
      <use xlink:href="#DejaVuSans-53" transform="translate(63.1875 0)"/>
      <use xlink:href="#DejaVuSans-4c" transform="translate(126.671875 0)"/>
      <use xlink:href="#DejaVuSans-56" transform="translate(154.453125 0)"/>
      <use xlink:href="#DejaVuSans-52" transform="translate(206.546875 0)"/>
      <use xlink:href="#DejaVuSans-47" transform="translate(267.734375 0)"/>
      <use xlink:href="#DejaVuSans-48" transform="translate(331.21875 0)"/>
      <use xlink:href="#DejaVuSans-3" transform="translate(392.75 0)"/>
      <use xlink:href="#DejaVuSans-53" transform="translate(424.53125 0)"/>
      <use xlink:href="#DejaVuSans-44" transform="translate(488.015625 0)"/>
      <use xlink:href="#DejaVuSans-56" transform="translate(549.296875 0)"/>
      <use xlink:href="#DejaVuSans-56" transform="translate(601.390625 0)"/>
      <use xlink:href="#DejaVuSans-23" transform="translate(653.484375 0)"/>
      <use xlink:href="#DejaVuSans-4e" transform="translate(753.484375 0)"/>
      <use xlink:href="#DejaVuSans-3" transform="translate(811.390625 0)"/>
      <use xlink:href="#DejaVuSans-b" transform="translate(843.171875 0)"/>
      <use xlink:href="#DejaVuSans-8" transform="translate(882.1875 0)"/>
      <use xlink:href="#DejaVuSans-c" transform="translate(977.203125 0)"/>
     </g>
    </g>
   </g>
   <g id="line2d_51">
    <path d="M 501.190475 208.518221
L 552.700687 152.071142
L 604.210898 121.314586
L 655.72111 101.220019
L 707.231322 86.933376
" clip-path="url(#p55de0cfe99)" style="fill: none; stroke: #0f766e; stroke-width: 2; stroke-linecap: square"/>
    <defs>
     <path id="m9797b58733" d="M 0 3
C 0.795609 3 1.55874 2.683901 2.12132 2.12132
C 2.683901 1.55874 3 0.795609 3 0
C 3 -0.795609 2.683901 -1.55874 2.12132 -2.12132
C 1.55874 -2.683901 0.795609 -3 0 -3
C -0.795609 -3 -1.55874 -2.683901 -2.12132 -2.12132
C -2.683901 -1.55874 -3 -0.795609 -3 0
C -3 0.795609 -2.683901 1.55874 -2.12132 2.12132
C -1.55874 2.683901 -0.795609 3 0 3
z
" style="stroke: #0f766e"/>
    </defs>
    <g clip-path="url(#p55de0cfe99)">
     <use xlink:href="#m9797b58733" x="501.190475" y="208.518221" style="fill: #0f766e; stroke: #0f766e"/>
     <use xlink:href="#m9797b58733" x="552.700687" y="152.071142" style="fill: #0f766e; stroke: #0f766e"/>
     <use xlink:href="#m9797b58733" x="604.210898" y="121.314586" style="fill: #0f766e; stroke: #0f766e"/>
     <use xlink:href="#m9797b58733" x="655.72111" y="101.220019" style="fill: #0f766e; stroke: #0f766e"/>
     <use xlink:href="#m9797b58733" x="707.231322" y="86.933376" style="fill: #0f766e; stroke: #0f766e"/>
    </g>
   </g>
   <g id="patch_6">
    <path d="M 463.752632 255.024
L 463.752632 43.056
" style="fill: none; stroke: #000000; stroke-width: 0.8; stroke-linejoin: miter; stroke-linecap: square"/>
   </g>
   <g id="patch_7">
    <path d="M 463.752632 255.024
L 745.2 255.024
" style="fill: none; stroke: #000000; stroke-width: 0.8; stroke-linejoin: miter; stroke-linecap: square"/>
   </g>
   <g id="text_35">
    <!-- k=1 -->
    <g transform="translate(491.950709 188.716463) scale(0.09 -0.09)">
     <defs>
      <path id="DejaVuSans-20" d="M 678 2906
L 4684 2906
L 4684 2381
L 678 2381
L 678 2906
z
M 678 1631
L 4684 1631
L 4684 1100
L 678 1100
L 678 1631
z
" transform="scale(0.015625)"/>
     </defs>
     <use xlink:href="#DejaVuSans-4e"/>
     <use xlink:href="#DejaVuSans-20" transform="translate(57.90625 0)"/>
     <use xlink:href="#DejaVuSans-14" transform="translate(141.703125 0)"/>
    </g>
    <!-- 35.97% -->
    <g transform="translate(484.032115 199.518221) scale(0.09 -0.09)">
     <defs>
      <path id="DejaVuSans-1c" d="M 703 97
L 703 672
Q 941 559 1184 500
Q 1428 441 1663 441
Q 2288 441 2617 861
Q 2947 1281 2994 2138
Q 2813 1869 2534 1725
Q 2256 1581 1919 1581
Q 1219 1581 811 2004
Q 403 2428 403 3163
Q 403 3881 828 4315
Q 1253 4750 1959 4750
Q 2769 4750 3195 4129
Q 3622 3509 3622 2328
Q 3622 1225 3098 567
Q 2575 -91 1691 -91
Q 1453 -91 1209 -44
Q 966 3 703 97
z
M 1959 2075
Q 2384 2075 2632 2365
Q 2881 2656 2881 3163
Q 2881 3666 2632 3958
Q 2384 4250 1959 4250
Q 1534 4250 1286 3958
Q 1038 3666 1038 3163
Q 1038 2656 1286 2365
Q 1534 2075 1959 2075
z
" transform="scale(0.015625)"/>
     </defs>
     <use xlink:href="#DejaVuSans-16"/>
     <use xlink:href="#DejaVuSans-18" transform="translate(63.625 0)"/>
     <use xlink:href="#DejaVuSans-11" transform="translate(127.25 0)"/>
     <use xlink:href="#DejaVuSans-1c" transform="translate(159.03125 0)"/>
     <use xlink:href="#DejaVuSans-1a" transform="translate(222.65625 0)"/>
     <use xlink:href="#DejaVuSans-8" transform="translate(286.28125 0)"/>
    </g>
   </g>
   <g id="text_36">
    <!-- k=2 -->
    <g transform="translate(543.460921 132.269385) scale(0.09 -0.09)">
     <use xlink:href="#DejaVuSans-4e"/>
     <use xlink:href="#DejaVuSans-20" transform="translate(57.90625 0)"/>
     <use xlink:href="#DejaVuSans-15" transform="translate(141.703125 0)"/>
    </g>
    <!-- 49.29% -->
    <g transform="translate(535.542327 143.071142) scale(0.09 -0.09)">
     <use xlink:href="#DejaVuSans-17"/>
     <use xlink:href="#DejaVuSans-1c" transform="translate(63.625 0)"/>
     <use xlink:href="#DejaVuSans-11" transform="translate(127.25 0)"/>
     <use xlink:href="#DejaVuSans-15" transform="translate(159.03125 0)"/>
     <use xlink:href="#DejaVuSans-1c" transform="translate(222.65625 0)"/>
     <use xlink:href="#DejaVuSans-8" transform="translate(286.28125 0)"/>
    </g>
   </g>
   <g id="text_37">
    <!-- k=3 -->
    <g transform="translate(594.971133 101.512828) scale(0.09 -0.09)">
     <use xlink:href="#DejaVuSans-4e"/>
     <use xlink:href="#DejaVuSans-20" transform="translate(57.90625 0)"/>
     <use xlink:href="#DejaVuSans-16" transform="translate(141.703125 0)"/>
    </g>
    <!-- 56.54% -->
    <g transform="translate(587.052539 112.314586) scale(0.09 -0.09)">
     <use xlink:href="#DejaVuSans-18"/>
     <use xlink:href="#DejaVuSans-19" transform="translate(63.625 0)"/>
     <use xlink:href="#DejaVuSans-11" transform="translate(127.25 0)"/>
     <use xlink:href="#DejaVuSans-18" transform="translate(159.03125 0)"/>
     <use xlink:href="#DejaVuSans-17" transform="translate(222.65625 0)"/>
     <use xlink:href="#DejaVuSans-8" transform="translate(286.28125 0)"/>
    </g>
   </g>
   <g id="text_38">
    <!-- k=4 -->
    <g transform="translate(646.481344 81.418261) scale(0.09 -0.09)">
     <use xlink:href="#DejaVuSans-4e"/>
     <use xlink:href="#DejaVuSans-20" transform="translate(57.90625 0)"/>
     <use xlink:href="#DejaVuSans-17" transform="translate(141.703125 0)"/>
    </g>
    <!-- 61.28% -->
    <g transform="translate(638.562751 92.220019) scale(0.09 -0.09)">
     <use xlink:href="#DejaVuSans-19"/>
     <use xlink:href="#DejaVuSans-14" transform="translate(63.625 0)"/>
     <use xlink:href="#DejaVuSans-11" transform="translate(127.25 0)"/>
     <use xlink:href="#DejaVuSans-15" transform="translate(159.03125 0)"/>
     <use xlink:href="#DejaVuSans-1b" transform="translate(222.65625 0)"/>
     <use xlink:href="#DejaVuSans-8" transform="translate(286.28125 0)"/>
    </g>
   </g>
   <g id="text_39">
    <!-- k=5 -->
    <g transform="translate(697.991556 67.131618) scale(0.09 -0.09)">
     <use xlink:href="#DejaVuSans-4e"/>
     <use xlink:href="#DejaVuSans-20" transform="translate(57.90625 0)"/>
     <use xlink:href="#DejaVuSans-18" transform="translate(141.703125 0)"/>
    </g>
    <!-- 64.65% -->
    <g transform="translate(690.072962 77.933376) scale(0.09 -0.09)">
     <use xlink:href="#DejaVuSans-19"/>
     <use xlink:href="#DejaVuSans-17" transform="translate(63.625 0)"/>
     <use xlink:href="#DejaVuSans-11" transform="translate(127.25 0)"/>
     <use xlink:href="#DejaVuSans-19" transform="translate(159.03125 0)"/>
     <use xlink:href="#DejaVuSans-18" transform="translate(222.65625 0)"/>
     <use xlink:href="#DejaVuSans-8" transform="translate(286.28125 0)"/>
    </g>
   </g>
   <g id="text_40">
    <!-- Any success among k full episodes -->
    <g style="fill: #475569" transform="translate(472.196053 59.274193) scale(0.09 -0.09)">
     <defs>
      <path id="DejaVuSans-49" d="M 2375 4863
L 2375 4384
L 1825 4384
Q 1516 4384 1395 4259
Q 1275 4134 1275 3809
L 1275 3500
L 2222 3500
L 2222 3053
L 1275 3053
L 1275 0
L 697 0
L 697 3053
L 147 3053
L 147 3500
L 697 3500
L 697 3744
Q 697 4328 969 4595
Q 1241 4863 1831 4863
L 2375 4863
z
" transform="scale(0.015625)"/>
     </defs>
     <use xlink:href="#DejaVuSans-24"/>
     <use xlink:href="#DejaVuSans-51" transform="translate(68.40625 0)"/>
     <use xlink:href="#DejaVuSans-5c" transform="translate(131.78125 0)"/>
     <use xlink:href="#DejaVuSans-3" transform="translate(190.96875 0)"/>
     <use xlink:href="#DejaVuSans-56" transform="translate(222.75 0)"/>
     <use xlink:href="#DejaVuSans-58" transform="translate(274.84375 0)"/>
     <use xlink:href="#DejaVuSans-46" transform="translate(338.21875 0)"/>
     <use xlink:href="#DejaVuSans-46" transform="translate(393.203125 0)"/>
     <use xlink:href="#DejaVuSans-48" transform="translate(448.1875 0)"/>
     <use xlink:href="#DejaVuSans-56" transform="translate(509.71875 0)"/>
     <use xlink:href="#DejaVuSans-56" transform="translate(561.8125 0)"/>
     <use xlink:href="#DejaVuSans-3" transform="translate(613.90625 0)"/>
     <use xlink:href="#DejaVuSans-44" transform="translate(645.6875 0)"/>
     <use xlink:href="#DejaVuSans-50" transform="translate(706.96875 0)"/>
     <use xlink:href="#DejaVuSans-52" transform="translate(804.375 0)"/>
     <use xlink:href="#DejaVuSans-51" transform="translate(865.5625 0)"/>
     <use xlink:href="#DejaVuSans-4a" transform="translate(928.9375 0)"/>
     <use xlink:href="#DejaVuSans-3" transform="translate(992.421875 0)"/>
     <use xlink:href="#DejaVuSans-4e" transform="translate(1024.203125 0)"/>
     <use xlink:href="#DejaVuSans-3" transform="translate(1082.109375 0)"/>
     <use xlink:href="#DejaVuSans-49" transform="translate(1113.890625 0)"/>
     <use xlink:href="#DejaVuSans-58" transform="translate(1149.09375 0)"/>
     <use xlink:href="#DejaVuSans-4f" transform="translate(1212.46875 0)"/>
     <use xlink:href="#DejaVuSans-4f" transform="translate(1240.25 0)"/>
     <use xlink:href="#DejaVuSans-3" transform="translate(1268.03125 0)"/>
     <use xlink:href="#DejaVuSans-48" transform="translate(1299.8125 0)"/>
     <use xlink:href="#DejaVuSans-53" transform="translate(1361.34375 0)"/>
     <use xlink:href="#DejaVuSans-4c" transform="translate(1424.828125 0)"/>
     <use xlink:href="#DejaVuSans-56" transform="translate(1452.609375 0)"/>
     <use xlink:href="#DejaVuSans-52" transform="translate(1504.703125 0)"/>
     <use xlink:href="#DejaVuSans-47" transform="translate(1565.890625 0)"/>
     <use xlink:href="#DejaVuSans-48" transform="translate(1629.375 0)"/>
     <use xlink:href="#DejaVuSans-56" transform="translate(1690.90625 0)"/>
    </g>
    <!-- Invalid attempts count as no success -->
    <g style="fill: #475569" transform="translate(472.196053 70.076654) scale(0.09 -0.09)">
     <defs>
      <path id="DejaVuSans-2c" d="M 628 4666
L 1259 4666
L 1259 0
L 628 0
L 628 4666
z
" transform="scale(0.015625)"/>
     </defs>
     <use xlink:href="#DejaVuSans-2c"/>
     <use xlink:href="#DejaVuSans-51" transform="translate(29.5 0)"/>
     <use xlink:href="#DejaVuSans-59" transform="translate(92.875 0)"/>
     <use xlink:href="#DejaVuSans-44" transform="translate(152.0625 0)"/>
     <use xlink:href="#DejaVuSans-4f" transform="translate(213.34375 0)"/>
     <use xlink:href="#DejaVuSans-4c" transform="translate(241.125 0)"/>
     <use xlink:href="#DejaVuSans-47" transform="translate(268.90625 0)"/>
     <use xlink:href="#DejaVuSans-3" transform="translate(332.390625 0)"/>
     <use xlink:href="#DejaVuSans-44" transform="translate(364.171875 0)"/>
     <use xlink:href="#DejaVuSans-57" transform="translate(425.453125 0)"/>
     <use xlink:href="#DejaVuSans-57" transform="translate(464.65625 0)"/>
     <use xlink:href="#DejaVuSans-48" transform="translate(503.859375 0)"/>
     <use xlink:href="#DejaVuSans-50" transform="translate(565.390625 0)"/>
     <use xlink:href="#DejaVuSans-53" transform="translate(662.796875 0)"/>
     <use xlink:href="#DejaVuSans-57" transform="translate(726.28125 0)"/>
     <use xlink:href="#DejaVuSans-56" transform="translate(765.484375 0)"/>
     <use xlink:href="#DejaVuSans-3" transform="translate(817.578125 0)"/>
     <use xlink:href="#DejaVuSans-46" transform="translate(849.359375 0)"/>
     <use xlink:href="#DejaVuSans-52" transform="translate(904.34375 0)"/>
     <use xlink:href="#DejaVuSans-58" transform="translate(965.53125 0)"/>
     <use xlink:href="#DejaVuSans-51" transform="translate(1028.90625 0)"/>
     <use xlink:href="#DejaVuSans-57" transform="translate(1092.28125 0)"/>
     <use xlink:href="#DejaVuSans-3" transform="translate(1131.484375 0)"/>
     <use xlink:href="#DejaVuSans-44" transform="translate(1163.265625 0)"/>
     <use xlink:href="#DejaVuSans-56" transform="translate(1224.546875 0)"/>
     <use xlink:href="#DejaVuSans-3" transform="translate(1276.640625 0)"/>
     <use xlink:href="#DejaVuSans-51" transform="translate(1308.421875 0)"/>
     <use xlink:href="#DejaVuSans-52" transform="translate(1371.796875 0)"/>
     <use xlink:href="#DejaVuSans-3" transform="translate(1432.984375 0)"/>
     <use xlink:href="#DejaVuSans-56" transform="translate(1464.765625 0)"/>
     <use xlink:href="#DejaVuSans-58" transform="translate(1516.859375 0)"/>
     <use xlink:href="#DejaVuSans-46" transform="translate(1580.234375 0)"/>
     <use xlink:href="#DejaVuSans-46" transform="translate(1635.21875 0)"/>
     <use xlink:href="#DejaVuSans-48" transform="translate(1690.203125 0)"/>
     <use xlink:href="#DejaVuSans-56" transform="translate(1751.734375 0)"/>
     <use xlink:href="#DejaVuSans-56" transform="translate(1803.828125 0)"/>
    </g>
   </g>
   <g id="text_41">
    <!-- Separate training pool: 2,000 tasks -->
    <g transform="translate(498.659753 37.056) scale(0.12 -0.12)">
     <use xlink:href="#DejaVuSans-36"/>
     <use xlink:href="#DejaVuSans-48" transform="translate(63.484375 0)"/>
     <use xlink:href="#DejaVuSans-53" transform="translate(125.015625 0)"/>
     <use xlink:href="#DejaVuSans-44" transform="translate(188.5 0)"/>
     <use xlink:href="#DejaVuSans-55" transform="translate(249.78125 0)"/>
     <use xlink:href="#DejaVuSans-44" transform="translate(290.890625 0)"/>
     <use xlink:href="#DejaVuSans-57" transform="translate(352.171875 0)"/>
     <use xlink:href="#DejaVuSans-48" transform="translate(391.375 0)"/>
     <use xlink:href="#DejaVuSans-3" transform="translate(452.90625 0)"/>
     <use xlink:href="#DejaVuSans-57" transform="translate(484.6875 0)"/>
     <use xlink:href="#DejaVuSans-55" transform="translate(523.890625 0)"/>
     <use xlink:href="#DejaVuSans-44" transform="translate(565 0)"/>
     <use xlink:href="#DejaVuSans-4c" transform="translate(626.28125 0)"/>
     <use xlink:href="#DejaVuSans-51" transform="translate(654.0625 0)"/>
     <use xlink:href="#DejaVuSans-4c" transform="translate(717.4375 0)"/>
     <use xlink:href="#DejaVuSans-51" transform="translate(745.21875 0)"/>
     <use xlink:href="#DejaVuSans-4a" transform="translate(808.59375 0)"/>
     <use xlink:href="#DejaVuSans-3" transform="translate(872.078125 0)"/>
     <use xlink:href="#DejaVuSans-53" transform="translate(903.859375 0)"/>
     <use xlink:href="#DejaVuSans-52" transform="translate(967.34375 0)"/>
     <use xlink:href="#DejaVuSans-52" transform="translate(1028.53125 0)"/>
     <use xlink:href="#DejaVuSans-4f" transform="translate(1089.71875 0)"/>
     <use xlink:href="#DejaVuSans-1d" transform="translate(1117.5 0)"/>
     <use xlink:href="#DejaVuSans-3" transform="translate(1151.1875 0)"/>
     <use xlink:href="#DejaVuSans-15" transform="translate(1182.96875 0)"/>
     <use xlink:href="#DejaVuSans-f" transform="translate(1246.59375 0)"/>
     <use xlink:href="#DejaVuSans-13" transform="translate(1278.375 0)"/>
     <use xlink:href="#DejaVuSans-13" transform="translate(1342 0)"/>
     <use xlink:href="#DejaVuSans-13" transform="translate(1405.625 0)"/>
     <use xlink:href="#DejaVuSans-3" transform="translate(1469.25 0)"/>
     <use xlink:href="#DejaVuSans-57" transform="translate(1501.03125 0)"/>
     <use xlink:href="#DejaVuSans-44" transform="translate(1540.234375 0)"/>
     <use xlink:href="#DejaVuSans-56" transform="translate(1601.515625 0)"/>
     <use xlink:href="#DejaVuSans-4e" transform="translate(1653.609375 0)"/>
     <use xlink:href="#DejaVuSans-56" transform="translate(1711.515625 0)"/>
    </g>
   </g>
  </g>
  <g id="text_42">
   <!-- Different task pools, sampling, horizons, and judges: compare costs within each panel. -->
   <g style="fill: #475569" transform="translate(218.507344 298.869539) scale(0.09 -0.09)">
    <defs>
     <path id="DejaVuSans-27" d="M 1259 4147
L 1259 519
L 2022 519
Q 2988 519 3436 956
Q 3884 1394 3884 2338
Q 3884 3275 3436 3711
Q 2988 4147 2022 4147
L 1259 4147
z
M 628 4666
L 1925 4666
Q 3281 4666 3915 4102
Q 4550 3538 4550 2338
Q 4550 1131 3912 565
Q 3275 0 1925 0
L 628 0
L 628 4666
z
" transform="scale(0.015625)"/>
     <path id="DejaVuSans-13ae" d="M 4531 4863
L 4531 4384
L 3981 4384
Q 3672 4384 3551 4259
Q 3431 4134 3431 3809
L 3431 3500
L 4378 3500
L 4378 3053
L 3431 3053
L 3431 0
L 2853 0
L 2853 3053
L 1275 3053
L 1275 0
L 697 0
L 697 3053
L 147 3053
L 147 3500
L 697 3500
L 697 3744
Q 697 4328 969 4595
Q 1241 4863 1831 4863
L 2375 4863
L 2375 4384
L 1825 4384
Q 1516 4384 1394 4259
Q 1275 4134 1275 3809
L 1275 3500
L 2853 3500
L 2853 3744
Q 2853 4328 3125 4595
Q 3397 4863 3988 4863
L 4531 4863
z
" transform="scale(0.015625)"/>
     <path id="DejaVuSans-5d" d="M 353 3500
L 3084 3500
L 3084 2975
L 922 459
L 3084 459
L 3084 0
L 275 0
L 275 525
L 2438 3041
L 353 3041
L 353 3500
z
" transform="scale(0.015625)"/>
     <path id="DejaVuSans-4d" d="M 603 3500
L 1178 3500
L 1178 -63
Q 1178 -731 923 -1031
Q 669 -1331 103 -1331
L -116 -1331
L -116 -844
L 38 -844
Q 366 -844 484 -692
Q 603 -541 603 -63
L 603 3500
z
M 603 4863
L 1178 4863
L 1178 4134
L 603 4134
L 603 4863
z
" transform="scale(0.015625)"/>
     <path id="DejaVuSans-5a" d="M 269 3500
L 844 3500
L 1563 769
L 2278 3500
L 2956 3500
L 3675 769
L 4391 3500
L 4966 3500
L 4050 0
L 3372 0
L 2619 2869
L 1863 0
L 1184 0
L 269 3500
z
" transform="scale(0.015625)"/>
    </defs>
    <use xlink:href="#DejaVuSans-27"/>
    <use xlink:href="#DejaVuSans-4c" transform="translate(77 0)"/>
    <use xlink:href="#DejaVuSans-13ae" transform="translate(104.78125 0)"/>
    <use xlink:href="#DejaVuSans-48" transform="translate(173.671875 0)"/>
    <use xlink:href="#DejaVuSans-55" transform="translate(235.203125 0)"/>
    <use xlink:href="#DejaVuSans-48" transform="translate(274.109375 0)"/>
    <use xlink:href="#DejaVuSans-51" transform="translate(335.640625 0)"/>
    <use xlink:href="#DejaVuSans-57" transform="translate(399.015625 0)"/>
    <use xlink:href="#DejaVuSans-3" transform="translate(438.21875 0)"/>
    <use xlink:href="#DejaVuSans-57" transform="translate(470 0)"/>
    <use xlink:href="#DejaVuSans-44" transform="translate(509.203125 0)"/>
    <use xlink:href="#DejaVuSans-56" transform="translate(570.484375 0)"/>
    <use xlink:href="#DejaVuSans-4e" transform="translate(622.578125 0)"/>
    <use xlink:href="#DejaVuSans-3" transform="translate(680.484375 0)"/>
    <use xlink:href="#DejaVuSans-53" transform="translate(712.265625 0)"/>
    <use xlink:href="#DejaVuSans-52" transform="translate(775.75 0)"/>
    <use xlink:href="#DejaVuSans-52" transform="translate(836.9375 0)"/>
    <use xlink:href="#DejaVuSans-4f" transform="translate(898.125 0)"/>
    <use xlink:href="#DejaVuSans-56" transform="translate(925.90625 0)"/>
    <use xlink:href="#DejaVuSans-f" transform="translate(978 0)"/>
    <use xlink:href="#DejaVuSans-3" transform="translate(1009.78125 0)"/>
    <use xlink:href="#DejaVuSans-56" transform="translate(1041.5625 0)"/>
    <use xlink:href="#DejaVuSans-44" transform="translate(1093.65625 0)"/>
    <use xlink:href="#DejaVuSans-50" transform="translate(1154.9375 0)"/>
    <use xlink:href="#DejaVuSans-53" transform="translate(1252.34375 0)"/>
    <use xlink:href="#DejaVuSans-4f" transform="translate(1315.828125 0)"/>
    <use xlink:href="#DejaVuSans-4c" transform="translate(1343.609375 0)"/>
    <use xlink:href="#DejaVuSans-51" transform="translate(1371.390625 0)"/>
    <use xlink:href="#DejaVuSans-4a" transform="translate(1434.765625 0)"/>
    <use xlink:href="#DejaVuSans-f" transform="translate(1498.25 0)"/>
    <use xlink:href="#DejaVuSans-3" transform="translate(1530.03125 0)"/>
    <use xlink:href="#DejaVuSans-4b" transform="translate(1561.8125 0)"/>
    <use xlink:href="#DejaVuSans-52" transform="translate(1625.1875 0)"/>
    <use xlink:href="#DejaVuSans-55" transform="translate(1686.375 0)"/>
    <use xlink:href="#DejaVuSans-4c" transform="translate(1727.484375 0)"/>
    <use xlink:href="#DejaVuSans-5d" transform="translate(1755.265625 0)"/>
    <use xlink:href="#DejaVuSans-52" transform="translate(1807.75 0)"/>
    <use xlink:href="#DejaVuSans-51" transform="translate(1868.9375 0)"/>
    <use xlink:href="#DejaVuSans-56" transform="translate(1932.3125 0)"/>
    <use xlink:href="#DejaVuSans-f" transform="translate(1984.40625 0)"/>
    <use xlink:href="#DejaVuSans-3" transform="translate(2016.1875 0)"/>
    <use xlink:href="#DejaVuSans-44" transform="translate(2047.96875 0)"/>
    <use xlink:href="#DejaVuSans-51" transform="translate(2109.25 0)"/>
    <use xlink:href="#DejaVuSans-47" transform="translate(2172.625 0)"/>
    <use xlink:href="#DejaVuSans-3" transform="translate(2236.109375 0)"/>
    <use xlink:href="#DejaVuSans-4d" transform="translate(2267.890625 0)"/>
    <use xlink:href="#DejaVuSans-58" transform="translate(2295.671875 0)"/>
    <use xlink:href="#DejaVuSans-47" transform="translate(2359.046875 0)"/>
    <use xlink:href="#DejaVuSans-4a" transform="translate(2422.53125 0)"/>
    <use xlink:href="#DejaVuSans-48" transform="translate(2486.015625 0)"/>
    <use xlink:href="#DejaVuSans-56" transform="translate(2547.546875 0)"/>
    <use xlink:href="#DejaVuSans-1d" transform="translate(2599.640625 0)"/>
    <use xlink:href="#DejaVuSans-3" transform="translate(2633.328125 0)"/>
    <use xlink:href="#DejaVuSans-46" transform="translate(2665.109375 0)"/>
    <use xlink:href="#DejaVuSans-52" transform="translate(2720.09375 0)"/>
    <use xlink:href="#DejaVuSans-50" transform="translate(2781.28125 0)"/>
    <use xlink:href="#DejaVuSans-53" transform="translate(2878.6875 0)"/>
    <use xlink:href="#DejaVuSans-44" transform="translate(2942.171875 0)"/>
    <use xlink:href="#DejaVuSans-55" transform="translate(3003.453125 0)"/>
    <use xlink:href="#DejaVuSans-48" transform="translate(3042.359375 0)"/>
    <use xlink:href="#DejaVuSans-3" transform="translate(3103.890625 0)"/>
    <use xlink:href="#DejaVuSans-46" transform="translate(3135.671875 0)"/>
    <use xlink:href="#DejaVuSans-52" transform="translate(3190.65625 0)"/>
    <use xlink:href="#DejaVuSans-56" transform="translate(3251.84375 0)"/>
    <use xlink:href="#DejaVuSans-57" transform="translate(3303.9375 0)"/>
    <use xlink:href="#DejaVuSans-56" transform="translate(3343.140625 0)"/>
    <use xlink:href="#DejaVuSans-3" transform="translate(3395.234375 0)"/>
    <use xlink:href="#DejaVuSans-5a" transform="translate(3427.015625 0)"/>
    <use xlink:href="#DejaVuSans-4c" transform="translate(3508.796875 0)"/>
    <use xlink:href="#DejaVuSans-57" transform="translate(3536.578125 0)"/>
    <use xlink:href="#DejaVuSans-4b" transform="translate(3575.78125 0)"/>
    <use xlink:href="#DejaVuSans-4c" transform="translate(3639.15625 0)"/>
    <use xlink:href="#DejaVuSans-51" transform="translate(3666.9375 0)"/>
    <use xlink:href="#DejaVuSans-3" transform="translate(3730.3125 0)"/>
    <use xlink:href="#DejaVuSans-48" transform="translate(3762.09375 0)"/>
    <use xlink:href="#DejaVuSans-44" transform="translate(3823.625 0)"/>
    <use xlink:href="#DejaVuSans-46" transform="translate(3884.90625 0)"/>
    <use xlink:href="#DejaVuSans-4b" transform="translate(3939.890625 0)"/>
    <use xlink:href="#DejaVuSans-3" transform="translate(4003.265625 0)"/>
    <use xlink:href="#DejaVuSans-53" transform="translate(4035.046875 0)"/>
    <use xlink:href="#DejaVuSans-44" transform="translate(4098.53125 0)"/>
    <use xlink:href="#DejaVuSans-51" transform="translate(4159.8125 0)"/>
    <use xlink:href="#DejaVuSans-48" transform="translate(4223.1875 0)"/>
    <use xlink:href="#DejaVuSans-4f" transform="translate(4284.71875 0)"/>
    <use xlink:href="#DejaVuSans-11" transform="translate(4312.5 0)"/>
   </g>
   <!-- Historical retokenization is not GPU cost; the right panel pays for all k episodes without early stopping. -->
   <g style="fill: #475569" transform="translate(182.406797 309.672) scale(0.09 -0.09)">
    <defs>
     <path id="DejaVuSans-2a" d="M 3809 666
L 3809 1919
L 2778 1919
L 2778 2438
L 4434 2438
L 4434 434
Q 4069 175 3628 42
Q 3188 -91 2688 -91
Q 1594 -91 976 548
Q 359 1188 359 2328
Q 359 3472 976 4111
Q 1594 4750 2688 4750
Q 3144 4750 3555 4637
Q 3966 4525 4313 4306
L 4313 3634
Q 3963 3931 3569 4081
Q 3175 4231 2741 4231
Q 1884 4231 1454 3753
Q 1025 3275 1025 2328
Q 1025 1384 1454 906
Q 1884 428 2741 428
Q 3075 428 3337 486
Q 3600 544 3809 666
z
" transform="scale(0.015625)"/>
     <path id="DejaVuSans-33" d="M 1259 4147
L 1259 2394
L 2053 2394
Q 2494 2394 2734 2622
Q 2975 2850 2975 3272
Q 2975 3691 2734 3919
Q 2494 4147 2053 4147
L 1259 4147
z
M 628 4666
L 2053 4666
Q 2838 4666 3239 4311
Q 3641 3956 3641 3272
Q 3641 2581 3239 2228
Q 2838 1875 2053 1875
L 1259 1875
L 1259 0
L 628 0
L 628 4666
z
" transform="scale(0.015625)"/>
     <path id="DejaVuSans-38" d="M 556 4666
L 1191 4666
L 1191 1831
Q 1191 1081 1462 751
Q 1734 422 2344 422
Q 2950 422 3222 751
Q 3494 1081 3494 1831
L 3494 4666
L 4128 4666
L 4128 1753
Q 4128 841 3676 375
Q 3225 -91 2344 -91
Q 1459 -91 1007 375
Q 556 841 556 1753
L 556 4666
z
" transform="scale(0.015625)"/>
     <path id="DejaVuSans-1e" d="M 750 3309
L 1409 3309
L 1409 2516
L 750 2516
L 750 3309
z
M 750 794
L 1409 794
L 1409 256
L 897 -744
L 494 -744
L 750 256
L 750 794
z
" transform="scale(0.015625)"/>
    </defs>
    <use xlink:href="#DejaVuSans-2b"/>
    <use xlink:href="#DejaVuSans-4c" transform="translate(75.203125 0)"/>
    <use xlink:href="#DejaVuSans-56" transform="translate(102.984375 0)"/>
    <use xlink:href="#DejaVuSans-57" transform="translate(155.078125 0)"/>
    <use xlink:href="#DejaVuSans-52" transform="translate(194.28125 0)"/>
    <use xlink:href="#DejaVuSans-55" transform="translate(255.46875 0)"/>
    <use xlink:href="#DejaVuSans-4c" transform="translate(296.578125 0)"/>
    <use xlink:href="#DejaVuSans-46" transform="translate(324.359375 0)"/>
    <use xlink:href="#DejaVuSans-44" transform="translate(379.34375 0)"/>
    <use xlink:href="#DejaVuSans-4f" transform="translate(440.625 0)"/>
    <use xlink:href="#DejaVuSans-3" transform="translate(468.40625 0)"/>
    <use xlink:href="#DejaVuSans-55" transform="translate(500.1875 0)"/>
    <use xlink:href="#DejaVuSans-48" transform="translate(539.09375 0)"/>
    <use xlink:href="#DejaVuSans-57" transform="translate(600.625 0)"/>
    <use xlink:href="#DejaVuSans-52" transform="translate(639.828125 0)"/>
    <use xlink:href="#DejaVuSans-4e" transform="translate(701.015625 0)"/>
    <use xlink:href="#DejaVuSans-48" transform="translate(755.359375 0)"/>
    <use xlink:href="#DejaVuSans-51" transform="translate(816.890625 0)"/>
    <use xlink:href="#DejaVuSans-4c" transform="translate(880.265625 0)"/>
    <use xlink:href="#DejaVuSans-5d" transform="translate(908.046875 0)"/>
    <use xlink:href="#DejaVuSans-44" transform="translate(960.53125 0)"/>
    <use xlink:href="#DejaVuSans-57" transform="translate(1021.8125 0)"/>
    <use xlink:href="#DejaVuSans-4c" transform="translate(1061.015625 0)"/>
    <use xlink:href="#DejaVuSans-52" transform="translate(1088.796875 0)"/>
    <use xlink:href="#DejaVuSans-51" transform="translate(1149.984375 0)"/>
    <use xlink:href="#DejaVuSans-3" transform="translate(1213.359375 0)"/>
    <use xlink:href="#DejaVuSans-4c" transform="translate(1245.140625 0)"/>
    <use xlink:href="#DejaVuSans-56" transform="translate(1272.921875 0)"/>
    <use xlink:href="#DejaVuSans-3" transform="translate(1325.015625 0)"/>
    <use xlink:href="#DejaVuSans-51" transform="translate(1356.796875 0)"/>
    <use xlink:href="#DejaVuSans-52" transform="translate(1420.171875 0)"/>
    <use xlink:href="#DejaVuSans-57" transform="translate(1481.359375 0)"/>
    <use xlink:href="#DejaVuSans-3" transform="translate(1520.5625 0)"/>
    <use xlink:href="#DejaVuSans-2a" transform="translate(1552.34375 0)"/>
    <use xlink:href="#DejaVuSans-33" transform="translate(1629.828125 0)"/>
    <use xlink:href="#DejaVuSans-38" transform="translate(1690.125 0)"/>
    <use xlink:href="#DejaVuSans-3" transform="translate(1763.3125 0)"/>
    <use xlink:href="#DejaVuSans-46" transform="translate(1795.09375 0)"/>
    <use xlink:href="#DejaVuSans-52" transform="translate(1850.078125 0)"/>
    <use xlink:href="#DejaVuSans-56" transform="translate(1911.265625 0)"/>
    <use xlink:href="#DejaVuSans-57" transform="translate(1963.359375 0)"/>
    <use xlink:href="#DejaVuSans-1e" transform="translate(2002.5625 0)"/>
    <use xlink:href="#DejaVuSans-3" transform="translate(2036.25 0)"/>
    <use xlink:href="#DejaVuSans-57" transform="translate(2068.03125 0)"/>
    <use xlink:href="#DejaVuSans-4b" transform="translate(2107.234375 0)"/>
    <use xlink:href="#DejaVuSans-48" transform="translate(2170.609375 0)"/>
    <use xlink:href="#DejaVuSans-3" transform="translate(2232.140625 0)"/>
    <use xlink:href="#DejaVuSans-55" transform="translate(2263.921875 0)"/>
    <use xlink:href="#DejaVuSans-4c" transform="translate(2305.03125 0)"/>
    <use xlink:href="#DejaVuSans-4a" transform="translate(2332.8125 0)"/>
    <use xlink:href="#DejaVuSans-4b" transform="translate(2396.296875 0)"/>
    <use xlink:href="#DejaVuSans-57" transform="translate(2459.671875 0)"/>
    <use xlink:href="#DejaVuSans-3" transform="translate(2498.875 0)"/>
    <use xlink:href="#DejaVuSans-53" transform="translate(2530.65625 0)"/>
    <use xlink:href="#DejaVuSans-44" transform="translate(2594.140625 0)"/>
    <use xlink:href="#DejaVuSans-51" transform="translate(2655.421875 0)"/>
    <use xlink:href="#DejaVuSans-48" transform="translate(2718.796875 0)"/>
    <use xlink:href="#DejaVuSans-4f" transform="translate(2780.328125 0)"/>
    <use xlink:href="#DejaVuSans-3" transform="translate(2808.109375 0)"/>
    <use xlink:href="#DejaVuSans-53" transform="translate(2839.890625 0)"/>
    <use xlink:href="#DejaVuSans-44" transform="translate(2903.375 0)"/>
    <use xlink:href="#DejaVuSans-5c" transform="translate(2964.65625 0)"/>
    <use xlink:href="#DejaVuSans-56" transform="translate(3023.84375 0)"/>
    <use xlink:href="#DejaVuSans-3" transform="translate(3075.9375 0)"/>
    <use xlink:href="#DejaVuSans-49" transform="translate(3107.71875 0)"/>
    <use xlink:href="#DejaVuSans-52" transform="translate(3142.921875 0)"/>
    <use xlink:href="#DejaVuSans-55" transform="translate(3204.109375 0)"/>
    <use xlink:href="#DejaVuSans-3" transform="translate(3245.21875 0)"/>
    <use xlink:href="#DejaVuSans-44" transform="translate(3277 0)"/>
    <use xlink:href="#DejaVuSans-4f" transform="translate(3338.28125 0)"/>
    <use xlink:href="#DejaVuSans-4f" transform="translate(3366.0625 0)"/>
    <use xlink:href="#DejaVuSans-3" transform="translate(3393.84375 0)"/>
    <use xlink:href="#DejaVuSans-4e" transform="translate(3425.625 0)"/>
    <use xlink:href="#DejaVuSans-3" transform="translate(3483.53125 0)"/>
    <use xlink:href="#DejaVuSans-48" transform="translate(3515.3125 0)"/>
    <use xlink:href="#DejaVuSans-53" transform="translate(3576.84375 0)"/>
    <use xlink:href="#DejaVuSans-4c" transform="translate(3640.328125 0)"/>
    <use xlink:href="#DejaVuSans-56" transform="translate(3668.109375 0)"/>
    <use xlink:href="#DejaVuSans-52" transform="translate(3720.203125 0)"/>
    <use xlink:href="#DejaVuSans-47" transform="translate(3781.390625 0)"/>
    <use xlink:href="#DejaVuSans-48" transform="translate(3844.875 0)"/>
    <use xlink:href="#DejaVuSans-56" transform="translate(3906.40625 0)"/>
    <use xlink:href="#DejaVuSans-3" transform="translate(3958.5 0)"/>
    <use xlink:href="#DejaVuSans-5a" transform="translate(3990.28125 0)"/>
    <use xlink:href="#DejaVuSans-4c" transform="translate(4072.0625 0)"/>
    <use xlink:href="#DejaVuSans-57" transform="translate(4099.84375 0)"/>
    <use xlink:href="#DejaVuSans-4b" transform="translate(4139.046875 0)"/>
    <use xlink:href="#DejaVuSans-52" transform="translate(4202.421875 0)"/>
    <use xlink:href="#DejaVuSans-58" transform="translate(4263.609375 0)"/>
    <use xlink:href="#DejaVuSans-57" transform="translate(4326.984375 0)"/>
    <use xlink:href="#DejaVuSans-3" transform="translate(4366.1875 0)"/>
    <use xlink:href="#DejaVuSans-48" transform="translate(4397.96875 0)"/>
    <use xlink:href="#DejaVuSans-44" transform="translate(4459.5 0)"/>
    <use xlink:href="#DejaVuSans-55" transform="translate(4520.78125 0)"/>
    <use xlink:href="#DejaVuSans-4f" transform="translate(4561.890625 0)"/>
    <use xlink:href="#DejaVuSans-5c" transform="translate(4589.671875 0)"/>
    <use xlink:href="#DejaVuSans-3" transform="translate(4648.859375 0)"/>
    <use xlink:href="#DejaVuSans-56" transform="translate(4680.640625 0)"/>
    <use xlink:href="#DejaVuSans-57" transform="translate(4732.734375 0)"/>
    <use xlink:href="#DejaVuSans-52" transform="translate(4771.9375 0)"/>
    <use xlink:href="#DejaVuSans-53" transform="translate(4833.125 0)"/>
    <use xlink:href="#DejaVuSans-53" transform="translate(4896.609375 0)"/>
    <use xlink:href="#DejaVuSans-4c" transform="translate(4960.09375 0)"/>
    <use xlink:href="#DejaVuSans-51" transform="translate(4987.875 0)"/>
    <use xlink:href="#DejaVuSans-4a" transform="translate(5051.25 0)"/>
    <use xlink:href="#DejaVuSans-11" transform="translate(5114.734375 0)"/>
   </g>
  </g>
 </g>
 <defs>
  <clipPath id="p940cb0ed7f">
   <rect x="103.5" y="43.056" width="281.447368" height="211.968"/>
  </clipPath>
  <clipPath id="p55de0cfe99">
   <rect x="463.752632" y="43.056" width="281.447368" height="211.968"/>
  </clipPath>
 </defs>
</svg>
