<?xml version="1.0" encoding="utf-8" standalone="no"?>
<!DOCTYPE svg PUBLIC "-//W3C//DTD SVG 1.1//EN"
  "http://www.w3.org/Graphics/SVG/1.1/DTD/svg11.dtd">
<svg xmlns:xlink="http://www.w3.org/1999/xlink" width="856.125937pt" height="402.421875pt" viewBox="0 0 856.125937 402.421875" xmlns="http://www.w3.org/2000/svg" version="1.1">
 <metadata>
  <rdf:RDF xmlns:dc="http://purl.org/dc/elements/1.1/" xmlns:cc="http://creativecommons.org/ns#" xmlns:rdf="http://www.w3.org/1999/02/22-rdf-syntax-ns#">
   <cc:Work>
    <dc:type rdf:resource="http://purl.org/dc/dcmitype/StillImage"/>
    <dc:date>2026-10-05T01:50:14.242615</dc:date>
    <dc:format>image/svg+xml</dc:format>
    <dc:creator>
     <cc:Agent>
      <dc:title>Matplotlib v3.11.2, https://matplotlib.org/</dc:title>
     </cc:Agent>
    </dc:creator>
   </cc:Work>
  </rdf:RDF>
 </metadata>
 <defs>
  <style type="text/css">*{stroke-linejoin: round; stroke-linecap: butt}</style>
 </defs>
 <g id="figure_1">
  <g id="patch_1">
   <path d="M 0 402.421875
L 856.125937 402.421875
L 856.125937 0
L 0 0
z
" style="fill: #ffffff"/>
  </g>
  <g id="axes_1">
   <g id="patch_2">
    <path d="M 47.288281 341.277656
L 420.201114 341.277656
L 420.201114 85.407422
L 47.288281 85.407422
z
" style="fill: #ffffff"/>
   </g>
   <g id="matplotlib.axis_1">
    <g id="xtick_1">
     <g id="line2d_1">
      <path d="M 106.778294 341.277656
L 106.778294 85.407422
" clip-path="url(#pbf061cafc4)" style="fill: none; stroke: #b0b0b0; stroke-opacity: 0.2; stroke-width: 0.8; stroke-linecap: square"/>
     </g>
     <g id="line2d_2">
      <defs>
       <path id="m3ddccd35f1" d="M 0 0
L 0 3.5
" style="stroke: #000000; stroke-width: 0.8"/>
      </defs>
      <g>
       <use xlink:href="#m3ddccd35f1" x="106.778294" y="341.277656" style="stroke: #000000; stroke-width: 0.8"/>
      </g>
     </g>
     <g id="text_1">
      <!-- 0.5 -->
      <g transform="translate(98.826731 355.875313) scale(0.1 -0.1)">
       <defs>
        <path id="DejaVuSans-13" d="M 2034 4250
Q 1547 4250 1301 3770
Q 1056 3291 1056 2328
Q 1056 1369 1301 889
Q 1547 409 2034 409
Q 2525 409 2770 889
Q 3016 1369 3016 2328
Q 3016 3291 2770 3770
Q 2525 4250 2034 4250
z
M 2034 4750
Q 2819 4750 3233 4129
Q 3647 3509 3647 2328
Q 3647 1150 3233 529
Q 2819 -91 2034 -91
Q 1250 -91 836 529
Q 422 1150 422 2328
Q 422 3509 836 4129
Q 1250 4750 2034 4750
z
" transform="scale(0.015625)"/>
        <path id="DejaVuSans-11" d="M 684 794
L 1344 794
L 1344 0
L 684 0
L 684 794
z
" transform="scale(0.015625)"/>
        <path id="DejaVuSans-18" d="M 691 4666
L 3169 4666
L 3169 4134
L 1269 4134
L 1269 2991
Q 1406 3038 1543 3061
Q 1681 3084 1819 3084
Q 2600 3084 3056 2656
Q 3513 2228 3513 1497
Q 3513 744 3044 326
Q 2575 -91 1722 -91
Q 1428 -91 1123 -41
Q 819 9 494 109
L 494 744
Q 775 591 1075 516
Q 1375 441 1709 441
Q 2250 441 2565 725
Q 2881 1009 2881 1497
Q 2881 1984 2565 2268
Q 2250 2553 1709 2553
Q 1456 2553 1204 2497
Q 953 2441 691 2322
L 691 4666
z
" transform="scale(0.015625)"/>
       </defs>
       <use xlink:href="#DejaVuSans-13"/>
       <use xlink:href="#DejaVuSans-11" transform="translate(63.625 0)"/>
       <use xlink:href="#DejaVuSans-18" transform="translate(95.40625 0)"/>
      </g>
     </g>
    </g>
    <g id="xtick_2">
     <g id="line2d_3">
      <path d="M 184.00975 341.277656
L 184.00975 85.407422
" clip-path="url(#pbf061cafc4)" style="fill: none; stroke: #b0b0b0; stroke-opacity: 0.2; stroke-width: 0.8; stroke-linecap: square"/>
     </g>
     <g id="line2d_4">
      <g>
       <use xlink:href="#m3ddccd35f1" x="184.00975" y="341.277656" style="stroke: #000000; stroke-width: 0.8"/>
      </g>
     </g>
     <g id="text_2">
      <!-- 1.0 -->
      <g transform="translate(176.058188 355.875313) scale(0.1 -0.1)">
       <defs>
        <path id="DejaVuSans-14" d="M 794 531
L 1825 531
L 1825 4091
L 703 3866
L 703 4441
L 1819 4666
L 2450 4666
L 2450 531
L 3481 531
L 3481 0
L 794 0
L 794 531
z
" transform="scale(0.015625)"/>
       </defs>
       <use xlink:href="#DejaVuSans-14"/>
       <use xlink:href="#DejaVuSans-11" transform="translate(63.625 0)"/>
       <use xlink:href="#DejaVuSans-13" transform="translate(95.40625 0)"/>
      </g>
     </g>
    </g>
    <g id="xtick_3">
     <g id="line2d_5">
      <path d="M 261.241207 341.277656
L 261.241207 85.407422
" clip-path="url(#pbf061cafc4)" style="fill: none; stroke: #b0b0b0; stroke-opacity: 0.2; stroke-width: 0.8; stroke-linecap: square"/>
     </g>
     <g id="line2d_6">
      <g>
       <use xlink:href="#m3ddccd35f1" x="261.241207" y="341.277656" style="stroke: #000000; stroke-width: 0.8"/>
      </g>
     </g>
     <g id="text_3">
      <!-- 1.5 -->
      <g transform="translate(253.289644 355.875313) scale(0.1 -0.1)">
       <use xlink:href="#DejaVuSans-14"/>
       <use xlink:href="#DejaVuSans-11" transform="translate(63.625 0)"/>
       <use xlink:href="#DejaVuSans-18" transform="translate(95.40625 0)"/>
      </g>
     </g>
    </g>
    <g id="xtick_4">
     <g id="line2d_7">
      <path d="M 338.472663 341.277656
L 338.472663 85.407422
" clip-path="url(#pbf061cafc4)" style="fill: none; stroke: #b0b0b0; stroke-opacity: 0.2; stroke-width: 0.8; stroke-linecap: square"/>
     </g>
     <g id="line2d_8">
      <g>
       <use xlink:href="#m3ddccd35f1" x="338.472663" y="341.277656" style="stroke: #000000; stroke-width: 0.8"/>
      </g>
     </g>
     <g id="text_4">
      <!-- 2.0 -->
      <g transform="translate(330.521101 355.875313) scale(0.1 -0.1)">
       <defs>
        <path id="DejaVuSans-15" d="M 1228 531
L 3431 531
L 3431 0
L 469 0
L 469 531
Q 828 903 1448 1529
Q 2069 2156 2228 2338
Q 2531 2678 2651 2914
Q 2772 3150 2772 3378
Q 2772 3750 2511 3984
Q 2250 4219 1831 4219
Q 1534 4219 1204 4116
Q 875 4013 500 3803
L 500 4441
Q 881 4594 1212 4672
Q 1544 4750 1819 4750
Q 2544 4750 2975 4387
Q 3406 4025 3406 3419
Q 3406 3131 3298 2873
Q 3191 2616 2906 2266
Q 2828 2175 2409 1742
Q 1991 1309 1228 531
z
" transform="scale(0.015625)"/>
       </defs>
       <use xlink:href="#DejaVuSans-15"/>
       <use xlink:href="#DejaVuSans-11" transform="translate(63.625 0)"/>
       <use xlink:href="#DejaVuSans-13" transform="translate(95.40625 0)"/>
      </g>
     </g>
    </g>
    <g id="xtick_5">
     <g id="line2d_9">
      <path d="M 415.70412 341.277656
L 415.70412 85.407422
" clip-path="url(#pbf061cafc4)" style="fill: none; stroke: #b0b0b0; stroke-opacity: 0.2; stroke-width: 0.8; stroke-linecap: square"/>
     </g>
     <g id="line2d_10">
      <g>
       <use xlink:href="#m3ddccd35f1" x="415.70412" y="341.277656" style="stroke: #000000; stroke-width: 0.8"/>
      </g>
     </g>
     <g id="text_5">
      <!-- 2.5 -->
      <g transform="translate(407.752557 355.875313) scale(0.1 -0.1)">
       <use xlink:href="#DejaVuSans-15"/>
       <use xlink:href="#DejaVuSans-11" transform="translate(63.625 0)"/>
       <use xlink:href="#DejaVuSans-18" transform="translate(95.40625 0)"/>
      </g>
     </g>
    </g>
    <g id="text_6">
     <!-- Input tokens per attempted task -->
     <g transform="translate(152.707979 369.876094) scale(0.1 -0.1)">
      <defs>
       <path id="DejaVuSans-2c" d="M 628 4666
L 1259 4666
L 1259 0
L 628 0
L 628 4666
z
" transform="scale(0.015625)"/>
       <path id="DejaVuSans-51" d="M 3513 2113
L 3513 0
L 2938 0
L 2938 2094
Q 2938 2591 2744 2837
Q 2550 3084 2163 3084
Q 1697 3084 1428 2787
Q 1159 2491 1159 1978
L 1159 0
L 581 0
L 581 3500
L 1159 3500
L 1159 2956
Q 1366 3272 1645 3428
Q 1925 3584 2291 3584
Q 2894 3584 3203 3211
Q 3513 2838 3513 2113
z
" transform="scale(0.015625)"/>
       <path id="DejaVuSans-53" d="M 1159 525
L 1159 -1331
L 581 -1331
L 581 3500
L 1159 3500
L 1159 2969
Q 1341 3281 1617 3432
Q 1894 3584 2278 3584
Q 2916 3584 3314 3078
Q 3713 2572 3713 1747
Q 3713 922 3314 415
Q 2916 -91 2278 -91
Q 1894 -91 1617 61
Q 1341 213 1159 525
z
M 3116 1747
Q 3116 2381 2855 2742
Q 2594 3103 2138 3103
Q 1681 3103 1420 2742
Q 1159 2381 1159 1747
Q 1159 1113 1420 752
Q 1681 391 2138 391
Q 2594 391 2855 752
Q 3116 1113 3116 1747
z
" transform="scale(0.015625)"/>
       <path id="DejaVuSans-58" d="M 544 1381
L 544 3500
L 1119 3500
L 1119 1403
Q 1119 906 1312 657
Q 1506 409 1894 409
Q 2359 409 2629 706
Q 2900 1003 2900 1516
L 2900 3500
L 3475 3500
L 3475 0
L 2900 0
L 2900 538
Q 2691 219 2414 64
Q 2138 -91 1772 -91
Q 1169 -91 856 284
Q 544 659 544 1381
z
M 1991 3584
L 1991 3584
z
" transform="scale(0.015625)"/>
       <path id="DejaVuSans-57" d="M 1172 4494
L 1172 3500
L 2356 3500
L 2356 3053
L 1172 3053
L 1172 1153
Q 1172 725 1289 603
Q 1406 481 1766 481
L 2356 481
L 2356 0
L 1766 0
Q 1100 0 847 248
Q 594 497 594 1153
L 594 3053
L 172 3053
L 172 3500
L 594 3500
L 594 4494
L 1172 4494
z
" transform="scale(0.015625)"/>
       <path id="DejaVuSans-3" transform="scale(0.015625)"/>
       <path id="DejaVuSans-52" d="M 1959 3097
Q 1497 3097 1228 2736
Q 959 2375 959 1747
Q 959 1119 1226 758
Q 1494 397 1959 397
Q 2419 397 2687 759
Q 2956 1122 2956 1747
Q 2956 2369 2687 2733
Q 2419 3097 1959 3097
z
M 1959 3584
Q 2709 3584 3137 3096
Q 3566 2609 3566 1747
Q 3566 888 3137 398
Q 2709 -91 1959 -91
Q 1206 -91 779 398
Q 353 888 353 1747
Q 353 2609 779 3096
Q 1206 3584 1959 3584
z
" transform="scale(0.015625)"/>
       <path id="DejaVuSans-4e" d="M 581 4863
L 1159 4863
L 1159 1991
L 2875 3500
L 3609 3500
L 1753 1863
L 3688 0
L 2938 0
L 1159 1709
L 1159 0
L 581 0
L 581 4863
z
" transform="scale(0.015625)"/>
       <path id="DejaVuSans-48" d="M 3597 1894
L 3597 1613
L 953 1613
Q 991 1019 1311 708
Q 1631 397 2203 397
Q 2534 397 2845 478
Q 3156 559 3463 722
L 3463 178
Q 3153 47 2828 -22
Q 2503 -91 2169 -91
Q 1331 -91 842 396
Q 353 884 353 1716
Q 353 2575 817 3079
Q 1281 3584 2069 3584
Q 2775 3584 3186 3129
Q 3597 2675 3597 1894
z
M 3022 2063
Q 3016 2534 2758 2815
Q 2500 3097 2075 3097
Q 1594 3097 1305 2825
Q 1016 2553 972 2059
L 3022 2063
z
" transform="scale(0.015625)"/>
       <path id="DejaVuSans-56" d="M 2834 3397
L 2834 2853
Q 2591 2978 2328 3040
Q 2066 3103 1784 3103
Q 1356 3103 1142 2972
Q 928 2841 928 2578
Q 928 2378 1081 2264
Q 1234 2150 1697 2047
L 1894 2003
Q 2506 1872 2764 1633
Q 3022 1394 3022 966
Q 3022 478 2636 193
Q 2250 -91 1575 -91
Q 1294 -91 989 -36
Q 684 19 347 128
L 347 722
Q 666 556 975 473
Q 1284 391 1588 391
Q 1994 391 2212 530
Q 2431 669 2431 922
Q 2431 1156 2273 1281
Q 2116 1406 1581 1522
L 1381 1569
Q 847 1681 609 1914
Q 372 2147 372 2553
Q 372 3047 722 3315
Q 1072 3584 1716 3584
Q 2034 3584 2315 3537
Q 2597 3491 2834 3397
z
" transform="scale(0.015625)"/>
       <path id="DejaVuSans-55" d="M 2631 2963
Q 2534 3019 2420 3045
Q 2306 3072 2169 3072
Q 1681 3072 1420 2755
Q 1159 2438 1159 1844
L 1159 0
L 581 0
L 581 3500
L 1159 3500
L 1159 2956
Q 1341 3275 1631 3429
Q 1922 3584 2338 3584
Q 2397 3584 2469 3576
Q 2541 3569 2628 3553
L 2631 2963
z
" transform="scale(0.015625)"/>
       <path id="DejaVuSans-44" d="M 2194 1759
Q 1497 1759 1228 1600
Q 959 1441 959 1056
Q 959 750 1161 570
Q 1363 391 1709 391
Q 2188 391 2477 730
Q 2766 1069 2766 1631
L 2766 1759
L 2194 1759
z
M 3341 1997
L 3341 0
L 2766 0
L 2766 531
Q 2569 213 2275 61
Q 1981 -91 1556 -91
Q 1019 -91 701 211
Q 384 513 384 1019
Q 384 1609 779 1909
Q 1175 2209 1959 2209
L 2766 2209
L 2766 2266
Q 2766 2663 2505 2880
Q 2244 3097 1772 3097
Q 1472 3097 1187 3025
Q 903 2953 641 2809
L 641 3341
Q 956 3463 1253 3523
Q 1550 3584 1831 3584
Q 2591 3584 2966 3190
Q 3341 2797 3341 1997
z
" transform="scale(0.015625)"/>
       <path id="DejaVuSans-50" d="M 3328 2828
Q 3544 3216 3844 3400
Q 4144 3584 4550 3584
Q 5097 3584 5394 3201
Q 5691 2819 5691 2113
L 5691 0
L 5113 0
L 5113 2094
Q 5113 2597 4934 2840
Q 4756 3084 4391 3084
Q 3944 3084 3684 2787
Q 3425 2491 3425 1978
L 3425 0
L 2847 0
L 2847 2094
Q 2847 2600 2669 2842
Q 2491 3084 2119 3084
Q 1678 3084 1418 2786
Q 1159 2488 1159 1978
L 1159 0
L 581 0
L 581 3500
L 1159 3500
L 1159 2956
Q 1356 3278 1631 3431
Q 1906 3584 2284 3584
Q 2666 3584 2933 3390
Q 3200 3197 3328 2828
z
" transform="scale(0.015625)"/>
       <path id="DejaVuSans-47" d="M 2906 2969
L 2906 4863
L 3481 4863
L 3481 0
L 2906 0
L 2906 525
Q 2725 213 2448 61
Q 2172 -91 1784 -91
Q 1150 -91 751 415
Q 353 922 353 1747
Q 353 2572 751 3078
Q 1150 3584 1784 3584
Q 2172 3584 2448 3432
Q 2725 3281 2906 2969
z
M 947 1747
Q 947 1113 1208 752
Q 1469 391 1925 391
Q 2381 391 2643 752
Q 2906 1113 2906 1747
Q 2906 2381 2643 2742
Q 2381 3103 1925 3103
Q 1469 3103 1208 2742
Q 947 2381 947 1747
z
" transform="scale(0.015625)"/>
      </defs>
      <use xlink:href="#DejaVuSans-2c"/>
      <use xlink:href="#DejaVuSans-51" transform="translate(29.5 0)"/>
      <use xlink:href="#DejaVuSans-53" transform="translate(92.875 0)"/>
      <use xlink:href="#DejaVuSans-58" transform="translate(156.359375 0)"/>
      <use xlink:href="#DejaVuSans-57" transform="translate(219.734375 0)"/>
      <use xlink:href="#DejaVuSans-3" transform="translate(258.9375 0)"/>
      <use xlink:href="#DejaVuSans-57" transform="translate(290.71875 0)"/>
      <use xlink:href="#DejaVuSans-52" transform="translate(329.921875 0)"/>
      <use xlink:href="#DejaVuSans-4e" transform="translate(391.109375 0)"/>
      <use xlink:href="#DejaVuSans-48" transform="translate(445.453125 0)"/>
      <use xlink:href="#DejaVuSans-51" transform="translate(506.984375 0)"/>
      <use xlink:href="#DejaVuSans-56" transform="translate(570.359375 0)"/>
      <use xlink:href="#DejaVuSans-3" transform="translate(622.453125 0)"/>
      <use xlink:href="#DejaVuSans-53" transform="translate(654.234375 0)"/>
      <use xlink:href="#DejaVuSans-48" transform="translate(717.71875 0)"/>
      <use xlink:href="#DejaVuSans-55" transform="translate(779.25 0)"/>
      <use xlink:href="#DejaVuSans-3" transform="translate(820.359375 0)"/>
      <use xlink:href="#DejaVuSans-44" transform="translate(852.140625 0)"/>
      <use xlink:href="#DejaVuSans-57" transform="translate(913.421875 0)"/>
      <use xlink:href="#DejaVuSans-57" transform="translate(952.625 0)"/>
      <use xlink:href="#DejaVuSans-48" transform="translate(991.828125 0)"/>
      <use xlink:href="#DejaVuSans-50" transform="translate(1053.359375 0)"/>
      <use xlink:href="#DejaVuSans-53" transform="translate(1150.765625 0)"/>
      <use xlink:href="#DejaVuSans-57" transform="translate(1214.25 0)"/>
      <use xlink:href="#DejaVuSans-48" transform="translate(1253.453125 0)"/>
      <use xlink:href="#DejaVuSans-47" transform="translate(1314.984375 0)"/>
      <use xlink:href="#DejaVuSans-3" transform="translate(1378.46875 0)"/>
      <use xlink:href="#DejaVuSans-57" transform="translate(1410.25 0)"/>
      <use xlink:href="#DejaVuSans-44" transform="translate(1449.453125 0)"/>
      <use xlink:href="#DejaVuSans-56" transform="translate(1510.734375 0)"/>
      <use xlink:href="#DejaVuSans-4e" transform="translate(1562.828125 0)"/>
     </g>
    </g>
    <g id="text_7">
     <!-- 1e6 -->
     <g transform="translate(401.322989 368.875313) scale(0.1 -0.1)">
      <defs>
       <path id="DejaVuSans-19" d="M 2113 2584
Q 1688 2584 1439 2293
Q 1191 2003 1191 1497
Q 1191 994 1439 701
Q 1688 409 2113 409
Q 2538 409 2786 701
Q 3034 994 3034 1497
Q 3034 2003 2786 2293
Q 2538 2584 2113 2584
z
M 3366 4563
L 3366 3988
Q 3128 4100 2886 4159
Q 2644 4219 2406 4219
Q 1781 4219 1451 3797
Q 1122 3375 1075 2522
Q 1259 2794 1537 2939
Q 1816 3084 2150 3084
Q 2853 3084 3261 2657
Q 3669 2231 3669 1497
Q 3669 778 3244 343
Q 2819 -91 2113 -91
Q 1303 -91 875 529
Q 447 1150 447 2328
Q 447 3434 972 4092
Q 1497 4750 2381 4750
Q 2619 4750 2861 4703
Q 3103 4656 3366 4563
z
" transform="scale(0.015625)"/>
      </defs>
      <use xlink:href="#DejaVuSans-14"/>
      <use xlink:href="#DejaVuSans-48" transform="translate(63.625 0)"/>
      <use xlink:href="#DejaVuSans-19" transform="translate(125.15625 0)"/>
     </g>
    </g>
   </g>
   <g id="matplotlib.axis_2">
    <g id="ytick_1">
     <g id="line2d_11">
      <path d="M 47.288281 341.277656
L 420.201114 341.277656
" clip-path="url(#pbf061cafc4)" style="fill: none; stroke: #b0b0b0; stroke-opacity: 0.2; stroke-width: 0.8; stroke-linecap: square"/>
     </g>
     <g id="line2d_12">
      <defs>
       <path id="mf868be489e" d="M 0 0
L -3.5 0
" style="stroke: #000000; stroke-width: 0.8"/>
      </defs>
      <g>
       <use xlink:href="#mf868be489e" x="47.288281" y="341.277656" style="stroke: #000000; stroke-width: 0.8"/>
      </g>
     </g>
     <g id="text_8">
      <!-- 0 -->
      <g transform="translate(33.925781 345.076484) scale(0.1 -0.1)">
       <use xlink:href="#DejaVuSans-13"/>
      </g>
     </g>
    </g>
    <g id="ytick_2">
     <g id="line2d_13">
      <path d="M 47.288281 290.103609
L 420.201114 290.103609
" clip-path="url(#pbf061cafc4)" style="fill: none; stroke: #b0b0b0; stroke-opacity: 0.2; stroke-width: 0.8; stroke-linecap: square"/>
     </g>
     <g id="line2d_14">
      <g>
       <use xlink:href="#mf868be489e" x="47.288281" y="290.103609" style="stroke: #000000; stroke-width: 0.8"/>
      </g>
     </g>
     <g id="text_9">
      <!-- 20 -->
      <g transform="translate(27.563281 293.902438) scale(0.1 -0.1)">
       <use xlink:href="#DejaVuSans-15"/>
       <use xlink:href="#DejaVuSans-13" transform="translate(63.625 0)"/>
      </g>
     </g>
    </g>
    <g id="ytick_3">
     <g id="line2d_15">
      <path d="M 47.288281 238.929563
L 420.201114 238.929563
" clip-path="url(#pbf061cafc4)" style="fill: none; stroke: #b0b0b0; stroke-opacity: 0.2; stroke-width: 0.8; stroke-linecap: square"/>
     </g>
     <g id="line2d_16">
      <g>
       <use xlink:href="#mf868be489e" x="47.288281" y="238.929563" style="stroke: #000000; stroke-width: 0.8"/>
      </g>
     </g>
     <g id="text_10">
      <!-- 40 -->
      <g transform="translate(27.563281 242.728391) scale(0.1 -0.1)">
       <defs>
        <path id="DejaVuSans-17" d="M 2419 4116
L 825 1625
L 2419 1625
L 2419 4116
z
M 2253 4666
L 3047 4666
L 3047 1625
L 3713 1625
L 3713 1100
L 3047 1100
L 3047 0
L 2419 0
L 2419 1100
L 313 1100
L 313 1709
L 2253 4666
z
" transform="scale(0.015625)"/>
       </defs>
       <use xlink:href="#DejaVuSans-17"/>
       <use xlink:href="#DejaVuSans-13" transform="translate(63.625 0)"/>
      </g>
     </g>
    </g>
    <g id="ytick_4">
     <g id="line2d_17">
      <path d="M 47.288281 187.755516
L 420.201114 187.755516
" clip-path="url(#pbf061cafc4)" style="fill: none; stroke: #b0b0b0; stroke-opacity: 0.2; stroke-width: 0.8; stroke-linecap: square"/>
     </g>
     <g id="line2d_18">
      <g>
       <use xlink:href="#mf868be489e" x="47.288281" y="187.755516" style="stroke: #000000; stroke-width: 0.8"/>
      </g>
     </g>
     <g id="text_11">
      <!-- 60 -->
      <g transform="translate(27.563281 191.554344) scale(0.1 -0.1)">
       <use xlink:href="#DejaVuSans-19"/>
       <use xlink:href="#DejaVuSans-13" transform="translate(63.625 0)"/>
      </g>
     </g>
    </g>
    <g id="ytick_5">
     <g id="line2d_19">
      <path d="M 47.288281 136.581469
L 420.201114 136.581469
" clip-path="url(#pbf061cafc4)" style="fill: none; stroke: #b0b0b0; stroke-opacity: 0.2; stroke-width: 0.8; stroke-linecap: square"/>
     </g>
     <g id="line2d_20">
      <g>
       <use xlink:href="#mf868be489e" x="47.288281" y="136.581469" style="stroke: #000000; stroke-width: 0.8"/>
      </g>
     </g>
     <g id="text_12">
      <!-- 80 -->
      <g transform="translate(27.563281 140.380297) scale(0.1 -0.1)">
       <defs>
        <path id="DejaVuSans-1b" d="M 2034 2216
Q 1584 2216 1326 1975
Q 1069 1734 1069 1313
Q 1069 891 1326 650
Q 1584 409 2034 409
Q 2484 409 2743 651
Q 3003 894 3003 1313
Q 3003 1734 2745 1975
Q 2488 2216 2034 2216
z
M 1403 2484
Q 997 2584 770 2862
Q 544 3141 544 3541
Q 544 4100 942 4425
Q 1341 4750 2034 4750
Q 2731 4750 3128 4425
Q 3525 4100 3525 3541
Q 3525 3141 3298 2862
Q 3072 2584 2669 2484
Q 3125 2378 3379 2068
Q 3634 1759 3634 1313
Q 3634 634 3220 271
Q 2806 -91 2034 -91
Q 1263 -91 848 271
Q 434 634 434 1313
Q 434 1759 690 2068
Q 947 2378 1403 2484
z
M 1172 3481
Q 1172 3119 1398 2916
Q 1625 2713 2034 2713
Q 2441 2713 2670 2916
Q 2900 3119 2900 3481
Q 2900 3844 2670 4047
Q 2441 4250 2034 4250
Q 1625 4250 1398 4047
Q 1172 3844 1172 3481
z
" transform="scale(0.015625)"/>
       </defs>
       <use xlink:href="#DejaVuSans-1b"/>
       <use xlink:href="#DejaVuSans-13" transform="translate(63.625 0)"/>
      </g>
     </g>
    </g>
    <g id="ytick_6">
     <g id="line2d_21">
      <path d="M 47.288281 85.407422
L 420.201114 85.407422
" clip-path="url(#pbf061cafc4)" style="fill: none; stroke: #b0b0b0; stroke-opacity: 0.2; stroke-width: 0.8; stroke-linecap: square"/>
     </g>
     <g id="line2d_22">
      <g>
       <use xlink:href="#mf868be489e" x="47.288281" y="85.407422" style="stroke: #000000; stroke-width: 0.8"/>
      </g>
     </g>
     <g id="text_13">
      <!-- 100 -->
      <g transform="translate(21.200781 89.20625) scale(0.1 -0.1)">
       <use xlink:href="#DejaVuSans-14"/>
       <use xlink:href="#DejaVuSans-13" transform="translate(63.625 0)"/>
       <use xlink:href="#DejaVuSans-13" transform="translate(127.25 0)"/>
      </g>
     </g>
    </g>
    <g id="text_14">
     <!-- Overall judged success (%) -->
     <g transform="translate(14.798438 281.346445) rotate(-90) scale(0.1 -0.1)">
      <defs>
       <path id="DejaVuSans-32" d="M 2522 4238
Q 1834 4238 1429 3725
Q 1025 3213 1025 2328
Q 1025 1447 1429 934
Q 1834 422 2522 422
Q 3209 422 3611 934
Q 4013 1447 4013 2328
Q 4013 3213 3611 3725
Q 3209 4238 2522 4238
z
M 2522 4750
Q 3503 4750 4090 4092
Q 4678 3434 4678 2328
Q 4678 1225 4090 567
Q 3503 -91 2522 -91
Q 1538 -91 948 565
Q 359 1222 359 2328
Q 359 3434 948 4092
Q 1538 4750 2522 4750
z
" transform="scale(0.015625)"/>
       <path id="DejaVuSans-59" d="M 191 3500
L 800 3500
L 1894 563
L 2988 3500
L 3597 3500
L 2284 0
L 1503 0
L 191 3500
z
" transform="scale(0.015625)"/>
       <path id="DejaVuSans-4f" d="M 603 4863
L 1178 4863
L 1178 0
L 603 0
L 603 4863
z
" transform="scale(0.015625)"/>
       <path id="DejaVuSans-4d" d="M 603 3500
L 1178 3500
L 1178 -63
Q 1178 -731 923 -1031
Q 669 -1331 103 -1331
L -116 -1331
L -116 -844
L 38 -844
Q 366 -844 484 -692
Q 603 -541 603 -63
L 603 3500
z
M 603 4863
L 1178 4863
L 1178 4134
L 603 4134
L 603 4863
z
" transform="scale(0.015625)"/>
       <path id="DejaVuSans-4a" d="M 2906 1791
Q 2906 2416 2648 2759
Q 2391 3103 1925 3103
Q 1463 3103 1205 2759
Q 947 2416 947 1791
Q 947 1169 1205 825
Q 1463 481 1925 481
Q 2391 481 2648 825
Q 2906 1169 2906 1791
z
M 3481 434
Q 3481 -459 3084 -895
Q 2688 -1331 1869 -1331
Q 1566 -1331 1297 -1286
Q 1028 -1241 775 -1147
L 775 -588
Q 1028 -725 1275 -790
Q 1522 -856 1778 -856
Q 2344 -856 2625 -561
Q 2906 -266 2906 331
L 2906 616
Q 2728 306 2450 153
Q 2172 0 1784 0
Q 1141 0 747 490
Q 353 981 353 1791
Q 353 2603 747 3093
Q 1141 3584 1784 3584
Q 2172 3584 2450 3431
Q 2728 3278 2906 2969
L 2906 3500
L 3481 3500
L 3481 434
z
" transform="scale(0.015625)"/>
       <path id="DejaVuSans-46" d="M 3122 3366
L 3122 2828
Q 2878 2963 2633 3030
Q 2388 3097 2138 3097
Q 1578 3097 1268 2742
Q 959 2388 959 1747
Q 959 1106 1268 751
Q 1578 397 2138 397
Q 2388 397 2633 464
Q 2878 531 3122 666
L 3122 134
Q 2881 22 2623 -34
Q 2366 -91 2075 -91
Q 1284 -91 818 406
Q 353 903 353 1747
Q 353 2603 823 3093
Q 1294 3584 2113 3584
Q 2378 3584 2631 3529
Q 2884 3475 3122 3366
z
" transform="scale(0.015625)"/>
       <path id="DejaVuSans-b" d="M 1984 4856
Q 1566 4138 1362 3434
Q 1159 2731 1159 2009
Q 1159 1288 1364 580
Q 1569 -128 1984 -844
L 1484 -844
Q 1016 -109 783 600
Q 550 1309 550 2009
Q 550 2706 781 3412
Q 1013 4119 1484 4856
L 1984 4856
z
" transform="scale(0.015625)"/>
       <path id="DejaVuSans-8" d="M 4653 2053
Q 4381 2053 4226 1822
Q 4072 1591 4072 1178
Q 4072 772 4226 539
Q 4381 306 4653 306
Q 4919 306 5073 539
Q 5228 772 5228 1178
Q 5228 1588 5073 1820
Q 4919 2053 4653 2053
z
M 4653 2450
Q 5147 2450 5437 2106
Q 5728 1763 5728 1178
Q 5728 594 5436 251
Q 5144 -91 4653 -91
Q 4153 -91 3862 251
Q 3572 594 3572 1178
Q 3572 1766 3864 2108
Q 4156 2450 4653 2450
z
M 1428 4353
Q 1159 4353 1004 4120
Q 850 3888 850 3481
Q 850 3069 1003 2837
Q 1156 2606 1428 2606
Q 1700 2606 1854 2837
Q 2009 3069 2009 3481
Q 2009 3884 1853 4118
Q 1697 4353 1428 4353
z
M 4250 4750
L 4750 4750
L 1831 -91
L 1331 -91
L 4250 4750
z
M 1428 4750
Q 1922 4750 2215 4408
Q 2509 4066 2509 3481
Q 2509 2891 2217 2550
Q 1925 2209 1428 2209
Q 931 2209 642 2551
Q 353 2894 353 3481
Q 353 4063 643 4406
Q 934 4750 1428 4750
z
" transform="scale(0.015625)"/>
       <path id="DejaVuSans-c" d="M 513 4856
L 1013 4856
Q 1481 4119 1714 3412
Q 1947 2706 1947 2009
Q 1947 1309 1714 600
Q 1481 -109 1013 -844
L 513 -844
Q 928 -128 1133 580
Q 1338 1288 1338 2009
Q 1338 2731 1133 3434
Q 928 4138 513 4856
z
" transform="scale(0.015625)"/>
      </defs>
      <use xlink:href="#DejaVuSans-32"/>
      <use xlink:href="#DejaVuSans-59" transform="translate(78.71875 0)"/>
      <use xlink:href="#DejaVuSans-48" transform="translate(137.90625 0)"/>
      <use xlink:href="#DejaVuSans-55" transform="translate(199.4375 0)"/>
      <use xlink:href="#DejaVuSans-44" transform="translate(240.546875 0)"/>
      <use xlink:href="#DejaVuSans-4f" transform="translate(301.828125 0)"/>
      <use xlink:href="#DejaVuSans-4f" transform="translate(329.609375 0)"/>
      <use xlink:href="#DejaVuSans-3" transform="translate(357.390625 0)"/>
      <use xlink:href="#DejaVuSans-4d" transform="translate(389.171875 0)"/>
      <use xlink:href="#DejaVuSans-58" transform="translate(416.953125 0)"/>
      <use xlink:href="#DejaVuSans-47" transform="translate(480.328125 0)"/>
      <use xlink:href="#DejaVuSans-4a" transform="translate(543.8125 0)"/>
      <use xlink:href="#DejaVuSans-48" transform="translate(607.296875 0)"/>
      <use xlink:href="#DejaVuSans-47" transform="translate(668.828125 0)"/>
      <use xlink:href="#DejaVuSans-3" transform="translate(732.3125 0)"/>
      <use xlink:href="#DejaVuSans-56" transform="translate(764.09375 0)"/>
      <use xlink:href="#DejaVuSans-58" transform="translate(816.1875 0)"/>
      <use xlink:href="#DejaVuSans-46" transform="translate(879.5625 0)"/>
      <use xlink:href="#DejaVuSans-46" transform="translate(934.546875 0)"/>
      <use xlink:href="#DejaVuSans-48" transform="translate(989.53125 0)"/>
      <use xlink:href="#DejaVuSans-56" transform="translate(1051.0625 0)"/>
      <use xlink:href="#DejaVuSans-56" transform="translate(1103.15625 0)"/>
      <use xlink:href="#DejaVuSans-3" transform="translate(1155.25 0)"/>
      <use xlink:href="#DejaVuSans-b" transform="translate(1187.03125 0)"/>
      <use xlink:href="#DejaVuSans-8" transform="translate(1226.046875 0)"/>
      <use xlink:href="#DejaVuSans-c" transform="translate(1321.0625 0)"/>
     </g>
    </g>
   </g>
   <g id="LineCollection_1">
    <path d="M 64.238865 341.277656
L 64.238865 341.277656
" clip-path="url(#pbf061cafc4)" style="fill: none; stroke: #6b7280; stroke-width: 1.5"/>
   </g>
   <g id="line2d_23">
    <defs>
     <path id="m79c8ac8e89" d="M 3 0
L -3 -0
" style="stroke: #6b7280"/>
    </defs>
    <g clip-path="url(#pbf061cafc4)">
     <use xlink:href="#m79c8ac8e89" x="64.238865" y="341.277656" style="fill: #6b7280; stroke: #6b7280"/>
    </g>
   </g>
   <g id="line2d_24">
    <g clip-path="url(#pbf061cafc4)">
     <use xlink:href="#m79c8ac8e89" x="64.238865" y="341.277656" style="fill: #6b7280; stroke: #6b7280"/>
    </g>
   </g>
   <g id="LineCollection_2">
    <path d="M 165.347885 341.277656
L 165.347885 255.987578
" clip-path="url(#pbf061cafc4)" style="fill: none; stroke: #2563eb; stroke-width: 1.5"/>
   </g>
   <g id="line2d_25">
    <defs>
     <path id="m5e681c80c1" d="M 3 0
L -3 -0
" style="stroke: #2563eb"/>
    </defs>
    <g clip-path="url(#pbf061cafc4)">
     <use xlink:href="#m5e681c80c1" x="165.347885" y="341.277656" style="fill: #2563eb; stroke: #2563eb"/>
    </g>
   </g>
   <g id="line2d_26">
    <g clip-path="url(#pbf061cafc4)">
     <use xlink:href="#m5e681c80c1" x="165.347885" y="255.987578" style="fill: #2563eb; stroke: #2563eb"/>
    </g>
   </g>
   <g id="LineCollection_3">
    <path d="M 403.25053 341.277656
L 403.25053 341.277656
" clip-path="url(#pbf061cafc4)" style="fill: none; stroke: #7c3aed; stroke-width: 1.5"/>
   </g>
   <g id="line2d_27">
    <defs>
     <path id="m5ba489b34b" d="M 3 0
L -3 -0
" style="stroke: #7c3aed"/>
    </defs>
    <g clip-path="url(#pbf061cafc4)">
     <use xlink:href="#m5ba489b34b" x="403.25053" y="341.277656" style="fill: #7c3aed; stroke: #7c3aed"/>
    </g>
   </g>
   <g id="line2d_28">
    <g clip-path="url(#pbf061cafc4)">
     <use xlink:href="#m5ba489b34b" x="403.25053" y="341.277656" style="fill: #7c3aed; stroke: #7c3aed"/>
    </g>
   </g>
   <g id="LineCollection_4">
    <path d="M 122.169854 341.277656
L 122.169854 199.127526
" clip-path="url(#pbf061cafc4)" style="fill: none; stroke: #059669; stroke-width: 1.5"/>
   </g>
   <g id="line2d_29">
    <defs>
     <path id="mcd4dfb6374" d="M 3 0
L -3 -0
" style="stroke: #059669"/>
    </defs>
    <g clip-path="url(#pbf061cafc4)">
     <use xlink:href="#mcd4dfb6374" x="122.169854" y="341.277656" style="fill: #059669; stroke: #059669"/>
    </g>
   </g>
   <g id="line2d_30">
    <g clip-path="url(#pbf061cafc4)">
     <use xlink:href="#mcd4dfb6374" x="122.169854" y="199.127526" style="fill: #059669; stroke: #059669"/>
    </g>
   </g>
   <g id="line2d_31">
    <defs>
     <path id="me81a512745" d="M 0 4
C 1.060812 4 2.078319 3.578535 2.828427 2.828427
C 3.578535 2.078319 4 1.060812 4 0
C 4 -1.060812 3.578535 -2.078319 2.828427 -2.828427
C 2.078319 -3.578535 1.060812 -4 0 -4
C -1.060812 -4 -2.078319 -3.578535 -2.828427 -2.828427
C -3.578535 -2.078319 -4 -1.060812 -4 0
C -4 1.060812 -3.578535 2.078319 -2.828427 2.828427
C -2.078319 3.578535 -1.060812 4 0 4
z
" style="stroke: #6b7280"/>
    </defs>
    <g clip-path="url(#pbf061cafc4)">
     <use xlink:href="#me81a512745" x="64.238865" y="341.277656" style="fill: #6b7280; stroke: #6b7280"/>
    </g>
   </g>
   <g id="line2d_32">
    <defs>
     <path id="m5451f75274" d="M 0 4
C 1.060812 4 2.078319 3.578535 2.828427 2.828427
C 3.578535 2.078319 4 1.060812 4 0
C 4 -1.060812 3.578535 -2.078319 2.828427 -2.828427
C 2.078319 -3.578535 1.060812 -4 0 -4
C -1.060812 -4 -2.078319 -3.578535 -2.828427 -2.828427
C -3.578535 -2.078319 -4 -1.060812 -4 0
C -4 1.060812 -3.578535 2.078319 -2.828427 2.828427
C -2.078319 3.578535 -1.060812 4 0 4
z
" style="stroke: #2563eb"/>
    </defs>
    <g clip-path="url(#pbf061cafc4)">
     <use xlink:href="#m5451f75274" x="165.347885" y="312.84763" style="fill: #2563eb; stroke: #2563eb"/>
    </g>
   </g>
   <g id="line2d_33">
    <defs>
     <path id="m3a33071906" d="M 0 4
C 1.060812 4 2.078319 3.578535 2.828427 2.828427
C 3.578535 2.078319 4 1.060812 4 0
C 4 -1.060812 3.578535 -2.078319 2.828427 -2.828427
C 2.078319 -3.578535 1.060812 -4 0 -4
C -1.060812 -4 -2.078319 -3.578535 -2.828427 -2.828427
C -3.578535 -2.078319 -4 -1.060812 -4 0
C -4 1.060812 -3.578535 2.078319 -2.828427 2.828427
C -2.078319 3.578535 -1.060812 4 0 4
z
" style="stroke: #7c3aed"/>
    </defs>
    <g clip-path="url(#pbf061cafc4)">
     <use xlink:href="#m3a33071906" x="403.25053" y="341.277656" style="fill: #7c3aed; stroke: #7c3aed"/>
    </g>
   </g>
   <g id="line2d_34">
    <defs>
     <path id="md16f895f52" d="M 0 4
C 1.060812 4 2.078319 3.578535 2.828427 2.828427
C 3.578535 2.078319 4 1.060812 4 0
C 4 -1.060812 3.578535 -2.078319 2.828427 -2.828427
C 2.078319 -3.578535 1.060812 -4 0 -4
C -1.060812 -4 -2.078319 -3.578535 -2.828427 -2.828427
C -3.578535 -2.078319 -4 -1.060812 -4 0
C -4 1.060812 -3.578535 2.078319 -2.828427 2.828427
C -2.078319 3.578535 -1.060812 4 0 4
z
" style="stroke: #059669"/>
    </defs>
    <g clip-path="url(#pbf061cafc4)">
     <use xlink:href="#md16f895f52" x="122.169854" y="284.417604" style="fill: #059669; stroke: #059669"/>
    </g>
   </g>
   <g id="patch_3">
    <path d="M 47.288281 341.277656
L 47.288281 85.407422
" style="fill: none; stroke: #000000; stroke-width: 0.8; stroke-linejoin: miter; stroke-linecap: square"/>
   </g>
   <g id="patch_4">
    <path d="M 420.201114 341.277656
L 420.201114 85.407422
" style="fill: none; stroke: #000000; stroke-width: 0.8; stroke-linejoin: miter; stroke-linecap: square"/>
   </g>
   <g id="patch_5">
    <path d="M 47.288281 341.277656
L 420.201114 341.277656
" style="fill: none; stroke: #000000; stroke-width: 0.8; stroke-linejoin: miter; stroke-linecap: square"/>
   </g>
   <g id="patch_6">
    <path d="M 47.288281 85.407422
L 420.201114 85.407422
" style="fill: none; stroke: #000000; stroke-width: 0.8; stroke-linejoin: miter; stroke-linecap: square"/>
   </g>
   <g id="legend_1">
    <g id="patch_7">
     <path d="M 235.171114 139.809922
L 414.601114 139.809922
Q 416.201114 139.809922 416.201114 138.209922
L 416.201114 91.007422
Q 416.201114 89.407422 414.601114 89.407422
L 235.171114 89.407422
Q 233.571114 89.407422 233.571114 91.007422
L 233.571114 138.209922
Q 233.571114 139.809922 235.171114 139.809922
z
" style="fill: #ffffff; opacity: 0.8; stroke: #cccccc; stroke-linejoin: miter"/>
    </g>
    <g id="LineCollection_5">
     <path d="M 244.771114 99.886172
L 244.771114 91.886172
" style="fill: none; stroke: #6b7280; stroke-width: 1.5"/>
    </g>
    <g id="line2d_35">
     <g>
      <use xlink:href="#m79c8ac8e89" x="244.771114" y="99.886172" style="fill: #6b7280; stroke: #6b7280"/>
     </g>
    </g>
    <g id="line2d_36">
     <g>
      <use xlink:href="#m79c8ac8e89" x="244.771114" y="91.886172" style="fill: #6b7280; stroke: #6b7280"/>
     </g>
    </g>
    <g id="line2d_37"/>
    <g id="line2d_38">
     <g>
      <use xlink:href="#me81a512745" x="244.771114" y="95.886172" style="fill: #6b7280; stroke: #6b7280"/>
     </g>
    </g>
    <g id="text_15">
     <!-- Qwen alone -->
     <g transform="translate(259.171114 98.686172) scale(0.08 -0.08)">
      <defs>
       <path id="DejaVuSans-34" d="M 2522 4238
Q 1834 4238 1429 3725
Q 1025 3213 1025 2328
Q 1025 1447 1429 934
Q 1834 422 2522 422
Q 3209 422 3611 934
Q 4013 1447 4013 2328
Q 4013 3213 3611 3725
Q 3209 4238 2522 4238
z
M 3406 84
L 4238 -825
L 3475 -825
L 2784 -78
Q 2681 -84 2626 -87
Q 2572 -91 2522 -91
Q 1538 -91 948 567
Q 359 1225 359 2328
Q 359 3434 948 4092
Q 1538 4750 2522 4750
Q 3503 4750 4090 4092
Q 4678 3434 4678 2328
Q 4678 1516 4351 937
Q 4025 359 3406 84
z
" transform="scale(0.015625)"/>
       <path id="DejaVuSans-5a" d="M 269 3500
L 844 3500
L 1563 769
L 2278 3500
L 2956 3500
L 3675 769
L 4391 3500
L 4966 3500
L 4050 0
L 3372 0
L 2619 2869
L 1863 0
L 1184 0
L 269 3500
z
" transform="scale(0.015625)"/>
      </defs>
      <use xlink:href="#DejaVuSans-34"/>
      <use xlink:href="#DejaVuSans-5a" transform="translate(78.71875 0)"/>
      <use xlink:href="#DejaVuSans-48" transform="translate(160.5 0)"/>
      <use xlink:href="#DejaVuSans-51" transform="translate(222.03125 0)"/>
      <use xlink:href="#DejaVuSans-3" transform="translate(285.40625 0)"/>
      <use xlink:href="#DejaVuSans-44" transform="translate(317.1875 0)"/>
      <use xlink:href="#DejaVuSans-4f" transform="translate(378.46875 0)"/>
      <use xlink:href="#DejaVuSans-52" transform="translate(406.25 0)"/>
      <use xlink:href="#DejaVuSans-51" transform="translate(467.4375 0)"/>
      <use xlink:href="#DejaVuSans-48" transform="translate(530.8125 0)"/>
     </g>
    </g>
    <g id="LineCollection_6">
     <path d="M 244.771114 111.886797
L 244.771114 103.886797
" style="fill: none; stroke: #2563eb; stroke-width: 1.5"/>
    </g>
    <g id="line2d_39">
     <g>
      <use xlink:href="#m5e681c80c1" x="244.771114" y="111.886797" style="fill: #2563eb; stroke: #2563eb"/>
     </g>
    </g>
    <g id="line2d_40">
     <g>
      <use xlink:href="#m5e681c80c1" x="244.771114" y="103.886797" style="fill: #2563eb; stroke: #2563eb"/>
     </g>
    </g>
    <g id="line2d_41"/>
    <g id="line2d_42">
     <g>
      <use xlink:href="#m5451f75274" x="244.771114" y="107.886797" style="fill: #2563eb; stroke: #2563eb"/>
     </g>
    </g>
    <g id="text_16">
     <!-- Qwen + Luna (N=5) -->
     <g transform="translate(259.171114 110.686797) scale(0.08 -0.08)">
      <defs>
       <path id="DejaVuSans-e" d="M 2944 4013
L 2944 2272
L 4684 2272
L 4684 1741
L 2944 1741
L 2944 0
L 2419 0
L 2419 1741
L 678 1741
L 678 2272
L 2419 2272
L 2419 4013
L 2944 4013
z
" transform="scale(0.015625)"/>
       <path id="DejaVuSans-2f" d="M 628 4666
L 1259 4666
L 1259 531
L 3531 531
L 3531 0
L 628 0
L 628 4666
z
" transform="scale(0.015625)"/>
       <path id="DejaVuSans-31" d="M 628 4666
L 1478 4666
L 3547 763
L 3547 4666
L 4159 4666
L 4159 0
L 3309 0
L 1241 3903
L 1241 0
L 628 0
L 628 4666
z
" transform="scale(0.015625)"/>
       <path id="DejaVuSans-20" d="M 678 2906
L 4684 2906
L 4684 2381
L 678 2381
L 678 2906
z
M 678 1631
L 4684 1631
L 4684 1100
L 678 1100
L 678 1631
z
" transform="scale(0.015625)"/>
      </defs>
      <use xlink:href="#DejaVuSans-34"/>
      <use xlink:href="#DejaVuSans-5a" transform="translate(78.71875 0)"/>
      <use xlink:href="#DejaVuSans-48" transform="translate(160.5 0)"/>
      <use xlink:href="#DejaVuSans-51" transform="translate(222.03125 0)"/>
      <use xlink:href="#DejaVuSans-3" transform="translate(285.40625 0)"/>
      <use xlink:href="#DejaVuSans-e" transform="translate(317.1875 0)"/>
      <use xlink:href="#DejaVuSans-3" transform="translate(400.984375 0)"/>
      <use xlink:href="#DejaVuSans-2f" transform="translate(432.765625 0)"/>
      <use xlink:href="#DejaVuSans-58" transform="translate(486.734375 0)"/>
      <use xlink:href="#DejaVuSans-51" transform="translate(550.109375 0)"/>
      <use xlink:href="#DejaVuSans-44" transform="translate(613.484375 0)"/>
      <use xlink:href="#DejaVuSans-3" transform="translate(674.765625 0)"/>
      <use xlink:href="#DejaVuSans-b" transform="translate(706.546875 0)"/>
      <use xlink:href="#DejaVuSans-31" transform="translate(745.5625 0)"/>
      <use xlink:href="#DejaVuSans-20" transform="translate(820.375 0)"/>
      <use xlink:href="#DejaVuSans-18" transform="translate(904.171875 0)"/>
      <use xlink:href="#DejaVuSans-c" transform="translate(967.796875 0)"/>
     </g>
    </g>
    <g id="LineCollection_7">
     <path d="M 244.771114 123.887422
L 244.771114 115.887422
" style="fill: none; stroke: #7c3aed; stroke-width: 1.5"/>
    </g>
    <g id="line2d_43">
     <g>
      <use xlink:href="#m5ba489b34b" x="244.771114" y="123.887422" style="fill: #7c3aed; stroke: #7c3aed"/>
     </g>
    </g>
    <g id="line2d_44">
     <g>
      <use xlink:href="#m5ba489b34b" x="244.771114" y="115.887422" style="fill: #7c3aed; stroke: #7c3aed"/>
     </g>
    </g>
    <g id="line2d_45"/>
    <g id="line2d_46">
     <g>
      <use xlink:href="#m3a33071906" x="244.771114" y="119.887422" style="fill: #7c3aed; stroke: #7c3aed"/>
     </g>
    </g>
    <g id="text_17">
     <!-- Qwen + Luna (N=10) -->
     <g transform="translate(259.171114 122.687422) scale(0.08 -0.08)">
      <use xlink:href="#DejaVuSans-34"/>
      <use xlink:href="#DejaVuSans-5a" transform="translate(78.71875 0)"/>
      <use xlink:href="#DejaVuSans-48" transform="translate(160.5 0)"/>
      <use xlink:href="#DejaVuSans-51" transform="translate(222.03125 0)"/>
      <use xlink:href="#DejaVuSans-3" transform="translate(285.40625 0)"/>
      <use xlink:href="#DejaVuSans-e" transform="translate(317.1875 0)"/>
      <use xlink:href="#DejaVuSans-3" transform="translate(400.984375 0)"/>
      <use xlink:href="#DejaVuSans-2f" transform="translate(432.765625 0)"/>
      <use xlink:href="#DejaVuSans-58" transform="translate(486.734375 0)"/>
      <use xlink:href="#DejaVuSans-51" transform="translate(550.109375 0)"/>
      <use xlink:href="#DejaVuSans-44" transform="translate(613.484375 0)"/>
      <use xlink:href="#DejaVuSans-3" transform="translate(674.765625 0)"/>
      <use xlink:href="#DejaVuSans-b" transform="translate(706.546875 0)"/>
      <use xlink:href="#DejaVuSans-31" transform="translate(745.5625 0)"/>
      <use xlink:href="#DejaVuSans-20" transform="translate(820.375 0)"/>
      <use xlink:href="#DejaVuSans-14" transform="translate(904.171875 0)"/>
      <use xlink:href="#DejaVuSans-13" transform="translate(967.796875 0)"/>
      <use xlink:href="#DejaVuSans-c" transform="translate(1031.421875 0)"/>
     </g>
    </g>
    <g id="LineCollection_8">
     <path d="M 244.771114 135.888047
L 244.771114 127.888047
" style="fill: none; stroke: #059669; stroke-width: 1.5"/>
    </g>
    <g id="line2d_47">
     <g>
      <use xlink:href="#mcd4dfb6374" x="244.771114" y="135.888047" style="fill: #059669; stroke: #059669"/>
     </g>
    </g>
    <g id="line2d_48">
     <g>
      <use xlink:href="#mcd4dfb6374" x="244.771114" y="127.888047" style="fill: #059669; stroke: #059669"/>
     </g>
    </g>
    <g id="line2d_49"/>
    <g id="line2d_50">
     <g>
      <use xlink:href="#md16f895f52" x="244.771114" y="131.888047" style="fill: #059669; stroke: #059669"/>
     </g>
    </g>
    <g id="text_18">
     <!-- Official OpenWebRL SFT + Luna (N=5) -->
     <g transform="translate(259.171114 134.688047) scale(0.08 -0.08)">
      <defs>
       <path id="DejaVuSans-13b1" d="M 2375 4863
L 2375 4384
L 1825 4384
Q 1516 4384 1394 4259
Q 1275 4134 1275 3809
L 1275 3500
L 2853 3500
L 2853 3744
Q 2853 4328 3125 4594
Q 3213 4681 3334 4741
Q 3578 4863 3988 4863
L 4531 4863
L 4531 4384
L 3981 4384
Q 3672 4384 3551 4259
Q 3431 4134 3431 3809
L 3431 3500
L 5588 3500
L 5588 0
L 5009 0
L 5009 3053
L 3431 3053
L 3431 0
L 2853 0
L 2853 3053
L 1275 3053
L 1275 0
L 697 0
L 697 3053
L 147 3053
L 147 3500
L 697 3500
L 697 3744
Q 697 4328 969 4595
Q 1241 4863 1831 4863
L 2375 4863
z
M 5009 4856
L 5588 4856
L 5588 4128
L 5009 4128
L 5009 4856
z
" transform="scale(0.015625)"/>
       <path id="DejaVuSans-4c" d="M 603 3500
L 1178 3500
L 1178 0
L 603 0
L 603 3500
z
M 603 4863
L 1178 4863
L 1178 4134
L 603 4134
L 603 4863
z
" transform="scale(0.015625)"/>
       <path id="DejaVuSans-3a" d="M 213 4666
L 850 4666
L 1831 722
L 2809 4666
L 3519 4666
L 4500 722
L 5478 4666
L 6119 4666
L 4947 0
L 4153 0
L 3169 4050
L 2175 0
L 1381 0
L 213 4666
z
" transform="scale(0.015625)"/>
       <path id="DejaVuSans-45" d="M 3116 1747
Q 3116 2381 2855 2742
Q 2594 3103 2138 3103
Q 1681 3103 1420 2742
Q 1159 2381 1159 1747
Q 1159 1113 1420 752
Q 1681 391 2138 391
Q 2594 391 2855 752
Q 3116 1113 3116 1747
z
M 1159 2969
Q 1341 3281 1617 3432
Q 1894 3584 2278 3584
Q 2916 3584 3314 3078
Q 3713 2572 3713 1747
Q 3713 922 3314 415
Q 2916 -91 2278 -91
Q 1894 -91 1617 61
Q 1341 213 1159 525
L 1159 0
L 581 0
L 581 4863
L 1159 4863
L 1159 2969
z
" transform="scale(0.015625)"/>
       <path id="DejaVuSans-35" d="M 2841 2188
Q 3044 2119 3236 1894
Q 3428 1669 3622 1275
L 4263 0
L 3584 0
L 2988 1197
Q 2756 1666 2539 1819
Q 2322 1972 1947 1972
L 1259 1972
L 1259 0
L 628 0
L 628 4666
L 2053 4666
Q 2853 4666 3247 4331
Q 3641 3997 3641 3322
Q 3641 2881 3436 2590
Q 3231 2300 2841 2188
z
M 1259 4147
L 1259 2491
L 2053 2491
Q 2509 2491 2742 2702
Q 2975 2913 2975 3322
Q 2975 3731 2742 3939
Q 2509 4147 2053 4147
L 1259 4147
z
" transform="scale(0.015625)"/>
       <path id="DejaVuSans-36" d="M 3425 4513
L 3425 3897
Q 3066 4069 2747 4153
Q 2428 4238 2131 4238
Q 1616 4238 1336 4038
Q 1056 3838 1056 3469
Q 1056 3159 1242 3001
Q 1428 2844 1947 2747
L 2328 2669
Q 3034 2534 3370 2195
Q 3706 1856 3706 1288
Q 3706 609 3251 259
Q 2797 -91 1919 -91
Q 1588 -91 1214 -16
Q 841 59 441 206
L 441 856
Q 825 641 1194 531
Q 1563 422 1919 422
Q 2459 422 2753 634
Q 3047 847 3047 1241
Q 3047 1584 2836 1778
Q 2625 1972 2144 2069
L 1759 2144
Q 1053 2284 737 2584
Q 422 2884 422 3419
Q 422 4038 858 4394
Q 1294 4750 2059 4750
Q 2388 4750 2728 4690
Q 3069 4631 3425 4513
z
" transform="scale(0.015625)"/>
       <path id="DejaVuSans-29" d="M 628 4666
L 3309 4666
L 3309 4134
L 1259 4134
L 1259 2759
L 3109 2759
L 3109 2228
L 1259 2228
L 1259 0
L 628 0
L 628 4666
z
" transform="scale(0.015625)"/>
       <path id="DejaVuSans-37" d="M -19 4666
L 3928 4666
L 3928 4134
L 2272 4134
L 2272 0
L 1638 0
L 1638 4134
L -19 4134
L -19 4666
z
" transform="scale(0.015625)"/>
      </defs>
      <use xlink:href="#DejaVuSans-32"/>
      <use xlink:href="#DejaVuSans-13b1" transform="translate(78.71875 0)"/>
      <use xlink:href="#DejaVuSans-46" transform="translate(175.40625 0)"/>
      <use xlink:href="#DejaVuSans-4c" transform="translate(230.390625 0)"/>
      <use xlink:href="#DejaVuSans-44" transform="translate(258.171875 0)"/>
      <use xlink:href="#DejaVuSans-4f" transform="translate(319.453125 0)"/>
      <use xlink:href="#DejaVuSans-3" transform="translate(347.234375 0)"/>
      <use xlink:href="#DejaVuSans-32" transform="translate(379.015625 0)"/>
      <use xlink:href="#DejaVuSans-53" transform="translate(457.734375 0)"/>
      <use xlink:href="#DejaVuSans-48" transform="translate(521.21875 0)"/>
      <use xlink:href="#DejaVuSans-51" transform="translate(582.75 0)"/>
      <use xlink:href="#DejaVuSans-3a" transform="translate(646.125 0)"/>
      <use xlink:href="#DejaVuSans-48" transform="translate(739.140625 0)"/>
      <use xlink:href="#DejaVuSans-45" transform="translate(800.671875 0)"/>
      <use xlink:href="#DejaVuSans-35" transform="translate(864.15625 0)"/>
      <use xlink:href="#DejaVuSans-2f" transform="translate(933.640625 0)"/>
      <use xlink:href="#DejaVuSans-3" transform="translate(989.359375 0)"/>
      <use xlink:href="#DejaVuSans-36" transform="translate(1021.140625 0)"/>
      <use xlink:href="#DejaVuSans-29" transform="translate(1084.625 0)"/>
      <use xlink:href="#DejaVuSans-37" transform="translate(1140.390625 0)"/>
      <use xlink:href="#DejaVuSans-3" transform="translate(1201.46875 0)"/>
      <use xlink:href="#DejaVuSans-e" transform="translate(1233.25 0)"/>
      <use xlink:href="#DejaVuSans-3" transform="translate(1317.046875 0)"/>
      <use xlink:href="#DejaVuSans-2f" transform="translate(1348.828125 0)"/>
      <use xlink:href="#DejaVuSans-58" transform="translate(1402.796875 0)"/>
      <use xlink:href="#DejaVuSans-51" transform="translate(1466.171875 0)"/>
      <use xlink:href="#DejaVuSans-44" transform="translate(1529.546875 0)"/>
      <use xlink:href="#DejaVuSans-3" transform="translate(1590.828125 0)"/>
      <use xlink:href="#DejaVuSans-b" transform="translate(1622.609375 0)"/>
      <use xlink:href="#DejaVuSans-31" transform="translate(1661.625 0)"/>
      <use xlink:href="#DejaVuSans-20" transform="translate(1736.4375 0)"/>
      <use xlink:href="#DejaVuSans-18" transform="translate(1820.234375 0)"/>
      <use xlink:href="#DejaVuSans-c" transform="translate(1883.859375 0)"/>
     </g>
    </g>
   </g>
  </g>
  <g id="axes_2">
   <g id="patch_8">
    <path d="M 476.013105 341.277656
L 848.925937 341.277656
L 848.925937 85.407422
L 476.013105 85.407422
z
" style="fill: #ffffff"/>
   </g>
   <g id="matplotlib.axis_3">
    <g id="xtick_6">
     <g id="line2d_51">
      <path d="M 527.669009 341.277656
L 527.669009 85.407422
" clip-path="url(#pe85ca3f776)" style="fill: none; stroke: #b0b0b0; stroke-opacity: 0.2; stroke-width: 0.8; stroke-linecap: square"/>
     </g>
     <g id="line2d_52">
      <g>
       <use xlink:href="#m3ddccd35f1" x="527.669009" y="341.277656" style="stroke: #000000; stroke-width: 0.8"/>
      </g>
     </g>
     <g id="text_19">
      <!-- 0.2 -->
      <g transform="translate(519.717446 355.875313) scale(0.1 -0.1)">
       <use xlink:href="#DejaVuSans-13"/>
       <use xlink:href="#DejaVuSans-11" transform="translate(63.625 0)"/>
       <use xlink:href="#DejaVuSans-15" transform="translate(95.40625 0)"/>
      </g>
     </g>
    </g>
    <g id="xtick_7">
     <g id="line2d_53">
      <path d="M 598.081859 341.277656
L 598.081859 85.407422
" clip-path="url(#pe85ca3f776)" style="fill: none; stroke: #b0b0b0; stroke-opacity: 0.2; stroke-width: 0.8; stroke-linecap: square"/>
     </g>
     <g id="line2d_54">
      <g>
       <use xlink:href="#m3ddccd35f1" x="598.081859" y="341.277656" style="stroke: #000000; stroke-width: 0.8"/>
      </g>
     </g>
     <g id="text_20">
      <!-- 0.4 -->
      <g transform="translate(590.130297 355.875313) scale(0.1 -0.1)">
       <use xlink:href="#DejaVuSans-13"/>
       <use xlink:href="#DejaVuSans-11" transform="translate(63.625 0)"/>
       <use xlink:href="#DejaVuSans-17" transform="translate(95.40625 0)"/>
      </g>
     </g>
    </g>
    <g id="xtick_8">
     <g id="line2d_55">
      <path d="M 668.49471 341.277656
L 668.49471 85.407422
" clip-path="url(#pe85ca3f776)" style="fill: none; stroke: #b0b0b0; stroke-opacity: 0.2; stroke-width: 0.8; stroke-linecap: square"/>
     </g>
     <g id="line2d_56">
      <g>
       <use xlink:href="#m3ddccd35f1" x="668.49471" y="341.277656" style="stroke: #000000; stroke-width: 0.8"/>
      </g>
     </g>
     <g id="text_21">
      <!-- 0.6 -->
      <g transform="translate(660.543147 355.875313) scale(0.1 -0.1)">
       <use xlink:href="#DejaVuSans-13"/>
       <use xlink:href="#DejaVuSans-11" transform="translate(63.625 0)"/>
       <use xlink:href="#DejaVuSans-19" transform="translate(95.40625 0)"/>
      </g>
     </g>
    </g>
    <g id="xtick_9">
     <g id="line2d_57">
      <path d="M 738.90756 341.277656
L 738.90756 85.407422
" clip-path="url(#pe85ca3f776)" style="fill: none; stroke: #b0b0b0; stroke-opacity: 0.2; stroke-width: 0.8; stroke-linecap: square"/>
     </g>
     <g id="line2d_58">
      <g>
       <use xlink:href="#m3ddccd35f1" x="738.90756" y="341.277656" style="stroke: #000000; stroke-width: 0.8"/>
      </g>
     </g>
     <g id="text_22">
      <!-- 0.8 -->
      <g transform="translate(730.955998 355.875313) scale(0.1 -0.1)">
       <use xlink:href="#DejaVuSans-13"/>
       <use xlink:href="#DejaVuSans-11" transform="translate(63.625 0)"/>
       <use xlink:href="#DejaVuSans-1b" transform="translate(95.40625 0)"/>
      </g>
     </g>
    </g>
    <g id="xtick_10">
     <g id="line2d_59">
      <path d="M 809.320411 341.277656
L 809.320411 85.407422
" clip-path="url(#pe85ca3f776)" style="fill: none; stroke: #b0b0b0; stroke-opacity: 0.2; stroke-width: 0.8; stroke-linecap: square"/>
     </g>
     <g id="line2d_60">
      <g>
       <use xlink:href="#m3ddccd35f1" x="809.320411" y="341.277656" style="stroke: #000000; stroke-width: 0.8"/>
      </g>
     </g>
     <g id="text_23">
      <!-- 1.0 -->
      <g transform="translate(801.368848 355.875313) scale(0.1 -0.1)">
       <use xlink:href="#DejaVuSans-14"/>
       <use xlink:href="#DejaVuSans-11" transform="translate(63.625 0)"/>
       <use xlink:href="#DejaVuSans-13" transform="translate(95.40625 0)"/>
      </g>
     </g>
    </g>
    <g id="text_24">
     <!-- Output tokens per attempted task -->
     <g transform="translate(577.011709 369.876094) scale(0.1 -0.1)">
      <use xlink:href="#DejaVuSans-32"/>
      <use xlink:href="#DejaVuSans-58" transform="translate(78.71875 0)"/>
      <use xlink:href="#DejaVuSans-57" transform="translate(142.09375 0)"/>
      <use xlink:href="#DejaVuSans-53" transform="translate(181.296875 0)"/>
      <use xlink:href="#DejaVuSans-58" transform="translate(244.78125 0)"/>
      <use xlink:href="#DejaVuSans-57" transform="translate(308.15625 0)"/>
      <use xlink:href="#DejaVuSans-3" transform="translate(347.359375 0)"/>
      <use xlink:href="#DejaVuSans-57" transform="translate(379.140625 0)"/>
      <use xlink:href="#DejaVuSans-52" transform="translate(418.34375 0)"/>
      <use xlink:href="#DejaVuSans-4e" transform="translate(479.53125 0)"/>
      <use xlink:href="#DejaVuSans-48" transform="translate(533.875 0)"/>
      <use xlink:href="#DejaVuSans-51" transform="translate(595.40625 0)"/>
      <use xlink:href="#DejaVuSans-56" transform="translate(658.78125 0)"/>
      <use xlink:href="#DejaVuSans-3" transform="translate(710.875 0)"/>
      <use xlink:href="#DejaVuSans-53" transform="translate(742.65625 0)"/>
      <use xlink:href="#DejaVuSans-48" transform="translate(806.140625 0)"/>
      <use xlink:href="#DejaVuSans-55" transform="translate(867.671875 0)"/>
      <use xlink:href="#DejaVuSans-3" transform="translate(908.78125 0)"/>
      <use xlink:href="#DejaVuSans-44" transform="translate(940.5625 0)"/>
      <use xlink:href="#DejaVuSans-57" transform="translate(1001.84375 0)"/>
      <use xlink:href="#DejaVuSans-57" transform="translate(1041.046875 0)"/>
      <use xlink:href="#DejaVuSans-48" transform="translate(1080.25 0)"/>
      <use xlink:href="#DejaVuSans-50" transform="translate(1141.78125 0)"/>
      <use xlink:href="#DejaVuSans-53" transform="translate(1239.1875 0)"/>
      <use xlink:href="#DejaVuSans-57" transform="translate(1302.671875 0)"/>
      <use xlink:href="#DejaVuSans-48" transform="translate(1341.875 0)"/>
      <use xlink:href="#DejaVuSans-47" transform="translate(1403.40625 0)"/>
      <use xlink:href="#DejaVuSans-3" transform="translate(1466.890625 0)"/>
      <use xlink:href="#DejaVuSans-57" transform="translate(1498.671875 0)"/>
      <use xlink:href="#DejaVuSans-44" transform="translate(1537.875 0)"/>
      <use xlink:href="#DejaVuSans-56" transform="translate(1599.15625 0)"/>
      <use xlink:href="#DejaVuSans-4e" transform="translate(1651.25 0)"/>
     </g>
    </g>
    <g id="text_25">
     <!-- 1e5 -->
     <g transform="translate(830.047812 368.875313) scale(0.1 -0.1)">
      <use xlink:href="#DejaVuSans-14"/>
      <use xlink:href="#DejaVuSans-48" transform="translate(63.625 0)"/>
      <use xlink:href="#DejaVuSans-18" transform="translate(125.15625 0)"/>
     </g>
    </g>
   </g>
   <g id="matplotlib.axis_4">
    <g id="ytick_7">
     <g id="line2d_61">
      <path d="M 476.013105 341.277656
L 848.925937 341.277656
" clip-path="url(#pe85ca3f776)" style="fill: none; stroke: #b0b0b0; stroke-opacity: 0.2; stroke-width: 0.8; stroke-linecap: square"/>
     </g>
     <g id="line2d_62">
      <g>
       <use xlink:href="#mf868be489e" x="476.013105" y="341.277656" style="stroke: #000000; stroke-width: 0.8"/>
      </g>
     </g>
     <g id="text_26">
      <!-- 0 -->
      <g transform="translate(462.650605 345.076484) scale(0.1 -0.1)">
       <use xlink:href="#DejaVuSans-13"/>
      </g>
     </g>
    </g>
    <g id="ytick_8">
     <g id="line2d_63">
      <path d="M 476.013105 290.103609
L 848.925937 290.103609
" clip-path="url(#pe85ca3f776)" style="fill: none; stroke: #b0b0b0; stroke-opacity: 0.2; stroke-width: 0.8; stroke-linecap: square"/>
     </g>
     <g id="line2d_64">
      <g>
       <use xlink:href="#mf868be489e" x="476.013105" y="290.103609" style="stroke: #000000; stroke-width: 0.8"/>
      </g>
     </g>
     <g id="text_27">
      <!-- 20 -->
      <g transform="translate(456.288105 293.902438) scale(0.1 -0.1)">
       <use xlink:href="#DejaVuSans-15"/>
       <use xlink:href="#DejaVuSans-13" transform="translate(63.625 0)"/>
      </g>
     </g>
    </g>
    <g id="ytick_9">
     <g id="line2d_65">
      <path d="M 476.013105 238.929563
L 848.925937 238.929563
" clip-path="url(#pe85ca3f776)" style="fill: none; stroke: #b0b0b0; stroke-opacity: 0.2; stroke-width: 0.8; stroke-linecap: square"/>
     </g>
     <g id="line2d_66">
      <g>
       <use xlink:href="#mf868be489e" x="476.013105" y="238.929563" style="stroke: #000000; stroke-width: 0.8"/>
      </g>
     </g>
     <g id="text_28">
      <!-- 40 -->
      <g transform="translate(456.288105 242.728391) scale(0.1 -0.1)">
       <use xlink:href="#DejaVuSans-17"/>
       <use xlink:href="#DejaVuSans-13" transform="translate(63.625 0)"/>
      </g>
     </g>
    </g>
    <g id="ytick_10">
     <g id="line2d_67">
      <path d="M 476.013105 187.755516
L 848.925937 187.755516
" clip-path="url(#pe85ca3f776)" style="fill: none; stroke: #b0b0b0; stroke-opacity: 0.2; stroke-width: 0.8; stroke-linecap: square"/>
     </g>
     <g id="line2d_68">
      <g>
       <use xlink:href="#mf868be489e" x="476.013105" y="187.755516" style="stroke: #000000; stroke-width: 0.8"/>
      </g>
     </g>
     <g id="text_29">
      <!-- 60 -->
      <g transform="translate(456.288105 191.554344) scale(0.1 -0.1)">
       <use xlink:href="#DejaVuSans-19"/>
       <use xlink:href="#DejaVuSans-13" transform="translate(63.625 0)"/>
      </g>
     </g>
    </g>
    <g id="ytick_11">
     <g id="line2d_69">
      <path d="M 476.013105 136.581469
L 848.925937 136.581469
" clip-path="url(#pe85ca3f776)" style="fill: none; stroke: #b0b0b0; stroke-opacity: 0.2; stroke-width: 0.8; stroke-linecap: square"/>
     </g>
     <g id="line2d_70">
      <g>
       <use xlink:href="#mf868be489e" x="476.013105" y="136.581469" style="stroke: #000000; stroke-width: 0.8"/>
      </g>
     </g>
     <g id="text_30">
      <!-- 80 -->
      <g transform="translate(456.288105 140.380297) scale(0.1 -0.1)">
       <use xlink:href="#DejaVuSans-1b"/>
       <use xlink:href="#DejaVuSans-13" transform="translate(63.625 0)"/>
      </g>
     </g>
    </g>
    <g id="ytick_12">
     <g id="line2d_71">
      <path d="M 476.013105 85.407422
L 848.925937 85.407422
" clip-path="url(#pe85ca3f776)" style="fill: none; stroke: #b0b0b0; stroke-opacity: 0.2; stroke-width: 0.8; stroke-linecap: square"/>
     </g>
     <g id="line2d_72">
      <g>
       <use xlink:href="#mf868be489e" x="476.013105" y="85.407422" style="stroke: #000000; stroke-width: 0.8"/>
      </g>
     </g>
     <g id="text_31">
      <!-- 100 -->
      <g transform="translate(449.925605 89.20625) scale(0.1 -0.1)">
       <use xlink:href="#DejaVuSans-14"/>
       <use xlink:href="#DejaVuSans-13" transform="translate(63.625 0)"/>
       <use xlink:href="#DejaVuSans-13" transform="translate(127.25 0)"/>
      </g>
     </g>
    </g>
    <g id="text_32">
     <!-- Overall judged success (%) -->
     <g transform="translate(443.523261 281.346445) rotate(-90) scale(0.1 -0.1)">
      <use xlink:href="#DejaVuSans-32"/>
      <use xlink:href="#DejaVuSans-59" transform="translate(78.71875 0)"/>
      <use xlink:href="#DejaVuSans-48" transform="translate(137.90625 0)"/>
      <use xlink:href="#DejaVuSans-55" transform="translate(199.4375 0)"/>
      <use xlink:href="#DejaVuSans-44" transform="translate(240.546875 0)"/>
      <use xlink:href="#DejaVuSans-4f" transform="translate(301.828125 0)"/>
      <use xlink:href="#DejaVuSans-4f" transform="translate(329.609375 0)"/>
      <use xlink:href="#DejaVuSans-3" transform="translate(357.390625 0)"/>
      <use xlink:href="#DejaVuSans-4d" transform="translate(389.171875 0)"/>
      <use xlink:href="#DejaVuSans-58" transform="translate(416.953125 0)"/>
      <use xlink:href="#DejaVuSans-47" transform="translate(480.328125 0)"/>
      <use xlink:href="#DejaVuSans-4a" transform="translate(543.8125 0)"/>
      <use xlink:href="#DejaVuSans-48" transform="translate(607.296875 0)"/>
      <use xlink:href="#DejaVuSans-47" transform="translate(668.828125 0)"/>
      <use xlink:href="#DejaVuSans-3" transform="translate(732.3125 0)"/>
      <use xlink:href="#DejaVuSans-56" transform="translate(764.09375 0)"/>
      <use xlink:href="#DejaVuSans-58" transform="translate(816.1875 0)"/>
      <use xlink:href="#DejaVuSans-46" transform="translate(879.5625 0)"/>
      <use xlink:href="#DejaVuSans-46" transform="translate(934.546875 0)"/>
      <use xlink:href="#DejaVuSans-48" transform="translate(989.53125 0)"/>
      <use xlink:href="#DejaVuSans-56" transform="translate(1051.0625 0)"/>
      <use xlink:href="#DejaVuSans-56" transform="translate(1103.15625 0)"/>
      <use xlink:href="#DejaVuSans-3" transform="translate(1155.25 0)"/>
      <use xlink:href="#DejaVuSans-b" transform="translate(1187.03125 0)"/>
      <use xlink:href="#DejaVuSans-8" transform="translate(1226.046875 0)"/>
      <use xlink:href="#DejaVuSans-c" transform="translate(1321.0625 0)"/>
     </g>
    </g>
   </g>
   <g id="LineCollection_9">
    <path d="M 492.963689 341.277656
L 492.963689 341.277656
" clip-path="url(#pe85ca3f776)" style="fill: none; stroke: #6b7280; stroke-width: 1.5"/>
   </g>
   <g id="line2d_73">
    <g clip-path="url(#pe85ca3f776)">
     <use xlink:href="#m79c8ac8e89" x="492.963689" y="341.277656" style="fill: #6b7280; stroke: #6b7280"/>
    </g>
   </g>
   <g id="line2d_74">
    <g clip-path="url(#pe85ca3f776)">
     <use xlink:href="#m79c8ac8e89" x="492.963689" y="341.277656" style="fill: #6b7280; stroke: #6b7280"/>
    </g>
   </g>
   <g id="LineCollection_10">
    <path d="M 615.454274 341.277656
L 615.454274 255.987578
" clip-path="url(#pe85ca3f776)" style="fill: none; stroke: #2563eb; stroke-width: 1.5"/>
   </g>
   <g id="line2d_75">
    <g clip-path="url(#pe85ca3f776)">
     <use xlink:href="#m5e681c80c1" x="615.454274" y="341.277656" style="fill: #2563eb; stroke: #2563eb"/>
    </g>
   </g>
   <g id="line2d_76">
    <g clip-path="url(#pe85ca3f776)">
     <use xlink:href="#m5e681c80c1" x="615.454274" y="255.987578" style="fill: #2563eb; stroke: #2563eb"/>
    </g>
   </g>
   <g id="LineCollection_11">
    <path d="M 831.975354 341.277656
L 831.975354 341.277656
" clip-path="url(#pe85ca3f776)" style="fill: none; stroke: #7c3aed; stroke-width: 1.5"/>
   </g>
   <g id="line2d_77">
    <g clip-path="url(#pe85ca3f776)">
     <use xlink:href="#m5ba489b34b" x="831.975354" y="341.277656" style="fill: #7c3aed; stroke: #7c3aed"/>
    </g>
   </g>
   <g id="line2d_78">
    <g clip-path="url(#pe85ca3f776)">
     <use xlink:href="#m5ba489b34b" x="831.975354" y="341.277656" style="fill: #7c3aed; stroke: #7c3aed"/>
    </g>
   </g>
   <g id="LineCollection_12">
    <path d="M 532.501678 341.277656
L 532.501678 199.127526
" clip-path="url(#pe85ca3f776)" style="fill: none; stroke: #059669; stroke-width: 1.5"/>
   </g>
   <g id="line2d_79">
    <g clip-path="url(#pe85ca3f776)">
     <use xlink:href="#mcd4dfb6374" x="532.501678" y="341.277656" style="fill: #059669; stroke: #059669"/>
    </g>
   </g>
   <g id="line2d_80">
    <g clip-path="url(#pe85ca3f776)">
     <use xlink:href="#mcd4dfb6374" x="532.501678" y="199.127526" style="fill: #059669; stroke: #059669"/>
    </g>
   </g>
   <g id="line2d_81">
    <g clip-path="url(#pe85ca3f776)">
     <use xlink:href="#me81a512745" x="492.963689" y="341.277656" style="fill: #6b7280; stroke: #6b7280"/>
    </g>
   </g>
   <g id="line2d_82">
    <g clip-path="url(#pe85ca3f776)">
     <use xlink:href="#m5451f75274" x="615.454274" y="312.84763" style="fill: #2563eb; stroke: #2563eb"/>
    </g>
   </g>
   <g id="line2d_83">
    <g clip-path="url(#pe85ca3f776)">
     <use xlink:href="#m3a33071906" x="831.975354" y="341.277656" style="fill: #7c3aed; stroke: #7c3aed"/>
    </g>
   </g>
   <g id="line2d_84">
    <g clip-path="url(#pe85ca3f776)">
     <use xlink:href="#md16f895f52" x="532.501678" y="284.417604" style="fill: #059669; stroke: #059669"/>
    </g>
   </g>
   <g id="patch_9">
    <path d="M 476.013105 341.277656
L 476.013105 85.407422
" style="fill: none; stroke: #000000; stroke-width: 0.8; stroke-linejoin: miter; stroke-linecap: square"/>
   </g>
   <g id="patch_10">
    <path d="M 848.925937 341.277656
L 848.925937 85.407422
" style="fill: none; stroke: #000000; stroke-width: 0.8; stroke-linejoin: miter; stroke-linecap: square"/>
   </g>
   <g id="patch_11">
    <path d="M 476.013105 341.277656
L 848.925937 341.277656
" style="fill: none; stroke: #000000; stroke-width: 0.8; stroke-linejoin: miter; stroke-linecap: square"/>
   </g>
   <g id="patch_12">
    <path d="M 476.013105 85.407422
L 848.925937 85.407422
" style="fill: none; stroke: #000000; stroke-width: 0.8; stroke-linejoin: miter; stroke-linecap: square"/>
   </g>
  </g>
  <g id="text_33">
   <!-- All candidates counted; tokenizers differ. Subsets counted once. Modes with missing usage are omitted. -->
   <g transform="translate(219.423437 393.3) scale(0.08 -0.08)">
    <defs>
     <path id="DejaVuSans-24" d="M 2188 4044
L 1331 1722
L 3047 1722
L 2188 4044
z
M 1831 4666
L 2547 4666
L 4325 0
L 3669 0
L 3244 1197
L 1141 1197
L 716 0
L 50 0
L 1831 4666
z
" transform="scale(0.015625)"/>
     <path id="DejaVuSans-1e" d="M 750 3309
L 1409 3309
L 1409 2516
L 750 2516
L 750 3309
z
M 750 794
L 1409 794
L 1409 256
L 897 -744
L 494 -744
L 750 256
L 750 794
z
" transform="scale(0.015625)"/>
     <path id="DejaVuSans-5d" d="M 353 3500
L 3084 3500
L 3084 2975
L 922 459
L 3084 459
L 3084 0
L 275 0
L 275 525
L 2438 3041
L 353 3041
L 353 3500
z
" transform="scale(0.015625)"/>
     <path id="DejaVuSans-13ae" d="M 4531 4863
L 4531 4384
L 3981 4384
Q 3672 4384 3551 4259
Q 3431 4134 3431 3809
L 3431 3500
L 4378 3500
L 4378 3053
L 3431 3053
L 3431 0
L 2853 0
L 2853 3053
L 1275 3053
L 1275 0
L 697 0
L 697 3053
L 147 3053
L 147 3500
L 697 3500
L 697 3744
Q 697 4328 969 4595
Q 1241 4863 1831 4863
L 2375 4863
L 2375 4384
L 1825 4384
Q 1516 4384 1394 4259
Q 1275 4134 1275 3809
L 1275 3500
L 2853 3500
L 2853 3744
Q 2853 4328 3125 4595
Q 3397 4863 3988 4863
L 4531 4863
z
" transform="scale(0.015625)"/>
     <path id="DejaVuSans-30" d="M 628 4666
L 1569 4666
L 2759 1491
L 3956 4666
L 4897 4666
L 4897 0
L 4281 0
L 4281 4097
L 3078 897
L 2444 897
L 1241 4097
L 1241 0
L 628 0
L 628 4666
z
" transform="scale(0.015625)"/>
     <path id="DejaVuSans-4b" d="M 3513 2113
L 3513 0
L 2938 0
L 2938 2094
Q 2938 2591 2744 2837
Q 2550 3084 2163 3084
Q 1697 3084 1428 2787
Q 1159 2491 1159 1978
L 1159 0
L 581 0
L 581 4863
L 1159 4863
L 1159 2956
Q 1366 3272 1645 3428
Q 1925 3584 2291 3584
Q 2894 3584 3203 3211
Q 3513 2838 3513 2113
z
" transform="scale(0.015625)"/>
    </defs>
    <use xlink:href="#DejaVuSans-24"/>
    <use xlink:href="#DejaVuSans-4f" transform="translate(68.40625 0)"/>
    <use xlink:href="#DejaVuSans-4f" transform="translate(96.1875 0)"/>
    <use xlink:href="#DejaVuSans-3" transform="translate(123.96875 0)"/>
    <use xlink:href="#DejaVuSans-46" transform="translate(155.75 0)"/>
    <use xlink:href="#DejaVuSans-44" transform="translate(210.734375 0)"/>
    <use xlink:href="#DejaVuSans-51" transform="translate(272.015625 0)"/>
    <use xlink:href="#DejaVuSans-47" transform="translate(335.390625 0)"/>
    <use xlink:href="#DejaVuSans-4c" transform="translate(398.875 0)"/>
    <use xlink:href="#DejaVuSans-47" transform="translate(426.65625 0)"/>
    <use xlink:href="#DejaVuSans-44" transform="translate(490.140625 0)"/>
    <use xlink:href="#DejaVuSans-57" transform="translate(551.421875 0)"/>
    <use xlink:href="#DejaVuSans-48" transform="translate(590.625 0)"/>
    <use xlink:href="#DejaVuSans-56" transform="translate(652.15625 0)"/>
    <use xlink:href="#DejaVuSans-3" transform="translate(704.25 0)"/>
    <use xlink:href="#DejaVuSans-46" transform="translate(736.03125 0)"/>
    <use xlink:href="#DejaVuSans-52" transform="translate(791.015625 0)"/>
    <use xlink:href="#DejaVuSans-58" transform="translate(852.203125 0)"/>
    <use xlink:href="#DejaVuSans-51" transform="translate(915.578125 0)"/>
    <use xlink:href="#DejaVuSans-57" transform="translate(978.953125 0)"/>
    <use xlink:href="#DejaVuSans-48" transform="translate(1018.15625 0)"/>
    <use xlink:href="#DejaVuSans-47" transform="translate(1079.6875 0)"/>
    <use xlink:href="#DejaVuSans-1e" transform="translate(1143.171875 0)"/>
    <use xlink:href="#DejaVuSans-3" transform="translate(1176.859375 0)"/>
    <use xlink:href="#DejaVuSans-57" transform="translate(1208.640625 0)"/>
    <use xlink:href="#DejaVuSans-52" transform="translate(1247.84375 0)"/>
    <use xlink:href="#DejaVuSans-4e" transform="translate(1309.03125 0)"/>
    <use xlink:href="#DejaVuSans-48" transform="translate(1363.375 0)"/>
    <use xlink:href="#DejaVuSans-51" transform="translate(1424.90625 0)"/>
    <use xlink:href="#DejaVuSans-4c" transform="translate(1488.28125 0)"/>
    <use xlink:href="#DejaVuSans-5d" transform="translate(1516.0625 0)"/>
    <use xlink:href="#DejaVuSans-48" transform="translate(1568.546875 0)"/>
    <use xlink:href="#DejaVuSans-55" transform="translate(1630.078125 0)"/>
    <use xlink:href="#DejaVuSans-56" transform="translate(1671.1875 0)"/>
    <use xlink:href="#DejaVuSans-3" transform="translate(1723.28125 0)"/>
    <use xlink:href="#DejaVuSans-47" transform="translate(1755.0625 0)"/>
    <use xlink:href="#DejaVuSans-4c" transform="translate(1818.546875 0)"/>
    <use xlink:href="#DejaVuSans-13ae" transform="translate(1846.328125 0)"/>
    <use xlink:href="#DejaVuSans-48" transform="translate(1915.21875 0)"/>
    <use xlink:href="#DejaVuSans-55" transform="translate(1976.75 0)"/>
    <use xlink:href="#DejaVuSans-11" transform="translate(2008.6875 0)"/>
    <use xlink:href="#DejaVuSans-3" transform="translate(2040.46875 0)"/>
    <use xlink:href="#DejaVuSans-36" transform="translate(2072.25 0)"/>
    <use xlink:href="#DejaVuSans-58" transform="translate(2135.734375 0)"/>
    <use xlink:href="#DejaVuSans-45" transform="translate(2199.109375 0)"/>
    <use xlink:href="#DejaVuSans-56" transform="translate(2262.59375 0)"/>
    <use xlink:href="#DejaVuSans-48" transform="translate(2314.6875 0)"/>
    <use xlink:href="#DejaVuSans-57" transform="translate(2376.21875 0)"/>
    <use xlink:href="#DejaVuSans-56" transform="translate(2415.421875 0)"/>
    <use xlink:href="#DejaVuSans-3" transform="translate(2467.515625 0)"/>
    <use xlink:href="#DejaVuSans-46" transform="translate(2499.296875 0)"/>
    <use xlink:href="#DejaVuSans-52" transform="translate(2554.28125 0)"/>
    <use xlink:href="#DejaVuSans-58" transform="translate(2615.46875 0)"/>
    <use xlink:href="#DejaVuSans-51" transform="translate(2678.84375 0)"/>
    <use xlink:href="#DejaVuSans-57" transform="translate(2742.21875 0)"/>
    <use xlink:href="#DejaVuSans-48" transform="translate(2781.421875 0)"/>
    <use xlink:href="#DejaVuSans-47" transform="translate(2842.953125 0)"/>
    <use xlink:href="#DejaVuSans-3" transform="translate(2906.4375 0)"/>
    <use xlink:href="#DejaVuSans-52" transform="translate(2938.21875 0)"/>
    <use xlink:href="#DejaVuSans-51" transform="translate(2999.40625 0)"/>
    <use xlink:href="#DejaVuSans-46" transform="translate(3062.78125 0)"/>
    <use xlink:href="#DejaVuSans-48" transform="translate(3117.765625 0)"/>
    <use xlink:href="#DejaVuSans-11" transform="translate(3179.296875 0)"/>
    <use xlink:href="#DejaVuSans-3" transform="translate(3211.078125 0)"/>
    <use xlink:href="#DejaVuSans-30" transform="translate(3242.859375 0)"/>
    <use xlink:href="#DejaVuSans-52" transform="translate(3329.140625 0)"/>
    <use xlink:href="#DejaVuSans-47" transform="translate(3390.328125 0)"/>
    <use xlink:href="#DejaVuSans-48" transform="translate(3453.8125 0)"/>
    <use xlink:href="#DejaVuSans-56" transform="translate(3515.34375 0)"/>
    <use xlink:href="#DejaVuSans-3" transform="translate(3567.4375 0)"/>
    <use xlink:href="#DejaVuSans-5a" transform="translate(3599.21875 0)"/>
    <use xlink:href="#DejaVuSans-4c" transform="translate(3681 0)"/>
    <use xlink:href="#DejaVuSans-57" transform="translate(3708.78125 0)"/>
    <use xlink:href="#DejaVuSans-4b" transform="translate(3747.984375 0)"/>
    <use xlink:href="#DejaVuSans-3" transform="translate(3811.359375 0)"/>
    <use xlink:href="#DejaVuSans-50" transform="translate(3843.140625 0)"/>
    <use xlink:href="#DejaVuSans-4c" transform="translate(3940.546875 0)"/>
    <use xlink:href="#DejaVuSans-56" transform="translate(3968.328125 0)"/>
    <use xlink:href="#DejaVuSans-56" transform="translate(4020.421875 0)"/>
    <use xlink:href="#DejaVuSans-4c" transform="translate(4072.515625 0)"/>
    <use xlink:href="#DejaVuSans-51" transform="translate(4100.296875 0)"/>
    <use xlink:href="#DejaVuSans-4a" transform="translate(4163.671875 0)"/>
    <use xlink:href="#DejaVuSans-3" transform="translate(4227.15625 0)"/>
    <use xlink:href="#DejaVuSans-58" transform="translate(4258.9375 0)"/>
    <use xlink:href="#DejaVuSans-56" transform="translate(4322.3125 0)"/>
    <use xlink:href="#DejaVuSans-44" transform="translate(4374.40625 0)"/>
    <use xlink:href="#DejaVuSans-4a" transform="translate(4435.6875 0)"/>
    <use xlink:href="#DejaVuSans-48" transform="translate(4499.171875 0)"/>
    <use xlink:href="#DejaVuSans-3" transform="translate(4560.703125 0)"/>
    <use xlink:href="#DejaVuSans-44" transform="translate(4592.484375 0)"/>
    <use xlink:href="#DejaVuSans-55" transform="translate(4653.765625 0)"/>
    <use xlink:href="#DejaVuSans-48" transform="translate(4692.671875 0)"/>
    <use xlink:href="#DejaVuSans-3" transform="translate(4754.203125 0)"/>
    <use xlink:href="#DejaVuSans-52" transform="translate(4785.984375 0)"/>
    <use xlink:href="#DejaVuSans-50" transform="translate(4847.171875 0)"/>
    <use xlink:href="#DejaVuSans-4c" transform="translate(4944.578125 0)"/>
    <use xlink:href="#DejaVuSans-57" transform="translate(4972.359375 0)"/>
    <use xlink:href="#DejaVuSans-57" transform="translate(5011.5625 0)"/>
    <use xlink:href="#DejaVuSans-48" transform="translate(5050.765625 0)"/>
    <use xlink:href="#DejaVuSans-47" transform="translate(5112.296875 0)"/>
    <use xlink:href="#DejaVuSans-11" transform="translate(5175.78125 0)"/>
   </g>
  </g>
  <g id="text_34">
   <!-- CORRECTED PARTIAL PILOT: 4 arms, 9 matched tasks -->
   <g transform="translate(281.373516 16.659355) scale(0.11 -0.11)">
    <defs>
     <path id="DejaVuSans-26" d="M 4122 4306
L 4122 3641
Q 3803 3938 3442 4084
Q 3081 4231 2675 4231
Q 1875 4231 1450 3742
Q 1025 3253 1025 2328
Q 1025 1406 1450 917
Q 1875 428 2675 428
Q 3081 428 3442 575
Q 3803 722 4122 1019
L 4122 359
Q 3791 134 3420 21
Q 3050 -91 2638 -91
Q 1578 -91 968 557
Q 359 1206 359 2328
Q 359 3453 968 4101
Q 1578 4750 2638 4750
Q 3056 4750 3426 4639
Q 3797 4528 4122 4306
z
" transform="scale(0.015625)"/>
     <path id="DejaVuSans-28" d="M 628 4666
L 3578 4666
L 3578 4134
L 1259 4134
L 1259 2753
L 3481 2753
L 3481 2222
L 1259 2222
L 1259 531
L 3634 531
L 3634 0
L 628 0
L 628 4666
z
" transform="scale(0.015625)"/>
     <path id="DejaVuSans-27" d="M 1259 4147
L 1259 519
L 2022 519
Q 2988 519 3436 956
Q 3884 1394 3884 2338
Q 3884 3275 3436 3711
Q 2988 4147 2022 4147
L 1259 4147
z
M 628 4666
L 1925 4666
Q 3281 4666 3915 4102
Q 4550 3538 4550 2338
Q 4550 1131 3912 565
Q 3275 0 1925 0
L 628 0
L 628 4666
z
" transform="scale(0.015625)"/>
     <path id="DejaVuSans-33" d="M 1259 4147
L 1259 2394
L 2053 2394
Q 2494 2394 2734 2622
Q 2975 2850 2975 3272
Q 2975 3691 2734 3919
Q 2494 4147 2053 4147
L 1259 4147
z
M 628 4666
L 2053 4666
Q 2838 4666 3239 4311
Q 3641 3956 3641 3272
Q 3641 2581 3239 2228
Q 2838 1875 2053 1875
L 1259 1875
L 1259 0
L 628 0
L 628 4666
z
" transform="scale(0.015625)"/>
     <path id="DejaVuSans-1d" d="M 750 794
L 1409 794
L 1409 0
L 750 0
L 750 794
z
M 750 3309
L 1409 3309
L 1409 2516
L 750 2516
L 750 3309
z
" transform="scale(0.015625)"/>
     <path id="DejaVuSans-f" d="M 750 794
L 1409 794
L 1409 256
L 897 -744
L 494 -744
L 750 256
L 750 794
z
" transform="scale(0.015625)"/>
     <path id="DejaVuSans-1c" d="M 703 97
L 703 672
Q 941 559 1184 500
Q 1428 441 1663 441
Q 2288 441 2617 861
Q 2947 1281 2994 2138
Q 2813 1869 2534 1725
Q 2256 1581 1919 1581
Q 1219 1581 811 2004
Q 403 2428 403 3163
Q 403 3881 828 4315
Q 1253 4750 1959 4750
Q 2769 4750 3195 4129
Q 3622 3509 3622 2328
Q 3622 1225 3098 567
Q 2575 -91 1691 -91
Q 1453 -91 1209 -44
Q 966 3 703 97
z
M 1959 2075
Q 2384 2075 2632 2365
Q 2881 2656 2881 3163
Q 2881 3666 2632 3958
Q 2384 4250 1959 4250
Q 1534 4250 1286 3958
Q 1038 3666 1038 3163
Q 1038 2656 1286 2365
Q 1534 2075 1959 2075
z
" transform="scale(0.015625)"/>
    </defs>
    <use xlink:href="#DejaVuSans-26"/>
    <use xlink:href="#DejaVuSans-32" transform="translate(69.828125 0)"/>
    <use xlink:href="#DejaVuSans-35" transform="translate(148.546875 0)"/>
    <use xlink:href="#DejaVuSans-35" transform="translate(218.03125 0)"/>
    <use xlink:href="#DejaVuSans-28" transform="translate(287.515625 0)"/>
    <use xlink:href="#DejaVuSans-26" transform="translate(350.703125 0)"/>
    <use xlink:href="#DejaVuSans-37" transform="translate(420.53125 0)"/>
    <use xlink:href="#DejaVuSans-28" transform="translate(481.609375 0)"/>
    <use xlink:href="#DejaVuSans-27" transform="translate(544.796875 0)"/>
    <use xlink:href="#DejaVuSans-3" transform="translate(621.796875 0)"/>
    <use xlink:href="#DejaVuSans-33" transform="translate(653.578125 0)"/>
    <use xlink:href="#DejaVuSans-24" transform="translate(707.484375 0)"/>
    <use xlink:href="#DejaVuSans-35" transform="translate(775.890625 0)"/>
    <use xlink:href="#DejaVuSans-37" transform="translate(838.09375 0)"/>
    <use xlink:href="#DejaVuSans-2c" transform="translate(899.171875 0)"/>
    <use xlink:href="#DejaVuSans-24" transform="translate(928.671875 0)"/>
    <use xlink:href="#DejaVuSans-2f" transform="translate(997.078125 0)"/>
    <use xlink:href="#DejaVuSans-3" transform="translate(1052.796875 0)"/>
    <use xlink:href="#DejaVuSans-33" transform="translate(1084.578125 0)"/>
    <use xlink:href="#DejaVuSans-2c" transform="translate(1144.875 0)"/>
    <use xlink:href="#DejaVuSans-2f" transform="translate(1174.375 0)"/>
    <use xlink:href="#DejaVuSans-32" transform="translate(1226.53125 0)"/>
    <use xlink:href="#DejaVuSans-37" transform="translate(1305.25 0)"/>
    <use xlink:href="#DejaVuSans-1d" transform="translate(1355.34375 0)"/>
    <use xlink:href="#DejaVuSans-3" transform="translate(1389.03125 0)"/>
    <use xlink:href="#DejaVuSans-17" transform="translate(1420.8125 0)"/>
    <use xlink:href="#DejaVuSans-3" transform="translate(1484.4375 0)"/>
    <use xlink:href="#DejaVuSans-44" transform="translate(1516.21875 0)"/>
    <use xlink:href="#DejaVuSans-55" transform="translate(1577.5 0)"/>
    <use xlink:href="#DejaVuSans-50" transform="translate(1616.859375 0)"/>
    <use xlink:href="#DejaVuSans-56" transform="translate(1714.265625 0)"/>
    <use xlink:href="#DejaVuSans-f" transform="translate(1766.359375 0)"/>
    <use xlink:href="#DejaVuSans-3" transform="translate(1798.140625 0)"/>
    <use xlink:href="#DejaVuSans-1c" transform="translate(1829.921875 0)"/>
    <use xlink:href="#DejaVuSans-3" transform="translate(1893.546875 0)"/>
    <use xlink:href="#DejaVuSans-50" transform="translate(1925.328125 0)"/>
    <use xlink:href="#DejaVuSans-44" transform="translate(2022.734375 0)"/>
    <use xlink:href="#DejaVuSans-57" transform="translate(2084.015625 0)"/>
    <use xlink:href="#DejaVuSans-46" transform="translate(2123.21875 0)"/>
    <use xlink:href="#DejaVuSans-4b" transform="translate(2178.203125 0)"/>
    <use xlink:href="#DejaVuSans-48" transform="translate(2241.578125 0)"/>
    <use xlink:href="#DejaVuSans-47" transform="translate(2303.109375 0)"/>
    <use xlink:href="#DejaVuSans-3" transform="translate(2366.59375 0)"/>
    <use xlink:href="#DejaVuSans-57" transform="translate(2398.375 0)"/>
    <use xlink:href="#DejaVuSans-44" transform="translate(2437.578125 0)"/>
    <use xlink:href="#DejaVuSans-56" transform="translate(2498.859375 0)"/>
    <use xlink:href="#DejaVuSans-4e" transform="translate(2550.953125 0)"/>
    <use xlink:href="#DejaVuSans-56" transform="translate(2608.859375 0)"/>
   </g>
   <!-- Luna-alone excluded: actor coordinate mismatch -->
   <g transform="translate(292.944141 29.862363) scale(0.11 -0.11)">
    <defs>
     <path id="DejaVuSans-10" d="M 313 2009
L 1997 2009
L 1997 1497
L 313 1497
L 313 2009
z
" transform="scale(0.015625)"/>
     <path id="DejaVuSans-5b" d="M 3513 3500
L 2247 1797
L 3578 0
L 2900 0
L 1881 1375
L 863 0
L 184 0
L 1544 1831
L 300 3500
L 978 3500
L 1906 2253
L 2834 3500
L 3513 3500
z
" transform="scale(0.015625)"/>
    </defs>
    <use xlink:href="#DejaVuSans-2f"/>
    <use xlink:href="#DejaVuSans-58" transform="translate(53.96875 0)"/>
    <use xlink:href="#DejaVuSans-51" transform="translate(117.34375 0)"/>
    <use xlink:href="#DejaVuSans-44" transform="translate(180.71875 0)"/>
    <use xlink:href="#DejaVuSans-10" transform="translate(242 0)"/>
    <use xlink:href="#DejaVuSans-44" transform="translate(278.078125 0)"/>
    <use xlink:href="#DejaVuSans-4f" transform="translate(339.359375 0)"/>
    <use xlink:href="#DejaVuSans-52" transform="translate(367.140625 0)"/>
    <use xlink:href="#DejaVuSans-51" transform="translate(428.328125 0)"/>
    <use xlink:href="#DejaVuSans-48" transform="translate(491.703125 0)"/>
    <use xlink:href="#DejaVuSans-3" transform="translate(553.234375 0)"/>
    <use xlink:href="#DejaVuSans-48" transform="translate(585.015625 0)"/>
    <use xlink:href="#DejaVuSans-5b" transform="translate(644.796875 0)"/>
    <use xlink:href="#DejaVuSans-46" transform="translate(702.234375 0)"/>
    <use xlink:href="#DejaVuSans-4f" transform="translate(757.21875 0)"/>
    <use xlink:href="#DejaVuSans-58" transform="translate(785 0)"/>
    <use xlink:href="#DejaVuSans-47" transform="translate(848.375 0)"/>
    <use xlink:href="#DejaVuSans-48" transform="translate(911.859375 0)"/>
    <use xlink:href="#DejaVuSans-47" transform="translate(973.390625 0)"/>
    <use xlink:href="#DejaVuSans-1d" transform="translate(1036.875 0)"/>
    <use xlink:href="#DejaVuSans-3" transform="translate(1070.5625 0)"/>
    <use xlink:href="#DejaVuSans-44" transform="translate(1102.34375 0)"/>
    <use xlink:href="#DejaVuSans-46" transform="translate(1163.625 0)"/>
    <use xlink:href="#DejaVuSans-57" transform="translate(1218.609375 0)"/>
    <use xlink:href="#DejaVuSans-52" transform="translate(1257.8125 0)"/>
    <use xlink:href="#DejaVuSans-55" transform="translate(1319 0)"/>
    <use xlink:href="#DejaVuSans-3" transform="translate(1360.109375 0)"/>
    <use xlink:href="#DejaVuSans-46" transform="translate(1391.890625 0)"/>
    <use xlink:href="#DejaVuSans-52" transform="translate(1446.875 0)"/>
    <use xlink:href="#DejaVuSans-52" transform="translate(1508.0625 0)"/>
    <use xlink:href="#DejaVuSans-55" transform="translate(1569.25 0)"/>
    <use xlink:href="#DejaVuSans-47" transform="translate(1608.609375 0)"/>
    <use xlink:href="#DejaVuSans-4c" transform="translate(1672.09375 0)"/>
    <use xlink:href="#DejaVuSans-51" transform="translate(1699.875 0)"/>
    <use xlink:href="#DejaVuSans-44" transform="translate(1763.25 0)"/>
    <use xlink:href="#DejaVuSans-57" transform="translate(1824.53125 0)"/>
    <use xlink:href="#DejaVuSans-48" transform="translate(1863.734375 0)"/>
    <use xlink:href="#DejaVuSans-3" transform="translate(1925.265625 0)"/>
    <use xlink:href="#DejaVuSans-50" transform="translate(1957.046875 0)"/>
    <use xlink:href="#DejaVuSans-4c" transform="translate(2054.453125 0)"/>
    <use xlink:href="#DejaVuSans-56" transform="translate(2082.234375 0)"/>
    <use xlink:href="#DejaVuSans-50" transform="translate(2134.328125 0)"/>
    <use xlink:href="#DejaVuSans-44" transform="translate(2231.734375 0)"/>
    <use xlink:href="#DejaVuSans-57" transform="translate(2293.015625 0)"/>
    <use xlink:href="#DejaVuSans-46" transform="translate(2332.21875 0)"/>
    <use xlink:href="#DejaVuSans-4b" transform="translate(2387.203125 0)"/>
   </g>
   <!-- Success versus recorded model tokens -->
   <g transform="translate(320.659844 43.065371) scale(0.11 -0.11)">
    <use xlink:href="#DejaVuSans-36"/>
    <use xlink:href="#DejaVuSans-58" transform="translate(63.484375 0)"/>
    <use xlink:href="#DejaVuSans-46" transform="translate(126.859375 0)"/>
    <use xlink:href="#DejaVuSans-46" transform="translate(181.84375 0)"/>
    <use xlink:href="#DejaVuSans-48" transform="translate(236.828125 0)"/>
    <use xlink:href="#DejaVuSans-56" transform="translate(298.359375 0)"/>
    <use xlink:href="#DejaVuSans-56" transform="translate(350.453125 0)"/>
    <use xlink:href="#DejaVuSans-3" transform="translate(402.546875 0)"/>
    <use xlink:href="#DejaVuSans-59" transform="translate(434.328125 0)"/>
    <use xlink:href="#DejaVuSans-48" transform="translate(493.515625 0)"/>
    <use xlink:href="#DejaVuSans-55" transform="translate(555.046875 0)"/>
    <use xlink:href="#DejaVuSans-56" transform="translate(596.15625 0)"/>
    <use xlink:href="#DejaVuSans-58" transform="translate(648.25 0)"/>
    <use xlink:href="#DejaVuSans-56" transform="translate(711.625 0)"/>
    <use xlink:href="#DejaVuSans-3" transform="translate(763.71875 0)"/>
    <use xlink:href="#DejaVuSans-55" transform="translate(795.5 0)"/>
    <use xlink:href="#DejaVuSans-48" transform="translate(834.40625 0)"/>
    <use xlink:href="#DejaVuSans-46" transform="translate(895.9375 0)"/>
    <use xlink:href="#DejaVuSans-52" transform="translate(950.921875 0)"/>
    <use xlink:href="#DejaVuSans-55" transform="translate(1012.109375 0)"/>
    <use xlink:href="#DejaVuSans-47" transform="translate(1051.46875 0)"/>
    <use xlink:href="#DejaVuSans-48" transform="translate(1114.953125 0)"/>
    <use xlink:href="#DejaVuSans-47" transform="translate(1176.484375 0)"/>
    <use xlink:href="#DejaVuSans-3" transform="translate(1239.96875 0)"/>
    <use xlink:href="#DejaVuSans-50" transform="translate(1271.75 0)"/>
    <use xlink:href="#DejaVuSans-52" transform="translate(1369.15625 0)"/>
    <use xlink:href="#DejaVuSans-47" transform="translate(1430.34375 0)"/>
    <use xlink:href="#DejaVuSans-48" transform="translate(1493.828125 0)"/>
    <use xlink:href="#DejaVuSans-4f" transform="translate(1555.359375 0)"/>
    <use xlink:href="#DejaVuSans-3" transform="translate(1583.140625 0)"/>
    <use xlink:href="#DejaVuSans-57" transform="translate(1614.921875 0)"/>
    <use xlink:href="#DejaVuSans-52" transform="translate(1654.125 0)"/>
    <use xlink:href="#DejaVuSans-4e" transform="translate(1715.3125 0)"/>
    <use xlink:href="#DejaVuSans-48" transform="translate(1769.65625 0)"/>
    <use xlink:href="#DejaVuSans-51" transform="translate(1831.1875 0)"/>
    <use xlink:href="#DejaVuSans-56" transform="translate(1894.5625 0)"/>
   </g>
   <!-- Provider/model/role breakdowns are retained in the aggregate report -->
   <g transform="translate(237.365781 56.268379) scale(0.11 -0.11)">
    <defs>
     <path id="DejaVuSans-12" d="M 1625 4666
L 2156 4666
L 531 -594
L 0 -594
L 1625 4666
z
" transform="scale(0.015625)"/>
    </defs>
    <use xlink:href="#DejaVuSans-33"/>
    <use xlink:href="#DejaVuSans-55" transform="translate(58.546875 0)"/>
    <use xlink:href="#DejaVuSans-52" transform="translate(97.453125 0)"/>
    <use xlink:href="#DejaVuSans-59" transform="translate(158.640625 0)"/>
    <use xlink:href="#DejaVuSans-4c" transform="translate(217.828125 0)"/>
    <use xlink:href="#DejaVuSans-47" transform="translate(245.609375 0)"/>
    <use xlink:href="#DejaVuSans-48" transform="translate(309.09375 0)"/>
    <use xlink:href="#DejaVuSans-55" transform="translate(370.625 0)"/>
    <use xlink:href="#DejaVuSans-12" transform="translate(411.734375 0)"/>
    <use xlink:href="#DejaVuSans-50" transform="translate(445.421875 0)"/>
    <use xlink:href="#DejaVuSans-52" transform="translate(542.828125 0)"/>
    <use xlink:href="#DejaVuSans-47" transform="translate(604.015625 0)"/>
    <use xlink:href="#DejaVuSans-48" transform="translate(667.5 0)"/>
    <use xlink:href="#DejaVuSans-4f" transform="translate(729.03125 0)"/>
    <use xlink:href="#DejaVuSans-12" transform="translate(756.8125 0)"/>
    <use xlink:href="#DejaVuSans-55" transform="translate(790.5 0)"/>
    <use xlink:href="#DejaVuSans-52" transform="translate(829.40625 0)"/>
    <use xlink:href="#DejaVuSans-4f" transform="translate(890.59375 0)"/>
    <use xlink:href="#DejaVuSans-48" transform="translate(918.375 0)"/>
    <use xlink:href="#DejaVuSans-3" transform="translate(979.90625 0)"/>
    <use xlink:href="#DejaVuSans-45" transform="translate(1011.6875 0)"/>
    <use xlink:href="#DejaVuSans-55" transform="translate(1075.171875 0)"/>
    <use xlink:href="#DejaVuSans-48" transform="translate(1114.078125 0)"/>
    <use xlink:href="#DejaVuSans-44" transform="translate(1175.609375 0)"/>
    <use xlink:href="#DejaVuSans-4e" transform="translate(1236.890625 0)"/>
    <use xlink:href="#DejaVuSans-47" transform="translate(1294.796875 0)"/>
    <use xlink:href="#DejaVuSans-52" transform="translate(1358.28125 0)"/>
    <use xlink:href="#DejaVuSans-5a" transform="translate(1419.46875 0)"/>
    <use xlink:href="#DejaVuSans-51" transform="translate(1501.25 0)"/>
    <use xlink:href="#DejaVuSans-56" transform="translate(1564.625 0)"/>
    <use xlink:href="#DejaVuSans-3" transform="translate(1616.71875 0)"/>
    <use xlink:href="#DejaVuSans-44" transform="translate(1648.5 0)"/>
    <use xlink:href="#DejaVuSans-55" transform="translate(1709.78125 0)"/>
    <use xlink:href="#DejaVuSans-48" transform="translate(1748.6875 0)"/>
    <use xlink:href="#DejaVuSans-3" transform="translate(1810.21875 0)"/>
    <use xlink:href="#DejaVuSans-55" transform="translate(1842 0)"/>
    <use xlink:href="#DejaVuSans-48" transform="translate(1880.90625 0)"/>
    <use xlink:href="#DejaVuSans-57" transform="translate(1942.4375 0)"/>
    <use xlink:href="#DejaVuSans-44" transform="translate(1981.640625 0)"/>
    <use xlink:href="#DejaVuSans-4c" transform="translate(2042.921875 0)"/>
    <use xlink:href="#DejaVuSans-51" transform="translate(2070.703125 0)"/>
    <use xlink:href="#DejaVuSans-48" transform="translate(2134.078125 0)"/>
    <use xlink:href="#DejaVuSans-47" transform="translate(2195.609375 0)"/>
    <use xlink:href="#DejaVuSans-3" transform="translate(2259.09375 0)"/>
    <use xlink:href="#DejaVuSans-4c" transform="translate(2290.875 0)"/>
    <use xlink:href="#DejaVuSans-51" transform="translate(2318.65625 0)"/>
    <use xlink:href="#DejaVuSans-3" transform="translate(2382.03125 0)"/>
    <use xlink:href="#DejaVuSans-57" transform="translate(2413.8125 0)"/>
    <use xlink:href="#DejaVuSans-4b" transform="translate(2453.015625 0)"/>
    <use xlink:href="#DejaVuSans-48" transform="translate(2516.390625 0)"/>
    <use xlink:href="#DejaVuSans-3" transform="translate(2577.921875 0)"/>
    <use xlink:href="#DejaVuSans-44" transform="translate(2609.703125 0)"/>
    <use xlink:href="#DejaVuSans-4a" transform="translate(2670.984375 0)"/>
    <use xlink:href="#DejaVuSans-4a" transform="translate(2734.46875 0)"/>
    <use xlink:href="#DejaVuSans-55" transform="translate(2797.953125 0)"/>
    <use xlink:href="#DejaVuSans-48" transform="translate(2836.859375 0)"/>
    <use xlink:href="#DejaVuSans-4a" transform="translate(2898.390625 0)"/>
    <use xlink:href="#DejaVuSans-44" transform="translate(2961.875 0)"/>
    <use xlink:href="#DejaVuSans-57" transform="translate(3023.15625 0)"/>
    <use xlink:href="#DejaVuSans-48" transform="translate(3062.359375 0)"/>
    <use xlink:href="#DejaVuSans-3" transform="translate(3123.890625 0)"/>
    <use xlink:href="#DejaVuSans-55" transform="translate(3155.671875 0)"/>
    <use xlink:href="#DejaVuSans-48" transform="translate(3194.578125 0)"/>
    <use xlink:href="#DejaVuSans-53" transform="translate(3256.109375 0)"/>
    <use xlink:href="#DejaVuSans-52" transform="translate(3319.59375 0)"/>
    <use xlink:href="#DejaVuSans-55" transform="translate(3380.78125 0)"/>
    <use xlink:href="#DejaVuSans-57" transform="translate(3421.890625 0)"/>
   </g>
  </g>
 </g>
 <defs>
  <clipPath id="pbf061cafc4">
   <rect x="47.288281" y="85.407422" width="372.912832" height="255.870234"/>
  </clipPath>
  <clipPath id="pe85ca3f776">
   <rect x="476.013105" y="85.407422" width="372.912832" height="255.870234"/>
  </clipPath>
 </defs>
</svg>
