<?xml version="1.0" encoding="utf-8" standalone="no"?>
<!DOCTYPE svg PUBLIC "-//W3C//DTD SVG 1.1//EN"
  "http://www.w3.org/Graphics/SVG/1.1/DTD/svg11.dtd">
<svg xmlns:xlink="http://www.w3.org/1999/xlink" width="720pt" height="273.6pt" viewBox="0 0 720 273.6" xmlns="http://www.w3.org/2000/svg" version="1.1">
 <metadata>
  <rdf:RDF xmlns:dc="http://purl.org/dc/elements/1.1/" xmlns:cc="http://creativecommons.org/ns#" xmlns:rdf="http://www.w3.org/1999/02/22-rdf-syntax-ns#">
   <cc:Work>
    <dc:type rdf:resource="http://purl.org/dc/dcmitype/StillImage"/>
    <dc:format>image/svg+xml</dc:format>
    <dc:creator>
     <cc:Agent>
      <dc:title>Matplotlib v3.11.2, https://matplotlib.org/</dc:title>
     </cc:Agent>
    </dc:creator>
   </cc:Work>
  </rdf:RDF>
 </metadata>
 <defs>
  <style type="text/css">*{stroke-linejoin: round; stroke-linecap: butt}</style>
 </defs>
 <g id="figure_1">
  <g id="patch_1">
   <path d="M 0 273.6
L 720 273.6
L 720 0
L 0 0
z
" style="fill: #ffffff"/>
  </g>
  <g id="axes_1">
   <g id="patch_2">
    <path d="M 38.602344 205.485656
L 318.745668 205.485656
L 318.745668 65.576469
L 38.602344 65.576469
z
" style="fill: #ffffff"/>
   </g>
   <g id="matplotlib.axis_1">
    <g id="xtick_1">
     <g id="line2d_1">
      <defs>
       <path id="md9b65d6d30" d="M 0 0
L 0 3.5
" style="stroke: #000000; stroke-width: 0.8"/>
      </defs>
      <g>
       <use xlink:href="#md9b65d6d30" x="51.336131" y="205.485656" style="stroke: #000000; stroke-width: 0.8"/>
      </g>
     </g>
     <g id="text_1">
      <!-- 3 -->
      <g transform="translate(48.154881 220.083312) scale(0.1 -0.1)">
       <defs>
        <path id="DejaVuSans-16" d="M 2597 2516
Q 3050 2419 3304 2112
Q 3559 1806 3559 1356
Q 3559 666 3084 287
Q 2609 -91 1734 -91
Q 1441 -91 1130 -33
Q 819 25 488 141
L 488 750
Q 750 597 1062 519
Q 1375 441 1716 441
Q 2309 441 2620 675
Q 2931 909 2931 1356
Q 2931 1769 2642 2001
Q 2353 2234 1838 2234
L 1294 2234
L 1294 2753
L 1863 2753
Q 2328 2753 2575 2939
Q 2822 3125 2822 3475
Q 2822 3834 2567 4026
Q 2313 4219 1838 4219
Q 1578 4219 1281 4162
Q 984 4106 628 3988
L 628 4550
Q 988 4650 1302 4700
Q 1616 4750 1894 4750
Q 2613 4750 3031 4423
Q 3450 4097 3450 3541
Q 3450 3153 3228 2886
Q 3006 2619 2597 2516
z
" transform="scale(0.015625)"/>
       </defs>
       <use xlink:href="#DejaVuSans-16"/>
      </g>
     </g>
    </g>
    <g id="xtick_2">
     <g id="line2d_2">
      <g>
       <use xlink:href="#md9b65d6d30" x="124.100631" y="205.485656" style="stroke: #000000; stroke-width: 0.8"/>
      </g>
     </g>
     <g id="text_2">
      <!-- 5 -->
      <g transform="translate(120.919381 220.083312) scale(0.1 -0.1)">
       <defs>
        <path id="DejaVuSans-18" d="M 691 4666
L 3169 4666
L 3169 4134
L 1269 4134
L 1269 2991
Q 1406 3038 1543 3061
Q 1681 3084 1819 3084
Q 2600 3084 3056 2656
Q 3513 2228 3513 1497
Q 3513 744 3044 326
Q 2575 -91 1722 -91
Q 1428 -91 1123 -41
Q 819 9 494 109
L 494 744
Q 775 591 1075 516
Q 1375 441 1709 441
Q 2250 441 2565 725
Q 2881 1009 2881 1497
Q 2881 1984 2565 2268
Q 2250 2553 1709 2553
Q 1456 2553 1204 2497
Q 953 2441 691 2322
L 691 4666
z
" transform="scale(0.015625)"/>
       </defs>
       <use xlink:href="#DejaVuSans-18"/>
      </g>
     </g>
    </g>
    <g id="xtick_3">
     <g id="line2d_3">
      <g>
       <use xlink:href="#md9b65d6d30" x="306.01188" y="205.485656" style="stroke: #000000; stroke-width: 0.8"/>
      </g>
     </g>
     <g id="text_3">
      <!-- 10 -->
      <g transform="translate(299.64938 220.083312) scale(0.1 -0.1)">
       <defs>
        <path id="DejaVuSans-14" d="M 794 531
L 1825 531
L 1825 4091
L 703 3866
L 703 4441
L 1819 4666
L 2450 4666
L 2450 531
L 3481 531
L 3481 0
L 794 0
L 794 531
z
" transform="scale(0.015625)"/>
        <path id="DejaVuSans-13" d="M 2034 4250
Q 1547 4250 1301 3770
Q 1056 3291 1056 2328
Q 1056 1369 1301 889
Q 1547 409 2034 409
Q 2525 409 2770 889
Q 3016 1369 3016 2328
Q 3016 3291 2770 3770
Q 2525 4250 2034 4250
z
M 2034 4750
Q 2819 4750 3233 4129
Q 3647 3509 3647 2328
Q 3647 1150 3233 529
Q 2819 -91 2034 -91
Q 1250 -91 836 529
Q 422 1150 422 2328
Q 422 3509 836 4129
Q 1250 4750 2034 4750
z
" transform="scale(0.015625)"/>
       </defs>
       <use xlink:href="#DejaVuSans-14"/>
       <use xlink:href="#DejaVuSans-13" transform="translate(63.625 0)"/>
      </g>
     </g>
    </g>
    <g id="text_4">
     <!-- Candidates retained from the same N=10 panel -->
     <g transform="translate(58.495881 234.084094) scale(0.1 -0.1)">
      <defs>
       <path id="DejaVuSans-26" d="M 4122 4306
L 4122 3641
Q 3803 3938 3442 4084
Q 3081 4231 2675 4231
Q 1875 4231 1450 3742
Q 1025 3253 1025 2328
Q 1025 1406 1450 917
Q 1875 428 2675 428
Q 3081 428 3442 575
Q 3803 722 4122 1019
L 4122 359
Q 3791 134 3420 21
Q 3050 -91 2638 -91
Q 1578 -91 968 557
Q 359 1206 359 2328
Q 359 3453 968 4101
Q 1578 4750 2638 4750
Q 3056 4750 3426 4639
Q 3797 4528 4122 4306
z
" transform="scale(0.015625)"/>
       <path id="DejaVuSans-44" d="M 2194 1759
Q 1497 1759 1228 1600
Q 959 1441 959 1056
Q 959 750 1161 570
Q 1363 391 1709 391
Q 2188 391 2477 730
Q 2766 1069 2766 1631
L 2766 1759
L 2194 1759
z
M 3341 1997
L 3341 0
L 2766 0
L 2766 531
Q 2569 213 2275 61
Q 1981 -91 1556 -91
Q 1019 -91 701 211
Q 384 513 384 1019
Q 384 1609 779 1909
Q 1175 2209 1959 2209
L 2766 2209
L 2766 2266
Q 2766 2663 2505 2880
Q 2244 3097 1772 3097
Q 1472 3097 1187 3025
Q 903 2953 641 2809
L 641 3341
Q 956 3463 1253 3523
Q 1550 3584 1831 3584
Q 2591 3584 2966 3190
Q 3341 2797 3341 1997
z
" transform="scale(0.015625)"/>
       <path id="DejaVuSans-51" d="M 3513 2113
L 3513 0
L 2938 0
L 2938 2094
Q 2938 2591 2744 2837
Q 2550 3084 2163 3084
Q 1697 3084 1428 2787
Q 1159 2491 1159 1978
L 1159 0
L 581 0
L 581 3500
L 1159 3500
L 1159 2956
Q 1366 3272 1645 3428
Q 1925 3584 2291 3584
Q 2894 3584 3203 3211
Q 3513 2838 3513 2113
z
" transform="scale(0.015625)"/>
       <path id="DejaVuSans-47" d="M 2906 2969
L 2906 4863
L 3481 4863
L 3481 0
L 2906 0
L 2906 525
Q 2725 213 2448 61
Q 2172 -91 1784 -91
Q 1150 -91 751 415
Q 353 922 353 1747
Q 353 2572 751 3078
Q 1150 3584 1784 3584
Q 2172 3584 2448 3432
Q 2725 3281 2906 2969
z
M 947 1747
Q 947 1113 1208 752
Q 1469 391 1925 391
Q 2381 391 2643 752
Q 2906 1113 2906 1747
Q 2906 2381 2643 2742
Q 2381 3103 1925 3103
Q 1469 3103 1208 2742
Q 947 2381 947 1747
z
" transform="scale(0.015625)"/>
       <path id="DejaVuSans-4c" d="M 603 3500
L 1178 3500
L 1178 0
L 603 0
L 603 3500
z
M 603 4863
L 1178 4863
L 1178 4134
L 603 4134
L 603 4863
z
" transform="scale(0.015625)"/>
       <path id="DejaVuSans-57" d="M 1172 4494
L 1172 3500
L 2356 3500
L 2356 3053
L 1172 3053
L 1172 1153
Q 1172 725 1289 603
Q 1406 481 1766 481
L 2356 481
L 2356 0
L 1766 0
Q 1100 0 847 248
Q 594 497 594 1153
L 594 3053
L 172 3053
L 172 3500
L 594 3500
L 594 4494
L 1172 4494
z
" transform="scale(0.015625)"/>
       <path id="DejaVuSans-48" d="M 3597 1894
L 3597 1613
L 953 1613
Q 991 1019 1311 708
Q 1631 397 2203 397
Q 2534 397 2845 478
Q 3156 559 3463 722
L 3463 178
Q 3153 47 2828 -22
Q 2503 -91 2169 -91
Q 1331 -91 842 396
Q 353 884 353 1716
Q 353 2575 817 3079
Q 1281 3584 2069 3584
Q 2775 3584 3186 3129
Q 3597 2675 3597 1894
z
M 3022 2063
Q 3016 2534 2758 2815
Q 2500 3097 2075 3097
Q 1594 3097 1305 2825
Q 1016 2553 972 2059
L 3022 2063
z
" transform="scale(0.015625)"/>
       <path id="DejaVuSans-56" d="M 2834 3397
L 2834 2853
Q 2591 2978 2328 3040
Q 2066 3103 1784 3103
Q 1356 3103 1142 2972
Q 928 2841 928 2578
Q 928 2378 1081 2264
Q 1234 2150 1697 2047
L 1894 2003
Q 2506 1872 2764 1633
Q 3022 1394 3022 966
Q 3022 478 2636 193
Q 2250 -91 1575 -91
Q 1294 -91 989 -36
Q 684 19 347 128
L 347 722
Q 666 556 975 473
Q 1284 391 1588 391
Q 1994 391 2212 530
Q 2431 669 2431 922
Q 2431 1156 2273 1281
Q 2116 1406 1581 1522
L 1381 1569
Q 847 1681 609 1914
Q 372 2147 372 2553
Q 372 3047 722 3315
Q 1072 3584 1716 3584
Q 2034 3584 2315 3537
Q 2597 3491 2834 3397
z
" transform="scale(0.015625)"/>
       <path id="DejaVuSans-3" transform="scale(0.015625)"/>
       <path id="DejaVuSans-55" d="M 2631 2963
Q 2534 3019 2420 3045
Q 2306 3072 2169 3072
Q 1681 3072 1420 2755
Q 1159 2438 1159 1844
L 1159 0
L 581 0
L 581 3500
L 1159 3500
L 1159 2956
Q 1341 3275 1631 3429
Q 1922 3584 2338 3584
Q 2397 3584 2469 3576
Q 2541 3569 2628 3553
L 2631 2963
z
" transform="scale(0.015625)"/>
       <path id="DejaVuSans-49" d="M 2375 4863
L 2375 4384
L 1825 4384
Q 1516 4384 1395 4259
Q 1275 4134 1275 3809
L 1275 3500
L 2222 3500
L 2222 3053
L 1275 3053
L 1275 0
L 697 0
L 697 3053
L 147 3053
L 147 3500
L 697 3500
L 697 3744
Q 697 4328 969 4595
Q 1241 4863 1831 4863
L 2375 4863
z
" transform="scale(0.015625)"/>
       <path id="DejaVuSans-52" d="M 1959 3097
Q 1497 3097 1228 2736
Q 959 2375 959 1747
Q 959 1119 1226 758
Q 1494 397 1959 397
Q 2419 397 2687 759
Q 2956 1122 2956 1747
Q 2956 2369 2687 2733
Q 2419 3097 1959 3097
z
M 1959 3584
Q 2709 3584 3137 3096
Q 3566 2609 3566 1747
Q 3566 888 3137 398
Q 2709 -91 1959 -91
Q 1206 -91 779 398
Q 353 888 353 1747
Q 353 2609 779 3096
Q 1206 3584 1959 3584
z
" transform="scale(0.015625)"/>
       <path id="DejaVuSans-50" d="M 3328 2828
Q 3544 3216 3844 3400
Q 4144 3584 4550 3584
Q 5097 3584 5394 3201
Q 5691 2819 5691 2113
L 5691 0
L 5113 0
L 5113 2094
Q 5113 2597 4934 2840
Q 4756 3084 4391 3084
Q 3944 3084 3684 2787
Q 3425 2491 3425 1978
L 3425 0
L 2847 0
L 2847 2094
Q 2847 2600 2669 2842
Q 2491 3084 2119 3084
Q 1678 3084 1418 2786
Q 1159 2488 1159 1978
L 1159 0
L 581 0
L 581 3500
L 1159 3500
L 1159 2956
Q 1356 3278 1631 3431
Q 1906 3584 2284 3584
Q 2666 3584 2933 3390
Q 3200 3197 3328 2828
z
" transform="scale(0.015625)"/>
       <path id="DejaVuSans-4b" d="M 3513 2113
L 3513 0
L 2938 0
L 2938 2094
Q 2938 2591 2744 2837
Q 2550 3084 2163 3084
Q 1697 3084 1428 2787
Q 1159 2491 1159 1978
L 1159 0
L 581 0
L 581 4863
L 1159 4863
L 1159 2956
Q 1366 3272 1645 3428
Q 1925 3584 2291 3584
Q 2894 3584 3203 3211
Q 3513 2838 3513 2113
z
" transform="scale(0.015625)"/>
       <path id="DejaVuSans-31" d="M 628 4666
L 1478 4666
L 3547 763
L 3547 4666
L 4159 4666
L 4159 0
L 3309 0
L 1241 3903
L 1241 0
L 628 0
L 628 4666
z
" transform="scale(0.015625)"/>
       <path id="DejaVuSans-20" d="M 678 2906
L 4684 2906
L 4684 2381
L 678 2381
L 678 2906
z
M 678 1631
L 4684 1631
L 4684 1100
L 678 1100
L 678 1631
z
" transform="scale(0.015625)"/>
       <path id="DejaVuSans-53" d="M 1159 525
L 1159 -1331
L 581 -1331
L 581 3500
L 1159 3500
L 1159 2969
Q 1341 3281 1617 3432
Q 1894 3584 2278 3584
Q 2916 3584 3314 3078
Q 3713 2572 3713 1747
Q 3713 922 3314 415
Q 2916 -91 2278 -91
Q 1894 -91 1617 61
Q 1341 213 1159 525
z
M 3116 1747
Q 3116 2381 2855 2742
Q 2594 3103 2138 3103
Q 1681 3103 1420 2742
Q 1159 2381 1159 1747
Q 1159 1113 1420 752
Q 1681 391 2138 391
Q 2594 391 2855 752
Q 3116 1113 3116 1747
z
" transform="scale(0.015625)"/>
       <path id="DejaVuSans-4f" d="M 603 4863
L 1178 4863
L 1178 0
L 603 0
L 603 4863
z
" transform="scale(0.015625)"/>
      </defs>
      <use xlink:href="#DejaVuSans-26"/>
      <use xlink:href="#DejaVuSans-44" transform="translate(69.828125 0)"/>
      <use xlink:href="#DejaVuSans-51" transform="translate(131.109375 0)"/>
      <use xlink:href="#DejaVuSans-47" transform="translate(194.484375 0)"/>
      <use xlink:href="#DejaVuSans-4c" transform="translate(257.96875 0)"/>
      <use xlink:href="#DejaVuSans-47" transform="translate(285.75 0)"/>
      <use xlink:href="#DejaVuSans-44" transform="translate(349.234375 0)"/>
      <use xlink:href="#DejaVuSans-57" transform="translate(410.515625 0)"/>
      <use xlink:href="#DejaVuSans-48" transform="translate(449.71875 0)"/>
      <use xlink:href="#DejaVuSans-56" transform="translate(511.25 0)"/>
      <use xlink:href="#DejaVuSans-3" transform="translate(563.34375 0)"/>
      <use xlink:href="#DejaVuSans-55" transform="translate(595.125 0)"/>
      <use xlink:href="#DejaVuSans-48" transform="translate(634.03125 0)"/>
      <use xlink:href="#DejaVuSans-57" transform="translate(695.5625 0)"/>
      <use xlink:href="#DejaVuSans-44" transform="translate(734.765625 0)"/>
      <use xlink:href="#DejaVuSans-4c" transform="translate(796.046875 0)"/>
      <use xlink:href="#DejaVuSans-51" transform="translate(823.828125 0)"/>
      <use xlink:href="#DejaVuSans-48" transform="translate(887.203125 0)"/>
      <use xlink:href="#DejaVuSans-47" transform="translate(948.734375 0)"/>
      <use xlink:href="#DejaVuSans-3" transform="translate(1012.21875 0)"/>
      <use xlink:href="#DejaVuSans-49" transform="translate(1044 0)"/>
      <use xlink:href="#DejaVuSans-55" transform="translate(1079.203125 0)"/>
      <use xlink:href="#DejaVuSans-52" transform="translate(1118.109375 0)"/>
      <use xlink:href="#DejaVuSans-50" transform="translate(1179.296875 0)"/>
      <use xlink:href="#DejaVuSans-3" transform="translate(1276.703125 0)"/>
      <use xlink:href="#DejaVuSans-57" transform="translate(1308.484375 0)"/>
      <use xlink:href="#DejaVuSans-4b" transform="translate(1347.6875 0)"/>
      <use xlink:href="#DejaVuSans-48" transform="translate(1411.0625 0)"/>
      <use xlink:href="#DejaVuSans-3" transform="translate(1472.59375 0)"/>
      <use xlink:href="#DejaVuSans-56" transform="translate(1504.375 0)"/>
      <use xlink:href="#DejaVuSans-44" transform="translate(1556.46875 0)"/>
      <use xlink:href="#DejaVuSans-50" transform="translate(1617.75 0)"/>
      <use xlink:href="#DejaVuSans-48" transform="translate(1715.15625 0)"/>
      <use xlink:href="#DejaVuSans-3" transform="translate(1776.6875 0)"/>
      <use xlink:href="#DejaVuSans-31" transform="translate(1808.46875 0)"/>
      <use xlink:href="#DejaVuSans-20" transform="translate(1883.28125 0)"/>
      <use xlink:href="#DejaVuSans-14" transform="translate(1967.078125 0)"/>
      <use xlink:href="#DejaVuSans-13" transform="translate(2030.703125 0)"/>
      <use xlink:href="#DejaVuSans-3" transform="translate(2094.328125 0)"/>
      <use xlink:href="#DejaVuSans-53" transform="translate(2126.109375 0)"/>
      <use xlink:href="#DejaVuSans-44" transform="translate(2189.59375 0)"/>
      <use xlink:href="#DejaVuSans-51" transform="translate(2250.875 0)"/>
      <use xlink:href="#DejaVuSans-48" transform="translate(2314.25 0)"/>
      <use xlink:href="#DejaVuSans-4f" transform="translate(2375.78125 0)"/>
     </g>
    </g>
   </g>
   <g id="matplotlib.axis_2">
    <g id="ytick_1">
     <g id="line2d_4">
      <defs>
       <path id="m2abffc4c8e" d="M 0 0
L -3.5 0
" style="stroke: #000000; stroke-width: 0.8"/>
      </defs>
      <g>
       <use xlink:href="#m2abffc4c8e" x="38.602344" y="205.485656" style="stroke: #000000; stroke-width: 0.8"/>
      </g>
     </g>
     <g id="text_5">
      <!-- 0 -->
      <g transform="translate(25.239844 209.284484) scale(0.1 -0.1)">
       <use xlink:href="#DejaVuSans-13"/>
      </g>
     </g>
    </g>
    <g id="ytick_2">
     <g id="line2d_5">
      <g>
       <use xlink:href="#m2abffc4c8e" x="38.602344" y="165.511603" style="stroke: #000000; stroke-width: 0.8"/>
      </g>
     </g>
     <g id="text_6">
      <!-- 2 -->
      <g transform="translate(25.239844 169.310431) scale(0.1 -0.1)">
       <defs>
        <path id="DejaVuSans-15" d="M 1228 531
L 3431 531
L 3431 0
L 469 0
L 469 531
Q 828 903 1448 1529
Q 2069 2156 2228 2338
Q 2531 2678 2651 2914
Q 2772 3150 2772 3378
Q 2772 3750 2511 3984
Q 2250 4219 1831 4219
Q 1534 4219 1204 4116
Q 875 4013 500 3803
L 500 4441
Q 881 4594 1212 4672
Q 1544 4750 1819 4750
Q 2544 4750 2975 4387
Q 3406 4025 3406 3419
Q 3406 3131 3298 2873
Q 3191 2616 2906 2266
Q 2828 2175 2409 1742
Q 1991 1309 1228 531
z
" transform="scale(0.015625)"/>
       </defs>
       <use xlink:href="#DejaVuSans-15"/>
      </g>
     </g>
    </g>
    <g id="ytick_3">
     <g id="line2d_6">
      <g>
       <use xlink:href="#m2abffc4c8e" x="38.602344" y="125.537549" style="stroke: #000000; stroke-width: 0.8"/>
      </g>
     </g>
     <g id="text_7">
      <!-- 4 -->
      <g transform="translate(25.239844 129.336377) scale(0.1 -0.1)">
       <defs>
        <path id="DejaVuSans-17" d="M 2419 4116
L 825 1625
L 2419 1625
L 2419 4116
z
M 2253 4666
L 3047 4666
L 3047 1625
L 3713 1625
L 3713 1100
L 3047 1100
L 3047 0
L 2419 0
L 2419 1100
L 313 1100
L 313 1709
L 2253 4666
z
" transform="scale(0.015625)"/>
       </defs>
       <use xlink:href="#DejaVuSans-17"/>
      </g>
     </g>
    </g>
    <g id="ytick_4">
     <g id="line2d_7">
      <g>
       <use xlink:href="#m2abffc4c8e" x="38.602344" y="85.563496" style="stroke: #000000; stroke-width: 0.8"/>
      </g>
     </g>
     <g id="text_8">
      <!-- 6 -->
      <g transform="translate(25.239844 89.362324) scale(0.1 -0.1)">
       <defs>
        <path id="DejaVuSans-19" d="M 2113 2584
Q 1688 2584 1439 2293
Q 1191 2003 1191 1497
Q 1191 994 1439 701
Q 1688 409 2113 409
Q 2538 409 2786 701
Q 3034 994 3034 1497
Q 3034 2003 2786 2293
Q 2538 2584 2113 2584
z
M 3366 4563
L 3366 3988
Q 3128 4100 2886 4159
Q 2644 4219 2406 4219
Q 1781 4219 1451 3797
Q 1122 3375 1075 2522
Q 1259 2794 1537 2939
Q 1816 3084 2150 3084
Q 2853 3084 3261 2657
Q 3669 2231 3669 1497
Q 3669 778 3244 343
Q 2819 -91 2113 -91
Q 1303 -91 875 529
Q 447 1150 447 2328
Q 447 3434 972 4092
Q 1497 4750 2381 4750
Q 2619 4750 2861 4703
Q 3103 4656 3366 4563
z
" transform="scale(0.015625)"/>
       </defs>
       <use xlink:href="#DejaVuSans-19"/>
      </g>
     </g>
    </g>
    <g id="text_9">
     <!-- Mean distinct actions per decision -->
     <g transform="translate(18.8375 220.818563) rotate(-90) scale(0.1 -0.1)">
      <defs>
       <path id="DejaVuSans-30" d="M 628 4666
L 1569 4666
L 2759 1491
L 3956 4666
L 4897 4666
L 4897 0
L 4281 0
L 4281 4097
L 3078 897
L 2444 897
L 1241 4097
L 1241 0
L 628 0
L 628 4666
z
" transform="scale(0.015625)"/>
       <path id="DejaVuSans-46" d="M 3122 3366
L 3122 2828
Q 2878 2963 2633 3030
Q 2388 3097 2138 3097
Q 1578 3097 1268 2742
Q 959 2388 959 1747
Q 959 1106 1268 751
Q 1578 397 2138 397
Q 2388 397 2633 464
Q 2878 531 3122 666
L 3122 134
Q 2881 22 2623 -34
Q 2366 -91 2075 -91
Q 1284 -91 818 406
Q 353 903 353 1747
Q 353 2603 823 3093
Q 1294 3584 2113 3584
Q 2378 3584 2631 3529
Q 2884 3475 3122 3366
z
" transform="scale(0.015625)"/>
      </defs>
      <use xlink:href="#DejaVuSans-30"/>
      <use xlink:href="#DejaVuSans-48" transform="translate(86.28125 0)"/>
      <use xlink:href="#DejaVuSans-44" transform="translate(147.8125 0)"/>
      <use xlink:href="#DejaVuSans-51" transform="translate(209.09375 0)"/>
      <use xlink:href="#DejaVuSans-3" transform="translate(272.46875 0)"/>
      <use xlink:href="#DejaVuSans-47" transform="translate(304.25 0)"/>
      <use xlink:href="#DejaVuSans-4c" transform="translate(367.734375 0)"/>
      <use xlink:href="#DejaVuSans-56" transform="translate(395.515625 0)"/>
      <use xlink:href="#DejaVuSans-57" transform="translate(447.609375 0)"/>
      <use xlink:href="#DejaVuSans-4c" transform="translate(486.8125 0)"/>
      <use xlink:href="#DejaVuSans-51" transform="translate(514.59375 0)"/>
      <use xlink:href="#DejaVuSans-46" transform="translate(577.96875 0)"/>
      <use xlink:href="#DejaVuSans-57" transform="translate(632.953125 0)"/>
      <use xlink:href="#DejaVuSans-3" transform="translate(672.15625 0)"/>
      <use xlink:href="#DejaVuSans-44" transform="translate(703.9375 0)"/>
      <use xlink:href="#DejaVuSans-46" transform="translate(765.21875 0)"/>
      <use xlink:href="#DejaVuSans-57" transform="translate(820.203125 0)"/>
      <use xlink:href="#DejaVuSans-4c" transform="translate(859.40625 0)"/>
      <use xlink:href="#DejaVuSans-52" transform="translate(887.1875 0)"/>
      <use xlink:href="#DejaVuSans-51" transform="translate(948.375 0)"/>
      <use xlink:href="#DejaVuSans-56" transform="translate(1011.75 0)"/>
      <use xlink:href="#DejaVuSans-3" transform="translate(1063.84375 0)"/>
      <use xlink:href="#DejaVuSans-53" transform="translate(1095.625 0)"/>
      <use xlink:href="#DejaVuSans-48" transform="translate(1159.109375 0)"/>
      <use xlink:href="#DejaVuSans-55" transform="translate(1220.640625 0)"/>
      <use xlink:href="#DejaVuSans-3" transform="translate(1261.75 0)"/>
      <use xlink:href="#DejaVuSans-47" transform="translate(1293.53125 0)"/>
      <use xlink:href="#DejaVuSans-48" transform="translate(1357.015625 0)"/>
      <use xlink:href="#DejaVuSans-46" transform="translate(1418.546875 0)"/>
      <use xlink:href="#DejaVuSans-4c" transform="translate(1473.53125 0)"/>
      <use xlink:href="#DejaVuSans-56" transform="translate(1501.3125 0)"/>
      <use xlink:href="#DejaVuSans-4c" transform="translate(1553.40625 0)"/>
      <use xlink:href="#DejaVuSans-52" transform="translate(1581.1875 0)"/>
      <use xlink:href="#DejaVuSans-51" transform="translate(1642.375 0)"/>
     </g>
    </g>
   </g>
   <g id="LineCollection_1">
    <path d="M 51.336131 158.9976
L 51.336131 157.099317
" clip-path="url(#p51fdb29dcf)" style="fill: none; stroke: #1e5ca8; stroke-width: 1.8"/>
    <path d="M 124.100631 136.930813
L 124.100631 133.305348
" clip-path="url(#p51fdb29dcf)" style="fill: none; stroke: #1e5ca8; stroke-width: 1.8"/>
    <path d="M 306.01188 89.989337
L 306.01188 82.160762
" clip-path="url(#p51fdb29dcf)" style="fill: none; stroke: #1e5ca8; stroke-width: 1.8"/>
   </g>
   <g id="line2d_8">
    <defs>
     <path id="maff671fbd4" d="M 3 0
L -3 -0
" style="stroke: #1e5ca8"/>
    </defs>
    <g clip-path="url(#p51fdb29dcf)">
     <use xlink:href="#maff671fbd4" x="51.336131" y="158.9976" style="fill: #1e5ca8; stroke: #1e5ca8"/>
     <use xlink:href="#maff671fbd4" x="124.100631" y="136.930813" style="fill: #1e5ca8; stroke: #1e5ca8"/>
     <use xlink:href="#maff671fbd4" x="306.01188" y="89.989337" style="fill: #1e5ca8; stroke: #1e5ca8"/>
    </g>
   </g>
   <g id="line2d_9">
    <g clip-path="url(#p51fdb29dcf)">
     <use xlink:href="#maff671fbd4" x="51.336131" y="157.099317" style="fill: #1e5ca8; stroke: #1e5ca8"/>
     <use xlink:href="#maff671fbd4" x="124.100631" y="133.305348" style="fill: #1e5ca8; stroke: #1e5ca8"/>
     <use xlink:href="#maff671fbd4" x="306.01188" y="82.160762" style="fill: #1e5ca8; stroke: #1e5ca8"/>
    </g>
   </g>
   <g id="LineCollection_2">
    <path d="M 51.336131 171.554257
L 51.336131 169.908886
" clip-path="url(#p51fdb29dcf)" style="fill: none; stroke: #b56a21; stroke-width: 1.8"/>
    <path d="M 124.100631 162.364739
L 124.100631 159.600054
" clip-path="url(#p51fdb29dcf)" style="fill: none; stroke: #b56a21; stroke-width: 1.8"/>
    <path d="M 306.01188 146.619706
L 306.01188 141.576723
" clip-path="url(#p51fdb29dcf)" style="fill: none; stroke: #b56a21; stroke-width: 1.8"/>
   </g>
   <g id="line2d_10">
    <defs>
     <path id="macb0c7f2fc" d="M 3 0
L -3 -0
" style="stroke: #b56a21"/>
    </defs>
    <g clip-path="url(#p51fdb29dcf)">
     <use xlink:href="#macb0c7f2fc" x="51.336131" y="171.554257" style="fill: #b56a21; stroke: #b56a21"/>
     <use xlink:href="#macb0c7f2fc" x="124.100631" y="162.364739" style="fill: #b56a21; stroke: #b56a21"/>
     <use xlink:href="#macb0c7f2fc" x="306.01188" y="146.619706" style="fill: #b56a21; stroke: #b56a21"/>
    </g>
   </g>
   <g id="line2d_11">
    <g clip-path="url(#p51fdb29dcf)">
     <use xlink:href="#macb0c7f2fc" x="51.336131" y="169.908886" style="fill: #b56a21; stroke: #b56a21"/>
     <use xlink:href="#macb0c7f2fc" x="124.100631" y="159.600054" style="fill: #b56a21; stroke: #b56a21"/>
     <use xlink:href="#macb0c7f2fc" x="306.01188" y="141.576723" style="fill: #b56a21; stroke: #b56a21"/>
    </g>
   </g>
   <g id="line2d_12">
    <path d="M 51.336131 158.030284
L 124.100631 135.062568
L 306.01188 85.972792
" clip-path="url(#p51fdb29dcf)" style="fill: none; stroke: #1e5ca8; stroke-width: 1.8; stroke-linecap: square"/>
    <defs>
     <path id="me318b8b56f" d="M 0 3
C 0.795609 3 1.55874 2.683901 2.12132 2.12132
C 2.683901 1.55874 3 0.795609 3 0
C 3 -0.795609 2.683901 -1.55874 2.12132 -2.12132
C 1.55874 -2.683901 0.795609 -3 0 -3
C -0.795609 -3 -1.55874 -2.683901 -2.12132 -2.12132
C -2.683901 -1.55874 -3 -0.795609 -3 0
C -3 0.795609 -2.683901 1.55874 -2.12132 2.12132
C -1.55874 2.683901 -0.795609 3 0 3
z
" style="stroke: #1e5ca8"/>
    </defs>
    <g clip-path="url(#p51fdb29dcf)">
     <use xlink:href="#me318b8b56f" x="51.336131" y="158.030284" style="fill: #1e5ca8; stroke: #1e5ca8"/>
     <use xlink:href="#me318b8b56f" x="124.100631" y="135.062568" style="fill: #1e5ca8; stroke: #1e5ca8"/>
     <use xlink:href="#me318b8b56f" x="306.01188" y="85.972792" style="fill: #1e5ca8; stroke: #1e5ca8"/>
    </g>
   </g>
   <g id="line2d_13">
    <path d="M 51.336131 170.730443
L 124.100631 160.988143
L 306.01188 144.077602
" clip-path="url(#p51fdb29dcf)" style="fill: none; stroke: #b56a21; stroke-width: 1.8; stroke-linecap: square"/>
    <defs>
     <path id="m2258387784" d="M 0 3
C 0.795609 3 1.55874 2.683901 2.12132 2.12132
C 2.683901 1.55874 3 0.795609 3 0
C 3 -0.795609 2.683901 -1.55874 2.12132 -2.12132
C 1.55874 -2.683901 0.795609 -3 0 -3
C -0.795609 -3 -1.55874 -2.683901 -2.12132 -2.12132
C -2.683901 -1.55874 -3 -0.795609 -3 0
C -3 0.795609 -2.683901 1.55874 -2.12132 2.12132
C -1.55874 2.683901 -0.795609 3 0 3
z
" style="stroke: #b56a21"/>
    </defs>
    <g clip-path="url(#p51fdb29dcf)">
     <use xlink:href="#m2258387784" x="51.336131" y="170.730443" style="fill: #b56a21; stroke: #b56a21"/>
     <use xlink:href="#m2258387784" x="124.100631" y="160.988143" style="fill: #b56a21; stroke: #b56a21"/>
     <use xlink:href="#m2258387784" x="306.01188" y="144.077602" style="fill: #b56a21; stroke: #b56a21"/>
    </g>
   </g>
   <g id="patch_3">
    <path d="M 38.602344 205.485656
L 38.602344 65.576469
" style="fill: none; stroke: #000000; stroke-width: 0.8; stroke-linejoin: miter; stroke-linecap: square"/>
   </g>
   <g id="patch_4">
    <path d="M 38.602344 205.485656
L 318.745668 205.485656
" style="fill: none; stroke: #000000; stroke-width: 0.8; stroke-linejoin: miter; stroke-linecap: square"/>
   </g>
   <g id="text_10">
    <!-- Same state, more candidate actions -->
    <g transform="translate(38.602344 59.576469) scale(0.11 -0.11)">
     <defs>
      <path id="DejaVuSans-Bold-36" d="M 3834 4519
L 3834 3531
Q 3450 3703 3084 3790
Q 2719 3878 2394 3878
Q 1963 3878 1756 3759
Q 1550 3641 1550 3391
Q 1550 3203 1689 3098
Q 1828 2994 2194 2919
L 2706 2816
Q 3484 2659 3812 2340
Q 4141 2022 4141 1434
Q 4141 663 3683 286
Q 3225 -91 2284 -91
Q 1841 -91 1394 -6
Q 947 78 500 244
L 500 1259
Q 947 1022 1364 901
Q 1781 781 2169 781
Q 2563 781 2772 912
Q 2981 1044 2981 1288
Q 2981 1506 2839 1625
Q 2697 1744 2272 1838
L 1806 1941
Q 1106 2091 782 2419
Q 459 2747 459 3303
Q 459 4000 909 4375
Q 1359 4750 2203 4750
Q 2588 4750 2994 4692
Q 3400 4634 3834 4519
z
" transform="scale(0.015625)"/>
      <path id="DejaVuSans-Bold-44" d="M 2106 1575
Q 1756 1575 1579 1456
Q 1403 1338 1403 1106
Q 1403 894 1545 773
Q 1688 653 1941 653
Q 2256 653 2472 879
Q 2688 1106 2688 1447
L 2688 1575
L 2106 1575
z
M 3816 1997
L 3816 0
L 2688 0
L 2688 519
Q 2463 200 2181 54
Q 1900 -91 1497 -91
Q 953 -91 614 226
Q 275 544 275 1050
Q 275 1666 698 1953
Q 1122 2241 2028 2241
L 2688 2241
L 2688 2328
Q 2688 2594 2478 2717
Q 2269 2841 1825 2841
Q 1466 2841 1156 2769
Q 847 2697 581 2553
L 581 3406
Q 941 3494 1303 3539
Q 1666 3584 2028 3584
Q 2975 3584 3395 3211
Q 3816 2838 3816 1997
z
" transform="scale(0.015625)"/>
      <path id="DejaVuSans-Bold-50" d="M 3781 2919
Q 3994 3244 4286 3414
Q 4578 3584 4928 3584
Q 5531 3584 5847 3212
Q 6163 2841 6163 2131
L 6163 0
L 5038 0
L 5038 1825
Q 5041 1866 5042 1909
Q 5044 1953 5044 2034
Q 5044 2406 4934 2573
Q 4825 2741 4581 2741
Q 4263 2741 4089 2478
Q 3916 2216 3909 1719
L 3909 0
L 2784 0
L 2784 1825
Q 2784 2406 2684 2573
Q 2584 2741 2328 2741
Q 2006 2741 1831 2477
Q 1656 2213 1656 1722
L 1656 0
L 531 0
L 531 3500
L 1656 3500
L 1656 2988
Q 1863 3284 2130 3434
Q 2397 3584 2719 3584
Q 3081 3584 3359 3409
Q 3638 3234 3781 2919
z
" transform="scale(0.015625)"/>
      <path id="DejaVuSans-Bold-48" d="M 4031 1759
L 4031 1441
L 1416 1441
Q 1456 1047 1700 850
Q 1944 653 2381 653
Q 2734 653 3104 758
Q 3475 863 3866 1075
L 3866 213
Q 3469 63 3072 -14
Q 2675 -91 2278 -91
Q 1328 -91 801 392
Q 275 875 275 1747
Q 275 2603 792 3093
Q 1309 3584 2216 3584
Q 3041 3584 3536 3087
Q 4031 2591 4031 1759
z
M 2881 2131
Q 2881 2450 2695 2645
Q 2509 2841 2209 2841
Q 1884 2841 1681 2658
Q 1478 2475 1428 2131
L 2881 2131
z
" transform="scale(0.015625)"/>
      <path id="DejaVuSans-Bold-3" transform="scale(0.015625)"/>
      <path id="DejaVuSans-Bold-56" d="M 3272 3391
L 3272 2541
Q 2913 2691 2578 2766
Q 2244 2841 1947 2841
Q 1628 2841 1473 2761
Q 1319 2681 1319 2516
Q 1319 2381 1436 2309
Q 1553 2238 1856 2203
L 2053 2175
Q 2913 2066 3209 1816
Q 3506 1566 3506 1031
Q 3506 472 3093 190
Q 2681 -91 1863 -91
Q 1516 -91 1145 -36
Q 775 19 384 128
L 384 978
Q 719 816 1070 734
Q 1422 653 1784 653
Q 2113 653 2278 743
Q 2444 834 2444 1013
Q 2444 1163 2330 1236
Q 2216 1309 1875 1350
L 1678 1375
Q 931 1469 631 1722
Q 331 1975 331 2491
Q 331 3047 712 3315
Q 1094 3584 1881 3584
Q 2191 3584 2531 3537
Q 2872 3491 3272 3391
z
" transform="scale(0.015625)"/>
      <path id="DejaVuSans-Bold-57" d="M 1759 4494
L 1759 3500
L 2913 3500
L 2913 2700
L 1759 2700
L 1759 1216
Q 1759 972 1856 886
Q 1953 800 2241 800
L 2816 800
L 2816 0
L 1856 0
Q 1194 0 917 276
Q 641 553 641 1216
L 641 2700
L 84 2700
L 84 3500
L 641 3500
L 641 4494
L 1759 4494
z
" transform="scale(0.015625)"/>
      <path id="DejaVuSans-Bold-f" d="M 653 1209
L 1778 1209
L 1778 256
L 1006 -909
L 341 -909
L 653 256
L 653 1209
z
" transform="scale(0.015625)"/>
      <path id="DejaVuSans-Bold-52" d="M 2203 2784
Q 1831 2784 1636 2517
Q 1441 2250 1441 1747
Q 1441 1244 1636 976
Q 1831 709 2203 709
Q 2569 709 2762 976
Q 2956 1244 2956 1747
Q 2956 2250 2762 2517
Q 2569 2784 2203 2784
z
M 2203 3584
Q 3106 3584 3614 3096
Q 4122 2609 4122 1747
Q 4122 884 3614 396
Q 3106 -91 2203 -91
Q 1297 -91 786 396
Q 275 884 275 1747
Q 275 2609 786 3096
Q 1297 3584 2203 3584
z
" transform="scale(0.015625)"/>
      <path id="DejaVuSans-Bold-55" d="M 3138 2547
Q 2991 2616 2845 2648
Q 2700 2681 2553 2681
Q 2122 2681 1889 2404
Q 1656 2128 1656 1613
L 1656 0
L 538 0
L 538 3500
L 1656 3500
L 1656 2925
Q 1872 3269 2151 3426
Q 2431 3584 2822 3584
Q 2878 3584 2943 3579
Q 3009 3575 3134 3559
L 3138 2547
z
" transform="scale(0.015625)"/>
      <path id="DejaVuSans-Bold-46" d="M 3366 3391
L 3366 2478
Q 3138 2634 2908 2709
Q 2678 2784 2431 2784
Q 1963 2784 1702 2511
Q 1441 2238 1441 1747
Q 1441 1256 1702 982
Q 1963 709 2431 709
Q 2694 709 2930 787
Q 3166 866 3366 1019
L 3366 103
Q 3103 6 2833 -42
Q 2563 -91 2291 -91
Q 1344 -91 809 395
Q 275 881 275 1747
Q 275 2613 809 3098
Q 1344 3584 2291 3584
Q 2566 3584 2833 3536
Q 3100 3488 3366 3391
z
" transform="scale(0.015625)"/>
      <path id="DejaVuSans-Bold-51" d="M 4056 2131
L 4056 0
L 2931 0
L 2931 347
L 2931 1631
Q 2931 2084 2911 2256
Q 2891 2428 2841 2509
Q 2775 2619 2662 2680
Q 2550 2741 2406 2741
Q 2056 2741 1856 2470
Q 1656 2200 1656 1722
L 1656 0
L 538 0
L 538 3500
L 1656 3500
L 1656 2988
Q 1909 3294 2193 3439
Q 2478 3584 2822 3584
Q 3428 3584 3742 3212
Q 4056 2841 4056 2131
z
" transform="scale(0.015625)"/>
      <path id="DejaVuSans-Bold-47" d="M 2919 2988
L 2919 4863
L 4044 4863
L 4044 0
L 2919 0
L 2919 506
Q 2688 197 2409 53
Q 2131 -91 1766 -91
Q 1119 -91 703 423
Q 288 938 288 1747
Q 288 2556 703 3070
Q 1119 3584 1766 3584
Q 2128 3584 2408 3439
Q 2688 3294 2919 2988
z
M 2181 722
Q 2541 722 2730 984
Q 2919 1247 2919 1747
Q 2919 2247 2730 2509
Q 2541 2772 2181 2772
Q 1825 2772 1636 2509
Q 1447 2247 1447 1747
Q 1447 1247 1636 984
Q 1825 722 2181 722
z
" transform="scale(0.015625)"/>
      <path id="DejaVuSans-Bold-4c" d="M 538 3500
L 1656 3500
L 1656 0
L 538 0
L 538 3500
z
M 538 4863
L 1656 4863
L 1656 3950
L 538 3950
L 538 4863
z
" transform="scale(0.015625)"/>
     </defs>
     <use xlink:href="#DejaVuSans-Bold-36"/>
     <use xlink:href="#DejaVuSans-Bold-44" transform="translate(72.015625 0)"/>
     <use xlink:href="#DejaVuSans-Bold-50" transform="translate(139.5 0)"/>
     <use xlink:href="#DejaVuSans-Bold-48" transform="translate(243.703125 0)"/>
     <use xlink:href="#DejaVuSans-Bold-3" transform="translate(311.53125 0)"/>
     <use xlink:href="#DejaVuSans-Bold-56" transform="translate(346.34375 0)"/>
     <use xlink:href="#DejaVuSans-Bold-57" transform="translate(405.859375 0)"/>
     <use xlink:href="#DejaVuSans-Bold-44" transform="translate(453.65625 0)"/>
     <use xlink:href="#DejaVuSans-Bold-57" transform="translate(521.140625 0)"/>
     <use xlink:href="#DejaVuSans-Bold-48" transform="translate(568.9375 0)"/>
     <use xlink:href="#DejaVuSans-Bold-f" transform="translate(636.765625 0)"/>
     <use xlink:href="#DejaVuSans-Bold-3" transform="translate(674.75 0)"/>
     <use xlink:href="#DejaVuSans-Bold-50" transform="translate(709.5625 0)"/>
     <use xlink:href="#DejaVuSans-Bold-52" transform="translate(813.765625 0)"/>
     <use xlink:href="#DejaVuSans-Bold-55" transform="translate(882.46875 0)"/>
     <use xlink:href="#DejaVuSans-Bold-48" transform="translate(931.78125 0)"/>
     <use xlink:href="#DejaVuSans-Bold-3" transform="translate(999.609375 0)"/>
     <use xlink:href="#DejaVuSans-Bold-46" transform="translate(1034.421875 0)"/>
     <use xlink:href="#DejaVuSans-Bold-44" transform="translate(1093.703125 0)"/>
     <use xlink:href="#DejaVuSans-Bold-51" transform="translate(1161.1875 0)"/>
     <use xlink:href="#DejaVuSans-Bold-47" transform="translate(1232.375 0)"/>
     <use xlink:href="#DejaVuSans-Bold-4c" transform="translate(1303.953125 0)"/>
     <use xlink:href="#DejaVuSans-Bold-47" transform="translate(1338.234375 0)"/>
     <use xlink:href="#DejaVuSans-Bold-44" transform="translate(1409.8125 0)"/>
     <use xlink:href="#DejaVuSans-Bold-57" transform="translate(1477.296875 0)"/>
     <use xlink:href="#DejaVuSans-Bold-48" transform="translate(1525.09375 0)"/>
     <use xlink:href="#DejaVuSans-Bold-3" transform="translate(1592.921875 0)"/>
     <use xlink:href="#DejaVuSans-Bold-44" transform="translate(1627.734375 0)"/>
     <use xlink:href="#DejaVuSans-Bold-46" transform="translate(1695.21875 0)"/>
     <use xlink:href="#DejaVuSans-Bold-57" transform="translate(1754.5 0)"/>
     <use xlink:href="#DejaVuSans-Bold-4c" transform="translate(1802.296875 0)"/>
     <use xlink:href="#DejaVuSans-Bold-52" transform="translate(1836.578125 0)"/>
     <use xlink:href="#DejaVuSans-Bold-51" transform="translate(1905.28125 0)"/>
     <use xlink:href="#DejaVuSans-Bold-56" transform="translate(1976.46875 0)"/>
    </g>
   </g>
   <g id="legend_1">
    <g id="LineCollection_3">
     <path d="M 53.802344 80.055219
L 53.802344 72.055219
" style="fill: none; stroke: #1e5ca8; stroke-width: 1.8"/>
    </g>
    <g id="line2d_14">
     <g>
      <use xlink:href="#maff671fbd4" x="53.802344" y="80.055219" style="fill: #1e5ca8; stroke: #1e5ca8"/>
     </g>
    </g>
    <g id="line2d_15">
     <g>
      <use xlink:href="#maff671fbd4" x="53.802344" y="72.055219" style="fill: #1e5ca8; stroke: #1e5ca8"/>
     </g>
    </g>
    <g id="line2d_16">
     <path d="M 45.802344 76.055219
L 61.802344 76.055219
" style="fill: none; stroke: #1e5ca8; stroke-width: 1.8; stroke-linecap: square"/>
    </g>
    <g id="line2d_17">
     <g>
      <use xlink:href="#me318b8b56f" x="53.802344" y="76.055219" style="fill: #1e5ca8; stroke: #1e5ca8"/>
     </g>
    </g>
    <g id="text_11">
     <!-- Exact parsed specifications -->
     <g transform="translate(68.202344 78.855219) scale(0.08 -0.08)">
      <defs>
       <path id="DejaVuSans-28" d="M 628 4666
L 3578 4666
L 3578 4134
L 1259 4134
L 1259 2753
L 3481 2753
L 3481 2222
L 1259 2222
L 1259 531
L 3634 531
L 3634 0
L 628 0
L 628 4666
z
" transform="scale(0.015625)"/>
       <path id="DejaVuSans-5b" d="M 3513 3500
L 2247 1797
L 3578 0
L 2900 0
L 1881 1375
L 863 0
L 184 0
L 1544 1831
L 300 3500
L 978 3500
L 1906 2253
L 2834 3500
L 3513 3500
z
" transform="scale(0.015625)"/>
       <path id="DejaVuSans-13af" d="M 3431 3500
L 3431 0
L 2853 0
L 2853 3053
L 1275 3053
L 1275 0
L 697 0
L 697 3053
L 147 3053
L 147 3500
L 697 3500
L 697 3744
Q 697 4316 967 4589
Q 1238 4863 1797 4863
L 2375 4863
L 2375 4384
L 1825 4384
Q 1516 4384 1395 4259
Q 1275 4134 1275 3809
L 1275 3500
L 3431 3500
z
M 2853 4856
L 3431 4856
L 3431 4128
L 2853 4128
L 2853 4856
z
" transform="scale(0.015625)"/>
      </defs>
      <use xlink:href="#DejaVuSans-28"/>
      <use xlink:href="#DejaVuSans-5b" transform="translate(63.1875 0)"/>
      <use xlink:href="#DejaVuSans-44" transform="translate(122.375 0)"/>
      <use xlink:href="#DejaVuSans-46" transform="translate(183.65625 0)"/>
      <use xlink:href="#DejaVuSans-57" transform="translate(238.640625 0)"/>
      <use xlink:href="#DejaVuSans-3" transform="translate(277.84375 0)"/>
      <use xlink:href="#DejaVuSans-53" transform="translate(309.625 0)"/>
      <use xlink:href="#DejaVuSans-44" transform="translate(373.109375 0)"/>
      <use xlink:href="#DejaVuSans-55" transform="translate(434.390625 0)"/>
      <use xlink:href="#DejaVuSans-56" transform="translate(475.5 0)"/>
      <use xlink:href="#DejaVuSans-48" transform="translate(527.59375 0)"/>
      <use xlink:href="#DejaVuSans-47" transform="translate(589.125 0)"/>
      <use xlink:href="#DejaVuSans-3" transform="translate(652.609375 0)"/>
      <use xlink:href="#DejaVuSans-56" transform="translate(684.390625 0)"/>
      <use xlink:href="#DejaVuSans-53" transform="translate(736.484375 0)"/>
      <use xlink:href="#DejaVuSans-48" transform="translate(799.96875 0)"/>
      <use xlink:href="#DejaVuSans-46" transform="translate(861.5 0)"/>
      <use xlink:href="#DejaVuSans-4c" transform="translate(916.484375 0)"/>
      <use xlink:href="#DejaVuSans-13af" transform="translate(944.265625 0)"/>
      <use xlink:href="#DejaVuSans-46" transform="translate(1007.25 0)"/>
      <use xlink:href="#DejaVuSans-44" transform="translate(1062.234375 0)"/>
      <use xlink:href="#DejaVuSans-57" transform="translate(1123.515625 0)"/>
      <use xlink:href="#DejaVuSans-4c" transform="translate(1162.71875 0)"/>
      <use xlink:href="#DejaVuSans-52" transform="translate(1190.5 0)"/>
      <use xlink:href="#DejaVuSans-51" transform="translate(1251.6875 0)"/>
      <use xlink:href="#DejaVuSans-56" transform="translate(1315.0625 0)"/>
     </g>
    </g>
    <g id="LineCollection_4">
     <path d="M 53.802344 92.055844
L 53.802344 84.055844
" style="fill: none; stroke: #b56a21; stroke-width: 1.8"/>
    </g>
    <g id="line2d_18">
     <g>
      <use xlink:href="#macb0c7f2fc" x="53.802344" y="92.055844" style="fill: #b56a21; stroke: #b56a21"/>
     </g>
    </g>
    <g id="line2d_19">
     <g>
      <use xlink:href="#macb0c7f2fc" x="53.802344" y="84.055844" style="fill: #b56a21; stroke: #b56a21"/>
     </g>
    </g>
    <g id="line2d_20">
     <path d="M 45.802344 88.055844
L 61.802344 88.055844
" style="fill: none; stroke: #b56a21; stroke-width: 1.8; stroke-linecap: square"/>
    </g>
    <g id="line2d_21">
     <g>
      <use xlink:href="#m2258387784" x="53.802344" y="88.055844" style="fill: #b56a21; stroke: #b56a21"/>
     </g>
    </g>
    <g id="text_12">
     <!-- Coarse coordinate / stop-text proxy -->
     <g transform="translate(68.202344 90.855844) scale(0.08 -0.08)">
      <defs>
       <path id="DejaVuSans-12" d="M 1625 4666
L 2156 4666
L 531 -594
L 0 -594
L 1625 4666
z
" transform="scale(0.015625)"/>
       <path id="DejaVuSans-10" d="M 313 2009
L 1997 2009
L 1997 1497
L 313 1497
L 313 2009
z
" transform="scale(0.015625)"/>
       <path id="DejaVuSans-5c" d="M 2059 -325
Q 1816 -950 1584 -1140
Q 1353 -1331 966 -1331
L 506 -1331
L 506 -850
L 844 -850
Q 1081 -850 1212 -737
Q 1344 -625 1503 -206
L 1606 56
L 191 3500
L 800 3500
L 1894 763
L 2988 3500
L 3597 3500
L 2059 -325
z
" transform="scale(0.015625)"/>
      </defs>
      <use xlink:href="#DejaVuSans-26"/>
      <use xlink:href="#DejaVuSans-52" transform="translate(69.828125 0)"/>
      <use xlink:href="#DejaVuSans-44" transform="translate(131.015625 0)"/>
      <use xlink:href="#DejaVuSans-55" transform="translate(192.296875 0)"/>
      <use xlink:href="#DejaVuSans-56" transform="translate(233.40625 0)"/>
      <use xlink:href="#DejaVuSans-48" transform="translate(285.5 0)"/>
      <use xlink:href="#DejaVuSans-3" transform="translate(347.03125 0)"/>
      <use xlink:href="#DejaVuSans-46" transform="translate(378.8125 0)"/>
      <use xlink:href="#DejaVuSans-52" transform="translate(433.796875 0)"/>
      <use xlink:href="#DejaVuSans-52" transform="translate(494.984375 0)"/>
      <use xlink:href="#DejaVuSans-55" transform="translate(556.171875 0)"/>
      <use xlink:href="#DejaVuSans-47" transform="translate(595.53125 0)"/>
      <use xlink:href="#DejaVuSans-4c" transform="translate(659.015625 0)"/>
      <use xlink:href="#DejaVuSans-51" transform="translate(686.796875 0)"/>
      <use xlink:href="#DejaVuSans-44" transform="translate(750.171875 0)"/>
      <use xlink:href="#DejaVuSans-57" transform="translate(811.453125 0)"/>
      <use xlink:href="#DejaVuSans-48" transform="translate(850.65625 0)"/>
      <use xlink:href="#DejaVuSans-3" transform="translate(912.1875 0)"/>
      <use xlink:href="#DejaVuSans-12" transform="translate(943.96875 0)"/>
      <use xlink:href="#DejaVuSans-3" transform="translate(977.65625 0)"/>
      <use xlink:href="#DejaVuSans-56" transform="translate(1009.4375 0)"/>
      <use xlink:href="#DejaVuSans-57" transform="translate(1061.53125 0)"/>
      <use xlink:href="#DejaVuSans-52" transform="translate(1100.734375 0)"/>
      <use xlink:href="#DejaVuSans-53" transform="translate(1161.921875 0)"/>
      <use xlink:href="#DejaVuSans-10" transform="translate(1225.40625 0)"/>
      <use xlink:href="#DejaVuSans-57" transform="translate(1261.484375 0)"/>
      <use xlink:href="#DejaVuSans-48" transform="translate(1300.6875 0)"/>
      <use xlink:href="#DejaVuSans-5b" transform="translate(1360.46875 0)"/>
      <use xlink:href="#DejaVuSans-57" transform="translate(1419.65625 0)"/>
      <use xlink:href="#DejaVuSans-3" transform="translate(1458.859375 0)"/>
      <use xlink:href="#DejaVuSans-53" transform="translate(1490.640625 0)"/>
      <use xlink:href="#DejaVuSans-55" transform="translate(1554.125 0)"/>
      <use xlink:href="#DejaVuSans-52" transform="translate(1593.03125 0)"/>
      <use xlink:href="#DejaVuSans-5b" transform="translate(1651.140625 0)"/>
      <use xlink:href="#DejaVuSans-5c" transform="translate(1710.328125 0)"/>
     </g>
    </g>
   </g>
  </g>
  <g id="axes_2">
   <g id="patch_5">
    <path d="M 373.028011 205.485656
L 709.2 205.485656
L 709.2 65.576469
L 373.028011 65.576469
z
" style="fill: #ffffff"/>
   </g>
   <g id="patch_6">
    <path d="M 388.308556 205.485656
L 416.811127 205.485656
L 416.811127 123.056335
L 388.308556 123.056335
z
" clip-path="url(#pcd2df86642)" style="fill: #a8abb0"/>
   </g>
   <g id="patch_7">
    <path d="M 427.89546 205.485656
L 456.398031 205.485656
L 456.398031 150.616492
L 427.89546 150.616492
z
" clip-path="url(#pcd2df86642)" style="fill: #1e5ca8"/>
   </g>
   <g id="patch_8">
    <path d="M 467.482364 205.485656
L 495.984935 205.485656
L 495.984935 150.710949
L 467.482364 150.710949
z
" clip-path="url(#pcd2df86642)" style="fill: #1e5ca8"/>
   </g>
   <g id="patch_9">
    <path d="M 507.069268 205.485656
L 535.571839 205.485656
L 535.571839 151.467354
L 507.069268 151.467354
z
" clip-path="url(#pcd2df86642)" style="fill: #1e5ca8"/>
   </g>
   <g id="patch_10">
    <path d="M 546.656172 205.485656
L 575.158743 205.485656
L 575.158743 140.151398
L 546.656172 140.151398
z
" clip-path="url(#pcd2df86642)" style="fill: #1e5ca8"/>
   </g>
   <g id="patch_11">
    <path d="M 586.243076 205.485656
L 614.745647 205.485656
L 614.745647 138.506009
L 586.243076 138.506009
z
" clip-path="url(#pcd2df86642)" style="fill: #1e5ca8"/>
   </g>
   <g id="patch_12">
    <path d="M 625.82998 205.485656
L 654.332551 205.485656
L 654.332551 145.343608
L 625.82998 145.343608
z
" clip-path="url(#pcd2df86642)" style="fill: #1e5ca8"/>
   </g>
   <g id="patch_13">
    <path d="M 665.416884 205.485656
L 693.919455 205.485656
L 693.919455 117.852471
L 665.416884 117.852471
z
" clip-path="url(#pcd2df86642)" style="fill: #1e5ca8"/>
   </g>
   <g id="matplotlib.axis_3">
    <g id="xtick_4">
     <g id="line2d_22">
      <g>
       <use xlink:href="#md9b65d6d30" x="402.559842" y="205.485656" style="stroke: #000000; stroke-width: 0.8"/>
      </g>
     </g>
     <g id="text_13">
      <!-- 0 -->
      <g transform="translate(399.378592 220.083312) scale(0.1 -0.1)">
       <use xlink:href="#DejaVuSans-13"/>
      </g>
     </g>
    </g>
    <g id="xtick_5">
     <g id="line2d_23">
      <g>
       <use xlink:href="#md9b65d6d30" x="442.146746" y="205.485656" style="stroke: #000000; stroke-width: 0.8"/>
      </g>
     </g>
     <g id="text_14">
      <!-- 1 -->
      <g transform="translate(438.965496 220.083312) scale(0.1 -0.1)">
       <use xlink:href="#DejaVuSans-14"/>
      </g>
     </g>
    </g>
    <g id="xtick_6">
     <g id="line2d_24">
      <g>
       <use xlink:href="#md9b65d6d30" x="481.73365" y="205.485656" style="stroke: #000000; stroke-width: 0.8"/>
      </g>
     </g>
     <g id="text_15">
      <!-- 2 -->
      <g transform="translate(478.5524 220.083312) scale(0.1 -0.1)">
       <use xlink:href="#DejaVuSans-15"/>
      </g>
     </g>
    </g>
    <g id="xtick_7">
     <g id="line2d_25">
      <g>
       <use xlink:href="#md9b65d6d30" x="521.320554" y="205.485656" style="stroke: #000000; stroke-width: 0.8"/>
      </g>
     </g>
     <g id="text_16">
      <!-- 3 -->
      <g transform="translate(518.139304 220.083312) scale(0.1 -0.1)">
       <use xlink:href="#DejaVuSans-16"/>
      </g>
     </g>
    </g>
    <g id="xtick_8">
     <g id="line2d_26">
      <g>
       <use xlink:href="#md9b65d6d30" x="560.907458" y="205.485656" style="stroke: #000000; stroke-width: 0.8"/>
      </g>
     </g>
     <g id="text_17">
      <!-- 4 -->
      <g transform="translate(557.726208 220.083312) scale(0.1 -0.1)">
       <use xlink:href="#DejaVuSans-17"/>
      </g>
     </g>
    </g>
    <g id="xtick_9">
     <g id="line2d_27">
      <g>
       <use xlink:href="#md9b65d6d30" x="600.494362" y="205.485656" style="stroke: #000000; stroke-width: 0.8"/>
      </g>
     </g>
     <g id="text_18">
      <!-- 5 -->
      <g transform="translate(597.313112 220.083312) scale(0.1 -0.1)">
       <use xlink:href="#DejaVuSans-18"/>
      </g>
     </g>
    </g>
    <g id="xtick_10">
     <g id="line2d_28">
      <g>
       <use xlink:href="#md9b65d6d30" x="640.081266" y="205.485656" style="stroke: #000000; stroke-width: 0.8"/>
      </g>
     </g>
     <g id="text_19">
      <!-- 6 -->
      <g transform="translate(636.900016 220.083312) scale(0.1 -0.1)">
       <use xlink:href="#DejaVuSans-19"/>
      </g>
     </g>
    </g>
    <g id="xtick_11">
     <g id="line2d_29">
      <g>
       <use xlink:href="#md9b65d6d30" x="679.66817" y="205.485656" style="stroke: #000000; stroke-width: 0.8"/>
      </g>
     </g>
     <g id="text_20">
      <!-- 7 -->
      <g transform="translate(676.48692 220.083312) scale(0.1 -0.1)">
       <defs>
        <path id="DejaVuSans-1a" d="M 525 4666
L 3525 4666
L 3525 4397
L 1831 0
L 1172 0
L 2766 4134
L 525 4134
L 525 4666
z
" transform="scale(0.015625)"/>
       </defs>
       <use xlink:href="#DejaVuSans-1a"/>
      </g>
     </g>
    </g>
    <g id="text_21">
     <!-- Additional exact parsed actions beyond first 3 -->
     <g transform="translate(426.049162 234.084094) scale(0.1 -0.1)">
      <defs>
       <path id="DejaVuSans-24" d="M 2188 4044
L 1331 1722
L 3047 1722
L 2188 4044
z
M 1831 4666
L 2547 4666
L 4325 0
L 3669 0
L 3244 1197
L 1141 1197
L 716 0
L 50 0
L 1831 4666
z
" transform="scale(0.015625)"/>
       <path id="DejaVuSans-45" d="M 3116 1747
Q 3116 2381 2855 2742
Q 2594 3103 2138 3103
Q 1681 3103 1420 2742
Q 1159 2381 1159 1747
Q 1159 1113 1420 752
Q 1681 391 2138 391
Q 2594 391 2855 752
Q 3116 1113 3116 1747
z
M 1159 2969
Q 1341 3281 1617 3432
Q 1894 3584 2278 3584
Q 2916 3584 3314 3078
Q 3713 2572 3713 1747
Q 3713 922 3314 415
Q 2916 -91 2278 -91
Q 1894 -91 1617 61
Q 1341 213 1159 525
L 1159 0
L 581 0
L 581 4863
L 1159 4863
L 1159 2969
z
" transform="scale(0.015625)"/>
      </defs>
      <use xlink:href="#DejaVuSans-24"/>
      <use xlink:href="#DejaVuSans-47" transform="translate(66.65625 0)"/>
      <use xlink:href="#DejaVuSans-47" transform="translate(130.140625 0)"/>
      <use xlink:href="#DejaVuSans-4c" transform="translate(193.625 0)"/>
      <use xlink:href="#DejaVuSans-57" transform="translate(221.40625 0)"/>
      <use xlink:href="#DejaVuSans-4c" transform="translate(260.609375 0)"/>
      <use xlink:href="#DejaVuSans-52" transform="translate(288.390625 0)"/>
      <use xlink:href="#DejaVuSans-51" transform="translate(349.578125 0)"/>
      <use xlink:href="#DejaVuSans-44" transform="translate(412.953125 0)"/>
      <use xlink:href="#DejaVuSans-4f" transform="translate(474.234375 0)"/>
      <use xlink:href="#DejaVuSans-3" transform="translate(502.015625 0)"/>
      <use xlink:href="#DejaVuSans-48" transform="translate(533.796875 0)"/>
      <use xlink:href="#DejaVuSans-5b" transform="translate(593.578125 0)"/>
      <use xlink:href="#DejaVuSans-44" transform="translate(652.765625 0)"/>
      <use xlink:href="#DejaVuSans-46" transform="translate(714.046875 0)"/>
      <use xlink:href="#DejaVuSans-57" transform="translate(769.03125 0)"/>
      <use xlink:href="#DejaVuSans-3" transform="translate(808.234375 0)"/>
      <use xlink:href="#DejaVuSans-53" transform="translate(840.015625 0)"/>
      <use xlink:href="#DejaVuSans-44" transform="translate(903.5 0)"/>
      <use xlink:href="#DejaVuSans-55" transform="translate(964.78125 0)"/>
      <use xlink:href="#DejaVuSans-56" transform="translate(1005.890625 0)"/>
      <use xlink:href="#DejaVuSans-48" transform="translate(1057.984375 0)"/>
      <use xlink:href="#DejaVuSans-47" transform="translate(1119.515625 0)"/>
      <use xlink:href="#DejaVuSans-3" transform="translate(1183 0)"/>
      <use xlink:href="#DejaVuSans-44" transform="translate(1214.78125 0)"/>
      <use xlink:href="#DejaVuSans-46" transform="translate(1276.0625 0)"/>
      <use xlink:href="#DejaVuSans-57" transform="translate(1331.046875 0)"/>
      <use xlink:href="#DejaVuSans-4c" transform="translate(1370.25 0)"/>
      <use xlink:href="#DejaVuSans-52" transform="translate(1398.03125 0)"/>
      <use xlink:href="#DejaVuSans-51" transform="translate(1459.21875 0)"/>
      <use xlink:href="#DejaVuSans-56" transform="translate(1522.59375 0)"/>
      <use xlink:href="#DejaVuSans-3" transform="translate(1574.6875 0)"/>
      <use xlink:href="#DejaVuSans-45" transform="translate(1606.46875 0)"/>
      <use xlink:href="#DejaVuSans-48" transform="translate(1669.953125 0)"/>
      <use xlink:href="#DejaVuSans-5c" transform="translate(1731.484375 0)"/>
      <use xlink:href="#DejaVuSans-52" transform="translate(1790.671875 0)"/>
      <use xlink:href="#DejaVuSans-51" transform="translate(1851.859375 0)"/>
      <use xlink:href="#DejaVuSans-47" transform="translate(1915.234375 0)"/>
      <use xlink:href="#DejaVuSans-3" transform="translate(1978.71875 0)"/>
      <use xlink:href="#DejaVuSans-13af" transform="translate(2010.5 0)"/>
      <use xlink:href="#DejaVuSans-55" transform="translate(2073.484375 0)"/>
      <use xlink:href="#DejaVuSans-56" transform="translate(2114.59375 0)"/>
      <use xlink:href="#DejaVuSans-57" transform="translate(2166.6875 0)"/>
      <use xlink:href="#DejaVuSans-3" transform="translate(2205.890625 0)"/>
      <use xlink:href="#DejaVuSans-16" transform="translate(2237.671875 0)"/>
     </g>
    </g>
   </g>
   <g id="matplotlib.axis_4">
    <g id="ytick_5">
     <g id="line2d_30">
      <g>
       <use xlink:href="#m2abffc4c8e" x="373.028011" y="205.485656" style="stroke: #000000; stroke-width: 0.8"/>
      </g>
     </g>
     <g id="text_22">
      <!-- 0 -->
      <g transform="translate(359.665511 209.284484) scale(0.1 -0.1)">
       <use xlink:href="#DejaVuSans-13"/>
      </g>
     </g>
    </g>
    <g id="ytick_6">
     <g id="line2d_31">
      <g>
       <use xlink:href="#m2abffc4c8e" x="373.028011" y="179.176624" style="stroke: #000000; stroke-width: 0.8"/>
      </g>
     </g>
     <g id="text_23">
      <!-- 5 -->
      <g transform="translate(359.665511 182.975453) scale(0.1 -0.1)">
       <use xlink:href="#DejaVuSans-18"/>
      </g>
     </g>
    </g>
    <g id="ytick_7">
     <g id="line2d_32">
      <g>
       <use xlink:href="#m2abffc4c8e" x="373.028011" y="152.867593" style="stroke: #000000; stroke-width: 0.8"/>
      </g>
     </g>
     <g id="text_24">
      <!-- 10 -->
      <g transform="translate(353.303011 156.666421) scale(0.1 -0.1)">
       <use xlink:href="#DejaVuSans-14"/>
       <use xlink:href="#DejaVuSans-13" transform="translate(63.625 0)"/>
      </g>
     </g>
    </g>
    <g id="ytick_8">
     <g id="line2d_33">
      <g>
       <use xlink:href="#m2abffc4c8e" x="373.028011" y="126.558561" style="stroke: #000000; stroke-width: 0.8"/>
      </g>
     </g>
     <g id="text_25">
      <!-- 15 -->
      <g transform="translate(353.303011 130.357389) scale(0.1 -0.1)">
       <use xlink:href="#DejaVuSans-14"/>
       <use xlink:href="#DejaVuSans-18" transform="translate(63.625 0)"/>
      </g>
     </g>
    </g>
    <g id="ytick_9">
     <g id="line2d_34">
      <g>
       <use xlink:href="#m2abffc4c8e" x="373.028011" y="100.249529" style="stroke: #000000; stroke-width: 0.8"/>
      </g>
     </g>
     <g id="text_26">
      <!-- 20 -->
      <g transform="translate(353.303011 104.048357) scale(0.1 -0.1)">
       <use xlink:href="#DejaVuSans-15"/>
       <use xlink:href="#DejaVuSans-13" transform="translate(63.625 0)"/>
      </g>
     </g>
    </g>
    <g id="ytick_10">
     <g id="line2d_35">
      <g>
       <use xlink:href="#m2abffc4c8e" x="373.028011" y="73.940497" style="stroke: #000000; stroke-width: 0.8"/>
      </g>
     </g>
     <g id="text_27">
      <!-- 25 -->
      <g transform="translate(353.303011 77.739325) scale(0.1 -0.1)">
       <use xlink:href="#DejaVuSans-15"/>
       <use xlink:href="#DejaVuSans-18" transform="translate(63.625 0)"/>
      </g>
     </g>
    </g>
    <g id="text_28">
     <!-- Decisions, task-weighted (%) -->
     <g transform="translate(346.900668 208.278719) rotate(-90) scale(0.1 -0.1)">
      <defs>
       <path id="DejaVuSans-27" d="M 1259 4147
L 1259 519
L 2022 519
Q 2988 519 3436 956
Q 3884 1394 3884 2338
Q 3884 3275 3436 3711
Q 2988 4147 2022 4147
L 1259 4147
z
M 628 4666
L 1925 4666
Q 3281 4666 3915 4102
Q 4550 3538 4550 2338
Q 4550 1131 3912 565
Q 3275 0 1925 0
L 628 0
L 628 4666
z
" transform="scale(0.015625)"/>
       <path id="DejaVuSans-f" d="M 750 794
L 1409 794
L 1409 256
L 897 -744
L 494 -744
L 750 256
L 750 794
z
" transform="scale(0.015625)"/>
       <path id="DejaVuSans-4e" d="M 581 4863
L 1159 4863
L 1159 1991
L 2875 3500
L 3609 3500
L 1753 1863
L 3688 0
L 2938 0
L 1159 1709
L 1159 0
L 581 0
L 581 4863
z
" transform="scale(0.015625)"/>
       <path id="DejaVuSans-5a" d="M 269 3500
L 844 3500
L 1563 769
L 2278 3500
L 2956 3500
L 3675 769
L 4391 3500
L 4966 3500
L 4050 0
L 3372 0
L 2619 2869
L 1863 0
L 1184 0
L 269 3500
z
" transform="scale(0.015625)"/>
       <path id="DejaVuSans-4a" d="M 2906 1791
Q 2906 2416 2648 2759
Q 2391 3103 1925 3103
Q 1463 3103 1205 2759
Q 947 2416 947 1791
Q 947 1169 1205 825
Q 1463 481 1925 481
Q 2391 481 2648 825
Q 2906 1169 2906 1791
z
M 3481 434
Q 3481 -459 3084 -895
Q 2688 -1331 1869 -1331
Q 1566 -1331 1297 -1286
Q 1028 -1241 775 -1147
L 775 -588
Q 1028 -725 1275 -790
Q 1522 -856 1778 -856
Q 2344 -856 2625 -561
Q 2906 -266 2906 331
L 2906 616
Q 2728 306 2450 153
Q 2172 0 1784 0
Q 1141 0 747 490
Q 353 981 353 1791
Q 353 2603 747 3093
Q 1141 3584 1784 3584
Q 2172 3584 2450 3431
Q 2728 3278 2906 2969
L 2906 3500
L 3481 3500
L 3481 434
z
" transform="scale(0.015625)"/>
       <path id="DejaVuSans-b" d="M 1984 4856
Q 1566 4138 1362 3434
Q 1159 2731 1159 2009
Q 1159 1288 1364 580
Q 1569 -128 1984 -844
L 1484 -844
Q 1016 -109 783 600
Q 550 1309 550 2009
Q 550 2706 781 3412
Q 1013 4119 1484 4856
L 1984 4856
z
" transform="scale(0.015625)"/>
       <path id="DejaVuSans-8" d="M 4653 2053
Q 4381 2053 4226 1822
Q 4072 1591 4072 1178
Q 4072 772 4226 539
Q 4381 306 4653 306
Q 4919 306 5073 539
Q 5228 772 5228 1178
Q 5228 1588 5073 1820
Q 4919 2053 4653 2053
z
M 4653 2450
Q 5147 2450 5437 2106
Q 5728 1763 5728 1178
Q 5728 594 5436 251
Q 5144 -91 4653 -91
Q 4153 -91 3862 251
Q 3572 594 3572 1178
Q 3572 1766 3864 2108
Q 4156 2450 4653 2450
z
M 1428 4353
Q 1159 4353 1004 4120
Q 850 3888 850 3481
Q 850 3069 1003 2837
Q 1156 2606 1428 2606
Q 1700 2606 1854 2837
Q 2009 3069 2009 3481
Q 2009 3884 1853 4118
Q 1697 4353 1428 4353
z
M 4250 4750
L 4750 4750
L 1831 -91
L 1331 -91
L 4250 4750
z
M 1428 4750
Q 1922 4750 2215 4408
Q 2509 4066 2509 3481
Q 2509 2891 2217 2550
Q 1925 2209 1428 2209
Q 931 2209 642 2551
Q 353 2894 353 3481
Q 353 4063 643 4406
Q 934 4750 1428 4750
z
" transform="scale(0.015625)"/>
       <path id="DejaVuSans-c" d="M 513 4856
L 1013 4856
Q 1481 4119 1714 3412
Q 1947 2706 1947 2009
Q 1947 1309 1714 600
Q 1481 -109 1013 -844
L 513 -844
Q 928 -128 1133 580
Q 1338 1288 1338 2009
Q 1338 2731 1133 3434
Q 928 4138 513 4856
z
" transform="scale(0.015625)"/>
      </defs>
      <use xlink:href="#DejaVuSans-27"/>
      <use xlink:href="#DejaVuSans-48" transform="translate(77 0)"/>
      <use xlink:href="#DejaVuSans-46" transform="translate(138.53125 0)"/>
      <use xlink:href="#DejaVuSans-4c" transform="translate(193.515625 0)"/>
      <use xlink:href="#DejaVuSans-56" transform="translate(221.296875 0)"/>
      <use xlink:href="#DejaVuSans-4c" transform="translate(273.390625 0)"/>
      <use xlink:href="#DejaVuSans-52" transform="translate(301.171875 0)"/>
      <use xlink:href="#DejaVuSans-51" transform="translate(362.359375 0)"/>
      <use xlink:href="#DejaVuSans-56" transform="translate(425.734375 0)"/>
      <use xlink:href="#DejaVuSans-f" transform="translate(477.828125 0)"/>
      <use xlink:href="#DejaVuSans-3" transform="translate(509.609375 0)"/>
      <use xlink:href="#DejaVuSans-57" transform="translate(541.390625 0)"/>
      <use xlink:href="#DejaVuSans-44" transform="translate(580.59375 0)"/>
      <use xlink:href="#DejaVuSans-56" transform="translate(641.875 0)"/>
      <use xlink:href="#DejaVuSans-4e" transform="translate(693.96875 0)"/>
      <use xlink:href="#DejaVuSans-10" transform="translate(751.875 0)"/>
      <use xlink:href="#DejaVuSans-5a" transform="translate(787.953125 0)"/>
      <use xlink:href="#DejaVuSans-48" transform="translate(869.734375 0)"/>
      <use xlink:href="#DejaVuSans-4c" transform="translate(931.265625 0)"/>
      <use xlink:href="#DejaVuSans-4a" transform="translate(959.046875 0)"/>
      <use xlink:href="#DejaVuSans-4b" transform="translate(1022.53125 0)"/>
      <use xlink:href="#DejaVuSans-57" transform="translate(1085.90625 0)"/>
      <use xlink:href="#DejaVuSans-48" transform="translate(1125.109375 0)"/>
      <use xlink:href="#DejaVuSans-47" transform="translate(1186.640625 0)"/>
      <use xlink:href="#DejaVuSans-3" transform="translate(1250.125 0)"/>
      <use xlink:href="#DejaVuSans-b" transform="translate(1281.90625 0)"/>
      <use xlink:href="#DejaVuSans-8" transform="translate(1320.921875 0)"/>
      <use xlink:href="#DejaVuSans-c" transform="translate(1415.9375 0)"/>
     </g>
    </g>
   </g>
   <g id="LineCollection_5">
    <path d="M 402.559842 134.452299
L 402.559842 110.831322
" clip-path="url(#pcd2df86642)" style="fill: none; stroke: #30343b; stroke-width: 0.8"/>
    <path d="M 442.146746 157.083121
L 442.146746 143.973706
" clip-path="url(#pcd2df86642)" style="fill: none; stroke: #30343b; stroke-width: 0.8"/>
    <path d="M 481.73365 157.127011
L 481.73365 143.994623
" clip-path="url(#pcd2df86642)" style="fill: none; stroke: #30343b; stroke-width: 0.8"/>
    <path d="M 521.320554 158.553559
L 521.320554 143.926607
" clip-path="url(#pcd2df86642)" style="fill: none; stroke: #30343b; stroke-width: 0.8"/>
    <path d="M 560.907458 148.941434
L 560.907458 130.971325
" clip-path="url(#pcd2df86642)" style="fill: none; stroke: #30343b; stroke-width: 0.8"/>
    <path d="M 600.494362 146.519435
L 600.494362 130.130769
" clip-path="url(#pcd2df86642)" style="fill: none; stroke: #30343b; stroke-width: 0.8"/>
    <path d="M 640.081266 153.065412
L 640.081266 137.101726
" clip-path="url(#pcd2df86642)" style="fill: none; stroke: #30343b; stroke-width: 0.8"/>
    <path d="M 679.66817 127.641471
L 679.66817 107.67092
" clip-path="url(#pcd2df86642)" style="fill: none; stroke: #30343b; stroke-width: 0.8"/>
   </g>
   <g id="line2d_36">
    <defs>
     <path id="mff753a2534" d="M 2 0
L -2 -0
" style="stroke: #30343b"/>
    </defs>
    <g clip-path="url(#pcd2df86642)">
     <use xlink:href="#mff753a2534" x="402.559842" y="134.452299" style="fill: #30343b; stroke: #30343b"/>
     <use xlink:href="#mff753a2534" x="442.146746" y="157.083121" style="fill: #30343b; stroke: #30343b"/>
     <use xlink:href="#mff753a2534" x="481.73365" y="157.127011" style="fill: #30343b; stroke: #30343b"/>
     <use xlink:href="#mff753a2534" x="521.320554" y="158.553559" style="fill: #30343b; stroke: #30343b"/>
     <use xlink:href="#mff753a2534" x="560.907458" y="148.941434" style="fill: #30343b; stroke: #30343b"/>
     <use xlink:href="#mff753a2534" x="600.494362" y="146.519435" style="fill: #30343b; stroke: #30343b"/>
     <use xlink:href="#mff753a2534" x="640.081266" y="153.065412" style="fill: #30343b; stroke: #30343b"/>
     <use xlink:href="#mff753a2534" x="679.66817" y="127.641471" style="fill: #30343b; stroke: #30343b"/>
    </g>
   </g>
   <g id="line2d_37">
    <g clip-path="url(#pcd2df86642)">
     <use xlink:href="#mff753a2534" x="402.559842" y="110.831322" style="fill: #30343b; stroke: #30343b"/>
     <use xlink:href="#mff753a2534" x="442.146746" y="143.973706" style="fill: #30343b; stroke: #30343b"/>
     <use xlink:href="#mff753a2534" x="481.73365" y="143.994623" style="fill: #30343b; stroke: #30343b"/>
     <use xlink:href="#mff753a2534" x="521.320554" y="143.926607" style="fill: #30343b; stroke: #30343b"/>
     <use xlink:href="#mff753a2534" x="560.907458" y="130.971325" style="fill: #30343b; stroke: #30343b"/>
     <use xlink:href="#mff753a2534" x="600.494362" y="130.130769" style="fill: #30343b; stroke: #30343b"/>
     <use xlink:href="#mff753a2534" x="640.081266" y="137.101726" style="fill: #30343b; stroke: #30343b"/>
     <use xlink:href="#mff753a2534" x="679.66817" y="107.67092" style="fill: #30343b; stroke: #30343b"/>
    </g>
   </g>
   <g id="patch_14">
    <path d="M 373.028011 205.485656
L 373.028011 65.576469
" style="fill: none; stroke: #000000; stroke-width: 0.8; stroke-linejoin: miter; stroke-linecap: square"/>
   </g>
   <g id="patch_15">
    <path d="M 373.028011 205.485656
L 709.2 205.485656
" style="fill: none; stroke: #000000; stroke-width: 0.8; stroke-linejoin: miter; stroke-linecap: square"/>
   </g>
   <g id="text_29">
    <!-- 16% -->
    <g transform="translate(393.669217 106.095696) scale(0.08 -0.08)">
     <use xlink:href="#DejaVuSans-14"/>
     <use xlink:href="#DejaVuSans-19" transform="translate(63.625 0)"/>
     <use xlink:href="#DejaVuSans-8" transform="translate(127.25 0)"/>
    </g>
   </g>
   <g id="text_30">
    <!-- 10% -->
    <g transform="translate(433.256121 139.23808) scale(0.08 -0.08)">
     <use xlink:href="#DejaVuSans-14"/>
     <use xlink:href="#DejaVuSans-13" transform="translate(63.625 0)"/>
     <use xlink:href="#DejaVuSans-8" transform="translate(127.25 0)"/>
    </g>
   </g>
   <g id="text_31">
    <!-- 10% -->
    <g transform="translate(472.843025 139.258997) scale(0.08 -0.08)">
     <use xlink:href="#DejaVuSans-14"/>
     <use xlink:href="#DejaVuSans-13" transform="translate(63.625 0)"/>
     <use xlink:href="#DejaVuSans-8" transform="translate(127.25 0)"/>
    </g>
   </g>
   <g id="text_32">
    <!-- 10% -->
    <g transform="translate(512.429929 139.190981) scale(0.08 -0.08)">
     <use xlink:href="#DejaVuSans-14"/>
     <use xlink:href="#DejaVuSans-13" transform="translate(63.625 0)"/>
     <use xlink:href="#DejaVuSans-8" transform="translate(127.25 0)"/>
    </g>
   </g>
   <g id="text_33">
    <!-- 12% -->
    <g transform="translate(552.016833 126.2357) scale(0.08 -0.08)">
     <use xlink:href="#DejaVuSans-14"/>
     <use xlink:href="#DejaVuSans-15" transform="translate(63.625 0)"/>
     <use xlink:href="#DejaVuSans-8" transform="translate(127.25 0)"/>
    </g>
   </g>
   <g id="text_34">
    <!-- 13% -->
    <g transform="translate(591.603737 125.395143) scale(0.08 -0.08)">
     <use xlink:href="#DejaVuSans-14"/>
     <use xlink:href="#DejaVuSans-16" transform="translate(63.625 0)"/>
     <use xlink:href="#DejaVuSans-8" transform="translate(127.25 0)"/>
    </g>
   </g>
   <g id="text_35">
    <!-- 11% -->
    <g transform="translate(631.190641 132.3661) scale(0.08 -0.08)">
     <use xlink:href="#DejaVuSans-14"/>
     <use xlink:href="#DejaVuSans-14" transform="translate(63.625 0)"/>
     <use xlink:href="#DejaVuSans-8" transform="translate(127.25 0)"/>
    </g>
   </g>
   <g id="text_36">
    <!-- 17% -->
    <g transform="translate(670.777545 102.935294) scale(0.08 -0.08)">
     <use xlink:href="#DejaVuSans-14"/>
     <use xlink:href="#DejaVuSans-1a" transform="translate(63.625 0)"/>
     <use xlink:href="#DejaVuSans-8" transform="translate(127.25 0)"/>
    </g>
   </g>
   <g id="text_37">
    <!-- What do the extra 7 candidates add? -->
    <g transform="translate(373.028011 59.576469) scale(0.11 -0.11)">
     <defs>
      <path id="DejaVuSans-Bold-3a" d="M 191 4666
L 1344 4666
L 2150 1275
L 2950 4666
L 4109 4666
L 4909 1275
L 5716 4666
L 6859 4666
L 5759 0
L 4372 0
L 3525 3547
L 2688 0
L 1300 0
L 191 4666
z
" transform="scale(0.015625)"/>
      <path id="DejaVuSans-Bold-4b" d="M 4056 2131
L 4056 0
L 2931 0
L 2931 347
L 2931 1625
Q 2931 2084 2911 2256
Q 2891 2428 2841 2509
Q 2775 2619 2662 2680
Q 2550 2741 2406 2741
Q 2056 2741 1856 2470
Q 1656 2200 1656 1722
L 1656 0
L 538 0
L 538 4863
L 1656 4863
L 1656 2988
Q 1909 3294 2193 3439
Q 2478 3584 2822 3584
Q 3428 3584 3742 3212
Q 4056 2841 4056 2131
z
" transform="scale(0.015625)"/>
      <path id="DejaVuSans-Bold-5b" d="M 1422 1791
L 159 3500
L 1344 3500
L 2059 2463
L 2784 3500
L 3969 3500
L 2706 1797
L 4031 0
L 2847 0
L 2059 1106
L 1281 0
L 97 0
L 1422 1791
z
" transform="scale(0.015625)"/>
      <path id="DejaVuSans-Bold-1a" d="M 428 4666
L 3944 4666
L 3944 3988
L 2125 0
L 953 0
L 2675 3781
L 428 3781
L 428 4666
z
" transform="scale(0.015625)"/>
      <path id="DejaVuSans-Bold-22" d="M 2216 1575
L 1088 1575
L 1088 1728
Q 1088 1984 1191 2182
Q 1294 2381 1625 2688
L 1825 2869
Q 2003 3031 2086 3175
Q 2169 3319 2169 3463
Q 2169 3681 2019 3804
Q 1869 3928 1600 3928
Q 1347 3928 1053 3823
Q 759 3719 441 3513
L 441 4494
Q 819 4625 1131 4687
Q 1444 4750 1734 4750
Q 2497 4750 2897 4439
Q 3297 4128 3297 3531
Q 3297 3225 3175 2983
Q 3053 2741 2759 2463
L 2559 2284
Q 2347 2091 2281 1973
Q 2216 1856 2216 1716
L 2216 1575
z
M 1088 1113
L 2216 1113
L 2216 0
L 1088 0
L 1088 1113
z
" transform="scale(0.015625)"/>
     </defs>
     <use xlink:href="#DejaVuSans-Bold-3a"/>
     <use xlink:href="#DejaVuSans-Bold-4b" transform="translate(110.296875 0)"/>
     <use xlink:href="#DejaVuSans-Bold-44" transform="translate(181.484375 0)"/>
     <use xlink:href="#DejaVuSans-Bold-57" transform="translate(248.96875 0)"/>
     <use xlink:href="#DejaVuSans-Bold-3" transform="translate(296.765625 0)"/>
     <use xlink:href="#DejaVuSans-Bold-47" transform="translate(331.578125 0)"/>
     <use xlink:href="#DejaVuSans-Bold-52" transform="translate(403.15625 0)"/>
     <use xlink:href="#DejaVuSans-Bold-3" transform="translate(471.859375 0)"/>
     <use xlink:href="#DejaVuSans-Bold-57" transform="translate(506.671875 0)"/>
     <use xlink:href="#DejaVuSans-Bold-4b" transform="translate(554.46875 0)"/>
     <use xlink:href="#DejaVuSans-Bold-48" transform="translate(625.65625 0)"/>
     <use xlink:href="#DejaVuSans-Bold-3" transform="translate(693.484375 0)"/>
     <use xlink:href="#DejaVuSans-Bold-48" transform="translate(728.296875 0)"/>
     <use xlink:href="#DejaVuSans-Bold-5b" transform="translate(796.125 0)"/>
     <use xlink:href="#DejaVuSans-Bold-57" transform="translate(860.625 0)"/>
     <use xlink:href="#DejaVuSans-Bold-55" transform="translate(908.421875 0)"/>
     <use xlink:href="#DejaVuSans-Bold-44" transform="translate(957.734375 0)"/>
     <use xlink:href="#DejaVuSans-Bold-3" transform="translate(1025.21875 0)"/>
     <use xlink:href="#DejaVuSans-Bold-1a" transform="translate(1060.03125 0)"/>
     <use xlink:href="#DejaVuSans-Bold-3" transform="translate(1129.609375 0)"/>
     <use xlink:href="#DejaVuSans-Bold-46" transform="translate(1164.421875 0)"/>
     <use xlink:href="#DejaVuSans-Bold-44" transform="translate(1223.703125 0)"/>
     <use xlink:href="#DejaVuSans-Bold-51" transform="translate(1291.1875 0)"/>
     <use xlink:href="#DejaVuSans-Bold-47" transform="translate(1362.375 0)"/>
     <use xlink:href="#DejaVuSans-Bold-4c" transform="translate(1433.953125 0)"/>
     <use xlink:href="#DejaVuSans-Bold-47" transform="translate(1468.234375 0)"/>
     <use xlink:href="#DejaVuSans-Bold-44" transform="translate(1539.8125 0)"/>
     <use xlink:href="#DejaVuSans-Bold-57" transform="translate(1607.296875 0)"/>
     <use xlink:href="#DejaVuSans-Bold-48" transform="translate(1655.09375 0)"/>
     <use xlink:href="#DejaVuSans-Bold-56" transform="translate(1722.921875 0)"/>
     <use xlink:href="#DejaVuSans-Bold-3" transform="translate(1782.4375 0)"/>
     <use xlink:href="#DejaVuSans-Bold-44" transform="translate(1817.25 0)"/>
     <use xlink:href="#DejaVuSans-Bold-47" transform="translate(1884.734375 0)"/>
     <use xlink:href="#DejaVuSans-Bold-47" transform="translate(1956.3125 0)"/>
     <use xlink:href="#DejaVuSans-Bold-22" transform="translate(2027.890625 0)"/>
    </g>
   </g>
  </g>
  <g id="text_38">
   <!-- Sol N=10: diversity of saved action proposals -->
   <g transform="translate(193.036328 12.613969) scale(0.13 -0.13)">
    <defs>
     <path id="DejaVuSans-Bold-4f" d="M 538 4863
L 1656 4863
L 1656 0
L 538 0
L 538 4863
z
" transform="scale(0.015625)"/>
     <path id="DejaVuSans-Bold-31" d="M 588 4666
L 1931 4666
L 3628 1466
L 3628 4666
L 4769 4666
L 4769 0
L 3425 0
L 1728 3200
L 1728 0
L 588 0
L 588 4666
z
" transform="scale(0.015625)"/>
     <path id="DejaVuSans-Bold-20" d="M 678 3084
L 4684 3084
L 4684 2350
L 678 2350
L 678 3084
z
M 678 1663
L 4684 1663
L 4684 922
L 678 922
L 678 1663
z
" transform="scale(0.015625)"/>
     <path id="DejaVuSans-Bold-14" d="M 750 831
L 1813 831
L 1813 3847
L 722 3622
L 722 4441
L 1806 4666
L 2950 4666
L 2950 831
L 4013 831
L 4013 0
L 750 0
L 750 831
z
" transform="scale(0.015625)"/>
     <path id="DejaVuSans-Bold-13" d="M 2944 2338
Q 2944 3213 2780 3570
Q 2616 3928 2228 3928
Q 1841 3928 1675 3570
Q 1509 3213 1509 2338
Q 1509 1453 1675 1090
Q 1841 728 2228 728
Q 2613 728 2778 1090
Q 2944 1453 2944 2338
z
M 4147 2328
Q 4147 1169 3647 539
Q 3147 -91 2228 -91
Q 1306 -91 806 539
Q 306 1169 306 2328
Q 306 3491 806 4120
Q 1306 4750 2228 4750
Q 3147 4750 3647 4120
Q 4147 3491 4147 2328
z
" transform="scale(0.015625)"/>
     <path id="DejaVuSans-Bold-1d" d="M 716 3500
L 1844 3500
L 1844 2291
L 716 2291
L 716 3500
z
M 716 1209
L 1844 1209
L 1844 0
L 716 0
L 716 1209
z
" transform="scale(0.015625)"/>
     <path id="DejaVuSans-Bold-59" d="M 97 3500
L 1216 3500
L 2088 1081
L 2956 3500
L 4078 3500
L 2700 0
L 1472 0
L 97 3500
z
" transform="scale(0.015625)"/>
     <path id="DejaVuSans-Bold-5c" d="M 78 3500
L 1197 3500
L 2138 1125
L 2938 3500
L 4056 3500
L 2584 -331
Q 2363 -916 2067 -1148
Q 1772 -1381 1288 -1381
L 641 -1381
L 641 -647
L 991 -647
Q 1275 -647 1404 -556
Q 1534 -466 1606 -231
L 1638 -134
L 78 3500
z
" transform="scale(0.015625)"/>
     <path id="DejaVuSans-Bold-49" d="M 2841 4863
L 2841 4128
L 2222 4128
Q 1984 4128 1890 4042
Q 1797 3956 1797 3744
L 1797 3500
L 2753 3500
L 2753 2700
L 1797 2700
L 1797 0
L 678 0
L 678 2700
L 122 2700
L 122 3500
L 678 3500
L 678 3744
Q 678 4316 997 4589
Q 1316 4863 1984 4863
L 2841 4863
z
" transform="scale(0.015625)"/>
     <path id="DejaVuSans-Bold-53" d="M 1656 506
L 1656 -1331
L 538 -1331
L 538 3500
L 1656 3500
L 1656 2988
Q 1888 3294 2169 3439
Q 2450 3584 2816 3584
Q 3463 3584 3878 3070
Q 4294 2556 4294 1747
Q 4294 938 3878 423
Q 3463 -91 2816 -91
Q 2450 -91 2169 54
Q 1888 200 1656 506
z
M 2400 2772
Q 2041 2772 1848 2508
Q 1656 2244 1656 1747
Q 1656 1250 1848 986
Q 2041 722 2400 722
Q 2759 722 2948 984
Q 3138 1247 3138 1747
Q 3138 2247 2948 2509
Q 2759 2772 2400 2772
z
" transform="scale(0.015625)"/>
    </defs>
    <use xlink:href="#DejaVuSans-Bold-36"/>
    <use xlink:href="#DejaVuSans-Bold-52" transform="translate(72.015625 0)"/>
    <use xlink:href="#DejaVuSans-Bold-4f" transform="translate(140.71875 0)"/>
    <use xlink:href="#DejaVuSans-Bold-3" transform="translate(175 0)"/>
    <use xlink:href="#DejaVuSans-Bold-31" transform="translate(209.8125 0)"/>
    <use xlink:href="#DejaVuSans-Bold-20" transform="translate(293.5 0)"/>
    <use xlink:href="#DejaVuSans-Bold-14" transform="translate(377.296875 0)"/>
    <use xlink:href="#DejaVuSans-Bold-13" transform="translate(446.875 0)"/>
    <use xlink:href="#DejaVuSans-Bold-1d" transform="translate(516.453125 0)"/>
    <use xlink:href="#DejaVuSans-Bold-3" transform="translate(556.4375 0)"/>
    <use xlink:href="#DejaVuSans-Bold-47" transform="translate(591.25 0)"/>
    <use xlink:href="#DejaVuSans-Bold-4c" transform="translate(662.828125 0)"/>
    <use xlink:href="#DejaVuSans-Bold-59" transform="translate(697.109375 0)"/>
    <use xlink:href="#DejaVuSans-Bold-48" transform="translate(762.296875 0)"/>
    <use xlink:href="#DejaVuSans-Bold-55" transform="translate(830.125 0)"/>
    <use xlink:href="#DejaVuSans-Bold-56" transform="translate(879.4375 0)"/>
    <use xlink:href="#DejaVuSans-Bold-4c" transform="translate(938.953125 0)"/>
    <use xlink:href="#DejaVuSans-Bold-57" transform="translate(973.234375 0)"/>
    <use xlink:href="#DejaVuSans-Bold-5c" transform="translate(1021.03125 0)"/>
    <use xlink:href="#DejaVuSans-Bold-3" transform="translate(1086.21875 0)"/>
    <use xlink:href="#DejaVuSans-Bold-52" transform="translate(1121.03125 0)"/>
    <use xlink:href="#DejaVuSans-Bold-49" transform="translate(1189.734375 0)"/>
    <use xlink:href="#DejaVuSans-Bold-3" transform="translate(1233.234375 0)"/>
    <use xlink:href="#DejaVuSans-Bold-56" transform="translate(1268.046875 0)"/>
    <use xlink:href="#DejaVuSans-Bold-44" transform="translate(1327.5625 0)"/>
    <use xlink:href="#DejaVuSans-Bold-59" transform="translate(1395.046875 0)"/>
    <use xlink:href="#DejaVuSans-Bold-48" transform="translate(1460.234375 0)"/>
    <use xlink:href="#DejaVuSans-Bold-47" transform="translate(1528.0625 0)"/>
    <use xlink:href="#DejaVuSans-Bold-3" transform="translate(1599.640625 0)"/>
    <use xlink:href="#DejaVuSans-Bold-44" transform="translate(1634.453125 0)"/>
    <use xlink:href="#DejaVuSans-Bold-46" transform="translate(1701.9375 0)"/>
    <use xlink:href="#DejaVuSans-Bold-57" transform="translate(1761.21875 0)"/>
    <use xlink:href="#DejaVuSans-Bold-4c" transform="translate(1809.015625 0)"/>
    <use xlink:href="#DejaVuSans-Bold-52" transform="translate(1843.296875 0)"/>
    <use xlink:href="#DejaVuSans-Bold-51" transform="translate(1912 0)"/>
    <use xlink:href="#DejaVuSans-Bold-3" transform="translate(1983.1875 0)"/>
    <use xlink:href="#DejaVuSans-Bold-53" transform="translate(2018 0)"/>
    <use xlink:href="#DejaVuSans-Bold-55" transform="translate(2089.578125 0)"/>
    <use xlink:href="#DejaVuSans-Bold-52" transform="translate(2138.890625 0)"/>
    <use xlink:href="#DejaVuSans-Bold-53" transform="translate(2207.59375 0)"/>
    <use xlink:href="#DejaVuSans-Bold-52" transform="translate(2279.171875 0)"/>
    <use xlink:href="#DejaVuSans-Bold-56" transform="translate(2347.875 0)"/>
    <use xlink:href="#DejaVuSans-Bold-44" transform="translate(2407.390625 0)"/>
    <use xlink:href="#DejaVuSans-Bold-4f" transform="translate(2474.875 0)"/>
    <use xlink:href="#DejaVuSans-Bold-56" transform="translate(2509.15625 0)"/>
   </g>
  </g>
  <g id="text_39">
   <!-- 4,205 saved decisions · 279 tasks · equal task weighting · 95% task-bootstrap intervals -->
   <g style="fill: #40434a" transform="translate(185.029375 259.893812) scale(0.08 -0.08)">
    <defs>
     <path id="DejaVuSans-59" d="M 191 3500
L 800 3500
L 1894 563
L 2988 3500
L 3597 3500
L 2284 0
L 1503 0
L 191 3500
z
" transform="scale(0.015625)"/>
     <path id="DejaVuSans-79" d="M 684 2619
L 1344 2619
L 1344 1825
L 684 1825
L 684 2619
z
" transform="scale(0.015625)"/>
     <path id="DejaVuSans-1c" d="M 703 97
L 703 672
Q 941 559 1184 500
Q 1428 441 1663 441
Q 2288 441 2617 861
Q 2947 1281 2994 2138
Q 2813 1869 2534 1725
Q 2256 1581 1919 1581
Q 1219 1581 811 2004
Q 403 2428 403 3163
Q 403 3881 828 4315
Q 1253 4750 1959 4750
Q 2769 4750 3195 4129
Q 3622 3509 3622 2328
Q 3622 1225 3098 567
Q 2575 -91 1691 -91
Q 1453 -91 1209 -44
Q 966 3 703 97
z
M 1959 2075
Q 2384 2075 2632 2365
Q 2881 2656 2881 3163
Q 2881 3666 2632 3958
Q 2384 4250 1959 4250
Q 1534 4250 1286 3958
Q 1038 3666 1038 3163
Q 1038 2656 1286 2365
Q 1534 2075 1959 2075
z
" transform="scale(0.015625)"/>
     <path id="DejaVuSans-54" d="M 947 1747
Q 947 1113 1208 752
Q 1469 391 1925 391
Q 2381 391 2643 752
Q 2906 1113 2906 1747
Q 2906 2381 2643 2742
Q 2381 3103 1925 3103
Q 1469 3103 1208 2742
Q 947 2381 947 1747
z
M 2906 525
Q 2725 213 2448 61
Q 2172 -91 1784 -91
Q 1150 -91 751 415
Q 353 922 353 1747
Q 353 2572 751 3078
Q 1150 3584 1784 3584
Q 2172 3584 2448 3432
Q 2725 3281 2906 2969
L 2906 3500
L 3481 3500
L 3481 -1331
L 2906 -1331
L 2906 525
z
" transform="scale(0.015625)"/>
     <path id="DejaVuSans-58" d="M 544 1381
L 544 3500
L 1119 3500
L 1119 1403
Q 1119 906 1312 657
Q 1506 409 1894 409
Q 2359 409 2629 706
Q 2900 1003 2900 1516
L 2900 3500
L 3475 3500
L 3475 0
L 2900 0
L 2900 538
Q 2691 219 2414 64
Q 2138 -91 1772 -91
Q 1169 -91 856 284
Q 544 659 544 1381
z
M 1991 3584
L 1991 3584
z
" transform="scale(0.015625)"/>
    </defs>
    <use xlink:href="#DejaVuSans-17"/>
    <use xlink:href="#DejaVuSans-f" transform="translate(63.625 0)"/>
    <use xlink:href="#DejaVuSans-15" transform="translate(95.40625 0)"/>
    <use xlink:href="#DejaVuSans-13" transform="translate(159.03125 0)"/>
    <use xlink:href="#DejaVuSans-18" transform="translate(222.65625 0)"/>
    <use xlink:href="#DejaVuSans-3" transform="translate(286.28125 0)"/>
    <use xlink:href="#DejaVuSans-56" transform="translate(318.0625 0)"/>
    <use xlink:href="#DejaVuSans-44" transform="translate(370.15625 0)"/>
    <use xlink:href="#DejaVuSans-59" transform="translate(431.4375 0)"/>
    <use xlink:href="#DejaVuSans-48" transform="translate(490.625 0)"/>
    <use xlink:href="#DejaVuSans-47" transform="translate(552.15625 0)"/>
    <use xlink:href="#DejaVuSans-3" transform="translate(615.640625 0)"/>
    <use xlink:href="#DejaVuSans-47" transform="translate(647.421875 0)"/>
    <use xlink:href="#DejaVuSans-48" transform="translate(710.90625 0)"/>
    <use xlink:href="#DejaVuSans-46" transform="translate(772.4375 0)"/>
    <use xlink:href="#DejaVuSans-4c" transform="translate(827.421875 0)"/>
    <use xlink:href="#DejaVuSans-56" transform="translate(855.203125 0)"/>
    <use xlink:href="#DejaVuSans-4c" transform="translate(907.296875 0)"/>
    <use xlink:href="#DejaVuSans-52" transform="translate(935.078125 0)"/>
    <use xlink:href="#DejaVuSans-51" transform="translate(996.265625 0)"/>
    <use xlink:href="#DejaVuSans-56" transform="translate(1059.640625 0)"/>
    <use xlink:href="#DejaVuSans-3" transform="translate(1111.734375 0)"/>
    <use xlink:href="#DejaVuSans-79" transform="translate(1143.515625 0)"/>
    <use xlink:href="#DejaVuSans-3" transform="translate(1175.296875 0)"/>
    <use xlink:href="#DejaVuSans-15" transform="translate(1207.078125 0)"/>
    <use xlink:href="#DejaVuSans-1a" transform="translate(1270.703125 0)"/>
    <use xlink:href="#DejaVuSans-1c" transform="translate(1334.328125 0)"/>
    <use xlink:href="#DejaVuSans-3" transform="translate(1397.953125 0)"/>
    <use xlink:href="#DejaVuSans-57" transform="translate(1429.734375 0)"/>
    <use xlink:href="#DejaVuSans-44" transform="translate(1468.9375 0)"/>
    <use xlink:href="#DejaVuSans-56" transform="translate(1530.21875 0)"/>
    <use xlink:href="#DejaVuSans-4e" transform="translate(1582.3125 0)"/>
    <use xlink:href="#DejaVuSans-56" transform="translate(1640.21875 0)"/>
    <use xlink:href="#DejaVuSans-3" transform="translate(1692.3125 0)"/>
    <use xlink:href="#DejaVuSans-79" transform="translate(1724.09375 0)"/>
    <use xlink:href="#DejaVuSans-3" transform="translate(1755.875 0)"/>
    <use xlink:href="#DejaVuSans-48" transform="translate(1787.65625 0)"/>
    <use xlink:href="#DejaVuSans-54" transform="translate(1849.1875 0)"/>
    <use xlink:href="#DejaVuSans-58" transform="translate(1912.671875 0)"/>
    <use xlink:href="#DejaVuSans-44" transform="translate(1976.046875 0)"/>
    <use xlink:href="#DejaVuSans-4f" transform="translate(2037.328125 0)"/>
    <use xlink:href="#DejaVuSans-3" transform="translate(2065.109375 0)"/>
    <use xlink:href="#DejaVuSans-57" transform="translate(2096.890625 0)"/>
    <use xlink:href="#DejaVuSans-44" transform="translate(2136.09375 0)"/>
    <use xlink:href="#DejaVuSans-56" transform="translate(2197.375 0)"/>
    <use xlink:href="#DejaVuSans-4e" transform="translate(2249.46875 0)"/>
    <use xlink:href="#DejaVuSans-3" transform="translate(2307.375 0)"/>
    <use xlink:href="#DejaVuSans-5a" transform="translate(2339.15625 0)"/>
    <use xlink:href="#DejaVuSans-48" transform="translate(2420.9375 0)"/>
    <use xlink:href="#DejaVuSans-4c" transform="translate(2482.46875 0)"/>
    <use xlink:href="#DejaVuSans-4a" transform="translate(2510.25 0)"/>
    <use xlink:href="#DejaVuSans-4b" transform="translate(2573.734375 0)"/>
    <use xlink:href="#DejaVuSans-57" transform="translate(2637.109375 0)"/>
    <use xlink:href="#DejaVuSans-4c" transform="translate(2676.3125 0)"/>
    <use xlink:href="#DejaVuSans-51" transform="translate(2704.09375 0)"/>
    <use xlink:href="#DejaVuSans-4a" transform="translate(2767.46875 0)"/>
    <use xlink:href="#DejaVuSans-3" transform="translate(2830.953125 0)"/>
    <use xlink:href="#DejaVuSans-79" transform="translate(2862.734375 0)"/>
    <use xlink:href="#DejaVuSans-3" transform="translate(2894.515625 0)"/>
    <use xlink:href="#DejaVuSans-1c" transform="translate(2926.296875 0)"/>
    <use xlink:href="#DejaVuSans-18" transform="translate(2989.921875 0)"/>
    <use xlink:href="#DejaVuSans-8" transform="translate(3053.546875 0)"/>
    <use xlink:href="#DejaVuSans-3" transform="translate(3148.5625 0)"/>
    <use xlink:href="#DejaVuSans-57" transform="translate(3180.34375 0)"/>
    <use xlink:href="#DejaVuSans-44" transform="translate(3219.546875 0)"/>
    <use xlink:href="#DejaVuSans-56" transform="translate(3280.828125 0)"/>
    <use xlink:href="#DejaVuSans-4e" transform="translate(3332.921875 0)"/>
    <use xlink:href="#DejaVuSans-10" transform="translate(3390.828125 0)"/>
    <use xlink:href="#DejaVuSans-45" transform="translate(3426.90625 0)"/>
    <use xlink:href="#DejaVuSans-52" transform="translate(3490.390625 0)"/>
    <use xlink:href="#DejaVuSans-52" transform="translate(3551.578125 0)"/>
    <use xlink:href="#DejaVuSans-57" transform="translate(3612.765625 0)"/>
    <use xlink:href="#DejaVuSans-56" transform="translate(3651.96875 0)"/>
    <use xlink:href="#DejaVuSans-57" transform="translate(3704.0625 0)"/>
    <use xlink:href="#DejaVuSans-55" transform="translate(3743.265625 0)"/>
    <use xlink:href="#DejaVuSans-44" transform="translate(3784.375 0)"/>
    <use xlink:href="#DejaVuSans-53" transform="translate(3845.65625 0)"/>
    <use xlink:href="#DejaVuSans-3" transform="translate(3909.140625 0)"/>
    <use xlink:href="#DejaVuSans-4c" transform="translate(3940.921875 0)"/>
    <use xlink:href="#DejaVuSans-51" transform="translate(3968.703125 0)"/>
    <use xlink:href="#DejaVuSans-57" transform="translate(4032.078125 0)"/>
    <use xlink:href="#DejaVuSans-48" transform="translate(4071.28125 0)"/>
    <use xlink:href="#DejaVuSans-55" transform="translate(4132.8125 0)"/>
    <use xlink:href="#DejaVuSans-59" transform="translate(4173.921875 0)"/>
    <use xlink:href="#DejaVuSans-44" transform="translate(4233.109375 0)"/>
    <use xlink:href="#DejaVuSans-4f" transform="translate(4294.390625 0)"/>
    <use xlink:href="#DejaVuSans-56" transform="translate(4322.171875 0)"/>
   </g>
   <!-- Exact specifications distinguish coordinates and response text; coarse proxy merges 50-unit coordinate bins and terminal wording. -->
   <g style="fill: #40434a" transform="translate(97.529375 269.496) scale(0.08 -0.08)">
    <defs>
     <path id="DejaVuSans-1e" d="M 750 3309
L 1409 3309
L 1409 2516
L 750 2516
L 750 3309
z
M 750 794
L 1409 794
L 1409 256
L 897 -744
L 494 -744
L 750 256
L 750 794
z
" transform="scale(0.015625)"/>
     <path id="DejaVuSans-11" d="M 684 794
L 1344 794
L 1344 0
L 684 0
L 684 794
z
" transform="scale(0.015625)"/>
    </defs>
    <use xlink:href="#DejaVuSans-28"/>
    <use xlink:href="#DejaVuSans-5b" transform="translate(63.1875 0)"/>
    <use xlink:href="#DejaVuSans-44" transform="translate(122.375 0)"/>
    <use xlink:href="#DejaVuSans-46" transform="translate(183.65625 0)"/>
    <use xlink:href="#DejaVuSans-57" transform="translate(238.640625 0)"/>
    <use xlink:href="#DejaVuSans-3" transform="translate(277.84375 0)"/>
    <use xlink:href="#DejaVuSans-56" transform="translate(309.625 0)"/>
    <use xlink:href="#DejaVuSans-53" transform="translate(361.71875 0)"/>
    <use xlink:href="#DejaVuSans-48" transform="translate(425.203125 0)"/>
    <use xlink:href="#DejaVuSans-46" transform="translate(486.734375 0)"/>
    <use xlink:href="#DejaVuSans-4c" transform="translate(541.71875 0)"/>
    <use xlink:href="#DejaVuSans-13af" transform="translate(569.5 0)"/>
    <use xlink:href="#DejaVuSans-46" transform="translate(632.484375 0)"/>
    <use xlink:href="#DejaVuSans-44" transform="translate(687.46875 0)"/>
    <use xlink:href="#DejaVuSans-57" transform="translate(748.75 0)"/>
    <use xlink:href="#DejaVuSans-4c" transform="translate(787.953125 0)"/>
    <use xlink:href="#DejaVuSans-52" transform="translate(815.734375 0)"/>
    <use xlink:href="#DejaVuSans-51" transform="translate(876.921875 0)"/>
    <use xlink:href="#DejaVuSans-56" transform="translate(940.296875 0)"/>
    <use xlink:href="#DejaVuSans-3" transform="translate(992.390625 0)"/>
    <use xlink:href="#DejaVuSans-47" transform="translate(1024.171875 0)"/>
    <use xlink:href="#DejaVuSans-4c" transform="translate(1087.65625 0)"/>
    <use xlink:href="#DejaVuSans-56" transform="translate(1115.4375 0)"/>
    <use xlink:href="#DejaVuSans-57" transform="translate(1167.53125 0)"/>
    <use xlink:href="#DejaVuSans-4c" transform="translate(1206.734375 0)"/>
    <use xlink:href="#DejaVuSans-51" transform="translate(1234.515625 0)"/>
    <use xlink:href="#DejaVuSans-4a" transform="translate(1297.890625 0)"/>
    <use xlink:href="#DejaVuSans-58" transform="translate(1361.375 0)"/>
    <use xlink:href="#DejaVuSans-4c" transform="translate(1424.75 0)"/>
    <use xlink:href="#DejaVuSans-56" transform="translate(1452.53125 0)"/>
    <use xlink:href="#DejaVuSans-4b" transform="translate(1504.625 0)"/>
    <use xlink:href="#DejaVuSans-3" transform="translate(1568 0)"/>
    <use xlink:href="#DejaVuSans-46" transform="translate(1599.78125 0)"/>
    <use xlink:href="#DejaVuSans-52" transform="translate(1654.765625 0)"/>
    <use xlink:href="#DejaVuSans-52" transform="translate(1715.953125 0)"/>
    <use xlink:href="#DejaVuSans-55" transform="translate(1777.140625 0)"/>
    <use xlink:href="#DejaVuSans-47" transform="translate(1816.5 0)"/>
    <use xlink:href="#DejaVuSans-4c" transform="translate(1879.984375 0)"/>
    <use xlink:href="#DejaVuSans-51" transform="translate(1907.765625 0)"/>
    <use xlink:href="#DejaVuSans-44" transform="translate(1971.140625 0)"/>
    <use xlink:href="#DejaVuSans-57" transform="translate(2032.421875 0)"/>
    <use xlink:href="#DejaVuSans-48" transform="translate(2071.625 0)"/>
    <use xlink:href="#DejaVuSans-56" transform="translate(2133.15625 0)"/>
    <use xlink:href="#DejaVuSans-3" transform="translate(2185.25 0)"/>
    <use xlink:href="#DejaVuSans-44" transform="translate(2217.03125 0)"/>
    <use xlink:href="#DejaVuSans-51" transform="translate(2278.3125 0)"/>
    <use xlink:href="#DejaVuSans-47" transform="translate(2341.6875 0)"/>
    <use xlink:href="#DejaVuSans-3" transform="translate(2405.171875 0)"/>
    <use xlink:href="#DejaVuSans-55" transform="translate(2436.953125 0)"/>
    <use xlink:href="#DejaVuSans-48" transform="translate(2475.859375 0)"/>
    <use xlink:href="#DejaVuSans-56" transform="translate(2537.390625 0)"/>
    <use xlink:href="#DejaVuSans-53" transform="translate(2589.484375 0)"/>
    <use xlink:href="#DejaVuSans-52" transform="translate(2652.96875 0)"/>
    <use xlink:href="#DejaVuSans-51" transform="translate(2714.15625 0)"/>
    <use xlink:href="#DejaVuSans-56" transform="translate(2777.53125 0)"/>
    <use xlink:href="#DejaVuSans-48" transform="translate(2829.625 0)"/>
    <use xlink:href="#DejaVuSans-3" transform="translate(2891.15625 0)"/>
    <use xlink:href="#DejaVuSans-57" transform="translate(2922.9375 0)"/>
    <use xlink:href="#DejaVuSans-48" transform="translate(2962.140625 0)"/>
    <use xlink:href="#DejaVuSans-5b" transform="translate(3021.921875 0)"/>
    <use xlink:href="#DejaVuSans-57" transform="translate(3081.109375 0)"/>
    <use xlink:href="#DejaVuSans-1e" transform="translate(3120.3125 0)"/>
    <use xlink:href="#DejaVuSans-3" transform="translate(3154 0)"/>
    <use xlink:href="#DejaVuSans-46" transform="translate(3185.78125 0)"/>
    <use xlink:href="#DejaVuSans-52" transform="translate(3240.765625 0)"/>
    <use xlink:href="#DejaVuSans-44" transform="translate(3301.953125 0)"/>
    <use xlink:href="#DejaVuSans-55" transform="translate(3363.234375 0)"/>
    <use xlink:href="#DejaVuSans-56" transform="translate(3404.34375 0)"/>
    <use xlink:href="#DejaVuSans-48" transform="translate(3456.4375 0)"/>
    <use xlink:href="#DejaVuSans-3" transform="translate(3517.96875 0)"/>
    <use xlink:href="#DejaVuSans-53" transform="translate(3549.75 0)"/>
    <use xlink:href="#DejaVuSans-55" transform="translate(3613.234375 0)"/>
    <use xlink:href="#DejaVuSans-52" transform="translate(3652.140625 0)"/>
    <use xlink:href="#DejaVuSans-5b" transform="translate(3710.25 0)"/>
    <use xlink:href="#DejaVuSans-5c" transform="translate(3769.4375 0)"/>
    <use xlink:href="#DejaVuSans-3" transform="translate(3828.625 0)"/>
    <use xlink:href="#DejaVuSans-50" transform="translate(3860.40625 0)"/>
    <use xlink:href="#DejaVuSans-48" transform="translate(3957.8125 0)"/>
    <use xlink:href="#DejaVuSans-55" transform="translate(4019.34375 0)"/>
    <use xlink:href="#DejaVuSans-4a" transform="translate(4058.703125 0)"/>
    <use xlink:href="#DejaVuSans-48" transform="translate(4122.1875 0)"/>
    <use xlink:href="#DejaVuSans-56" transform="translate(4183.71875 0)"/>
    <use xlink:href="#DejaVuSans-3" transform="translate(4235.8125 0)"/>
    <use xlink:href="#DejaVuSans-18" transform="translate(4267.59375 0)"/>
    <use xlink:href="#DejaVuSans-13" transform="translate(4331.21875 0)"/>
    <use xlink:href="#DejaVuSans-10" transform="translate(4394.84375 0)"/>
    <use xlink:href="#DejaVuSans-58" transform="translate(4430.921875 0)"/>
    <use xlink:href="#DejaVuSans-51" transform="translate(4494.296875 0)"/>
    <use xlink:href="#DejaVuSans-4c" transform="translate(4557.671875 0)"/>
    <use xlink:href="#DejaVuSans-57" transform="translate(4585.453125 0)"/>
    <use xlink:href="#DejaVuSans-3" transform="translate(4624.65625 0)"/>
    <use xlink:href="#DejaVuSans-46" transform="translate(4656.4375 0)"/>
    <use xlink:href="#DejaVuSans-52" transform="translate(4711.421875 0)"/>
    <use xlink:href="#DejaVuSans-52" transform="translate(4772.609375 0)"/>
    <use xlink:href="#DejaVuSans-55" transform="translate(4833.796875 0)"/>
    <use xlink:href="#DejaVuSans-47" transform="translate(4873.15625 0)"/>
    <use xlink:href="#DejaVuSans-4c" transform="translate(4936.640625 0)"/>
    <use xlink:href="#DejaVuSans-51" transform="translate(4964.421875 0)"/>
    <use xlink:href="#DejaVuSans-44" transform="translate(5027.796875 0)"/>
    <use xlink:href="#DejaVuSans-57" transform="translate(5089.078125 0)"/>
    <use xlink:href="#DejaVuSans-48" transform="translate(5128.28125 0)"/>
    <use xlink:href="#DejaVuSans-3" transform="translate(5189.8125 0)"/>
    <use xlink:href="#DejaVuSans-45" transform="translate(5221.59375 0)"/>
    <use xlink:href="#DejaVuSans-4c" transform="translate(5285.078125 0)"/>
    <use xlink:href="#DejaVuSans-51" transform="translate(5312.859375 0)"/>
    <use xlink:href="#DejaVuSans-56" transform="translate(5376.234375 0)"/>
    <use xlink:href="#DejaVuSans-3" transform="translate(5428.328125 0)"/>
    <use xlink:href="#DejaVuSans-44" transform="translate(5460.109375 0)"/>
    <use xlink:href="#DejaVuSans-51" transform="translate(5521.390625 0)"/>
    <use xlink:href="#DejaVuSans-47" transform="translate(5584.765625 0)"/>
    <use xlink:href="#DejaVuSans-3" transform="translate(5648.25 0)"/>
    <use xlink:href="#DejaVuSans-57" transform="translate(5680.03125 0)"/>
    <use xlink:href="#DejaVuSans-48" transform="translate(5719.234375 0)"/>
    <use xlink:href="#DejaVuSans-55" transform="translate(5780.765625 0)"/>
    <use xlink:href="#DejaVuSans-50" transform="translate(5820.125 0)"/>
    <use xlink:href="#DejaVuSans-4c" transform="translate(5917.53125 0)"/>
    <use xlink:href="#DejaVuSans-51" transform="translate(5945.3125 0)"/>
    <use xlink:href="#DejaVuSans-44" transform="translate(6008.6875 0)"/>
    <use xlink:href="#DejaVuSans-4f" transform="translate(6069.96875 0)"/>
    <use xlink:href="#DejaVuSans-3" transform="translate(6097.75 0)"/>
    <use xlink:href="#DejaVuSans-5a" transform="translate(6129.53125 0)"/>
    <use xlink:href="#DejaVuSans-52" transform="translate(6211.3125 0)"/>
    <use xlink:href="#DejaVuSans-55" transform="translate(6272.5 0)"/>
    <use xlink:href="#DejaVuSans-47" transform="translate(6311.859375 0)"/>
    <use xlink:href="#DejaVuSans-4c" transform="translate(6375.34375 0)"/>
    <use xlink:href="#DejaVuSans-51" transform="translate(6403.125 0)"/>
    <use xlink:href="#DejaVuSans-4a" transform="translate(6466.5 0)"/>
    <use xlink:href="#DejaVuSans-11" transform="translate(6529.984375 0)"/>
   </g>
  </g>
 </g>
 <defs>
  <clipPath id="p51fdb29dcf">
   <rect x="38.602344" y="65.576469" width="280.143324" height="139.909187"/>
  </clipPath>
  <clipPath id="pcd2df86642">
   <rect x="373.028011" y="65.576469" width="336.171989" height="139.909187"/>
  </clipPath>
 </defs>
</svg>
